<?xml version="1.0" encoding="utf-8"?>
<!-- Generator: Adobe Illustrator 26.5.0, SVG Export Plug-In . SVG Version: 6.00 Build 0)  -->
<svg version="1.1" id="Layer_1" xmlns="http://www.w3.org/2000/svg" xmlns:xlink="http://www.w3.org/1999/xlink" x="0px" y="0px"
	 viewBox="0 0 2902.7 1376" style="enable-background:new 0 0 2902.7 1376;" xml:space="preserve">
<style type="text/css">
	.st0{fill:#231F20;}
	.st1{fill:none;stroke:#5C86C5;stroke-width:11;stroke-miterlimit:10;}
	.st2{fill:#FFFFFF;}
	.st3{fill:#5C86C5;}
	.st4{enable-background:new    ;}
</style>
<rect x="0.2" y="-0.2" class="st0" width="2902.8" height="1376.2"/>
<g>
	<g>
		<path class="st1" d="M2522.2,290.3c0,0,73,115.1,58.1,224.6c0,0-2.2,29.6-36.5,54.7c0,0-25.1,9.2,58.1,136.9
			c0,0,40,53.7-14.9,66.1c0,0-41,3.5-27.3,13.7c0,0,21.6,37.5,0,48c0,0,8,13.7,0,18.2c0,0,0,13.7-29.6,27.3c0,0-23.9,2.2,2.2,34.3
			c0,0,18.2,61.6-84.5,84.5c0,0-92.4,10.2-157.3-17.1c0,0-375.2-163-461.9,59.4c0,0-3.5-216.7,201.8-303.4
			c0,0,247.5-110.6,115.3-301.1c0,0-233.8-355.8,174.4-29.6C2320.4,406.6,2575.8,601.6,2522.2,290.3L2522.2,290.3z"/>
		<g>
			<g>
				<path class="st2" d="M277.4,640.2h5.7c7.1,0,10.8-1.6,13.3-8.8l88.5-239.5h42l88.6,239.5c2.5,7.1,6.3,8.8,13.3,8.8h5.9v34.5
					h-22.4c-20,0-26.5-4.9-32.9-23.3l-21.2-58.2H354.1l-21.2,58.2c-6.7,18.4-13.3,23.3-33.3,23.3h-22.2L277.4,640.2L277.4,640.2z
					 M448,559.8l-30.8-86.1c-5.3-14.9-11.2-39.6-11.2-39.6h-0.8c0,0-5.5,24.9-10.8,39.6l-30.8,86.1H448z"/>
				<path class="st2" d="M580.2,435.2c0-5.9-3.3-8.8-8.8-8.8h-17.1v-34.5h40.4c18,0,25.7,7.5,25.7,25.7v213.8c0,5.5,3.3,8.8,8.8,8.8
					h78.1c5.5,0,8.8-3.3,8.8-8.8v-18h36.5v35.7c0,18-7.5,25.7-25.7,25.7h-121c-18,0-25.7-7.5-25.7-25.7L580.2,435.2L580.2,435.2z"/>
				<path class="st2" d="M785.2,435.2c0-5.9-3.3-8.8-8.8-8.8h-17.1v-34.5h40.4c18,0,25.7,7.5,25.7,25.7v213.8c0,5.5,3.3,8.8,8.8,8.8
					h78.1c5.5,0,8.8-3.3,8.8-8.8v-18h36.5v35.7c0,18-7.5,25.7-25.7,25.7h-121c-18,0-25.7-7.5-25.7-25.7L785.2,435.2L785.2,435.2z"/>
			</g>
			<g>
				<path class="st2" d="M1187.8,387.2c81.6,0,145.5,62.8,145.5,144.2s-63.7,148.1-145.5,148.1s-145.1-64.9-145.1-148.1
					S1106.2,387.2,1187.8,387.2L1187.8,387.2z M1187.8,641.8c57.3,0,103.7-48.2,103.7-110.6s-46.5-106.9-103.7-106.9
					s-103.2,46.5-103.2,106.9C1084.6,593.9,1130.5,641.8,1187.8,641.8z"/>
				<path class="st2" d="M1362,640.2h17.1c5.5,0,8.8-3.3,8.8-8.8V391.9h36.5l125.7,178.9c10.4,15.3,23.7,38.4,23.7,38.4h0.8
					c0,0-2.9-22.4-2.9-38.4V417.4c0-18,7.6-25.7,26.1-25.7h40v34.5h-17.1c-5.5,0-8.8,2.9-8.8,8.8v239.5h-36.1l-126.1-178.9
					c-10.4-15.3-23.3-38.4-23.3-38.4h-0.8c0,0,2.4,22.9,2.4,38.4V649c0,18-7.6,25.7-25.7,25.7H1362L1362,640.2L1362,640.2z"/>
			</g>
			<path class="st2" d="M2408.3,290.3c0,0,73,115.3,58.1,224.6c0,0-2.2,29.6-36.5,54.7c0,0-25.1,9.2,58.1,136.9
				c0,0,40,53.7-14.9,66.1c0,0-41,3.5-27.3,13.7c0,0,21.6,37.5,0,48c0,0,8,13.7,0,18.2c0,0,0,13.7-29.6,27.3c0,0-23.9,2.2,2.2,34.3
				c0,0,18.2,61.6-84.5,84.5c0,0-92.4,10.2-157.3-17.1c0,0-375.2-163-461.9,59.4c0,0-3.5-216.7,201.8-303.4
				c0,0,247.5-110.6,115.3-301.1c0,0-233.8-355.8,174.4-29.6C2206.3,406.6,2462,601.6,2408.3,290.3L2408.3,290.3z"/>
			<path class="st2" d="M1738.3,574.1l127.3-182.2h45.7v173.4h44.1v34.5h-44.1v74.9h-40v-74.9h-133L1738.3,574.1L1738.3,574.1z
				 M1871.5,468c0-12.9,1.6-28.8,1.6-28.8h-0.8c0,0-7.1,13.7-14.5,23.7l-61.6,84.9c-7.1,10-14.9,18-14.9,18v0.8
				c0,0,11.6-1.2,24.1-1.2h66.1V468L1871.5,468z"/>
		</g>
	</g>
	<g>
		<path class="st3" d="M771.4,848.5c0.8-4.7,1.2-7.5,1.2-10.4c0-4.3-1.6-6.3-7.1-6.3h-17.1l6.7-34.7h37.8c16.7,0,22.2,6.7,22.2,15.5
			c0,5.5-2,14.3-4.3,20h0.8c14.3-21.8,39.4-40.6,74.9-40.6c49.4,0,78.8,33.5,78.8,88.8c0,77.3-56.9,133-115.9,133
			c-27.1,0-51.8-12.7-62.8-36.7h-0.8c0,0-0.8,8.8-2.9,19.6l-18.4,95.9h-40.6L771.4,848.5L771.4,848.5z M844.6,978.5
			c37.3,0,79.2-36.3,79.2-95.1c0-36.3-18-56.1-47.7-56.1c-43.5,0-77.7,47.7-77.7,95.9C798.1,953.8,813.2,978.5,844.6,978.5
			L844.6,978.5z"/>
		<path class="st3" d="M997.6,979.9l41.8-216.3c0.8-4.3,1.2-6.3,1.2-9.2c0-4.7-2.4-6.3-7.6-6.3H1016l7.1-34.7h38.6
			c16.3,0,23.9,5.5,23.9,18.8c0,3.3-0.8,7.5-1.6,12l-42.2,216.7c-0.4,2-1.2,5.5-1.2,6.7c0,4.3,2.4,6.3,8,6.3h17.1l-6.7,34.7h-39
			c-15.9,0-23.5-6.7-23.5-19.2C996.4,986.4,996.8,983.2,997.6,979.9L997.6,979.9z"/>
		<path class="st3" d="M1120.7,929.9l16.7-85.3c0.4-2,1.2-5.5,1.2-7.1c0-3.7-2.4-5.9-8-5.9h-17.1l6.7-34.7h39.4
			c15.9,0,23.5,6.7,23.5,19.2c0,2.9-0.4,5.9-1.2,9.6l-18.8,97.5c-1.6,7.1-2.4,14.3-2.4,21c0,18,7.1,31.8,31.8,31.8
			c42.2,0,77.3-46.5,85.3-86.7l17.9-92.4h40.6l-31.4,162c-0.8,2.5-1.2,6.3-1.2,8.4c0,4.3,2.4,6.7,8,6.7h16.7l-6.7,34.7h-38.6
			c-15.5,0-22.7-7.1-22.7-18.8c0-7.5,2.9-18,5.1-26.7h-0.8c-11.6,18.8-41.8,50.6-87.1,50.6c-39,0-59.4-21-59.4-57.3
			C1118.2,948.5,1119,939.7,1120.7,929.9L1120.7,929.9z"/>
		<path class="st3" d="M1371.8,951c0,0,21.8,29.8,63.2,29.8c23.9,0,41.8-11.2,41.8-29.8s-18.4-25.1-36.7-32.6
			c-27.9-10.8-60.2-25.1-60.2-62.8c0-42.2,39.8-63.7,82.4-63.7c33.5,0,77.3,13.5,70.8,46.1L1530,853h-35.5l1.2-8
			c2-11.6-10.4-20.4-33.9-20.4c-24.7,0-40.6,11.2-40.6,28c0,19.6,21.4,27.1,41.4,35.1c26.7,10.8,56.5,23.9,56.5,59.4
			c0,39-34.7,66.5-84.5,66.5c-57.7,0-83.2-35.9-83.2-35.9L1371.8,951L1371.8,951z"/>
	</g>
	<g class="st4">
		<path class="st3" d="M1649.7,801.7c0,23.5-18.4,41.9-41.9,41.9c-23.2,0-41.9-18.4-41.9-41.9c0-23.2,18.7-41.7,41.9-41.7
			C1631.3,760,1649.7,778.5,1649.7,801.7z M1576,801.7c0,18.7,13.6,33.4,31.8,33.4c18.2,0,31.5-14.7,31.5-33.4
			c0-18.2-13.4-33.1-31.5-33.1C1589.6,768.6,1576,783.6,1576,801.7z M1601.1,823.4h-8.8v-41.4c3.5-0.8,8.3-1.6,15-1.6
			c7.5,0,11,1.3,13.9,3.5c2.4,1.6,4.3,4.8,4.3,8.8c0,4.8-4,8.3-8.8,9.9v0.5c4.3,1.3,6.1,4.5,7.5,10.2c1.3,6.1,2.1,8.8,2.9,10.2h-9.4
			c-1.3-1.6-2.1-5.1-3.2-10.2c-0.8-4.3-3.5-6.4-8.8-6.4h-4.5V823.4z M1601.4,799.8h4.5c5.3,0,9.6-1.6,9.6-5.9c0-4-2.7-6.4-8.8-6.4
			c-2.7,0-4.3,0.3-5.3,0.5V799.8z"/>
	</g>
</g>
</svg>
