<?xml version="1.0" encoding="utf-8"?>
<!-- Generator: Adobe Illustrator 26.5.0, SVG Export Plug-In . SVG Version: 6.00 Build 0)  -->
<svg version="1.1" id="Layer_1" xmlns="http://www.w3.org/2000/svg" xmlns:xlink="http://www.w3.org/1999/xlink" x="0px" y="0px"
	 viewBox="0 0 143.5 56.6" style="enable-background:new 0 0 143.5 56.6;" xml:space="preserve">
<style type="text/css">
	.st0{fill:#5C85C4;}
	.st1{fill:#242860;}
</style>
<g>
	<g>
		<path class="st0" d="M130.6,6.9c0,0,4,6.3,3.2,12.3c0,0-0.1,1.6-2,3c0,0-1.4,0.5,3.2,7.5c0,0,2.2,2.9-0.8,3.6c0,0-2.2,0.2-1.5,0.7
			c0,0,1.2,2.1,0,2.6c0,0,0.4,0.7,0,1c0,0,0,0.7-1.6,1.5c0,0-1.3,0.1,0.1,1.9c0,0,1,3.4-4.6,4.6c0,0-5.1,0.6-8.6-0.9
			c0,0-20.5-8.9-25.3,3.2c0,0-0.2-11.9,11-16.6c0,0,13.5-6.1,6.3-16.5c0,0-12.8-19.5,9.5-1.6C119.6,13.3,133.5,24,130.6,6.9z"/>
		<g>
			<g>
				<path class="st1" d="M7.8,26.1h0.3c0.4,0,0.6-0.1,0.7-0.5l4.8-13.1h2.3l4.8,13.1c0.1,0.4,0.3,0.5,0.7,0.5h0.3V28h-1.2
					c-1.1,0-1.5-0.3-1.8-1.3l-1.2-3.2h-5.7l-1.2,3.2c-0.4,1-0.7,1.3-1.8,1.3H7.8V26.1z M17.1,21.7L15.4,17c-0.3-0.8-0.6-2.2-0.6-2.2
					h0c0,0-0.3,1.4-0.6,2.2l-1.7,4.7H17.1z"/>
				<path class="st1" d="M24.3,14.8c0-0.3-0.2-0.5-0.5-0.5h-0.9v-1.9h2.2c1,0,1.4,0.4,1.4,1.4v11.7c0,0.3,0.2,0.5,0.5,0.5h4.3
					c0.3,0,0.5-0.2,0.5-0.5v-1h2v2c0,1-0.4,1.4-1.4,1.4h-6.6c-1,0-1.4-0.4-1.4-1.4V14.8z"/>
				<path class="st1" d="M35.5,14.8c0-0.3-0.2-0.5-0.5-0.5h-0.9v-1.9h2.2c1,0,1.4,0.4,1.4,1.4v11.7c0,0.3,0.2,0.5,0.5,0.5h4.3
					c0.3,0,0.5-0.2,0.5-0.5v-1h2v2c0,1-0.4,1.4-1.4,1.4h-6.6c-1,0-1.4-0.4-1.4-1.4V14.8z"/>
			</g>
			<g>
				<path class="st1" d="M57.6,12.2c4.5,0,8,3.4,8,7.9c0,4.6-3.5,8.1-8,8.1c-4.5,0-7.9-3.6-7.9-8.1C49.6,15.7,53.1,12.2,57.6,12.2z
					 M57.6,26.2c3.1,0,5.7-2.6,5.7-6.1c0-3.3-2.5-5.9-5.7-5.9c-3.1,0-5.6,2.5-5.6,5.9C51.9,23.5,54.4,26.2,57.6,26.2z"/>
				<path class="st1" d="M67.1,26.1H68c0.3,0,0.5-0.2,0.5-0.5V12.5h2l6.9,9.8c0.6,0.8,1.3,2.1,1.3,2.1h0c0,0-0.2-1.2-0.2-2.1v-8.4
					c0-1,0.4-1.4,1.4-1.4h2.2v1.9h-0.9c-0.3,0-0.5,0.2-0.5,0.5v13.1h-2l-6.9-9.8c-0.6-0.8-1.3-2.1-1.3-2.1h0c0,0,0.1,1.3,0.1,2.1
					v8.4c0,1-0.4,1.4-1.4,1.4h-2.2L67.1,26.1z"/>
			</g>
			<path class="st1" d="M124.4,6.9c0,0,4,6.3,3.2,12.3c0,0-0.1,1.6-2,3c0,0-1.4,0.5,3.2,7.5c0,0,2.2,2.9-0.8,3.6
				c0,0-2.2,0.2-1.5,0.7c0,0,1.2,2.1,0,2.6c0,0,0.4,0.7,0,1c0,0,0,0.7-1.6,1.5c0,0-1.3,0.1,0.1,1.9c0,0,1,3.4-4.6,4.6
				c0,0-5.1,0.6-8.6-0.9c0,0-20.5-8.9-25.3,3.2c0,0-0.2-11.9,11-16.6c0,0,13.5-6.1,6.3-16.5c0,0-12.8-19.5,9.5-1.6
				C113.3,13.3,127.3,24,124.4,6.9z"/>
			<g>
				<path class="st1" d="M87.7,22.4l7-10h2.5V22h2.4v1.9h-2.4V28H95v-4.1h-7.3V22.4z M95,16.6c0-0.7,0.1-1.6,0.1-1.6h0
					c0,0-0.4,0.7-0.8,1.3L90.9,21c-0.4,0.5-0.8,1-0.8,1v0c0,0,0.6-0.1,1.3-0.1H95V16.6z"/>
			</g>
		</g>
	</g>
	<g>
		<path class="st0" d="M34.8,37.5c0-0.3,0.1-0.4,0.1-0.6c0-0.2-0.1-0.3-0.4-0.3h-0.9l0.4-1.9H36c0.9,0,1.2,0.4,1.2,0.8
			c0,0.3-0.1,0.8-0.2,1.1h0c0.8-1.2,2.2-2.2,4.1-2.2c2.7,0,4.3,1.8,4.3,4.9c0,4.2-3.1,7.3-6.3,7.3c-1.5,0-2.8-0.7-3.4-2h0
			c0,0,0,0.5-0.2,1.1l-1,5.2h-2.2L34.8,37.5z M38.8,44.6c2,0,4.3-2,4.3-5.2c0-2-1-3.1-2.6-3.1c-2.4,0-4.3,2.6-4.3,5.2
			C36.2,43.2,37.1,44.6,38.8,44.6z"/>
		<path class="st0" d="M47.2,44.7l2.3-11.8c0-0.2,0.1-0.3,0.1-0.5c0-0.3-0.1-0.3-0.4-0.3h-0.9l0.4-1.9h2.1c0.9,0,1.3,0.3,1.3,1
			c0,0.2,0,0.4-0.1,0.7l-2.3,11.9c0,0.1-0.1,0.3-0.1,0.4c0,0.2,0.1,0.3,0.4,0.3h0.9l-0.4,1.9h-2.1c-0.9,0-1.3-0.4-1.3-1
			C47.1,45,47.1,44.8,47.2,44.7z"/>
		<path class="st0" d="M53.9,41.9l0.9-4.7c0-0.1,0.1-0.3,0.1-0.4c0-0.2-0.1-0.3-0.4-0.3h-0.9l0.4-1.9H56c0.9,0,1.3,0.4,1.3,1
			c0,0.2,0,0.3-0.1,0.5l-1,5.3c-0.1,0.4-0.1,0.8-0.1,1.2c0,1,0.4,1.7,1.7,1.7c2.3,0,4.2-2.5,4.7-4.7l1-5.1h2.2L64,43.5
			c0,0.1-0.1,0.3-0.1,0.5c0,0.2,0.1,0.4,0.4,0.4h0.9l-0.4,1.9h-2.1c-0.8,0-1.2-0.4-1.2-1c0-0.4,0.2-1,0.3-1.5h0
			c-0.6,1-2.3,2.8-4.8,2.8c-2.1,0-3.2-1.2-3.2-3.1C53.8,42.9,53.8,42.5,53.9,41.9z"/>
		<path class="st0" d="M67.6,43.1c0,0,1.2,1.6,3.5,1.6c1.3,0,2.3-0.6,2.3-1.6c0-1-1-1.4-2-1.8c-1.5-0.6-3.3-1.4-3.3-3.4
			c0-2.3,2.2-3.5,4.5-3.5c1.8,0,4.2,0.7,3.9,2.5l-0.2,0.8h-1.9l0.1-0.4c0.1-0.6-0.6-1.1-1.9-1.1c-1.4,0-2.2,0.6-2.2,1.5
			c0,1.1,1.2,1.5,2.3,1.9c1.5,0.6,3.1,1.3,3.1,3.2c0,2.1-1.9,3.6-4.6,3.6c-3.2,0-4.6-2-4.6-2L67.6,43.1z"/>
	</g>
	<g>
		<path class="st0" d="M83.4,35c0,1.4-1.1,2.4-2.5,2.4c-1.4,0-2.5-1.1-2.5-2.4c0-1.3,1.1-2.4,2.5-2.4C82.3,32.6,83.4,33.7,83.4,35z
			 M79.1,35c0,1.1,0.8,1.9,1.9,1.9c1.1,0,1.8-0.8,1.8-1.9c0-1.1-0.8-1.9-1.8-1.9C79.8,33.1,79.1,33.9,79.1,35z M80.5,36.2H80v-2.4
			c0.2,0,0.5-0.1,0.9-0.1c0.5,0,0.7,0.1,0.8,0.2c0.1,0.1,0.2,0.3,0.2,0.5c0,0.3-0.2,0.5-0.5,0.6v0c0.2,0.1,0.4,0.3,0.4,0.6
			c0.1,0.4,0.1,0.5,0.2,0.6h-0.6c-0.1-0.1-0.1-0.3-0.2-0.6c0-0.3-0.2-0.4-0.5-0.4h-0.3V36.2z M80.5,34.9h0.3c0.3,0,0.6-0.1,0.6-0.4
			c0-0.2-0.2-0.4-0.5-0.4c-0.1,0-0.2,0-0.3,0V34.9z"/>
	</g>
</g>
</svg>
