<?xml version="1.0" encoding="utf-8"?>
<!-- Generator: Adobe Illustrator 26.5.0, SVG Export Plug-In . SVG Version: 6.00 Build 0)  -->
<svg version="1.1" id="Layer_1" xmlns="http://www.w3.org/2000/svg" xmlns:xlink="http://www.w3.org/1999/xlink" x="0px" y="0px"
	 viewBox="0 0 1350.1 515.2" style="enable-background:new 0 0 1350.1 515.2;" xml:space="preserve">
<style type="text/css">
	.st0{fill:none;stroke:#C49A6C;stroke-width:6;stroke-miterlimit:10;}
	.st1{fill:#C49A6C;}
</style>
<g>
	<g>
		<path class="st0" d="M1085.3,60.9c0,0,26.5,41.7,21.1,81.4c0,0-0.8,10.7-13.2,19.8c0,0-9.1,3.3,21.1,49.6c0,0,14.5,19.4-5.4,23.9
			c0,0-14.9,1.3-9.9,5c0,0,7.8,13.6,0,17.4c0,0,2.9,5,0,6.6c0,0,0,5-10.7,9.9c0,0-8.6,0.8,0.8,12.4c0,0,6.6,22.3-30.6,30.6
			c0,0-33.5,3.7-57-6.2c0,0-135.9-59-167.3,21.5c0,0-1.3-78.5,73.1-109.9c0,0,89.6-40,41.7-109.1c0,0-84.7-128.9,63.2-10.7
			C1012.2,103,1104.7,173.6,1085.3,60.9z"/>
		<g>
			<path class="st1" d="M242.8,187.6h2.1c2.6,0,3.9-0.6,4.8-3.2l32.1-86.7h15.2l32.1,86.7c0.9,2.6,2.3,3.2,4.8,3.2h2.1v12.5h-8.1
				c-7.2,0-9.6-1.8-11.9-8.4l-7.7-21.1h-37.7l-7.7,21.1c-2.4,6.7-4.8,8.4-12,8.4h-8.1V187.6z M304.5,158.5l-11.2-31.2
				c-1.9-5.4-4.1-14.3-4.1-14.3H289c0,0-2,9-3.9,14.3l-11.2,31.2H304.5z"/>
			<path class="st1" d="M352.4,113.3c0-2.1-1.2-3.2-3.2-3.2H343V97.7h14.6c6.5,0,9.3,2.7,9.3,9.3v77.4c0,2,1.2,3.2,3.2,3.2h28.3
				c2,0,3.2-1.2,3.2-3.2v-6.5h13.2v12.9c0,6.5-2.7,9.3-9.3,9.3h-43.8c-6.5,0-9.3-2.7-9.3-9.3V113.3z"/>
			<path class="st1" d="M426.7,113.3c0-2.1-1.2-3.2-3.2-3.2h-6.2V97.7h14.6c6.5,0,9.3,2.7,9.3,9.3v77.4c0,2,1.2,3.2,3.2,3.2h28.3
				c2,0,3.2-1.2,3.2-3.2v-6.5h13.2v12.9c0,6.5-2.7,9.3-9.3,9.3H436c-6.5,0-9.3-2.7-9.3-9.3V113.3z"/>
		</g>
		<g>
			<path class="st1" d="M572.5,96c29.6,0,52.7,22.8,52.7,52.2c0,30.1-23.1,53.6-52.7,53.6c-29.6,0-52.5-23.5-52.5-53.6
				C519.9,118.7,542.9,96,572.5,96z M572.5,188.2c20.8,0,37.5-17.4,37.5-40c0-21.9-16.8-38.7-37.5-38.7c-20.8,0-37.4,16.8-37.4,38.7
				C535.1,170.8,551.7,188.2,572.5,188.2z"/>
			<path class="st1" d="M635.6,187.6h6.2c2,0,3.2-1.2,3.2-3.2V97.7h13.2l45.5,64.8c3.8,5.5,8.6,13.9,8.6,13.9h0.3c0,0-1-8.1-1-13.9
				v-55.6c0-6.5,2.7-9.3,9.5-9.3h14.5v12.5h-6.2c-2,0-3.2,1-3.2,3.2V200H713l-45.7-64.8c-3.8-5.5-8.4-13.9-8.4-13.9h-0.3
				c0,0,0.9,8.3,0.9,13.9v55.6c0,6.5-2.7,9.3-9.3,9.3h-14.6V187.6z"/>
		</g>
		<path class="st1" d="M1041.7,60.4c0,0,26.7,41.6,21.4,81.3c0,0-0.8,10.7-13.1,19.9c0,0-9.1,3.4,21.3,49.5c0,0,14.6,19.4-5.3,24
			c0,0-14.8,1.3-9.9,5c0,0,7.9,13.6,0.1,17.4c0,0,2.9,4.9,0,6.6c0,0,0,5-10.7,10c0,0-8.6,0.9,0.9,12.4c0,0,6.7,22.3-30.4,30.7
			c0,0-33.5,3.9-57-5.9c0,0-136.2-58.4-167.2,22.3c0,0-1.6-78.5,72.6-110.2c0,0,89.4-40.5,41.2-109.3c0,0-85.3-128.5,63.1-11
			C968.8,102.8,1061.7,173,1041.7,60.4z"/>
		<g>
			<path class="st1" d="M771.8,163.7l46.1-66h16.6v62.8h16V173h-16v27.1H820V173h-48.2V163.7z M820.1,125.2c0-4.7,0.6-10.4,0.6-10.4
				h-0.3c0,0-2.6,5-5.2,8.6l-22.3,30.7c-2.6,3.6-5.4,6.5-5.4,6.5v0.3c0,0,4.2-0.4,8.7-0.4h23.9V125.2z"/>
		</g>
		<g>
			<path class="st1" d="M421.6,263.1c0.3-1.7,0.4-2.7,0.4-3.8c0-1.6-0.6-2.3-2.6-2.3h-6.2l2.4-12.6h13.7c6.1,0,8.1,2.4,8.1,5.6
				c0,2-0.7,5.2-1.6,7.2h0.3c5.2-7.9,14.3-14.7,27.1-14.7c17.9,0,28.5,12.1,28.5,32.1c0,28-20.6,48.2-42,48.2
				c-9.8,0-18.8-4.6-22.8-13.3h-0.3c0,0-0.3,3.2-1,7.1l-6.7,34.7h-14.7L421.6,263.1z M448.2,310.1c13.5,0,28.7-13.2,28.7-34.4
				c0-13.2-6.5-20.3-17.3-20.3c-15.7,0-28.2,17.3-28.2,34.7C431.3,301.2,436.8,310.1,448.2,310.1z"/>
			<path class="st1" d="M503.6,310.6l15.1-78.3c0.3-1.6,0.4-2.3,0.4-3.3c0-1.7-0.9-2.3-2.7-2.3h-6.2l2.6-12.6h14
				c5.9,0,8.6,2,8.6,6.8c0,1.2-0.3,2.7-0.6,4.4l-15.3,78.5c-0.1,0.7-0.4,2-0.4,2.4c0,1.6,0.9,2.3,2.9,2.3h6.2l-2.4,12.6h-14.1
				c-5.8,0-8.5-2.4-8.5-6.9C503.2,313,503.3,311.8,503.6,310.6z"/>
			<path class="st1" d="M548.2,292.5l6.1-30.9c0.1-0.7,0.4-2,0.4-2.6c0-1.3-0.9-2.1-2.9-2.1h-6.2l2.4-12.6h14.3
				c5.8,0,8.5,2.4,8.5,6.9c0,1-0.1,2.1-0.4,3.5l-6.8,35.3c-0.6,2.6-0.9,5.2-0.9,7.6c0,6.5,2.6,11.5,11.5,11.5
				c15.3,0,28-16.8,30.9-31.4l6.5-33.5h14.7L614.9,303c-0.3,0.9-0.4,2.3-0.4,3c0,1.6,0.9,2.4,2.9,2.4h6.1l-2.4,12.6h-14
				c-5.6,0-8.2-2.6-8.2-6.8c0-2.7,1-6.5,1.8-9.7h-0.3c-4.2,6.8-15.1,18.3-31.6,18.3c-14.1,0-21.5-7.6-21.5-20.8
				C547.3,299.3,547.6,296.1,548.2,292.5z"/>
			<path class="st1" d="M639.1,300.1c0,0,7.9,10.8,22.9,10.8c8.6,0,15.1-4.1,15.1-10.8c0-6.5-6.7-9.1-13.3-11.8
				c-10.1-3.9-21.8-9.1-21.8-22.8c0-15.3,14.4-23.1,29.9-23.1c12.1,0,28,4.9,25.6,16.7l-1.2,5.5h-12.9l0.4-2.9
				c0.7-4.2-3.8-7.4-12.3-7.4c-8.9,0-14.7,4.1-14.7,10.1c0,7.1,7.8,9.8,15,12.7c9.7,3.9,20.5,8.6,20.5,21.5
				c0,14.1-12.6,24.1-30.6,24.1c-20.9,0-30.1-13-30.1-13L639.1,300.1z"/>
		</g>
	</g>
</g>
<g>
	<path class="st1" d="M708.3,239.6c0-10.7,7.7-18.8,18.5-18.8c10.7,0,18.4,8,18.4,18.8s-7.7,18.7-18.4,18.7
		C715.9,258.3,708.3,250.4,708.3,239.6z M711.6,239.6c0,9.1,6,15.6,15.1,15.6c9.1,0,15-6.5,15-15.6s-6-15.6-15-15.6
		C717.6,224,711.6,230.5,711.6,239.6z M730,241.4l5.6,8l-4.8,0.1l-5.1-7.9h-2.1v7.9h-4v-20.1h8.7c4.1,0,6.7,2.3,6.7,6.1
		C734.9,238.7,733,240.8,730,241.4z M723.5,233.1v5.1h4.4c1.7,0,3-0.7,3-2.6c0-1.8-1.3-2.5-3-2.5H723.5z"/>
</g>
<g>
	<path class="st1" d="M186.7,492.6c-2-1.6-4.1-3.4-6.5-5.5c-2.4-2-5.1-4.3-7.9-7c-2.8-2.7-6-5.4-9.1-8.7c-3.2-3.2-6.6-6.5-9.9-10.3
		c-1.7-1.9-3.5-3.8-5.3-5.7c-1.7-2-3.5-4.1-5.3-6.2c-7.2-8.4-14.5-18.1-21.7-28.7c-7.2-10.6-14-22.3-20.5-34.7
		c-6.4-12.5-12.1-25.9-17.2-39.8c-5-13.9-8.9-28.5-11.9-43.3C68.4,288,66.9,272.9,66,258c-0.9-14.9,0-29.6,1.2-43.8
		c0.9-7,1.6-14,2.9-20.7c0.6-3.4,1.2-6.7,1.8-10c0.8-3.3,1.5-6.5,2.3-9.6c3-12.7,6.8-24.4,10.7-35.1c4-10.6,8-20.3,12.1-28.5
		c1-2.1,1.9-4.1,2.9-6.1c1-1.9,2-3.7,2.9-5.5c1.9-3.5,3.6-6.7,5.2-9.7c3.2-5.8,6-10.1,7.8-13.2c0.5-0.8,0.9-1.5,1.2-2.1
		c0.1,0.3,0.1,0.5,0.1,0.5s15.3-0.1,31-18c11.1-12.6,21-42.2,21-42.2s-28.9,9-38.8,21.3c-15.6,19.2-13.9,35.1-13.4,38.2
		c-0.4,0.6-0.8,1.3-1.3,2.1c-1.9,3-4.8,7.3-8.2,13c-1.6,2.9-3.4,6.1-5.4,9.5c-1,1.7-2,3.5-3,5.4c-1,1.9-2,3.9-3,6
		c-4.3,8.2-8.5,17.8-12.9,28.3c-4.1,10.7-8.3,22.4-11.6,35.1c-0.8,3.2-1.7,6.4-2.5,9.7c-0.7,3.3-1.4,6.7-2.1,10
		c-1.6,6.8-2.3,13.8-3.5,20.9c-1.6,14.3-2.8,29.2-2.3,44.4c0.5,15.1,1.7,30.6,4.4,45.8c2.7,15.2,6.4,30.2,11.1,44.6
		c4.8,14.4,10.4,28.2,16.6,41.2c6.4,12.9,13.1,25.1,20.2,36.2c7.1,11.1,14.3,21.2,21.6,30.1c1.8,2.2,3.6,4.4,5.3,6.5
		c1.8,2.1,3.6,4.1,5.3,6c3.4,4,6.8,7.5,10,10.9c3.1,3.4,6.3,6.4,9.2,9.2c2.8,2.8,5.6,5.3,8.1,7.6c2.5,2.2,4.7,4.3,6.7,5.9
		c2,1.6,3.6,3,5,4.1c2.7,2.2,4.1,3.4,4.1,3.4l7.3-9.8c0,0-1.5-1.2-4.2-3.3C190.4,495.5,188.7,494.2,186.7,492.6z"/>
	<path class="st1" d="M69.2,151.5c0,0,10.1-12,7.6-36.1c-1.7-17-16.4-44.3-16.4-44.3S47.7,99.6,50,115.4
		C53.9,143.3,69.2,151.5,69.2,151.5z"/>
	<path class="st1" d="M94.7,99c0,0,12-10,13.7-34.1c1.2-17-8.5-46.7-8.5-46.7S82.6,44,82,60C81.1,88.2,94.7,99,94.7,99z"/>
	<path class="st1" d="M134.3,78c-24.9,11.2-28.5,28.6-28.5,28.6s13.8,7,35.5-1.7c15.3-6.1,36.9-28,36.9-28S148.4,71.6,134.3,78z"/>
	<path class="st1" d="M111.2,126.1c-23.7,13.7-25.6,31.5-25.6,31.5s14.4,5.5,35.1-5.4c14.6-7.7,34-31.7,34-31.7
		S124.7,118.3,111.2,126.1z"/>
	<path class="st1" d="M137.5,165.8c0,0-30.2,0.5-43,9.4C72,191,71.6,208.8,71.6,208.8s14.8,4.2,34.6-8.5
		C120.1,191.4,137.5,165.8,137.5,165.8z"/>
	<path class="st1" d="M104.1,249.1c11.6-12,22.9-41.1,22.9-41.1s-29.3,7.6-39.7,19.4c-18.4,20.7-14.9,38.2-14.9,38.2
		S87.6,266.1,104.1,249.1z"/>
	<path class="st1" d="M108.1,298.3c9.5-13.9,15.8-44.5,15.8-44.5s-27.6,12.7-36,26.1c-14.8,23.7-8.5,40.3-8.5,40.3
		S94.6,318.1,108.1,298.3z"/>
	<path class="st1" d="M123.6,347.1c6.8-15.5,7.6-46.8,7.6-46.8s-24.8,17.8-30.7,32.6c-10.3,26.1-1.1,41.2-1.1,41.2
		S113.9,369.1,123.6,347.1z"/>
	<path class="st1" d="M145.2,392.8c4.6-16.4,1.1-47.5,1.1-47.5s-22.1,21.3-25.9,36.9c-6.6,27.4,4.6,40.9,4.6,40.9
		S138.6,416,145.2,392.8z"/>
	<path class="st1" d="M164,463.4c0,0,12.2-9.7,14.4-33.8c1.6-17-7.6-46.8-7.6-46.8s-17.9,25.3-18.7,41.3
		C150.6,452.2,164,463.4,164,463.4z"/>
	<path class="st1" d="M55,209.9c0,0,8.2-14.6,1-39.1C50.9,153.4,30.3,128,30.3,128s-7.7,32.3-2.3,48.3C37.5,204.6,55,209.9,55,209.9
		z"/>
	<path class="st1" d="M51.2,266.2c0,0,5.1-16-6.7-38.5c-8.3-15.9-33.5-36.4-33.5-36.4s-1.2,33.2,7.2,47.8
		C33.1,264.7,51.2,266.2,51.2,266.2z"/>
	<path class="st1" d="M60.7,327.4c0,0,1.9-17.5-14.8-37.9C34,275.2,4,259.8,4,259.8s5.7,34.2,17.3,47.3
		C41.8,330,60.7,327.4,60.7,327.4z"/>
	<path class="st1" d="M37.4,375.9c26.1,17.9,44.5,10.5,44.5,10.5s-2.2-18.2-23.9-34.5c-15.3-11.5-49.2-19.3-49.2-19.3
		S22.6,365.7,37.4,375.9z"/>
	<path class="st1" d="M112.9,436.6c0,0-5.8-17.3-30.3-28.5c-17.3-7.9-52-8.2-52-8.2s20.2,29.4,36.7,36.1
		C96.4,447.8,112.9,436.6,112.9,436.6z"/>
	<path class="st1" d="M113.5,460c-19.8-3.1-55.3,6.4-55.3,6.4s28.3,24.3,47,26.5c32.8,3.8,46.8-12.4,46.8-12.4
		S141.5,464.4,113.5,460z"/>
</g>
<g>
	<path class="st1" d="M1205.5,452.7c1.8-2.1,3.6-4.3,5.5-6.5c7.5-8.9,15-19,22.4-30.1c7.4-11.1,14.4-23.3,21-36.2
		c6.5-13,12.3-26.8,17.2-41.2c4.9-14.4,8.7-29.4,11.5-44.6c2.9-15.2,4.1-30.6,4.6-45.8c0.5-15.2-0.7-30.1-2.4-44.4
		c-1.2-7.1-2-14.2-3.6-20.9c-0.7-3.4-1.4-6.7-2.2-10c-0.9-3.3-1.8-6.5-2.6-9.7c-3.5-12.7-7.8-24.5-12.1-35.1
		c-4.5-10.6-8.9-20.1-13.4-28.3c-1.1-2.1-2.1-4.1-3.1-6c-1.1-1.9-2.2-3.7-3.2-5.4c-2-3.5-3.9-6.7-5.6-9.5c-3.5-5.7-6.5-10-8.5-13
		c-0.5-0.8-1-1.5-1.4-2.1c0.6-3.2,2.4-19-13.9-38.2c-10.4-12.3-40.4-21.3-40.4-21.3s10.4,29.6,21.9,42.2c16.3,17.8,32.3,18,32.3,18
		s0-0.2,0.1-0.5c0.4,0.6,0.8,1.3,1.3,2.1c1.9,3.1,4.8,7.4,8.1,13.2c1.6,2.9,3.4,6.2,5.4,9.7c1,1.8,2,3.6,3,5.5c1,2,1.9,4,3,6.1
		c4.2,8.3,8.4,17.9,12.6,28.5c4,10.7,8,22.4,11.1,35.1c0.8,3.2,1.6,6.4,2.4,9.6c0.6,3.3,1.2,6.6,1.9,10c1.4,6.7,2.1,13.7,3,20.7
		c1.3,14.2,2.1,28.9,1.2,43.8c-0.8,14.9-2.5,30-5.7,44.8c-3.2,14.8-7.2,29.4-12.4,43.3c-5.2,13.9-11.2,27.3-17.8,39.8
		c-6.8,12.4-13.8,24.1-21.3,34.7c-7.5,10.6-15,20.2-22.5,28.7c-1.9,2.1-3.7,4.2-5.5,6.2c-1.9,2-3.7,3.9-5.5,5.7
		c-3.5,3.8-7.1,7.1-10.3,10.3c-3.2,3.2-6.5,6-9.4,8.7c-2.9,2.7-5.7,5-8.2,7c-2.5,2.1-4.7,3.9-6.8,5.5c-2.1,1.6-3.8,2.9-5.3,4
		c-2.9,2.2-4.4,3.3-4.4,3.3l7.6,9.8c0,0,1.5-1.2,4.3-3.4c1.4-1.1,3.1-2.5,5.2-4.1c2-1.6,4.4-3.7,6.9-5.9c2.6-2.2,5.5-4.7,8.4-7.6
		c3-2.8,6.3-5.8,9.5-9.2c3.3-3.4,6.9-6.9,10.4-10.9C1201.8,456.8,1203.6,454.8,1205.5,452.7z"/>
	<path class="st1" d="M1299.5,105.6c2.3-15.9-10.9-44.3-10.9-44.3s-15.3,27.4-17.1,44.3c-2.5,24,7.9,36.1,7.9,36.1
		S1295.4,133.5,1299.5,105.6z"/>
	<path class="st1" d="M1252.9,89.2c0,0,14.2-10.9,13.2-39c-0.6-16-18.6-41.7-18.6-41.7s-10.2,29.6-8.9,46.7
		C1240.5,79.3,1252.9,89.2,1252.9,89.2z"/>
	<path class="st1" d="M1211.8,68.1c-14.7-6.4-45.6-1-45.6-1s22.5,21.9,38.4,28c22.6,8.7,36.9,1.7,36.9,1.7S1237.7,79.3,1211.8,68.1z
		"/>
	<path class="st1" d="M1235.8,116.3c-14-7.8-45.3-5.6-45.3-5.6s20.1,24,35.3,31.7c21.6,10.9,36.5,5.4,36.5,5.4
		S1260.4,130,1235.8,116.3z"/>
	<path class="st1" d="M1253.1,165.4c-13.3-9-44.6-9.4-44.6-9.4s18,25.6,32.5,34.6c20.6,12.7,35.9,8.5,35.9,8.5
		S1276.5,181.1,1253.1,165.4z"/>
	<path class="st1" d="M1276.2,255.7c0,0,3.6-17.5-15.5-38.2c-10.9-11.8-41.3-19.4-41.3-19.4s11.7,29.1,23.8,41.1
		C1260.3,256.3,1276.2,255.7,1276.2,255.7z"/>
	<path class="st1" d="M1260,270.1c-8.7-13.4-37.4-26.1-37.4-26.1s6.6,30.6,16.5,44.5c14,19.7,29.8,21.8,29.8,21.8
		S1275.4,293.7,1260,270.1z"/>
	<path class="st1" d="M1248.1,364.3c0,0,9.5-15.1-1.2-41.2c-6.1-14.8-31.9-32.6-31.9-32.6s0.8,31.3,7.9,46.8
		C1233,359.3,1248.1,364.3,1248.1,364.3z"/>
	<path class="st1" d="M1199.4,335.5c0,0-3.7,31.1,1.1,47.5c6.8,23.2,21.1,30.3,21.1,30.3s11.6-13.6,4.7-40.9
		C1222.4,356.8,1199.4,335.5,1199.4,335.5z"/>
	<path class="st1" d="M1165.9,419.8c2.3,24.1,15,33.8,15,33.8s14-11.1,12.4-39.3c-0.9-16-19.5-41.3-19.5-41.3
		S1164.3,402.8,1165.9,419.8z"/>
	<path class="st1" d="M1294.3,200.1c0,0,18.2-5.3,28-33.5c5.6-16.1-2.4-48.3-2.4-48.3s-21.4,25.4-26.7,42.7
		C1285.8,185.4,1294.3,200.1,1294.3,200.1z"/>
	<path class="st1" d="M1305.1,217.9c-12.3,22.5-6.9,38.5-6.9,38.5s18.9-1.5,34.3-27.1c8.7-14.6,7.5-47.8,7.5-47.8
		S1313.7,202,1305.1,217.9z"/>
	<path class="st1" d="M1303.8,279.7c-17.4,20.3-15.4,37.9-15.4,37.9s19.6,2.6,40.9-20.3c12.1-13,18-47.3,18-47.3
		S1316.1,265.3,1303.8,279.7z"/>
	<path class="st1" d="M1266.3,376.5c0,0,19.2,7.4,46.3-10.5c15.4-10.2,29.7-43.3,29.7-43.3s-35.2,7.8-51.1,19.3
		C1268.6,358.4,1266.3,376.5,1266.3,376.5z"/>
	<path class="st1" d="M1234,426.7c0,0,17.2,11.3,47.4-0.6c17.2-6.7,38.2-36.1,38.2-36.1s-36.1,0.3-54,8.2
		C1240.1,409.4,1234,426.7,1234,426.7z"/>
	<path class="st1" d="M1233.4,450.1c-29.1,4.5-40,20.5-40,20.5s14.5,16.2,48.7,12.4c19.4-2.2,48.9-26.5,48.9-26.5
		S1254,447,1233.4,450.1z"/>
</g>
<g>
	<path class="st1" d="M294,436.6c-0.2-1.8-0.9-3.2-2.3-4.2s-3.2-1.5-5.5-1.5c-1.6,0-2.9,0.2-4,0.7c-1.1,0.4-1.9,1-2.5,1.8
		s-0.9,1.7-0.9,2.6c0,0.8,0.1,1.5,0.5,2.1c0.4,0.6,0.9,1.1,1.6,1.6c0.7,0.4,1.4,0.8,2.3,1.1c0.9,0.3,1.8,0.6,2.8,0.8l4.1,1
		c2,0.4,3.8,1,5.5,1.8s3.1,1.7,4.3,2.8c1.2,1.1,2.2,2.4,2.9,3.8c0.7,1.5,1,3.2,1,5.1c0,2.8-0.7,5.2-2.1,7.3
		c-1.4,2.1-3.4,3.6-6.1,4.8c-2.6,1.1-5.8,1.7-9.6,1.7c-3.7,0-6.9-0.6-9.7-1.7c-2.7-1.1-4.9-2.8-6.4-5c-1.5-2.2-2.3-5-2.4-8.3h9.4
		c0.1,1.5,0.5,2.8,1.3,3.8c0.8,1,1.8,1.8,3.2,2.3s2.8,0.8,4.5,0.8c1.6,0,3.1-0.2,4.3-0.7c1.2-0.5,2.2-1.1,2.8-2c0.7-0.8,1-1.8,1-2.9
		c0-1-0.3-1.9-0.9-2.6s-1.5-1.3-2.6-1.8s-2.6-0.9-4.2-1.3l-5-1.3c-3.9-0.9-6.9-2.4-9.1-4.4c-2.2-2-3.3-4.7-3.3-8.1
		c0-2.8,0.7-5.2,2.2-7.3s3.6-3.7,6.2-4.9c2.6-1.2,5.6-1.7,8.9-1.7c3.4,0,6.4,0.6,8.9,1.7c2.5,1.2,4.5,2.8,5.9,4.9s2.1,4.5,2.2,7.2
		H294z"/>
	<path class="st1" d="M323,469.2v-45.8h30.9v8h-21.2v10.9h19.6v8h-19.6v10.9h21.3v8H323z"/>
	<path class="st1" d="M412.5,423.4v45.8h-8.4l-19.9-28.8h-0.3v28.8h-9.7v-45.8h8.5l19.8,28.8h0.4v-28.8H412.5z"/>
	<path class="st1" d="M442.8,423.4v45.8h-9.7v-45.8H442.8z"/>
	<path class="st1" d="M505.5,446.3c0,5-0.9,9.2-2.8,12.8s-4.5,6.2-7.7,8c-3.2,1.8-6.9,2.8-10.9,2.8c-4.1,0-7.7-0.9-11-2.8
		c-3.2-1.8-5.8-4.5-7.7-8c-1.9-3.5-2.8-7.7-2.8-12.7c0-5,0.9-9.2,2.8-12.8c1.9-3.5,4.4-6.2,7.7-8c3.2-1.8,6.9-2.8,11-2.8
		c4,0,7.7,0.9,10.9,2.8s5.8,4.5,7.7,8S505.5,441.3,505.5,446.3z M495.6,446.3c0-3.2-0.5-6-1.4-8.2c-1-2.2-2.3-3.9-4.1-5.1
		s-3.8-1.7-6.1-1.7c-2.3,0-4.4,0.6-6.1,1.7c-1.7,1.1-3.1,2.8-4.1,5.1c-1,2.2-1.4,5-1.4,8.2s0.5,6,1.4,8.2c1,2.2,2.3,3.9,4.1,5.1
		c1.7,1.1,3.8,1.7,6.1,1.7c2.3,0,4.4-0.6,6.1-1.7c1.7-1.1,3.1-2.8,4.1-5.1S495.6,449.5,495.6,446.3z"/>
	<path class="st1" d="M525.2,469.2v-45.8h18.1c3.5,0,6.4,0.6,8.9,1.8c2.5,1.2,4.3,3,5.6,5.2c1.3,2.2,1.9,4.9,1.9,7.9
		c0,3-0.7,5.7-2,7.8c-1.3,2.2-3.2,3.9-5.7,5c-2.5,1.2-5.5,1.7-9,1.7h-12.1v-7.8h10.5c1.8,0,3.4-0.3,4.6-0.8c1.2-0.5,2.1-1.3,2.7-2.3
		c0.6-1,0.9-2.3,0.9-3.8c0-1.5-0.3-2.8-0.9-3.8s-1.5-1.8-2.8-2.4c-1.2-0.5-2.8-0.8-4.6-0.8h-6.5v37.9H525.2z M550,448.4l11.4,20.9
		h-10.7l-11.1-20.9H550z"/>
	<path class="st1" d="M614.3,469.2h-10.4l15.8-45.8h12.5l15.8,45.8h-10.4l-11.5-35.3h-0.4L614.3,469.2z M613.6,451.2h24.5v7.6h-24.5
		V451.2z"/>
	<path class="st1" d="M689.9,436.6c-0.2-1.8-0.9-3.2-2.3-4.2s-3.2-1.5-5.5-1.5c-1.6,0-2.9,0.2-4,0.7c-1.1,0.4-1.9,1-2.5,1.8
		s-0.9,1.7-0.9,2.6c0,0.8,0.1,1.5,0.5,2.1c0.4,0.6,0.9,1.1,1.6,1.6c0.7,0.4,1.4,0.8,2.3,1.1c0.9,0.3,1.8,0.6,2.8,0.8l4.1,1
		c2,0.4,3.8,1,5.5,1.8c1.7,0.7,3.1,1.7,4.3,2.8c1.2,1.1,2.2,2.4,2.9,3.8c0.7,1.5,1,3.2,1,5.1c0,2.8-0.7,5.2-2.1,7.3
		s-3.4,3.6-6.1,4.8c-2.6,1.1-5.8,1.7-9.6,1.7c-3.7,0-6.9-0.6-9.7-1.7c-2.7-1.1-4.9-2.8-6.4-5c-1.5-2.2-2.3-5-2.4-8.3h9.4
		c0.1,1.5,0.5,2.8,1.3,3.8c0.8,1,1.8,1.8,3.2,2.3c1.3,0.5,2.8,0.8,4.5,0.8c1.6,0,3.1-0.2,4.3-0.7c1.2-0.5,2.2-1.1,2.8-2
		c0.7-0.8,1-1.8,1-2.9c0-1-0.3-1.9-0.9-2.6c-0.6-0.7-1.5-1.3-2.6-1.8c-1.2-0.5-2.6-0.9-4.2-1.3l-5-1.3c-3.9-0.9-6.9-2.4-9.1-4.4
		c-2.2-2-3.3-4.7-3.3-8.1c0-2.8,0.7-5.2,2.2-7.3s3.6-3.7,6.2-4.9c2.6-1.2,5.6-1.7,8.9-1.7c3.4,0,6.4,0.6,8.9,1.7
		c2.5,1.2,4.5,2.8,5.9,4.9s2.1,4.5,2.2,7.2H689.9z"/>
	<path class="st1" d="M743.7,436.6c-0.2-1.8-0.9-3.2-2.3-4.2s-3.2-1.5-5.5-1.5c-1.6,0-2.9,0.2-4,0.7c-1.1,0.4-1.9,1-2.5,1.8
		s-0.9,1.7-0.9,2.6c0,0.8,0.1,1.5,0.5,2.1c0.4,0.6,0.9,1.1,1.6,1.6c0.7,0.4,1.4,0.8,2.3,1.1c0.9,0.3,1.8,0.6,2.8,0.8l4.1,1
		c2,0.4,3.8,1,5.5,1.8c1.7,0.7,3.1,1.7,4.3,2.8c1.2,1.1,2.2,2.4,2.9,3.8c0.7,1.5,1,3.2,1,5.1c0,2.8-0.7,5.2-2.1,7.3
		s-3.4,3.6-6.1,4.8c-2.6,1.1-5.8,1.7-9.6,1.7c-3.7,0-6.9-0.6-9.7-1.7c-2.7-1.1-4.9-2.8-6.4-5c-1.5-2.2-2.3-5-2.4-8.3h9.4
		c0.1,1.5,0.5,2.8,1.3,3.8c0.8,1,1.8,1.8,3.2,2.3c1.3,0.5,2.8,0.8,4.5,0.8c1.6,0,3.1-0.2,4.3-0.7c1.2-0.5,2.2-1.1,2.8-2
		c0.7-0.8,1-1.8,1-2.9c0-1-0.3-1.9-0.9-2.6c-0.6-0.7-1.5-1.3-2.6-1.8c-1.2-0.5-2.6-0.9-4.2-1.3l-5-1.3c-3.9-0.9-6.9-2.4-9.1-4.4
		c-2.2-2-3.3-4.7-3.3-8.1c0-2.8,0.7-5.2,2.2-7.3s3.6-3.7,6.2-4.9c2.6-1.2,5.6-1.7,8.9-1.7c3.4,0,6.4,0.6,8.9,1.7
		c2.5,1.2,4.5,2.8,5.9,4.9s2.1,4.5,2.2,7.2H743.7z"/>
	<path class="st1" d="M814.8,446.3c0,5-0.9,9.2-2.8,12.8c-1.9,3.5-4.5,6.2-7.7,8c-3.2,1.8-6.9,2.8-10.9,2.8c-4.1,0-7.7-0.9-11-2.8
		s-5.8-4.5-7.7-8c-1.9-3.5-2.8-7.7-2.8-12.7c0-5,0.9-9.2,2.8-12.8c1.9-3.5,4.4-6.2,7.7-8s6.9-2.8,11-2.8c4,0,7.7,0.9,10.9,2.8
		s5.8,4.5,7.7,8C813.9,437.1,814.8,441.3,814.8,446.3z M805,446.3c0-3.2-0.5-6-1.4-8.2c-1-2.2-2.3-3.9-4.1-5.1s-3.8-1.7-6.1-1.7
		c-2.3,0-4.4,0.6-6.1,1.7s-3.1,2.8-4.1,5.1c-1,2.2-1.4,5-1.4,8.2s0.5,6,1.4,8.2s2.3,3.9,4.1,5.1c1.7,1.1,3.8,1.7,6.1,1.7
		c2.3,0,4.4-0.6,6.1-1.7c1.7-1.1,3.1-2.8,4.1-5.1S805,449.5,805,446.3z"/>
	<path class="st1" d="M875,439.4h-9.8c-0.2-1.3-0.5-2.4-1.1-3.4c-0.6-1-1.3-1.8-2.1-2.5c-0.9-0.7-1.9-1.2-3-1.6s-2.3-0.6-3.7-0.6
		c-2.4,0-4.4,0.6-6.2,1.8c-1.8,1.2-3.1,2.9-4.1,5.1s-1.5,4.9-1.5,8.1c0,3.3,0.5,6,1.5,8.2c1,2.2,2.3,3.9,4.1,5
		c1.8,1.1,3.8,1.7,6.1,1.7c1.3,0,2.5-0.2,3.6-0.5c1.1-0.3,2.1-0.8,3-1.5c0.9-0.7,1.6-1.5,2.2-2.4c0.6-1,1-2,1.2-3.3l9.8,0
		c-0.3,2.1-0.9,4.1-1.9,6.1s-2.4,3.7-4,5.2c-1.7,1.5-3.7,2.7-6,3.6c-2.3,0.9-5,1.3-7.9,1.3c-4.1,0-7.7-0.9-11-2.8s-5.7-4.5-7.6-8
		c-1.9-3.5-2.8-7.7-2.8-12.7c0-5,0.9-9.2,2.8-12.8c1.9-3.5,4.4-6.2,7.7-8c3.2-1.8,6.8-2.8,10.9-2.8c2.7,0,5.1,0.4,7.4,1.1
		c2.3,0.7,4.3,1.8,6.1,3.3c1.8,1.4,3.2,3.2,4.3,5.2C874,434.4,874.7,436.8,875,439.4z"/>
	<path class="st1" d="M904.2,423.4v45.8h-9.7v-45.8H904.2z"/>
	<path class="st1" d="M932.7,469.2h-10.4l15.8-45.8h12.5l15.8,45.8h-10.4l-11.5-35.3h-0.4L932.7,469.2z M932.1,451.2h24.5v7.6h-24.5
		V451.2z"/>
	<path class="st1" d="M977.2,431.4v-8h37.6v8h-14v37.8h-9.6v-37.8H977.2z"/>
	<path class="st1" d="M1033.6,469.2v-45.8h30.9v8h-21.2v10.9h19.6v8h-19.6v10.9h21.3v8H1033.6z"/>
</g>
</svg>
