<?xml version="1.0" encoding="utf-8"?>
<!-- Generator: Adobe Illustrator 26.5.0, SVG Export Plug-In . SVG Version: 6.00 Build 0)  -->
<svg version="1.1" id="Layer_1" xmlns="http://www.w3.org/2000/svg" xmlns:xlink="http://www.w3.org/1999/xlink" x="0px" y="0px"
	 viewBox="0 0 2902.7 1560" style="enable-background:new 0 0 2902.7 1560;" xml:space="preserve">
<style type="text/css">
	.st0{fill:#5C86C5;}
	.st1{fill:#242861;}
	.st2{enable-background:new    ;}
</style>
<g>
	<g>
		<path class="st0" d="M2634.7,257.3c0,0,80.4,126.7,64,247.2c0,0-2.5,32.6-40.2,60.2c0,0-27.6,10.1,64,150.7c0,0,44,59.1-16.4,72.8
			c0,0-45.1,3.8-30.1,15c0,0,23.8,41.3,0,52.8c0,0,8.8,15,0,20c0,0,0,15-32.6,30.1c0,0-26.3,2.5,2.5,37.7c0,0,20,67.8-93,93
			c0,0-101.7,11.2-173.1-18.9c0,0-413-179.4-508.4,65.3c0,0-3.8-238.5,222.1-333.9c0,0,272.4-121.7,126.9-331.5
			c0,0-257.4-391.6,192-32.6C2412.6,385.3,2693.8,600,2634.7,257.3L2634.7,257.3z"/>
		<g>
			<g>
				<path class="st1" d="M164,642.4h6.3c7.9,0,11.9-1.8,14.6-9.7l97.5-263.6h46.3l97.5,263.6c2.7,7.9,7,9.7,14.6,9.7h6.5v38h-24.7
					c-22,0-29.2-5.4-36.2-25.6l-23.4-64H248.4l-23.4,64c-7.4,20.2-14.6,25.6-36.6,25.6H164L164,642.4L164,642.4z M351.8,553.9
					l-33.9-94.8c-5.8-16.4-12.4-43.6-12.4-43.6h-0.9c0,0-6.1,27.4-11.9,43.6l-33.9,94.8H351.8z"/>
				<path class="st1" d="M497.3,416.7c0-6.5-3.6-9.7-9.7-9.7h-18.9v-38h44.5c19.8,0,28.3,8.3,28.3,28.3v235.4c0,6.1,3.6,9.7,9.7,9.7
					h86c6.1,0,9.7-3.6,9.7-9.7V613H687v39.3c0,19.8-8.3,28.3-28.3,28.3H525.6c-19.8,0-28.3-8.3-28.3-28.3L497.3,416.7L497.3,416.7z"
					/>
				<path class="st1" d="M723,416.7c0-6.5-3.6-9.7-9.7-9.7h-18.9v-38h44.5c19.8,0,28.3,8.3,28.3,28.3v235.4c0,6.1,3.6,9.7,9.7,9.7
					h86c6.1,0,9.7-3.6,9.7-9.7V613h40.2v39.3c0,19.8-8.3,28.3-28.3,28.3H751.3c-19.8,0-28.3-8.3-28.3-28.3L723,416.7L723,416.7z"/>
			</g>
			<g>
				<path class="st1" d="M1166,364c89.8,0,160.1,69.2,160.1,158.8s-70.1,163-160.1,163s-159.7-71.4-159.7-163S1076.2,364,1166,364z
					 M1166,644.2c63.1,0,114.1-53,114.1-121.7s-51.2-117.7-114.1-117.7s-113.6,51.2-113.6,117.7
					C1052.4,591.4,1102.9,644.2,1166,644.2L1166,644.2z"/>
				<path class="st1" d="M1357.8,642.4h18.9c6.1,0,9.7-3.6,9.7-9.7V369.1h40.2l138.3,197c11.4,16.8,26.1,42.2,26.1,42.2h0.9
					c0,0-3.1-24.7-3.1-42.2V397.2c0-19.8,8.3-28.3,28.7-28.3h44v38h-18.9c-6.1,0-9.7,3.1-9.7,9.7v263.6h-39.8l-138.8-197
					c-11.4-16.8-25.6-42.2-25.6-42.2h-0.9c0,0,2.7,25.1,2.7,42.2v168.9c0,19.8-8.3,28.3-28.3,28.3h-44.5L1357.8,642.4L1357.8,642.4z
					"/>
			</g>
			<path class="st1" d="M2509.4,257.3c0,0,80.4,126.9,64,247.2c0,0-2.5,32.6-40.2,60.2c0,0-27.6,10.1,64,150.7
				c0,0,44,59.1-16.4,72.8c0,0-45.1,3.8-30.1,15c0,0,23.8,41.3,0,52.8c0,0,8.8,15,0,20c0,0,0,15-32.6,30.1c0,0-26.3,2.5,2.5,37.7
				c0,0,20,67.8-93,93c0,0-101.7,11.2-173.1-18.9c0,0-413-179.4-508.4,65.3c0,0-3.8-238.5,222.1-333.9c0,0,272.4-121.7,126.9-331.5
				c0,0-257.4-391.6,192-32.6C2287.1,385.3,2568.5,600,2509.4,257.3L2509.4,257.3z"/>
			<path class="st1" d="M1771.9,569.7l140.1-200.5h50.3V560h48.5v38h-48.5v82.4h-44V598h-146.4L1771.9,569.7L1771.9,569.7z
				 M1918.6,452.9c0-14.1,1.8-31.7,1.8-31.7h-0.9c0,0-7.9,15-15.9,26l-67.8,93.4c-7.9,11-16.4,19.8-16.4,19.8v0.9
				c0,0,12.8-1.3,26.5-1.3h72.8L1918.6,452.9L1918.6,452.9z"/>
		</g>
	</g>
	<g>
		<path class="st0" d="M707.7,871.7c0.9-5.2,1.3-8.3,1.3-11.5c0-4.7-1.8-7-7.9-7h-18.9l7.4-38.2h41.5c18.4,0,24.5,7.4,24.5,17.1
			c0,6.1-2.2,15.7-4.7,22h0.9c15.7-24,43.3-44.7,82.4-44.7c54.3,0,86.7,36.8,86.7,97.7c0,85.1-62.7,146.4-127.6,146.4
			c-29.9,0-57-13.9-69.2-40.4h-0.9c0,0-0.9,9.7-3.1,21.6l-20.2,105.6h-44.7L707.7,871.7L707.7,871.7z M788.3,1014.8
			c41.1,0,87.1-40,87.1-104.7c0-40-19.8-61.8-52.5-61.8c-47.8,0-85.6,52.5-85.6,105.5C737.1,987.6,753.7,1014.7,788.3,1014.8
			L788.3,1014.8z"/>
		<path class="st0" d="M956.7,1016.3l46-238c0.9-4.7,1.3-7,1.3-10.1c0-5.2-2.7-7-8.3-7H977l7.9-38.2h42.4c18,0,26.3,6.1,26.3,20.7
			c0,3.6-0.9,8.3-1.8,13.2l-46.5,238.5c-0.5,2.2-1.3,6.1-1.3,7.4c0,4.7,2.7,7,8.8,7h18.9l-7.4,38.2h-42.9
			c-17.5,0-25.8-7.4-25.8-21.1C955.4,1023.5,955.8,1019.9,956.7,1016.3L956.7,1016.3z"/>
		<path class="st0" d="M1092.2,961.3l18.4-93.9c0.4-2.2,1.3-6.1,1.3-7.9c0-4-2.7-6.5-8.8-6.5h-18.9l7.4-38.2h43.3
			c17.5,0,25.8,7.4,25.8,21.1c0,3.1-0.4,6.5-1.3,10.5l-20.7,107.3c-1.8,7.9-2.7,15.7-2.7,23.1c0,19.8,7.9,35,35,35
			c46.5,0,85.1-51.2,93.9-95.4l19.8-101.7h44.7l-34.6,178.3c-0.9,2.7-1.3,7-1.3,9.2c0,4.7,2.7,7.4,8.8,7.4h18.4l-7.4,38.2h-42.4
			c-17.1,0-24.9-7.9-24.9-20.7c0-8.3,3.1-19.8,5.6-29.4h-0.9c-12.8,20.7-46,55.7-95.9,55.7c-42.9,0-65.3-23.1-65.3-63.1
			C1089.5,981.7,1090.4,972.1,1092.2,961.3L1092.2,961.3z"/>
		<path class="st0" d="M1368.6,984.4c0,0,24,32.8,69.6,32.8c26.3,0,46-12.3,46-32.8s-20.2-27.6-40.4-35.9
			c-30.8-11.9-66.2-27.6-66.2-69.2c0-46.5,43.8-70.1,90.7-70.1c36.8,0,85.1,14.8,77.9,50.8l-3.6,16.6h-39.1l1.3-8.8
			c2.2-12.8-11.4-22.5-37.3-22.5c-27.2,0-44.7,12.3-44.7,30.8c0,21.6,23.6,29.9,45.6,38.6c29.4,11.9,62.2,26.3,62.2,65.3
			c0,42.9-38.2,73.2-93,73.2c-63.6,0-91.6-39.5-91.6-39.5L1368.6,984.4L1368.6,984.4z"/>
	</g>
	<g class="st2">
		<path class="st0" d="M1674.5,820.2c0,25.9-20.3,46.2-46.2,46.2c-25.6,0-46.2-20.3-46.2-46.2c0-25.6,20.6-45.9,46.2-45.9
			C1654.2,774.4,1674.5,794.6,1674.5,820.2z M1593.3,820.2c0,20.6,15,36.8,35,36.8c20,0,34.7-16.2,34.7-36.8
			c0-20-14.7-36.5-34.7-36.5C1608.3,783.8,1593.3,800.2,1593.3,820.2z M1621,844h-9.7v-45.6c3.8-0.9,9.1-1.8,16.5-1.8
			c8.2,0,12.1,1.5,15.3,3.8c2.6,1.8,4.7,5.3,4.7,9.7c0,5.3-4.4,9.1-9.7,10.9v0.6c4.7,1.5,6.8,5,8.2,11.2c1.5,6.8,2.4,9.7,3.2,11.2
			h-10.3c-1.5-1.8-2.4-5.6-3.5-11.2c-0.9-4.7-3.8-7.1-9.7-7.1h-5V844z M1621.3,818.2h5c5.9,0,10.6-1.8,10.6-6.5
			c0-4.4-2.9-7.1-9.7-7.1c-2.9,0-4.7,0.3-5.9,0.6V818.2z"/>
	</g>
</g>
<g class="st2">
	<path class="st1" d="M426.6,1411.8v-115h38.9c9,0,16.4,1.6,22.2,4.9c5.7,3.2,10,7.6,12.8,13.1c2.8,5.5,4.2,11.6,4.2,18.4
		s-1.4,12.9-4.1,18.5c-2.8,5.5-7,10-12.7,13.2c-5.7,3.3-13.1,4.9-22,4.9h-27.9v-12.4h27.4c6.2,0,11.1-1.1,14.9-3.2
		c3.7-2.1,6.5-5,8.2-8.7c1.7-3.7,2.6-7.8,2.6-12.4s-0.9-8.7-2.6-12.4c-1.7-3.6-4.4-6.5-8.2-8.6c-3.8-2.1-8.8-3.1-15.1-3.1h-24.5
		v102.7H426.6z"/>
	<path class="st1" d="M558.7,1411.8v-115h38.9c9,0,16.4,1.5,22.1,4.6c5.8,3.1,10,7.2,12.8,12.6c2.8,5.3,4.2,11.4,4.2,18.1
		s-1.4,12.8-4.2,18c-2.8,5.2-7,9.3-12.8,12.3c-5.7,3-13,4.5-22,4.5h-31.5v-12.6h31c6.1,0,11.1-0.9,14.9-2.7c3.8-1.8,6.5-4.4,8.2-7.7
		c1.7-3.3,2.6-7.3,2.6-11.9s-0.9-8.6-2.6-12.1c-1.7-3.4-4.5-6.1-8.3-8c-3.8-1.9-8.8-2.8-15-2.8h-24.5v102.7H558.7z M612.8,1360.1
		l28.3,51.7H625l-27.9-51.7H612.8z"/>
	<path class="st1" d="M691.4,1411.8v-115h69.4v12.4h-55.5v38.9h51.9v12.4h-51.9v39.1h56.4v12.4H691.4z"/>
	<path class="st1" d="M817.6,1296.8h16.6l39.1,95.5h1.3l39.1-95.5h16.6v115h-13v-87.4h-1.1l-35.9,87.4h-12.6l-35.9-87.4h-1.1v87.4
		h-13V1296.8z"/>
	<path class="st1" d="M1003.8,1296.8v115h-13.9v-115H1003.8z"/>
	<path class="st1" d="M1138.8,1296.8h13.9v76.2c0,7.9-1.8,14.9-5.5,21c-3.7,6.2-8.9,11-15.6,14.5c-6.7,3.5-14.6,5.3-23.6,5.3
		s-16.9-1.8-23.6-5.3c-6.7-3.5-11.9-8.4-15.6-14.5c-3.7-6.2-5.5-13.2-5.5-21v-76.2h13.9v75c0,5.6,1.2,10.6,3.7,15
		c2.5,4.4,6,7.8,10.6,10.3s10.1,3.7,16.5,3.7c6.4,0,11.9-1.2,16.5-3.7s8.1-5.9,10.6-10.3c2.5-4.4,3.7-9.4,3.7-15V1296.8z"/>
	<path class="st1" d="M1212.2,1296.8h16.6l39.1,95.5h1.3l39.1-95.5h16.6v115h-13v-87.4h-1.1l-35.9,87.4h-12.6l-35.9-87.4h-1.1v87.4
		h-13V1296.8z"/>
	<path class="st1" d="M1460.6,1411.8v-115h38.9c9,0,16.4,1.6,22.2,4.9c5.7,3.2,10,7.6,12.8,13.1c2.8,5.5,4.2,11.6,4.2,18.4
		s-1.4,12.9-4.1,18.5s-7,10-12.7,13.2c-5.7,3.3-13.1,4.9-22,4.9h-27.9v-12.4h27.4c6.2,0,11.1-1.1,14.9-3.2c3.7-2.1,6.5-5,8.2-8.7
		c1.7-3.7,2.6-7.8,2.6-12.4s-0.9-8.7-2.6-12.4c-1.7-3.6-4.4-6.5-8.2-8.6s-8.8-3.1-15.1-3.1h-24.5v102.7H1460.6z"/>
	<path class="st1" d="M1592.7,1411.8v-115h38.9c9,0,16.4,1.5,22.1,4.6c5.8,3.1,10,7.2,12.8,12.6c2.8,5.3,4.2,11.4,4.2,18.1
		s-1.4,12.8-4.2,18c-2.8,5.2-7,9.3-12.8,12.3c-5.7,3-13,4.5-22,4.5h-31.5v-12.6h31c6.1,0,11.1-0.9,14.9-2.7s6.5-4.4,8.2-7.7
		c1.7-3.3,2.6-7.3,2.6-11.9s-0.9-8.6-2.6-12.1c-1.7-3.4-4.5-6.1-8.3-8c-3.8-1.9-8.8-2.8-15-2.8h-24.5v102.7H1592.7z M1646.8,1360.1
		l28.3,51.7h-16.2l-27.9-51.7H1646.8z"/>
</g>
<g class="st2">
	<path class="st1" d="M1826.7,1354.3c0,12.1-2.2,22.6-6.6,31.5s-10.4,15.7-18,20.4c-7.6,4.8-16.4,7.2-26.2,7.2s-18.5-2.4-26.2-7.2
		c-7.6-4.8-13.6-11.6-18-20.4s-6.6-19.3-6.6-31.5c0-12.1,2.2-22.6,6.6-31.5c4.4-8.8,10.4-15.7,18-20.4c7.6-4.8,16.4-7.2,26.2-7.2
		s18.5,2.4,26.2,7.2c7.6,4.8,13.6,11.6,18,20.4C1824.5,1331.7,1826.7,1342.2,1826.7,1354.3z M1813.2,1354.3c0-10-1.7-18.4-5-25.2
		c-3.3-6.9-7.8-12-13.4-15.6s-11.9-5.3-18.9-5.3c-7,0-13.3,1.8-18.9,5.3s-10.1,8.7-13.4,15.6c-3.3,6.9-5,15.3-5,25.2
		c0,10,1.7,18.4,5,25.2s7.8,12,13.4,15.6c5.6,3.5,11.9,5.3,18.9,5.3c7,0,13.3-1.8,18.9-5.3c5.6-3.5,10.1-8.7,13.4-15.6
		S1813.2,1364.3,1813.2,1354.3z"/>
</g>
<g class="st2">
	<path class="st1" d="M1881.8,1296.8l34.1,96.8h1.3l34.1-96.8h14.6l-42.2,115h-14.4l-42.2-115H1881.8z"/>
	<path class="st1" d="M2029.6,1296.8v115h-13.9v-115H2029.6z"/>
	<path class="st1" d="M2124.5,1411.8H2089v-115h37.1c11.2,0,20.7,2.3,28.6,6.9c7.9,4.6,14,11.2,18.3,19.7c4.2,8.6,6.3,18.8,6.3,30.7
		c0,12-2.1,22.3-6.4,30.9s-10.5,15.3-18.6,19.9C2146.1,1409.5,2136.2,1411.8,2124.5,1411.8z M2103,1399.5h20.7
		c9.5,0,17.4-1.8,23.6-5.5c6.3-3.7,10.9-8.9,14-15.7c3.1-6.8,4.6-14.8,4.6-24.2c0-9.3-1.5-17.3-4.5-24s-7.6-11.9-13.6-15.5
		c-6-3.6-13.5-5.4-22.5-5.4H2103V1399.5z"/>
	<path class="st1" d="M2234.4,1411.8v-115h69.4v12.4h-55.5v38.9h51.9v12.4h-51.9v39.1h56.4v12.4H2234.4z"/>
	<path class="st1" d="M2360.6,1411.8v-115h38.9c9,0,16.4,1.5,22.1,4.6c5.8,3.1,10,7.2,12.8,12.6c2.8,5.3,4.2,11.4,4.2,18.1
		s-1.4,12.8-4.2,18c-2.8,5.2-7,9.3-12.8,12.3c-5.7,3-13,4.5-22,4.5h-31.5v-12.6h31c6.1,0,11.1-0.9,14.9-2.7s6.5-4.4,8.2-7.7
		c1.7-3.3,2.6-7.3,2.6-11.9s-0.9-8.6-2.6-12.1c-1.7-3.4-4.5-6.1-8.3-8c-3.8-1.9-8.8-2.8-15-2.8h-24.5v102.7H2360.6z M2414.7,1360.1
		l28.3,51.7h-16.2l-27.9-51.7H2414.7z"/>
</g>
</svg>
