<?xml version="1.0" encoding="utf-8"?>
<!-- Generator: Adobe Illustrator 26.5.0, SVG Export Plug-In . SVG Version: 6.00 Build 0)  -->
<svg version="1.1" id="Layer_1" xmlns="http://www.w3.org/2000/svg" xmlns:xlink="http://www.w3.org/1999/xlink" x="0px" y="0px"
	 viewBox="0 0 2902.7 1376" style="enable-background:new 0 0 2902.7 1376;" xml:space="preserve">
<style type="text/css">
	.st0{fill:#5C86C5;}
	.st1{fill:#242861;}
	.st2{enable-background:new    ;}
</style>
<g>
	<path class="st0" d="M2660.4,283.3c0,0,80.4,126.6,64,247.2c0,0-2.5,32.6-40.2,60.2c0,0-27.6,10.1,64,150.7c0,0,44,59-16.4,72.8
		c0,0-45.1,3.8-30.1,15c0,0,23.8,41.3,0,52.8c0,0,8.8,15,0,20c0,0,0,15-32.6,30.1c0,0-26.3,2.5,2.5,37.7c0,0,20,67.8-93,93
		c0,0-101.7,11.2-173.1-18.9c0,0-412.9-179.4-508.4,65.3c0,0-3.8-238.5,222.1-333.9c0,0,272.4-121.7,126.9-331.4
		c0,0-257.3-391.6,192-32.6C2438.3,411.3,2719.4,626,2660.4,283.3L2660.4,283.3z"/>
	<g>
		<g>
			<path class="st1" d="M190,668.4h6.3c7.9,0,11.9-1.8,14.6-9.7l97.4-263.6h46.3L452,658.8c2.7,7.9,7,9.7,14.6,9.7h6.5v38h-24.7
				c-22,0-29.2-5.4-36.1-25.6l-23.4-64H274.4l-23.4,64c-7.4,20.2-14.6,25.6-36.6,25.6H190L190,668.4L190,668.4z M377.7,579.9
				l-33.9-94.8c-5.8-16.4-12.4-43.6-12.4-43.6h-0.9c0,0-6.1,27.4-11.9,43.6l-33.9,94.8H377.7L377.7,579.9z"/>
			<path class="st1" d="M523.2,442.8c0-6.5-3.6-9.7-9.7-9.7h-18.9v-38h44.5c19.8,0,28.3,8.3,28.3,28.3v235.3c0,6.1,3.6,9.7,9.7,9.7
				h86c6.1,0,9.7-3.6,9.7-9.7V639H713v39.3c0,19.8-8.3,28.3-28.3,28.3H551.5c-19.8,0-28.3-8.3-28.3-28.3L523.2,442.8L523.2,442.8z"
				/>
			<path class="st1" d="M748.9,442.8c0-6.5-3.6-9.7-9.7-9.7h-18.9v-38h44.5c19.8,0,28.3,8.3,28.3,28.3v235.3c0,6.1,3.6,9.7,9.7,9.7
				h86c6.1,0,9.7-3.6,9.7-9.7V639h40.2v39.3c0,19.8-8.3,28.3-28.3,28.3H777.2c-19.8,0-28.3-8.3-28.3-28.3L748.9,442.8L748.9,442.8z"
				/>
		</g>
		<g>
			<path class="st1" d="M1191.9,390c89.8,0,160.1,69.2,160.1,158.8s-70.1,163-160.1,163s-159.7-71.4-159.7-163
				S1102.1,390,1191.9,390z M1191.9,670.2c63.1,0,114.1-53,114.1-121.7s-51.2-117.7-114.1-117.7s-113.6,51.2-113.6,117.7
				C1078.3,617.4,1128.8,670.2,1191.9,670.2z"/>
			<path class="st1" d="M1383.7,668.4h18.9c6.1,0,9.7-3.6,9.7-9.7V395.2h40.2l138.3,196.9c11.4,16.8,26.1,42.2,26.1,42.2h0.9
				c0,0-3.1-24.7-3.1-42.2V423.2c0-19.8,8.3-28.3,28.7-28.3h44v38h-18.9c-6.1,0-9.7,3.1-9.7,9.7v263.6H1619l-138.8-196.9
				c-11.4-16.8-25.6-42.2-25.6-42.2h-0.9c0,0,2.7,25.1,2.7,42.2v168.9c0,19.8-8.3,28.3-28.3,28.3h-44.5L1383.7,668.4L1383.7,668.4z"
				/>
		</g>
		<path class="st1" d="M2535.1,283.3c0,0,80.4,126.9,64,247.2c0,0-2.5,32.6-40.2,60.2c0,0-27.6,10.1,64,150.7c0,0,44,59-16.4,72.8
			c0,0-45.1,3.8-30.1,15c0,0,23.8,41.3,0,52.8c0,0,8.8,15,0,20c0,0,0,15-32.6,30.1c0,0-26.3,2.5,2.5,37.7c0,0,20,67.8-93,93
			c0,0-101.7,11.2-173.1-18.9c0,0-412.9-179.4-508.4,65.3c0,0-3.8-238.5,222.1-333.9c0,0,272.4-121.7,126.9-331.4
			c0,0-257.3-391.6,192-32.6C2312.8,411.3,2594.2,626,2535.1,283.3L2535.1,283.3z"/>
		<path class="st1" d="M1797.7,595.7l140.1-200.5h50.3V586h48.5v38h-48.5v82.4h-44V624h-146.4V595.7L1797.7,595.7z M1944.3,478.9
			c0-14.1,1.8-31.7,1.8-31.7h-0.9c0,0-7.9,15-15.9,26l-67.8,93.4c-7.9,11-16.4,19.8-16.4,19.8v0.9c0,0,12.8-1.3,26.5-1.3h72.8
			L1944.3,478.9L1944.3,478.9z"/>
	</g>
</g>
<g>
	<path class="st0" d="M733.6,897.7c0.9-5.2,1.3-8.3,1.3-11.5c0-4.7-1.8-7-7.9-7h-18.9l7.4-38.2h41.5c18.4,0,24.5,7.4,24.5,17.1
		c0,6.1-2.2,15.7-4.7,22h0.9c15.7-24,43.3-44.7,82.4-44.7c54.3,0,86.7,36.8,86.7,97.7c0,85.1-62.7,146.4-127.5,146.4
		c-29.9,0-57-13.9-69.2-40.4h-0.9c0,0-0.9,9.7-3.1,21.6L726,1166.2h-44.7L733.6,897.7L733.6,897.7z M814.2,1040.7
		c41.1,0,87.1-40,87.1-104.6c0-40-19.8-61.8-52.5-61.8c-47.8,0-85.5,52.5-85.5,105.5C763,1013.5,779.6,1040.7,814.2,1040.7
		L814.2,1040.7z"/>
	<path class="st0" d="M982.6,1042.3l46-238c0.9-4.7,1.3-7,1.3-10.1c0-5.2-2.7-7-8.3-7h-18.9l7.9-38.2h42.4c18,0,26.3,6.1,26.3,20.7
		c0,3.6-0.9,8.3-1.8,13.2l-46.5,238.5c-0.4,2.2-1.3,6.1-1.3,7.4c0,4.7,2.7,7,8.8,7h18.9l-7.4,38.2h-42.9c-17.5,0-25.8-7.4-25.8-21.1
		C981.3,1049.5,981.7,1045.9,982.6,1042.3L982.6,1042.3z"/>
	<path class="st0" d="M1118,987.3l18.4-93.9c0.4-2.2,1.3-6.1,1.3-7.9c0-4-2.7-6.5-8.8-6.5h-18.9l7.4-38.2h43.3
		c17.5,0,25.8,7.4,25.8,21.1c0,3.1-0.4,6.5-1.3,10.5l-20.7,107.3c-1.8,7.9-2.7,15.7-2.7,23.1c0,19.8,7.9,35,35,35
		c46.5,0,85.1-51.2,93.9-95.4l19.8-101.7h44.7l-34.6,178.3c-0.9,2.7-1.3,7-1.3,9.2c0,4.7,2.7,7.4,8.8,7.4h18.4l-7.4,38.2h-42.4
		c-17.1,0-24.9-7.9-24.9-20.7c0-8.3,3.1-19.8,5.6-29.4h-0.9c-12.8,20.7-46,55.7-95.9,55.7c-42.9,0-65.3-23.1-65.3-63.1
		C1115.3,1007.7,1116.2,998.1,1118,987.3L1118,987.3z"/>
	<path class="st0" d="M1394.4,1010.4c0,0,24,32.8,69.6,32.8c26.3,0,46-12.3,46-32.8s-20.2-27.6-40.4-35.9
		c-30.8-11.9-66.2-27.6-66.2-69.2c0-46.5,43.8-70.1,90.7-70.1c36.8,0,85.1,14.8,77.9,50.8l-3.6,16.6h-39.1l1.3-8.8
		c2.2-12.8-11.4-22.5-37.3-22.5c-27.2,0-44.7,12.3-44.7,30.8c0,21.6,23.6,29.9,45.6,38.6c29.4,11.9,62.2,26.3,62.2,65.3
		c0,42.9-38.2,73.2-93,73.2c-63.5,0-91.6-39.5-91.6-39.5L1394.4,1010.4L1394.4,1010.4z"/>
</g>
<g class="st2">
	<path class="st0" d="M1700.3,846.2c0,25.9-20.3,46.2-46.2,46.2c-25.6,0-46.2-20.3-46.2-46.2c0-25.6,20.6-45.9,46.2-45.9
		C1680,800.3,1700.3,820.6,1700.3,846.2z M1619.1,846.2c0,20.6,15,36.8,35,36.8c20,0,34.7-16.2,34.7-36.8c0-20-14.7-36.5-34.7-36.5
		C1634.1,809.7,1619.1,826.2,1619.1,846.2z M1646.8,870h-9.7v-45.6c3.8-0.9,9.1-1.8,16.5-1.8c8.2,0,12.1,1.5,15.3,3.8
		c2.6,1.8,4.7,5.3,4.7,9.7c0,5.3-4.4,9.1-9.7,10.9v0.6c4.7,1.5,6.8,5,8.2,11.2c1.5,6.8,2.4,9.7,3.2,11.2H1665
		c-1.5-1.8-2.4-5.6-3.5-11.2c-0.9-4.7-3.8-7.1-9.7-7.1h-5V870z M1647.1,844.1h5c5.9,0,10.6-1.8,10.6-6.5c0-4.4-2.9-7.1-9.7-7.1
		c-2.9,0-4.7,0.3-5.9,0.6V844.1z"/>
</g>
</svg>
