<?xml version="1.0" encoding="utf-8"?>
<!-- Generator: Adobe Illustrator 26.5.0, SVG Export Plug-In . SVG Version: 6.00 Build 0)  -->
<svg version="1.1" id="Layer_1" xmlns="http://www.w3.org/2000/svg" xmlns:xlink="http://www.w3.org/1999/xlink" x="0px" y="0px"
	 viewBox="0 0 2902.7 1590" style="enable-background:new 0 0 2902.7 1590;" xml:space="preserve">
<style type="text/css">
	.st0{fill:#231F20;}
	.st1{enable-background:new    ;}
	.st2{fill:#FFFFFF;}
	.st3{fill:none;stroke:#FFFFFF;stroke-width:10;stroke-miterlimit:10;}
</style>
<rect x="0.2" y="-0.2" class="st0" width="2902.8" height="1590.2"/>
<g class="st1">
	<path class="st2" d="M461.5,1399.7v-115h38.9c9,0,16.4,1.6,22.2,4.9c5.7,3.2,10,7.6,12.8,13.1c2.8,5.5,4.2,11.6,4.2,18.4
		c0,6.8-1.4,12.9-4.1,18.5c-2.8,5.5-7,10-12.7,13.2c-5.7,3.3-13.1,4.9-22,4.9h-27.9v-12.4h27.4c6.2,0,11.1-1.1,14.9-3.2
		c3.7-2.1,6.5-5,8.2-8.7c1.7-3.7,2.6-7.8,2.6-12.4s-0.9-8.7-2.6-12.4c-1.7-3.6-4.4-6.5-8.2-8.6c-3.8-2.1-8.8-3.1-15.1-3.1h-24.5
		v102.7H461.5z"/>
	<path class="st2" d="M593.6,1399.7v-115h38.9c9,0,16.4,1.5,22.1,4.6c5.8,3.1,10,7.2,12.8,12.6c2.8,5.3,4.2,11.4,4.2,18.1
		c0,6.8-1.4,12.8-4.2,18c-2.8,5.2-7,9.4-12.8,12.3c-5.7,3-13,4.5-22,4.5h-31.5v-12.6h31c6.1,0,11.1-0.9,14.9-2.7
		c3.8-1.8,6.5-4.4,8.2-7.7c1.7-3.3,2.6-7.3,2.6-11.9s-0.9-8.6-2.6-12.1c-1.7-3.4-4.5-6.1-8.3-8c-3.8-1.9-8.8-2.8-15-2.8h-24.5v102.7
		H593.6z M647.7,1348l28.3,51.7h-16.2L632,1348H647.7z"/>
	<path class="st2" d="M726.3,1399.7v-115h69.4v12.4h-55.5v38.9h51.9v12.4h-51.9v39.1h56.4v12.4H726.3z"/>
	<path class="st2" d="M852.5,1284.7h16.6l39.1,95.5h1.3l39.1-95.5h16.6v115h-13v-87.4h-1.1l-35.9,87.4h-12.6l-35.9-87.4h-1.1v87.4
		h-13V1284.7z"/>
	<path class="st2" d="M1038.7,1284.7v115h-13.9v-115H1038.7z"/>
	<path class="st2" d="M1173.7,1284.7h13.9v76.2c0,7.9-1.8,14.9-5.5,21c-3.7,6.2-8.9,11-15.6,14.5c-6.7,3.5-14.6,5.3-23.6,5.3
		s-16.9-1.8-23.6-5.3c-6.7-3.5-11.9-8.4-15.6-14.5c-3.7-6.2-5.5-13.2-5.5-21v-76.2h13.9v75c0,5.6,1.2,10.6,3.7,15
		c2.5,4.4,6,7.8,10.6,10.3s10.1,3.7,16.5,3.7c6.4,0,11.9-1.2,16.5-3.7s8.1-5.9,10.6-10.3c2.5-4.4,3.7-9.4,3.7-15V1284.7z"/>
	<path class="st2" d="M1247.1,1284.7h16.6l39.1,95.5h1.3l39.1-95.5h16.6v115h-13v-87.4h-1.1l-35.9,87.4h-12.6l-35.9-87.4h-1.1v87.4
		h-13V1284.7z"/>
	<path class="st2" d="M1495.5,1399.7v-115h38.9c9,0,16.4,1.6,22.2,4.9c5.7,3.2,10,7.6,12.8,13.1c2.8,5.5,4.2,11.6,4.2,18.4
		c0,6.8-1.4,12.9-4.1,18.5c-2.8,5.5-7,10-12.7,13.2c-5.7,3.3-13.1,4.9-22,4.9h-27.9v-12.4h27.4c6.2,0,11.1-1.1,14.9-3.2
		c3.7-2.1,6.5-5,8.2-8.7c1.7-3.7,2.6-7.8,2.6-12.4s-0.9-8.7-2.6-12.4c-1.7-3.6-4.4-6.5-8.2-8.6s-8.8-3.1-15.1-3.1h-24.5v102.7
		H1495.5z"/>
	<path class="st2" d="M1627.5,1399.7v-115h38.9c9,0,16.4,1.5,22.1,4.6c5.8,3.1,10,7.2,12.8,12.6c2.8,5.3,4.2,11.4,4.2,18.1
		c0,6.8-1.4,12.8-4.2,18c-2.8,5.2-7,9.4-12.8,12.3c-5.7,3-13,4.5-22,4.5h-31.5v-12.6h31c6.1,0,11.1-0.9,14.9-2.7
		c3.8-1.8,6.5-4.4,8.2-7.7c1.7-3.3,2.6-7.3,2.6-11.9s-0.9-8.6-2.6-12.1c-1.7-3.4-4.5-6.1-8.3-8c-3.8-1.9-8.8-2.8-15-2.8h-24.5v102.7
		H1627.5z M1681.7,1348l28.3,51.7h-16.2l-27.9-51.7H1681.7z"/>
</g>
<g class="st1">
	<path class="st2" d="M1861.6,1342.2c0,12.1-2.2,22.6-6.6,31.5c-4.4,8.8-10.4,15.7-18,20.4c-7.6,4.8-16.4,7.2-26.2,7.2
		s-18.5-2.4-26.2-7.2c-7.6-4.8-13.6-11.6-18-20.4c-4.4-8.8-6.6-19.3-6.6-31.5s2.2-22.6,6.6-31.5s10.4-15.7,18-20.4
		c7.6-4.8,16.4-7.2,26.2-7.2s18.5,2.4,26.2,7.2c7.6,4.8,13.6,11.6,18,20.4S1861.6,1330.1,1861.6,1342.2z M1848.1,1342.2
		c0-10-1.7-18.4-5-25.2c-3.3-6.9-7.8-12-13.4-15.6s-11.9-5.3-18.9-5.3c-7,0-13.3,1.8-18.9,5.3s-10.1,8.7-13.4,15.6
		c-3.3,6.9-5,15.3-5,25.2s1.7,18.4,5,25.2c3.3,6.9,7.8,12,13.4,15.6c5.6,3.5,11.9,5.3,18.9,5.3c7,0,13.3-1.8,18.9-5.3
		c5.6-3.5,10.1-8.7,13.4-15.6C1846.5,1360.6,1848.1,1352.2,1848.1,1342.2z"/>
</g>
<g class="st1">
	<path class="st2" d="M1916.7,1284.7l34.1,96.8h1.3l34.1-96.8h14.6l-42.2,115h-14.4l-42.2-115H1916.7z"/>
	<path class="st2" d="M2064.4,1284.7v115h-13.9v-115H2064.4z"/>
	<path class="st2" d="M2159.4,1399.7h-35.5v-115h37.1c11.2,0,20.7,2.3,28.6,6.9c7.9,4.6,14,11.2,18.3,19.7
		c4.2,8.6,6.3,18.8,6.3,30.7c0,12-2.1,22.3-6.4,30.9s-10.5,15.3-18.6,19.9C2181,1397.4,2171.1,1399.7,2159.4,1399.7z M2137.9,1387.4
		h20.7c9.5,0,17.4-1.8,23.6-5.5c6.3-3.7,10.9-8.9,14-15.7c3.1-6.8,4.6-14.8,4.6-24.2c0-9.3-1.5-17.3-4.5-24
		c-3-6.7-7.6-11.9-13.6-15.5c-6-3.6-13.5-5.4-22.5-5.4h-22.2V1387.4z"/>
	<path class="st2" d="M2269.2,1399.7v-115h69.4v12.4h-55.5v38.9h51.9v12.4h-51.9v39.1h56.4v12.4H2269.2z"/>
	<path class="st2" d="M2395.4,1399.7v-115h38.9c9,0,16.4,1.5,22.1,4.6c5.8,3.1,10,7.2,12.8,12.6c2.8,5.3,4.2,11.4,4.2,18.1
		c0,6.8-1.4,12.8-4.2,18c-2.8,5.2-7,9.4-12.8,12.3c-5.7,3-13,4.5-22,4.5h-31.5v-12.6h31c6.1,0,11.1-0.9,14.9-2.7
		c3.8-1.8,6.5-4.4,8.2-7.7c1.7-3.3,2.6-7.3,2.6-11.9s-0.9-8.6-2.6-12.1c-1.7-3.4-4.5-6.1-8.3-8c-3.8-1.9-8.8-2.8-15-2.8h-24.5v102.7
		H2395.4z M2449.6,1348l28.3,51.7h-16.2l-27.9-51.7H2449.6z"/>
</g>
<g>
	<g>
		<path class="st3" d="M2517.7,316.7c0,0,73,115.1,58.1,224.6c0,0-2.2,29.6-36.5,54.7c0,0-25.1,9.2,58.1,136.9
			c0,0,40,53.7-14.9,66.1c0,0-41,3.5-27.3,13.7c0,0,21.6,37.5,0,48c0,0,8,13.7,0,18.2c0,0,0,13.7-29.6,27.3c0,0-23.9,2.2,2.2,34.3
			c0,0,18.2,61.6-84.5,84.5c0,0-92.4,10.2-157.3-17.1c0,0-375.2-163-461.9,59.4c0,0-3.5-216.7,201.8-303.4
			c0,0,247.5-110.6,115.3-301.1c0,0-233.8-355.8,174.4-29.6C2315.9,433,2571.3,628,2517.7,316.7L2517.7,316.7z"/>
		<g>
			<g>
				<path class="st2" d="M272.9,666.6h5.7c7.1,0,10.8-1.6,13.3-8.8l88.5-239.5h42L511,657.8c2.5,7.1,6.3,8.8,13.3,8.8h5.9V701h-22.4
					c-20,0-26.5-4.9-32.9-23.3l-21.2-58.2H349.6l-21.2,58.2c-6.7,18.4-13.3,23.3-33.3,23.3h-22.2L272.9,666.6L272.9,666.6z
					 M443.5,586.2l-30.8-86.1c-5.3-14.9-11.2-39.6-11.2-39.6h-0.8c0,0-5.5,24.9-10.8,39.6L359,586.2H443.5z"/>
				<path class="st2" d="M575.7,461.5c0-5.9-3.3-8.8-8.8-8.8h-17.1v-34.5h40.4c18,0,25.7,7.5,25.7,25.7v213.8c0,5.5,3.3,8.8,8.8,8.8
					h78.1c5.5,0,8.8-3.3,8.8-8.8v-18h36.5v35.7c0,18-7.5,25.7-25.7,25.7h-121c-18,0-25.7-7.5-25.7-25.7L575.7,461.5L575.7,461.5z"/>
				<path class="st2" d="M780.8,461.5c0-5.9-3.3-8.8-8.8-8.8h-17.1v-34.5h40.4c18,0,25.7,7.5,25.7,25.7v213.8c0,5.5,3.3,8.8,8.8,8.8
					h78.1c5.5,0,8.8-3.3,8.8-8.8v-18h36.5v35.7c0,18-7.5,25.7-25.7,25.7h-121c-18,0-25.7-7.5-25.7-25.7L780.8,461.5L780.8,461.5z"/>
			</g>
			<g>
				<path class="st2" d="M1183.3,413.6c81.6,0,145.5,62.8,145.5,144.2S1265.1,706,1183.3,706s-145.1-64.9-145.1-148.1
					S1101.7,413.6,1183.3,413.6L1183.3,413.6z M1183.3,668.2c57.3,0,103.7-48.2,103.7-110.6s-46.5-106.9-103.7-106.9
					s-103.2,46.5-103.2,106.9C1080.1,620.3,1126,668.2,1183.3,668.2z"/>
				<path class="st2" d="M1357.6,666.6h17.1c5.5,0,8.8-3.3,8.8-8.8V418.3h36.5l125.7,178.9c10.4,15.3,23.7,38.4,23.7,38.4h0.8
					c0,0-2.9-22.4-2.9-38.4V443.8c0-18,7.6-25.7,26.1-25.7h40v34.5h-17.1c-5.5,0-8.8,2.9-8.8,8.8v239.5h-36.1l-126.1-178.9
					c-10.4-15.3-23.3-38.4-23.3-38.4h-0.8c0,0,2.4,22.9,2.4,38.4v153.4c0,18-7.6,25.7-25.7,25.7h-40.4L1357.6,666.6L1357.6,666.6z"
					/>
			</g>
			<path class="st2" d="M2403.8,316.7c0,0,73,115.3,58.1,224.6c0,0-2.2,29.6-36.5,54.7c0,0-25.1,9.2,58.1,136.9
				c0,0,40,53.7-14.9,66.1c0,0-41,3.5-27.3,13.7c0,0,21.6,37.5,0,48c0,0,8,13.7,0,18.2c0,0,0,13.7-29.6,27.3c0,0-23.9,2.2,2.2,34.3
				c0,0,18.2,61.6-84.5,84.5c0,0-92.4,10.2-157.3-17.1c0,0-375.2-163-461.9,59.4c0,0-3.5-216.7,201.8-303.4
				c0,0,247.5-110.6,115.3-301.1c0,0-233.8-355.8,174.4-29.6C2201.8,433,2457.5,628,2403.8,316.7L2403.8,316.7z"/>
			<path class="st2" d="M1733.8,600.5l127.3-182.2h45.7v173.4h44.1v34.5h-44.1v74.9h-40v-74.9h-133L1733.8,600.5L1733.8,600.5z
				 M1867,494.4c0-12.9,1.6-28.8,1.6-28.8h-0.8c0,0-7.1,13.7-14.5,23.7l-61.6,84.9c-7.1,10-14.9,18-14.9,18v0.8
				c0,0,11.6-1.2,24.1-1.2h66.1V494.4L1867,494.4z"/>
		</g>
	</g>
	<g>
		<path class="st2" d="M766.9,874.9c0.8-4.7,1.2-7.5,1.2-10.4c0-4.3-1.6-6.3-7.1-6.3h-17.1l6.7-34.7h37.8c16.7,0,22.2,6.7,22.2,15.5
			c0,5.5-2,14.3-4.3,20h0.8c14.3-21.8,39.4-40.6,74.9-40.6c49.4,0,78.8,33.5,78.8,88.8c0,77.3-56.9,133-115.9,133
			c-27.1,0-51.8-12.7-62.8-36.7h-0.8c0,0-0.8,8.8-2.9,19.6l-18.4,95.9h-40.6L766.9,874.9L766.9,874.9z M840.1,1004.9
			c37.3,0,79.2-36.3,79.2-95.1c0-36.3-18-56.1-47.7-56.1c-43.5,0-77.7,47.7-77.7,95.9C793.6,980.2,808.7,1004.8,840.1,1004.9
			L840.1,1004.9z"/>
		<path class="st2" d="M993.2,1006.3L1035,790c0.8-4.3,1.2-6.3,1.2-9.2c0-4.7-2.4-6.3-7.6-6.3h-17.1l7.1-34.7h38.6
			c16.3,0,23.9,5.5,23.9,18.8c0,3.3-0.8,7.5-1.6,12l-42.2,216.7c-0.4,2-1.2,5.5-1.2,6.7c0,4.3,2.4,6.3,8,6.3h17.1l-6.7,34.7h-39
			c-15.9,0-23.5-6.7-23.5-19.2C991.9,1012.8,992.3,1009.6,993.2,1006.3L993.2,1006.3z"/>
		<path class="st2" d="M1116.2,956.3l16.7-85.3c0.4-2,1.2-5.5,1.2-7.1c0-3.7-2.4-5.9-8-5.9H1109l6.7-34.7h39.4
			c15.9,0,23.5,6.7,23.5,19.2c0,2.9-0.4,5.9-1.2,9.6l-18.8,97.5c-1.6,7.1-2.4,14.3-2.4,21c0,18,7.1,31.8,31.8,31.8
			c42.2,0,77.3-46.5,85.3-86.7l17.9-92.4h40.6l-31.4,162c-0.8,2.5-1.2,6.3-1.2,8.4c0,4.3,2.4,6.7,8,6.7h16.7l-6.7,34.7h-38.6
			c-15.5,0-22.7-7.1-22.7-18.8c0-7.5,2.9-18,5.1-26.7h-0.8c-11.6,18.8-41.8,50.6-87.1,50.6c-39,0-59.4-21-59.4-57.3
			C1113.7,974.9,1114.5,966.1,1116.2,956.3L1116.2,956.3z"/>
		<path class="st2" d="M1367.3,977.3c0,0,21.8,29.8,63.2,29.8c23.9,0,41.8-11.2,41.8-29.8s-18.4-25.1-36.7-32.6
			c-27.9-10.8-60.2-25.1-60.2-62.8c0-42.2,39.8-63.7,82.4-63.7c33.5,0,77.3,13.5,70.8,46.1l-3.3,15.1H1490l1.2-8
			c2-11.6-10.4-20.4-33.9-20.4c-24.7,0-40.6,11.2-40.6,28c0,19.6,21.4,27.1,41.4,35.1c26.7,10.8,56.5,23.9,56.5,59.4
			c0,39-34.7,66.5-84.5,66.5c-57.7,0-83.2-35.9-83.2-35.9L1367.3,977.3L1367.3,977.3z"/>
	</g>
	<g class="st1">
		<path class="st2" d="M1645.3,828.1c0,23.5-18.4,41.9-41.9,41.9c-23.2,0-41.9-18.4-41.9-41.9c0-23.2,18.7-41.7,41.9-41.7
			C1626.8,786.4,1645.3,804.8,1645.3,828.1z M1571.5,828.1c0,18.7,13.6,33.4,31.8,33.4c18.2,0,31.5-14.7,31.5-33.4
			c0-18.2-13.4-33.1-31.5-33.1C1585.1,795,1571.5,809.9,1571.5,828.1z M1596.6,849.7h-8.8v-41.4c3.5-0.8,8.3-1.6,15-1.6
			c7.5,0,11,1.3,13.9,3.5c2.4,1.6,4.3,4.8,4.3,8.8c0,4.8-4,8.3-8.8,9.9v0.5c4.3,1.3,6.1,4.5,7.5,10.2c1.3,6.1,2.1,8.8,2.9,10.2h-9.4
			c-1.3-1.6-2.1-5.1-3.2-10.2c-0.8-4.3-3.5-6.4-8.8-6.4h-4.5V849.7z M1596.9,826.2h4.5c5.3,0,9.6-1.6,9.6-5.9c0-4-2.7-6.4-8.8-6.4
			c-2.7,0-4.3,0.3-5.3,0.5V826.2z"/>
	</g>
</g>
</svg>
