<?xml version="1.0" encoding="utf-8"?>
<!-- Generator: Adobe Illustrator 26.5.0, SVG Export Plug-In . SVG Version: 6.00 Build 0)  -->
<svg version="1.1" id="Layer_1" xmlns="http://www.w3.org/2000/svg" xmlns:xlink="http://www.w3.org/1999/xlink" x="0px" y="0px"
	 viewBox="0 0 389 224.3" style="enable-background:new 0 0 389 224.3;" xml:space="preserve">
<style type="text/css">
	.st0{fill:none;}
	.st1{fill:#FFFFFF;}
	.st2{fill:none;stroke:#FFFFFF;stroke-miterlimit:10;}
	.st3{fill:none;stroke:#000000;stroke-width:4;stroke-miterlimit:10;}
</style>
<g>
	<rect x="46.9" y="40.3" class="st0" width="378.7" height="61.7"/>
	<path class="st1" d="M71.6,93.6c-11,0-20.4-5.6-20.4-17.7V58.2c0-11.2,8.4-18.8,20-18.8c10.6,0,19,5.9,19,15.5v1.8h-6.9v-1
		c0-6.4-5.1-9.9-12.3-9.9c-7,0-12.5,4.2-12.5,11.9v17.8c0,7.4,5.2,11.8,12.8,11.8c7.1,0,11.9-3.5,11.9-9.9v-1.1h7v1.8
		C90.3,88.6,81,93.6,71.6,93.6z"/>
	<path class="st1" d="M137.7,92.7L132.9,79h-20.4l-4.8,13.7h-7.3l19.2-52.6h6.8l19,52.6H137.7z M122.8,49.3L122.8,49.3l-8.2,23.5
		h16.3L122.8,49.3z"/>
	<path class="st1" d="M156.1,92.7v-6.4h11.2V46.7h-11.2v-6.4h29.8v6.4h-11.2v39.6h11.2v6.4C185.9,92.7,156.1,92.7,156.1,92.7z"/>
	<path class="st1" d="M220.2,92.7h-19.5V40.3h19.4c10.9,0,19,6.5,19,17.8v16.4C239.1,86,230.6,92.7,220.2,92.7z M219.4,46.7h-11.5
		v39.6h12c7.3,0,11.9-4.5,11.9-11.4V58.2C231.8,51.4,227.2,46.7,219.4,46.7z"/>
</g>
<polyline class="st2" points="11.5,93.2 11.5,214.3 152.4,214.3 "/>
<polyline class="st2" points="289.3,46 289.3,8.3 246.9,8.3 "/>
<g>
	<path class="st1" d="M60.8,144.8c-4.3,0-7.9-2.2-7.9-6.9V131c0-4.4,3.3-7.3,7.7-7.3c4.1,0,7.4,2.3,7.4,6v0.7h-2.7V130
		c0-2.5-2-3.8-4.8-3.8c-2.7,0-4.8,1.6-4.8,4.6v6.9c0,2.9,2,4.6,5,4.6c2.8,0,4.6-1.4,4.6-3.8V138H68v0.7
		C68.1,142.8,64.5,144.8,60.8,144.8z"/>
	<path class="st1" d="M71.7,144.4v-20.3h12.9v2.5H74.5v6.1H83v2.5h-8.5v6.7h10.2v2.5H71.7z"/>
	<path class="st1" d="M101,144.4l-9.7-15.6h-0.1v15.5h-2.6V124h2.8l9.7,15.3h0.1V124h2.6v20.3H101V144.4z"/>
	<path class="st1" d="M115.5,126.6v17.9h-2.8v-17.9h-5.9v-2.4h14.5v2.4H115.5z"/>
	<path class="st1" d="M136,144.4l-5.2-7.9h-3.6v7.9h-2.8v-20.3h7.3c1.8,0,3.4,0.4,4.6,1.3c1.4,1.1,2.2,2.8,2.2,4.8
		c0,2.9-1.7,5.3-4.7,6l5.5,8.2H136z M131.1,126.5h-3.9v7.6h4c2.8,0,4.5-1.3,4.5-3.9C135.6,127.5,133.5,126.5,131.1,126.5z"/>
	<path class="st1" d="M142.4,144.4v-20.3h12.9v2.5h-10.1v6.1h8.5v2.5h-8.5v6.7h10.2v2.5H142.4z"/>
	<path class="st1" d="M168.9,126.6v6.2h8.1v2.4h-8.1v9.2h-2.8v-20.3h12.7v2.5C178.8,126.6,168.9,126.6,168.9,126.6z"/>
	<path class="st1" d="M189.2,144.8c-4.3,0-7.7-2.4-7.7-6.9v-6.7c0-4.6,3.5-7.4,7.7-7.4c4.4,0,7.8,2.6,7.8,7.1v6.6
		C197,142.1,193.3,144.8,189.2,144.8z M189.1,126.2c-2.7,0-4.8,1.7-4.8,4.8v6.7c0,2.9,2,4.6,5,4.6c2.7,0,4.9-1.6,4.9-4.6v-6.9
		C194.1,127.9,192.1,126.2,189.1,126.2z"/>
	<path class="st1" d="M212.5,144.4l-5.2-7.9h-3.6v7.9h-2.8v-20.3h7.3c1.8,0,3.4,0.4,4.6,1.3c1.4,1.1,2.2,2.8,2.2,4.8
		c0,2.9-1.7,5.3-4.7,6l5.5,8.2H212.5z M207.6,126.5h-3.9v7.6h4c2.8,0,4.5-1.3,4.5-3.9C212.1,127.5,210,126.5,207.6,126.5z"/>
	<path class="st1" d="M238.6,144.4l-1.9-5.3h-7.9l-1.9,5.3h-2.8l7.4-20.4h2.6l7.3,20.4H238.6z M232.9,127.6L232.9,127.6l-3.2,9.1
		h6.3L232.9,127.6z"/>
	<path class="st1" d="M244.4,144.4v-20.3h12.9v2.5h-10.1v6.1h8.5v2.5h-8.5v6.7h10.2v2.5H244.4z"/>
	<path class="st1" d="M267.8,144.8c-3.9,0-6.8-1.9-7.7-5.2l2.7-0.8c0.7,2.1,2.4,3.6,5.1,3.6c2.2,0,4.4-1.1,4.4-3.4
		c0-2-1.5-2.8-3.4-3.3c-0.7-0.2-3.4-1-4.1-1.2c-2-0.7-3.6-2.2-3.6-4.8c0-3.7,2.9-5.8,6.7-5.8c3.2,0,5.9,1.1,6.9,4.1l-2.4,1
		c-0.9-1.9-2.4-2.7-4.6-2.7c-1.9,0-3.8,1.1-3.8,3.1c0,1.6,1.3,2.4,2.9,2.8c0.7,0.2,3.5,1,4.2,1.3c2.2,0.7,4,2.2,4,5.2
		C275.2,142.5,271.9,144.8,267.8,144.8z"/>
	<path class="st1" d="M286,126.6v17.9h-2.8v-17.9h-5.9v-2.4h14.5v2.4H286z"/>
	<path class="st1" d="M307.1,144.4v-9.2h-9.3v9.2H295v-20.3h2.8v8.6h9.4v-8.6h2.8v20.3H307.1z"/>
	<path class="st1" d="M314.3,144.4v-20.3h12.9v2.5h-10.1v6.1h8.5v2.5h-8.5v6.7h10.2v2.5H314.3z"/>
	<path class="st1" d="M338.6,126.6v17.9h-2.8v-17.9h-5.9v-2.4h14.5v2.4H338.6z"/>
	<path class="st1" d="M347,144.4v-2.5h4.4v-15.3H347v-2.5h11.5v2.5h-4.4v15.3h4.4v2.5H347z"/>
	<path class="st1" d="M369.9,144.8c-4.3,0-7.9-2.2-7.9-6.9V131c0-4.4,3.3-7.3,7.7-7.3c4.1,0,7.4,2.3,7.4,6v0.7h-2.7V130
		c0-2.5-2-3.8-4.8-3.8c-2.7,0-4.8,1.6-4.8,4.6v6.9c0,2.9,2,4.6,5,4.6c2.8,0,4.6-1.4,4.6-3.8V138h2.7v0.7
		C377.1,142.8,373.5,144.8,369.9,144.8z"/>
	<path class="st1" d="M68.4,177l-2.2-2.4c-1.6,1.7-3.8,2.7-6.8,2.7c-4.1,0-6.7-2.4-6.7-5.6c0-2.2,1.5-4.7,5.2-6.1
		c-1.2-1.2-2.5-2.8-2.5-4.4c0-2.2,1.8-4.9,6.3-4.9c3.6,0,5.5,2.2,5.5,4.5c0,2.9-2.8,4.6-5.1,5.4l4.4,4.8c0.5-1,0.9-2,1.3-3.3
		l2.2,0.2c-0.5,1.7-1,3.3-1.9,4.8l4,4.4L68.4,177L68.4,177z M59.2,167c-2.3,0.8-3.4,2.8-3.4,4.5c0,2.2,1.7,3.7,4.2,3.7
		c2,0,3.6-0.8,4.8-2.1L59.2,167z M61.6,158.3c-2.2,0-3.2,1.2-3.2,2.7c0,1,0.9,2,1.5,2.7c0.3,0.3,0.6,0.6,0.9,1
		c2.1-0.6,3.9-1.7,3.9-3.8C64.6,159.1,63.1,158.3,61.6,158.3z"/>
	<path class="st1" d="M81.3,177v-2.5h4.4v-15.3h-4.4v-2.5h11.5v2.5h-4.4v15.3h4.4v2.5H81.3z"/>
	<path class="st1" d="M112.5,177v-16h-0.1l-5.3,12.5h-2.2L99.6,161h-0.1v16h-2.7v-20.3h3.8l5.4,13h0.1l5.4-13h3.8V177H112.5z"/>
	<path class="st1" d="M126.8,169h-4.4v7.9h-2.8v-20.3h7.3c4,0,6.7,2.2,6.7,6.1C133.6,166.3,131.3,169,126.8,169z M126.2,159.1h-3.9
		v7.6h4c2.8,0,4.5-1.3,4.5-3.9C130.8,160.2,129,159.1,126.2,159.1z"/>
	<path class="st1" d="M137,177v-20.3h2.8v17.8h9.9v2.5H137z"/>
	<path class="st1" d="M166.5,177l-1.9-5.3h-7.9l-1.9,5.3H152l7.4-20.4h2.6l7.3,20.4H166.5z M160.8,160.1L160.8,160.1l-3.2,9.1h6.3
		L160.8,160.1z"/>
	<path class="st1" d="M184.8,177l-9.7-15.6H175V177h-2.6v-20.3h2.8l9.7,15.3h0.1v-15.3h2.6V177H184.8z"/>
	<path class="st1" d="M199.2,159.1V177h-2.8v-17.9h-5.9v-2.4H205v2.4H199.2z"/>
	<path class="st1" d="M222.5,177H215v-20.3h7.5c4.2,0,7.4,2.5,7.4,6.9v6.3C229.8,174.4,226.5,177,222.5,177z M222.2,159.1h-4.5v15.3
		h4.6c2.8,0,4.6-1.7,4.6-4.4v-6.5C227,161,225.2,159.1,222.2,159.1z"/>
	<path class="st1" d="M233.7,177v-20.3h12.9v2.5h-10.1v6.1h8.5v2.5h-8.5v6.7h10.2v2.5H233.7z"/>
	<path class="st1" d="M263,177l-9.7-15.6h-0.1V177h-2.6v-20.3h2.8L263,172h0.1v-15.3h2.6V177H263z"/>
	<path class="st1" d="M277.4,159.1V177h-2.8v-17.9h-5.9v-2.4h14.5v2.4H277.4z"/>
	<path class="st1" d="M285.9,177v-2.5h4.4v-15.3h-4.4v-2.5h11.5v2.5H293v15.3h4.4v2.5H285.9z"/>
	<path class="st1" d="M307.9,177.3c-3.9,0-6.8-1.9-7.7-5.2l2.7-0.8c0.7,2.1,2.4,3.6,5.1,3.6c2.2,0,4.4-1.1,4.4-3.4
		c0-2-1.5-2.8-3.4-3.3c-0.7-0.2-3.4-1-4.1-1.2c-2-0.7-3.6-2.2-3.6-4.8c0-3.7,2.9-5.8,6.7-5.8c3.2,0,5.9,1.1,6.9,4.1l-2.4,1
		c-0.9-1.9-2.4-2.7-4.6-2.7c-1.9,0-3.8,1.1-3.8,3.1c0,1.6,1.3,2.4,2.9,2.8c0.7,0.2,3.5,1,4.2,1.3c2.2,0.7,4,2.2,4,5.2
		C315.3,175.1,312,177.3,307.9,177.3z"/>
	<path class="st1" d="M326.1,159.1V177h-2.8v-17.9h-5.9v-2.4H332v2.4H326.1z"/>
	<path class="st1" d="M346.7,177l-5.2-7.9h-3.6v7.9H335v-20.3h7.3c1.8,0,3.4,0.4,4.6,1.3c1.4,1.1,2.2,2.8,2.2,4.8
		c0,2.9-1.7,5.3-4.7,6l5.5,8.2H346.7z M341.7,159.1h-3.9v7.6h4c2.8,0,4.5-1.3,4.5-3.9C346.3,160,344.1,159.1,341.7,159.1z"/>
	<path class="st1" d="M359.9,168.6v8.4h-2.8v-8.4l-6.6-11.9h3.1l4.9,9.3l5-9.3h3L359.9,168.6z"/>
</g>
<g>
	<rect x="-388.7" y="40.3" class="st0" width="378.7" height="61.7"/>
	<path d="M-364,93.6c-11,0-20.4-5.6-20.4-17.7V58.2c0-11.2,8.4-18.8,20-18.8c10.6,0,19,5.9,19,15.5v1.8h-6.9v-1
		c0-6.4-5.1-9.9-12.3-9.9c-7,0-12.5,4.2-12.5,11.9v17.8c0,7.4,5.2,11.8,12.8,11.8c7.1,0,11.9-3.5,11.9-9.9v-1.1h7v1.8
		C-345.3,88.6-354.7,93.6-364,93.6z"/>
	<path d="M-298,92.7l-4.8-13.7h-20.4l-4.8,13.7h-7.3l19.2-52.6h6.8l19,52.6H-298z M-312.9,49.3h-0.1l-8.1,23.5h16.3L-312.9,49.3z"/>
	<path d="M-279.5,92.7v-6.4h11.2V46.7h-11.2v-6.4h29.8v6.4H-261v39.6h11.2v6.4C-249.8,92.7-279.5,92.7-279.5,92.7z"/>
	<path d="M-215.5,92.7H-235V40.3h19.4c10.9,0,19,6.5,19,17.8v16.4C-196.5,86-205,92.7-215.5,92.7z M-216.2,46.7h-11.5v39.6h12
		c7.3,0,11.9-4.5,11.9-11.4V58.2C-203.8,51.4-208.4,46.7-216.2,46.7z"/>
</g>
<polyline class="st3" points="-424.2,93.2 -424.2,214.3 -283.2,214.3 "/>
<polyline class="st3" points="-146.3,46 -146.3,8.3 -188.7,8.3 "/>
<g>
	<path d="M-374.8,148c-4.3,0-7.9-2.2-7.9-6.9v-6.9c0-4.4,3.3-7.3,7.7-7.3c4.1,0,7.4,2.3,7.4,6v0.7h-2.7v-0.4c0-2.5-2-3.8-4.8-3.8
		c-2.7,0-4.8,1.6-4.8,4.6v6.9c0,2.9,2,4.6,5,4.6c2.8,0,4.6-1.4,4.6-3.8v-0.4h2.7v0.7C-367.6,146.1-371.2,148-374.8,148z"/>
	<path d="M-363.9,147.7v-20.3h12.9v2.5h-10.1v6.1h8.5v2.5h-8.5v6.7h10.2v2.5H-363.9z"/>
	<path d="M-334.6,147.7l-9.7-15.6h-0.1v15.5h-2.6v-20.3h2.8l9.7,15.3h0.1v-15.3h2.6v20.3h-2.8V147.7z"/>
	<path d="M-320.1,129.8v17.9h-2.8v-17.9h-5.9v-2.4h14.5v2.4H-320.1z"/>
	<path d="M-299.6,147.7l-5.2-7.9h-3.6v7.9h-2.8v-20.3h7.3c1.8,0,3.4,0.4,4.6,1.3c1.4,1.1,2.2,2.8,2.2,4.8c0,2.9-1.7,5.3-4.7,6
		l5.5,8.2H-299.6z M-304.5,129.7h-3.9v7.6h4c2.8,0,4.5-1.3,4.5-3.9C-300,130.7-302.2,129.7-304.5,129.7z"/>
	<path d="M-293.2,147.7v-20.3h12.9v2.5h-10.1v6.1h8.5v2.5h-8.5v6.7h10.2v2.5H-293.2z"/>
	<path d="M-266.7,129.8v6.2h8.1v2.4h-8.1v9.2h-2.8v-20.3h12.7v2.5L-266.7,129.8L-266.7,129.8z"/>
	<path d="M-246.5,148c-4.3,0-7.7-2.4-7.7-6.9v-6.7c0-4.6,3.5-7.4,7.7-7.4c4.4,0,7.8,2.6,7.8,7.1v6.6
		C-238.7,145.3-242.3,148-246.5,148z M-246.5,129.5c-2.7,0-4.8,1.7-4.8,4.8v6.7c0,2.9,2,4.6,5,4.6c2.7,0,4.9-1.6,4.9-4.6v-7
		C-241.5,131.2-243.5,129.5-246.5,129.5z"/>
	<path d="M-223.1,147.7l-5.2-7.9h-3.6v7.9h-2.8v-20.3h7.3c1.8,0,3.4,0.4,4.6,1.3c1.4,1.1,2.2,2.8,2.2,4.8c0,2.9-1.7,5.3-4.7,6
		l5.5,8.2H-223.1z M-228.1,129.7h-3.9v7.6h4c2.8,0,4.5-1.3,4.5-3.9C-223.5,130.7-225.7,129.7-228.1,129.7z"/>
	<path d="M-197,147.7l-1.9-5.3h-7.9l-1.9,5.3h-2.8l7.4-20.4h2.6l7.3,20.4H-197z M-202.8,130.8L-202.8,130.8l-3.2,9.1h6.3
		L-202.8,130.8z"/>
	<path d="M-191.2,147.7v-20.3h12.9v2.5h-10.1v6.1h8.5v2.5h-8.5v6.7h10.2v2.5H-191.2z"/>
	<path d="M-167.8,148c-3.9,0-6.8-1.9-7.7-5.2l2.7-0.8c0.7,2.1,2.4,3.6,5.1,3.6c2.2,0,4.4-1.1,4.4-3.4c0-2-1.5-2.8-3.4-3.3
		c-0.7-0.2-3.4-1-4.1-1.2c-2-0.7-3.6-2.2-3.6-4.8c0-3.7,2.9-5.8,6.7-5.8c3.2,0,5.9,1.1,6.9,4.1l-2.4,1c-0.9-1.9-2.4-2.7-4.6-2.7
		c-1.9,0-3.8,1.1-3.8,3.1c0,1.6,1.3,2.4,2.9,2.8c0.7,0.2,3.5,1,4.2,1.3c2.2,0.7,4,2.2,4,5.2C-160.5,145.7-163.7,148-167.8,148z"/>
	<path d="M-149.6,129.8v17.9h-2.8v-17.9h-5.9v-2.4h14.5v2.4H-149.6z"/>
	<path d="M-128.5,147.7v-9.2h-9.3v9.2h-2.8v-20.3h2.8v8.6h9.4v-8.6h2.8v20.3H-128.5z"/>
	<path d="M-121.3,147.7v-20.3h12.9v2.5h-10.1v6.1h8.5v2.5h-8.5v6.7h10.2v2.5H-121.3z"/>
	<path d="M-97.1,129.8v17.9h-2.8v-17.9h-5.9v-2.4h14.5v2.4H-97.1z"/>
	<path d="M-88.6,147.7v-2.5h4.4v-15.3h-4.4v-2.5h11.5v2.5h-4.4v15.3h4.4v2.5H-88.6z"/>
	<path d="M-65.7,148c-4.3,0-7.9-2.2-7.9-6.9v-6.9c0-4.4,3.3-7.3,7.7-7.3c4.1,0,7.4,2.3,7.4,6v0.7h-2.7v-0.4c0-2.5-2-3.8-4.8-3.8
		c-2.7,0-4.8,1.6-4.8,4.6v6.9c0,2.9,2,4.6,5,4.6c2.8,0,4.6-1.4,4.6-3.8v-0.4h2.7v0.7C-58.5,146.1-62.1,148-65.7,148z"/>
	<path d="M-367.2,180.2l-2.2-2.4c-1.6,1.7-3.8,2.7-6.8,2.7c-4.1,0-6.7-2.4-6.7-5.6c0-2.2,1.5-4.7,5.2-6.1c-1.2-1.2-2.5-2.8-2.5-4.4
		c0-2.2,1.8-4.9,6.3-4.9c3.6,0,5.5,2.2,5.5,4.5c0,2.9-2.8,4.6-5.1,5.4l4.4,4.8c0.5-1,0.9-2,1.3-3.3l2.2,0.2c-0.5,1.7-1,3.3-1.9,4.8
		l4,4.4L-367.2,180.2L-367.2,180.2z M-376.5,170.2c-2.3,0.8-3.4,2.8-3.4,4.5c0,2.2,1.7,3.7,4.2,3.7c2,0,3.6-0.8,4.8-2.1
		L-376.5,170.2z M-374,161.6c-2.2,0-3.2,1.2-3.2,2.7c0,1,0.9,2,1.5,2.7c0.3,0.3,0.6,0.6,0.9,1c2.1-0.6,3.9-1.7,3.9-3.8
		C-371,162.4-372.6,161.6-374,161.6z"/>
	<path d="M-354.3,180.2v-2.5h4.4v-15.3h-4.4v-2.5h11.5v2.5h-4.4v15.3h4.4v2.5H-354.3z"/>
	<path d="M-323.2,180.2v-15.9h-0.1l-5.3,12.5h-2.2l-5.3-12.5h-0.1v15.9h-2.7v-20.3h3.8l5.4,13h0.1l5.4-13h3.8v20.3H-323.2z"/>
	<path d="M-308.8,172.3h-4.4v7.9h-2.8v-20.3h7.3c4,0,6.7,2.2,6.7,6.1C-302,169.6-304.4,172.3-308.8,172.3z M-309.4,162.3h-3.9v7.6h4
		c2.8,0,4.5-1.3,4.5-3.9C-304.9,163.5-306.6,162.3-309.4,162.3z"/>
	<path d="M-298.6,180.2v-20.3h2.8v17.8h9.9v2.5H-298.6z"/>
	<path d="M-269.1,180.2l-1.9-5.3h-7.9l-1.9,5.3h-2.8l7.4-20.4h2.6l7.3,20.4H-269.1z M-274.9,163.4L-274.9,163.4l-3.2,9.1h6.3
		L-274.9,163.4z"/>
	<path d="M-250.9,180.2l-9.7-15.6h-0.1v15.5h-2.6v-20.3h2.8l9.7,15.3h0.1v-15.3h2.6v20.3h-2.8V180.2z"/>
	<path d="M-236.4,162.3v17.9h-2.8v-17.9h-5.9v-2.4h14.5v2.4H-236.4z"/>
	<path d="M-213.2,180.2h-7.5v-20.3h7.5c4.2,0,7.4,2.5,7.4,6.9v6.3C-205.8,177.6-209.1,180.2-213.2,180.2z M-213.5,162.4h-4.5v15.3
		h4.6c2.8,0,4.6-1.7,4.6-4.4v-6.5C-208.7,164.2-210.4,162.4-213.5,162.4z"/>
	<path d="M-201.9,180.2v-20.3h12.9v2.5h-10.1v6.1h8.5v2.5h-8.5v6.7h10.2v2.5H-201.9z"/>
	<path d="M-172.6,180.2l-9.7-15.6h-0.1v15.5h-2.6v-20.3h2.8l9.7,15.3h0.1v-15.3h2.6v20.3h-2.8V180.2z"/>
	<path d="M-158.2,162.3v17.9h-2.8v-17.9h-5.9v-2.4h14.5v2.4H-158.2z"/>
	<path d="M-149.7,180.2v-2.5h4.4v-15.3h-4.4v-2.5h11.5v2.5h-4.4v15.3h4.4v2.5H-149.7z"/>
	<path d="M-127.7,180.5c-3.9,0-6.8-1.9-7.7-5.2l2.7-0.8c0.7,2.1,2.4,3.6,5.1,3.6c2.2,0,4.4-1.1,4.4-3.4c0-2-1.5-2.8-3.4-3.3
		c-0.7-0.2-3.4-1-4.1-1.2c-2-0.7-3.6-2.2-3.6-4.8c0-3.7,2.9-5.8,6.7-5.8c3.2,0,5.9,1.1,6.9,4.1l-2.4,1c-0.9-1.9-2.4-2.7-4.6-2.7
		c-1.9,0-3.8,1.1-3.8,3.1c0,1.6,1.3,2.4,2.9,2.8c0.7,0.2,3.5,1,4.2,1.3c2.2,0.7,4,2.2,4,5.2C-120.4,178.3-123.6,180.5-127.7,180.5z"
		/>
	<path d="M-109.5,162.3v17.9h-2.8v-17.9h-5.9v-2.4h14.5v2.4H-109.5z"/>
	<path d="M-88.9,180.2l-5.2-7.9h-3.6v7.9h-2.8v-20.3h7.3c1.8,0,3.4,0.4,4.6,1.3c1.4,1.1,2.2,2.8,2.2,4.8c0,2.9-1.7,5.3-4.7,6
		l5.5,8.2H-88.9z M-93.9,162.3h-3.9v7.6h4c2.8,0,4.5-1.3,4.5-3.9C-89.4,163.3-91.5,162.3-93.9,162.3z"/>
	<path d="M-75.7,171.8v8.4h-2.8v-8.4l-6.6-11.9h3.1l4.9,9.3l5-9.3h3L-75.7,171.8z"/>
</g>
</svg>
