<?xml version="1.0" encoding="utf-8"?>
<!-- Generator: Adobe Illustrator 26.5.0, SVG Export Plug-In . SVG Version: 6.00 Build 0)  -->
<svg version="1.1" id="Layer_1" xmlns="http://www.w3.org/2000/svg" xmlns:xlink="http://www.w3.org/1999/xlink" x="0px" y="0px"
	 viewBox="0 0 391.9 73.9" style="enable-background:new 0 0 391.9 73.9;" xml:space="preserve">
<style type="text/css">
	.st0{fill:none;}
	.st1{fill:#FFFFFF;}
	.st2{fill:#00AEEF;}
</style>
<g>
	<g>
		<g>
			<rect x="188.9" y="11.7" class="st0" width="265.2" height="62.2"/>
			<path class="st1" d="M216.5,36.5c0-6.5-3.5-9.8-8.8-9.8c-5.4,0-9.1,3.3-9.1,10.2v17.5h-5.2V22.8h5.2v4.5
				c2.1-3.3,5.9-5.1,10.2-5.1c7.3,0,12.9,4.5,12.9,13.6v18.6h-5.2V36.5z"/>
			<path class="st1" d="M257.7,36.5c0-6.5-3.5-9.8-8.8-9.8c-5.4,0-9.1,3.3-9.1,10.2v17.5h-5.2V22.8h5.2v4.5
				c2.1-3.3,5.9-5.1,10.2-5.1c7.3,0,12.9,4.5,12.9,13.6v18.6h-5.2V36.5z"/>
			<path class="st1" d="M289.4,54.9c-9,0-15.6-6.3-15.6-16.4c0-10,6.4-16.3,15.6-16.3c9.2,0,15.2,6.5,15.2,15.1
				c0,1.2-0.1,2.1-0.2,3.2h-25.3c0.4,6.4,4.9,9.9,10.3,9.9c4.7,0,7.7-2.4,8.9-5.8h5.7C302.3,50.4,297.3,54.9,289.4,54.9z
				 M279.2,36.3h20c0.1-6.2-4.6-9.6-10-9.6C284,26.7,279.8,30.1,279.2,36.3z"/>
			<path class="st1" d="M329.2,22.3c7.8,0,13,4,14.6,10.7h-5.7c-1.1-3.8-4.3-6.2-8.9-6.2c-5.8,0-10,4.1-10,11.8
				c0,7.8,4.3,11.9,10,11.9c4.7,0,7.8-2.2,8.9-6.2h5.7c-1.6,6.3-6.8,10.7-14.6,10.7c-9,0-15.4-6.3-15.4-16.4
				C313.8,28.6,320.2,22.3,329.2,22.3z"/>
			<path class="st1" d="M356.2,27.1h-4.1v-4.3h4.1v-8h5.2v8h8.3v4.3h-8.3v18.6c0,3.1,1.2,4.2,4.4,4.2h3.9v4.4H365
				c-5.6,0-8.8-2.3-8.8-8.7V27.1z"/>
		</g>
		<g id="XMLID_00000028306647095135650740000011212217777785854641_">
			<path id="XMLID_00000092438872885728181660000015581993595699950491_" class="st2" d="M148,44.3l14.2-14.2
				c2.3-2.3,5.4-3.6,8.7-3.6c3.3,0,6.4,1.3,8.7,3.6c4.8,4.8,4.8,12.6,0,17.4c-4.8,4.8-12.6,4.8-17.4,0c-0.8-0.8-1.4,0.3-2.3,1.1
				c-0.8,0.8-1.6,1.1-0.8,2c3.2,3.2,7.5,4.9,11.8,4.9c4.3,0,8.5-1.6,11.8-4.9c6.5-6.5,6.5-17,0-23.5c-6.5-6.5-17-6.5-23.5,0
				l-14.2,14.2"/>
			<path id="XMLID_00000028313238490960117130000017647563835870035088_" class="st2" d="M153.7,27c-3.1-3.1-7.3-4.9-11.8-4.9
				s-8.6,1.7-11.8,4.9c-3.1,3.1-4.9,7.3-4.9,11.8c0,4.4,1.7,8.6,4.9,11.8c3.2,3.2,7.5,4.9,11.8,4.9s8.5-1.6,11.8-4.9l14.2-14.2
				c0.8-0.8,0.2-1.6-0.7-2.5c-0.8-0.8-1.5-1.5-2.4-0.6l-14.2,14.2c-4.8,4.8-12.6,4.8-17.4,0c-2.3-2.3-3.6-5.4-3.6-8.7
				c0-3.3,1.3-6.4,3.6-8.7c2.3-2.3,5.4-3.6,8.7-3.6s6.4,1.3,8.7,3.6"/>
		</g>
		<g>
			<rect x="8.7" y="11.7" class="st0" width="265.2" height="62.2"/>
			<path class="st1" d="M26.6,22.3c7.8,0,13,4,14.6,10.7h-5.7c-1.1-3.8-4.3-6.2-8.9-6.2c-5.8,0-10,4.1-10,11.8
				c0,7.8,4.3,11.9,10,11.9c4.7,0,7.8-2.2,8.9-6.2h5.7c-1.6,6.3-6.8,10.7-14.6,10.7c-9,0-15.4-6.3-15.4-16.4
				C11.2,28.6,17.6,22.3,26.6,22.3z"/>
			<path class="st1" d="M52.4,11.7h5.2v42.7h-5.2V11.7z"/>
			<path class="st1" d="M70,14.1c0-2,1.6-3.6,3.6-3.6c1.9,0,3.5,1.6,3.5,3.6c0,2-1.6,3.6-3.5,3.6C71.6,17.6,70,16.1,70,14.1z
				 M70.9,22.8h5.2v31.6h-5.2V22.8z"/>
			<path class="st1" d="M112.5,36.5c0-6.5-3.5-9.8-8.8-9.8c-5.4,0-9.1,3.3-9.1,10.2v17.5h-5.2V22.8h5.2v4.5
				c2.1-3.3,5.9-5.1,10.2-5.1c7.3,0,12.9,4.5,12.9,13.6v18.6h-5.2V36.5z"/>
		</g>
	</g>
	<g>
		<path class="st1" d="M378.2,29.8c-0.6,0-1.1-0.1-1.6-0.3c-0.5-0.2-0.9-0.5-1.3-0.9c-0.4-0.4-0.7-0.8-0.9-1.3
			c-0.2-0.5-0.3-1-0.3-1.6c0-0.6,0.1-1.1,0.3-1.6c0.2-0.5,0.5-0.9,0.9-1.3c0.4-0.4,0.8-0.7,1.3-0.9s1-0.3,1.6-0.3
			c0.6,0,1.1,0.1,1.6,0.3s0.9,0.5,1.3,0.9c0.4,0.4,0.7,0.8,0.9,1.3c0.2,0.5,0.3,1,0.3,1.6c0,0.6-0.1,1.1-0.3,1.6
			c-0.2,0.5-0.5,0.9-0.9,1.3c-0.4,0.4-0.8,0.7-1.3,0.9C379.3,29.7,378.8,29.8,378.2,29.8z M378.2,28.8c0.6,0,1.1-0.1,1.6-0.4
			c0.5-0.3,0.9-0.7,1.1-1.1c0.3-0.5,0.4-1,0.4-1.6s-0.1-1.1-0.4-1.6c-0.3-0.5-0.7-0.9-1.1-1.1c-0.5-0.3-1-0.4-1.6-0.4
			s-1.1,0.1-1.6,0.4c-0.5,0.3-0.9,0.7-1.1,1.1c-0.3,0.5-0.4,1-0.4,1.6s0.1,1.1,0.4,1.6c0.3,0.5,0.7,0.9,1.1,1.1
			C377.1,28.7,377.6,28.8,378.2,28.8z M376.7,27.5v-3.8h1.9c0.2,0,0.3,0,0.5,0.1c0.2,0.1,0.3,0.2,0.5,0.4c0.1,0.2,0.2,0.4,0.2,0.7
			c0,0.3-0.1,0.5-0.2,0.7c-0.1,0.2-0.3,0.3-0.5,0.4s-0.4,0.2-0.5,0.2h-1.4v-0.6h1.1c0.1,0,0.2-0.1,0.4-0.2c0.1-0.1,0.2-0.3,0.2-0.5
			c0-0.2-0.1-0.4-0.2-0.5c-0.1-0.1-0.3-0.1-0.4-0.1h-0.8v3.2H376.7z M379,25.7l1,1.8h-0.9l-0.9-1.8H379z"/>
	</g>
</g>
</svg>
