<svg width="46" height="45" viewBox="0 0 46 45" fill="none" xmlns="http://www.w3.org/2000/svg">
<mask id="mask0_41_435" style="mask-type:alpha" maskUnits="userSpaceOnUse" x="0" y="0" width="46" height="45">
<path d="M45.3418 0.5V44.5H0.5V0.5H45.3418Z" fill="#D9D9D9" stroke="black"/>
</mask>
<g mask="url(#mask0_41_435)">
<path d="M24.3472 30.9312C25.8108 30.9312 27.0368 31.4284 28.0562 32.4282C29.0738 33.4279 29.5776 34.6277 29.5776 36.0562C29.5776 37.4841 29.0743 38.6835 28.0571 39.6831C27.0376 40.6832 25.811 41.1812 24.3472 41.1812C22.8834 41.1811 21.6567 40.6832 20.6372 39.6831C19.6201 38.6835 19.1167 37.4841 19.1167 36.0562C19.1167 34.6277 19.6205 33.4279 20.6382 32.4282C21.6575 31.4284 22.8836 30.9312 24.3472 30.9312ZM24.3472 33.6812C23.682 33.6812 23.1011 33.9073 22.6362 34.3638C22.1714 34.8205 21.937 35.3957 21.937 36.0562C21.937 36.7166 22.1713 37.2919 22.6362 37.7486C23.1011 38.205 23.682 38.4311 24.3472 38.4312C25.0106 38.4312 25.5931 38.2052 26.0581 37.7486C26.5231 37.2918 26.7573 36.7166 26.7573 36.0562C26.7573 35.3957 26.5231 34.8205 26.0581 34.3638C25.5931 33.9071 25.0106 33.6812 24.3472 33.6812ZM11.9321 23.8999C13.3946 23.8999 14.6224 24.3971 15.6401 25.397C16.6591 26.3967 17.1626 27.5967 17.1626 29.0249C17.1626 30.4532 16.6589 31.6524 15.6401 32.6519V32.6528C14.6224 33.6527 13.3946 34.1499 11.9321 34.1499C10.4683 34.1499 9.24162 33.652 8.22217 32.6519C7.20499 31.6524 6.70168 30.453 6.70166 29.0249C6.70166 27.5966 7.20547 26.3968 8.22314 25.397L8.22217 25.396C9.24153 24.3961 10.4685 23.8999 11.9321 23.8999ZM36.7622 23.8999C38.2258 23.8999 39.4518 24.3972 40.4712 25.397C41.4889 26.3968 41.9927 27.5966 41.9927 29.0249C41.9927 30.4531 41.4894 31.6524 40.4722 32.6519C39.4527 33.652 38.2261 34.1499 36.7622 34.1499C35.2986 34.1499 34.0728 33.6524 33.0552 32.6528L33.0542 32.6519C32.0355 31.6524 31.5318 30.4531 31.5317 29.0249C31.5317 27.5967 32.0352 26.3967 33.0542 25.397H33.0552C34.0728 24.3973 35.2985 23.9 36.7622 23.8999ZM11.9321 26.6499C11.2673 26.6499 10.6854 26.8758 10.2202 27.3325C9.75436 27.79 9.52197 28.3655 9.52197 29.0249C9.52199 29.6844 9.75437 30.2598 10.2202 30.7173C10.6854 31.1739 11.2673 31.3999 11.9321 31.3999C12.5956 31.3999 13.1781 31.1737 13.6431 30.7173C14.108 30.2606 14.3423 29.6854 14.3423 29.0249C14.3423 28.3645 14.108 27.7892 13.6431 27.3325C13.178 26.8759 12.5956 26.6499 11.9321 26.6499ZM36.7622 26.6499C36.0988 26.65 35.5162 26.8759 35.0513 27.3325C34.5864 27.7892 34.3521 28.3646 34.3521 29.0249C34.3521 29.6854 34.5864 30.2606 35.0513 30.7173H35.0522C35.5172 31.1737 36.0989 31.3999 36.7622 31.3999C37.427 31.3999 38.0099 31.1739 38.4751 30.7173C38.9407 30.2599 39.1723 29.6843 39.1724 29.0249C39.1724 28.3657 38.9407 27.7899 38.4751 27.3325C38.0099 26.8757 37.427 26.6499 36.7622 26.6499ZM11.9321 9.83742C13.3946 9.83743 14.6224 10.3346 15.6401 11.3345C16.6591 12.3342 17.1626 13.5342 17.1626 14.9624C17.1626 16.3907 16.6589 17.5899 15.6401 18.5894V18.5903C14.6224 19.5902 13.3946 20.0874 11.9321 20.0874C10.4683 20.0874 9.24162 19.5895 8.22217 18.5894C7.20499 17.5899 6.70168 16.3905 6.70166 14.9624C6.70166 13.5341 7.20547 12.3343 8.22314 11.3345L8.22217 11.3335C9.24153 10.3336 10.4685 9.83742 11.9321 9.83742ZM36.7622 9.83742C38.2258 9.83742 39.4518 10.3347 40.4712 11.3345C41.4889 12.3343 41.9927 13.5341 41.9927 14.9624C41.9927 16.3906 41.4894 17.5899 40.4722 18.5894C39.4527 19.5895 38.2261 20.0874 36.7622 20.0874C35.2986 20.0874 34.0728 19.5899 33.0552 18.5903L33.0542 18.5894C32.0355 17.5899 31.5318 16.3906 31.5317 14.9624C31.5317 13.5342 32.0352 12.3342 33.0542 11.3345H33.0552C34.0728 10.3348 35.2985 9.83747 36.7622 9.83742ZM11.9321 12.5874C11.2673 12.5874 10.6854 12.8133 10.2202 13.27C9.75436 13.7275 9.52197 14.303 9.52197 14.9624C9.52199 15.6219 9.75437 16.1973 10.2202 16.6548C10.6854 17.1114 11.2673 17.3374 11.9321 17.3374C12.5956 17.3374 13.1781 17.1112 13.6431 16.6548C14.108 16.1981 14.3423 15.6229 14.3423 14.9624C14.3423 14.302 14.108 13.7267 13.6431 13.27C13.178 12.8134 12.5956 12.5874 11.9321 12.5874ZM36.7622 12.5874C36.0988 12.5875 35.5162 12.8134 35.0513 13.27C34.5864 13.7267 34.3521 14.3021 34.3521 14.9624C34.3521 15.6229 34.5864 16.1981 35.0513 16.6548H35.0522C35.5172 17.1112 36.0988 17.3374 36.7622 17.3374C37.427 17.3374 38.0099 17.1114 38.4751 16.6548C38.9407 16.1974 39.1723 15.6218 39.1724 14.9624C39.1724 14.3032 38.9407 13.7274 38.4751 13.27C38.0099 12.8132 37.427 12.5874 36.7622 12.5874ZM24.3472 2.80617C25.8108 2.80617 27.0368 3.30342 28.0562 4.30324C29.0738 5.30287 29.5776 6.50272 29.5776 7.93117C29.5776 9.35912 29.0743 10.5584 28.0571 11.5581C27.0376 12.5582 25.811 13.0562 24.3472 13.0562C22.8834 13.0561 21.6567 12.5582 20.6372 11.5581C19.6201 10.5585 19.1167 9.35907 19.1167 7.93117C19.1167 6.50273 19.6205 5.30287 20.6382 4.30324C21.6575 3.30338 22.8836 2.80619 24.3472 2.80617ZM24.3472 5.55617C23.682 5.55619 23.1011 5.78229 22.6362 6.23878C22.1713 6.69546 21.937 7.27068 21.937 7.93117C21.937 8.59156 22.1713 9.16687 22.6362 9.62355C23.1011 10.08 23.682 10.3061 24.3472 10.3062C25.0106 10.3062 25.5931 10.0802 26.0581 9.62355C26.5231 9.16685 26.7573 8.59159 26.7573 7.93117C26.7573 7.27065 26.5231 6.69549 26.0581 6.23878C25.5931 5.78212 25.0106 5.55617 24.3472 5.55617Z" fill="url(#paint0_linear_41_435)" stroke="url(#paint1_linear_41_435)"/>
</g>
<defs>
<linearGradient id="paint0_linear_41_435" x1="24.3473" y1="2.30617" x2="24.3473" y2="41.6812" gradientUnits="userSpaceOnUse">
<stop stop-color="#82CCFF"/>
<stop offset="1" stop-color="#F080FC"/>
</linearGradient>
<linearGradient id="paint1_linear_41_435" x1="24.3473" y1="2.30617" x2="24.3473" y2="41.6812" gradientUnits="userSpaceOnUse">
<stop stop-color="#82CCFF"/>
<stop offset="1" stop-color="#F080FC"/>
</linearGradient>
</defs>
</svg>
