<svg width="223" height="37" viewBox="0 0 223 37" fill="none" xmlns="http://www.w3.org/2000/svg">
<g id="Group 1595">
<g id="Group">
<path id="Vector" d="M16.2135 2.08304C23.2909 2.08304 28.8241 5.66247 31.269 11.9265H26.1218C24.3203 8.09137 20.846 5.79031 16.0849 5.79031C9.26488 5.79031 4.11772 10.6481 4.11772 18.7018C4.11772 26.7556 9.26488 31.4855 16.0849 31.4855C22.9048 31.4855 24.3203 29.3123 26.1218 25.4772H31.269C28.8241 31.7412 23.2909 35.1928 16.2135 35.1928C9.1362 35.1928 0 28.2896 0 18.574C0 8.85839 7.20602 1.9552 16.2135 1.9552V2.08304Z" fill="white"/>
<path id="Vector_2" d="M48.2547 2.4668V31.3579H59.7071V34.8095H44.0083V2.4668H48.2547Z" fill="white"/>
<path id="Vector_3" d="M70.6438 2.4668H74.8902V34.8095H70.6438V2.4668Z" fill="white"/>
<path id="Vector_4" d="M114.136 2.4668V34.8095H109.89L101.333 21.9619L92.7757 9.11432V34.8095H88.5293V2.4668H92.7757L109.89 28.162V2.4668H114.136Z" fill="white"/>
<path id="Vector_5" d="M132.153 2.4668V31.3579H143.606V34.8095H127.907V2.4668H132.153Z" fill="white"/>
<path id="Vector_6" d="M222.099 11.9263H216.952C215.15 8.21906 211.676 6.04583 207.043 6.04583C200.223 6.04583 195.076 10.9036 195.076 18.7017C195.076 26.4997 200.223 31.3575 207.043 31.3575C213.863 31.3575 217.852 27.2668 218.496 20.8749H205.499V17.4233H223V20.6192C222.227 28.673 215.794 35.0648 207.043 35.0648C198.293 35.0648 190.701 28.2895 190.701 18.5738C190.701 8.85824 197.907 2.08289 207.043 2.08289C216.18 2.08289 219.654 5.66232 221.97 11.7985L222.099 11.9263Z" fill="white"/>
</g>
<g id="graph_6">
<mask id="mask0_4295_1750" style="mask-type:alpha" maskUnits="userSpaceOnUse" x="148" y="0" width="39" height="37">
<rect id="Bounding box" x="148.252" width="37.8678" height="36.9912" fill="#D9D9D9"/>
</mask>
<g mask="url(#mask0_4295_1750)">
<path id="graph_6_2" d="M167.186 34.6791C165.871 34.6791 164.754 34.2295 163.833 33.3304C162.913 32.4313 162.453 31.3396 162.453 30.0552C162.453 28.7707 162.913 27.679 163.833 26.7799C164.754 25.8808 165.871 25.4313 167.186 25.4313C168.501 25.4313 169.619 25.8808 170.539 26.7799C171.459 27.679 171.92 28.7707 171.92 30.0552C171.92 31.3396 171.459 32.4313 170.539 33.3304C169.619 34.2295 168.501 34.6791 167.186 34.6791ZM167.186 31.5965C167.633 31.5965 168.008 31.4487 168.31 31.1533C168.613 30.8579 168.764 30.4919 168.764 30.0552C168.764 29.6185 168.613 29.2524 168.31 28.957C168.008 28.6616 167.633 28.5139 167.186 28.5139C166.739 28.5139 166.364 28.6616 166.062 28.957C165.759 29.2524 165.608 29.6185 165.608 30.0552C165.608 30.4919 165.759 30.8579 166.062 31.1533C166.364 31.4487 166.739 31.5965 167.186 31.5965ZM156.93 28.8992C155.615 28.8992 154.498 28.4496 153.577 27.5505C152.657 26.6515 152.197 25.5597 152.197 24.2753C152.197 22.9909 152.657 21.8991 153.577 21C154.498 20.1009 155.615 19.6514 156.93 19.6514C158.245 19.6514 159.363 20.1009 160.283 21C161.204 21.8991 161.664 22.9909 161.664 24.2753C161.664 25.5597 161.204 26.6515 160.283 27.5505C159.363 28.4496 158.245 28.8992 156.93 28.8992ZM177.442 28.8992C176.127 28.8992 175.009 28.4496 174.089 27.5505C173.169 26.6515 172.708 25.5597 172.708 24.2753C172.708 22.9909 173.169 21.8991 174.089 21C175.009 20.1009 176.127 19.6514 177.442 19.6514C178.757 19.6514 179.874 20.1009 180.795 21C181.715 21.8991 182.175 22.9909 182.175 24.2753C182.175 25.5597 181.715 26.6515 180.795 27.5505C179.874 28.4496 178.757 28.8992 177.442 28.8992ZM156.93 25.8166C157.377 25.8166 157.752 25.6689 158.054 25.3735C158.357 25.078 158.508 24.712 158.508 24.2753C158.508 23.8386 158.357 23.4725 158.054 23.1771C157.752 22.8817 157.377 22.734 156.93 22.734C156.483 22.734 156.108 22.8817 155.806 23.1771C155.504 23.4725 155.352 23.8386 155.352 24.2753C155.352 24.712 155.504 25.078 155.806 25.3735C156.108 25.6689 156.483 25.8166 156.93 25.8166ZM177.442 25.8166C177.889 25.8166 178.264 25.6689 178.566 25.3735C178.869 25.078 179.02 24.712 179.02 24.2753C179.02 23.8386 178.869 23.4725 178.566 23.1771C178.264 22.8817 177.889 22.734 177.442 22.734C176.995 22.734 176.62 22.8817 176.318 23.1771C176.015 23.4725 175.864 23.8386 175.864 24.2753C175.864 24.712 176.015 25.078 176.318 25.3735C176.62 25.6689 176.995 25.8166 177.442 25.8166ZM156.93 17.3394C155.615 17.3394 154.498 16.8899 153.577 15.9908C152.657 15.0917 152.197 14 152.197 12.7155C152.197 11.4311 152.657 10.3394 153.577 9.44028C154.498 8.54119 155.615 8.09164 156.93 8.09164C158.245 8.09164 159.363 8.54119 160.283 9.44028C161.204 10.3394 161.664 11.4311 161.664 12.7155C161.664 14 161.204 15.0917 160.283 15.9908C159.363 16.8899 158.245 17.3394 156.93 17.3394ZM177.442 17.3394C176.127 17.3394 175.009 16.8899 174.089 15.9908C173.169 15.0917 172.708 14 172.708 12.7155C172.708 11.4311 173.169 10.3394 174.089 9.44028C175.009 8.54119 176.127 8.09164 177.442 8.09164C178.757 8.09164 179.874 8.54119 180.795 9.44028C181.715 10.3394 182.175 11.4311 182.175 12.7155C182.175 14 181.715 15.0917 180.795 15.9908C179.874 16.8899 178.757 17.3394 177.442 17.3394ZM156.93 14.2568C157.377 14.2568 157.752 14.1091 158.054 13.8137C158.357 13.5183 158.508 13.1522 158.508 12.7155C158.508 12.2788 158.357 11.9128 158.054 11.6174C157.752 11.3219 157.377 11.1742 156.93 11.1742C156.483 11.1742 156.108 11.3219 155.806 11.6174C155.504 11.9128 155.352 12.2788 155.352 12.7155C155.352 13.1522 155.504 13.5183 155.806 13.8137C156.108 14.1091 156.483 14.2568 156.93 14.2568ZM177.442 14.2568C177.889 14.2568 178.264 14.1091 178.566 13.8137C178.869 13.5183 179.02 13.1522 179.02 12.7155C179.02 12.2788 178.869 11.9128 178.566 11.6174C178.264 11.3219 177.889 11.1742 177.442 11.1742C176.995 11.1742 176.62 11.3219 176.318 11.6174C176.015 11.9128 175.864 12.2788 175.864 12.7155C175.864 13.1522 176.015 13.5183 176.318 13.8137C176.62 14.1091 176.995 14.2568 177.442 14.2568ZM167.186 11.5596C165.871 11.5596 164.754 11.11 163.833 10.2109C162.913 9.31183 162.453 8.22008 162.453 6.93567C162.453 5.65125 162.913 4.5595 163.833 3.6604C164.754 2.76131 165.871 2.31177 167.186 2.31177C168.501 2.31177 169.619 2.76131 170.539 3.6604C171.459 4.5595 171.92 5.65125 171.92 6.93567C171.92 8.22008 171.459 9.31183 170.539 10.2109C169.619 11.11 168.501 11.5596 167.186 11.5596ZM167.186 8.47696C167.633 8.47696 168.008 8.32926 168.31 8.03384C168.613 7.73843 168.764 7.37237 168.764 6.93567C168.764 6.49896 168.613 6.13291 168.31 5.83749C168.008 5.54207 167.633 5.39437 167.186 5.39437C166.739 5.39437 166.364 5.54207 166.062 5.83749C165.759 6.13291 165.608 6.49896 165.608 6.93567C165.608 7.37237 165.759 7.73843 166.062 8.03384C166.364 8.32926 166.739 8.47696 167.186 8.47696Z" fill="#007AFF"/>
</g>
</g>
</g>
</svg>
