<svg width="28" height="18" viewBox="0 0 28 18" fill="none" xmlns="http://www.w3.org/2000/svg">
<g id="Layer_1" clip-path="url(#clip0_3055_3614)">
<g id="Group">
<path id="Vector" d="M9.00136 1.4615C9.21535 2.57556 10.4405 4.19034 11.8195 3.97458C13.2391 3.75204 13.8853 1.67319 13.9328 0.724677C13.9818 -0.223834 8.78598 0.347443 8.99996 1.4615H9.00136Z" fill="white" stroke="#007AFF" stroke-width="0.7" stroke-miterlimit="10"/>
<g id="Vector_2">
<path d="M13.7608 0.366417C12.93 -0.0691652 10.1426 0.256504 9.24333 0.894273C8.99018 1.07339 8.88249 1.26879 8.92165 1.47641C9.13284 2.57554 10.2671 4.07226 11.5706 4.07226C11.6573 4.07226 11.7454 4.06547 11.8335 4.05191C13.2671 3.82665 13.9622 1.77629 14.0154 0.728724C14.021 0.626952 13.9804 0.481758 13.7622 0.366417H13.7608ZM13.8531 0.720582C13.8014 1.72337 13.1482 3.68553 11.807 3.89586C10.4895 4.10347 9.29508 2.55926 9.08109 1.44655C9.05452 1.30407 9.13984 1.16159 9.33844 1.02047C9.95802 0.582173 11.4126 0.327066 12.5063 0.327066C13.021 0.327066 13.4559 0.382701 13.6839 0.50347C13.8587 0.595743 13.8545 0.688015 13.8531 0.719225V0.720582Z" fill="black"/>
<path d="M13.9356 0.724653H13.9342M13.7608 0.366417C12.93 -0.0691652 10.1426 0.256504 9.24333 0.894273C8.99018 1.07339 8.88249 1.26879 8.92165 1.47641C9.13284 2.57554 10.2671 4.07226 11.5706 4.07226C11.6573 4.07226 11.7454 4.06548 11.8335 4.05191C13.2671 3.82665 13.9622 1.77629 14.0154 0.728724C14.021 0.626952 13.9804 0.481758 13.7622 0.366417H13.7608ZM13.8531 0.720582C13.8014 1.72337 13.1482 3.68553 11.807 3.89586C10.4895 4.10347 9.29508 2.55926 9.08109 1.44655C9.05452 1.30407 9.13984 1.16159 9.33844 1.02047C9.95802 0.582173 11.4126 0.327066 12.5063 0.327066C13.021 0.327066 13.4559 0.382701 13.6839 0.50347C13.8587 0.595743 13.8545 0.688015 13.8531 0.719225V0.720582Z" stroke="#007AFF" stroke-width="0.7" stroke-miterlimit="10"/>
</g>
</g>
<g id="Group_2">
<path id="Vector_3" d="M5.71472 3.73707C6.41961 4.26764 8.07416 5.6436 9.11332 4.76565C9.76787 4.21201 9.01262 2.01239 8.64619 1.52252C8.27975 1.03266 5.01122 3.2065 5.71472 3.73843V3.73707Z" fill="white" stroke="#007AFF" stroke-width="0.7" stroke-miterlimit="10"/>
<path id="Vector_4" d="M8.29371 1.38821C7.53287 1.53747 5.71749 2.73838 5.54826 3.43585C5.5021 3.62718 5.58602 3.73845 5.66574 3.79816L5.807 3.90536C6.37623 4.33958 7.4056 5.12662 8.31749 5.12662C8.62098 5.12662 8.91189 5.03977 9.16644 4.82266C9.88811 4.21203 9.06853 1.95134 8.71189 1.4737C8.63916 1.376 8.49791 1.34886 8.29371 1.38685V1.38821ZM9.06014 4.70596C8.13707 5.48621 6.63077 4.33551 5.9063 3.78323L5.76364 3.67468C5.72448 3.64482 5.67553 3.5919 5.7049 3.47249C5.85035 2.87407 7.54686 1.69488 8.32448 1.5429C8.37343 1.5334 8.41819 1.52798 8.45455 1.52798C8.51609 1.52798 8.55944 1.54154 8.57902 1.56733C8.95385 2.06804 9.66154 4.19575 9.05874 4.70596H9.06014Z" fill="black" stroke="#007AFF" stroke-width="0.7" stroke-miterlimit="10"/>
</g>
<g id="Group_3">
<path id="Vector_5" d="M11.3329 0.187156C9.93846 0.305211 8.89091 0.861562 8.98181 1.36906C9.1007 2.02583 10.8937 1.66624 11.5287 1.58618C12.1636 1.50747 13.9482 1.43555 13.9189 0.691943C13.8909 0.00803784 12.4126 0.0948829 11.3343 0.187156H11.3329Z" fill="white" stroke="#007AFF" stroke-width="0.7" stroke-miterlimit="10"/>
<path id="Vector_6" d="M13.821 0.329679C13.4154 -0.0163439 12.3818 0.0189369 11.3259 0.108496C10.2881 0.196698 9.36502 0.540007 9.03076 0.963377C8.92027 1.10179 8.87691 1.24291 8.90209 1.38268C8.96502 1.73413 9.40279 1.8359 9.92167 1.83454C10.3636 1.83454 10.8657 1.76127 11.2489 1.70563C11.3608 1.68935 11.4587 1.67442 11.5398 1.66492C11.6182 1.65542 11.7161 1.64593 11.8238 1.63507C12.6489 1.5523 14.0294 1.41524 14 0.690629C13.9944 0.548149 13.9343 0.42738 13.821 0.331036V0.329679ZM11.807 1.47766C11.6965 1.48852 11.5986 1.49802 11.5189 1.50887C11.4378 1.51837 11.3371 1.5333 11.2252 1.54958C10.5524 1.64864 9.15244 1.85354 9.06293 1.35554C9.04614 1.26191 9.07831 1.16285 9.15943 1.05972C9.46852 0.670275 10.3454 0.350034 11.3412 0.265903C11.6308 0.241477 12.0629 0.20484 12.4867 0.20484C12.9958 0.20484 13.4923 0.257761 13.7147 0.447734C13.7944 0.515582 13.8336 0.596999 13.8378 0.696057C13.8615 1.27276 12.5259 1.40574 11.807 1.47766Z" fill="black" stroke="#007AFF" stroke-width="0.7" stroke-miterlimit="10"/>
</g>
<g id="Group_4">
<path id="Vector_7" d="M6.70209 2.13314C5.9902 2.62979 5.34965 3.48331 5.71188 3.75335C6.07412 4.02338 6.93286 3.25127 7.42517 2.90253C8.00279 2.49409 8.93006 1.96624 8.63076 1.50216C8.35804 1.07879 7.41398 1.6365 6.70069 2.13314H6.70209Z" fill="white" stroke="#007AFF" stroke-width="0.7" stroke-miterlimit="10"/>
<path id="Vector_8" d="M8.43077 1.28365C8.08811 1.21716 7.50769 1.47498 6.65455 2.06933C6.10629 2.45199 5.53427 3.09925 5.52587 3.52127C5.52308 3.64611 5.57063 3.74788 5.66154 3.81573C5.72867 3.86593 5.80699 3.88764 5.89371 3.88764C6.25455 3.88764 6.75944 3.50498 7.18042 3.18474C7.28671 3.10468 7.38601 3.02869 7.47273 2.96627C7.54965 2.91064 7.63357 2.85364 7.72028 2.7953C8.28951 2.40721 9 1.92549 8.6993 1.46005C8.63776 1.36507 8.54825 1.30536 8.42937 1.28365H8.43077ZM7.62797 2.66638C7.54126 2.72609 7.45594 2.78308 7.37762 2.83872C7.28951 2.90114 7.18881 2.97848 7.08112 3.0599C6.65455 3.38421 6.00979 3.87679 5.76224 3.69089C5.71189 3.65289 5.68811 3.59861 5.68951 3.52398C5.6951 3.1956 6.17063 2.59989 6.74965 2.19688C7.47972 1.68802 8.00559 1.4302 8.31468 1.4302C8.34545 1.4302 8.37343 1.43291 8.4 1.43698C8.47273 1.45055 8.52587 1.48583 8.56364 1.54283C8.78182 1.88207 8.14266 2.31629 7.62937 2.66638H7.62797Z" fill="black" stroke="#007AFF" stroke-width="0.7" stroke-miterlimit="10"/>
</g>
<g id="Group_5">
<path id="Vector_9" d="M3.42936 7.12543C4.07832 7.54202 6.14545 8.12144 6.7958 7.04809C7.42517 6.01002 6.05734 4.53908 5.61538 4.10485C5.17342 3.67063 2.77901 6.70885 3.42936 7.12543Z" fill="white" stroke="#007AFF" stroke-width="0.7" stroke-miterlimit="10"/>
<path id="Vector_10" d="M5.37484 4.00713C4.70491 4.2256 3.34966 5.98693 3.24337 6.77803C3.21679 6.97615 3.26435 7.11455 3.38323 7.1919C3.79162 7.45244 4.65735 7.73875 5.43218 7.73875C5.62099 7.73875 5.80421 7.72247 5.97344 7.68312C6.38043 7.59085 6.68113 7.39137 6.86435 7.08877C7.52309 6.00185 6.11749 4.48749 5.67134 4.04919C5.62239 4.00034 5.53008 3.95421 5.37344 4.00577L5.37484 4.00713ZM6.72588 7.00871C6.56644 7.27332 6.30071 7.44837 5.93847 7.52978C5.1133 7.71569 3.95805 7.36966 3.47414 7.06028C3.4112 7.01957 3.38742 6.93137 3.4056 6.79838C3.5091 6.02628 4.87274 4.33687 5.42658 4.15639C5.45595 4.14689 5.48113 4.14147 5.50211 4.14147C5.52588 4.14147 5.54546 4.14825 5.55805 4.16046C5.98323 4.57841 7.32588 6.01949 6.72588 7.00871Z" fill="black" stroke="#007AFF" stroke-width="0.7" stroke-miterlimit="10"/>
</g>
<g id="Group_6">
<path id="Vector_11" d="M5.64896 4.13333C5.32029 3.8158 4.47553 4.01663 3.67413 5.0642C2.87693 6.10634 3.07274 7.02364 3.47833 7.15934C3.90211 7.30046 4.16644 6.86488 4.50071 6.68033C4.95945 6.42658 5.39441 6.39401 5.56644 6.11448C5.73707 5.83495 5.6042 5.56763 5.62378 5.22839C5.64197 4.88644 5.96924 4.44271 5.65036 4.13468L5.64896 4.13333Z" fill="white" stroke="#007AFF" stroke-width="0.7" stroke-miterlimit="10"/>
<path id="Vector_12" d="M5.19301 3.92028C4.69231 3.95691 4.11469 4.35722 3.6084 5.01805C3.04196 5.75759 2.97203 6.43471 3.09651 6.82145C3.16364 7.03313 3.29091 7.17968 3.45035 7.23396C3.51749 7.25567 3.58042 7.26653 3.64056 7.26653C3.88672 7.26653 4.08392 7.10234 4.26154 6.95443C4.35665 6.87572 4.44476 6.80109 4.53986 6.74817C4.7091 6.65454 4.87833 6.59076 5.02798 6.53377C5.28812 6.43471 5.51329 6.35058 5.63357 6.15382C5.75945 5.94757 5.73847 5.75217 5.71749 5.54591C5.7063 5.44549 5.69651 5.34237 5.7021 5.23245C5.7077 5.13475 5.74126 5.02348 5.77903 4.90543C5.86294 4.63268 5.95945 4.32329 5.7063 4.07904C5.58322 3.96099 5.407 3.90806 5.19301 3.92163V3.92028ZM5.62378 4.85929C5.58602 4.98142 5.54686 5.10626 5.54126 5.22295C5.53427 5.34508 5.54686 5.45499 5.55805 5.56084C5.57763 5.74809 5.59581 5.91093 5.49651 6.07241C5.4042 6.22303 5.21259 6.29495 4.97063 6.38586C4.81539 6.44421 4.63917 6.5107 4.46014 6.60976C4.35245 6.66947 4.25315 6.75224 4.15665 6.8323C3.94126 7.01142 3.75665 7.16611 3.5049 7.08334C3.39581 7.0467 3.3035 6.93407 3.25315 6.7726C3.14126 6.4225 3.21119 5.80237 3.73987 5.11033C4.21119 4.49427 4.75945 4.10754 5.2056 4.07497C5.22518 4.07361 5.24336 4.07226 5.26294 4.07226C5.4014 4.07226 5.51469 4.11161 5.59301 4.1876C5.77763 4.36536 5.7035 4.60418 5.62518 4.85658L5.62378 4.85929Z" fill="black" stroke="#007AFF" stroke-width="0.7" stroke-miterlimit="10"/>
</g>
<g id="Group_7">
<path id="Vector_13" d="M4.44332 7.92049C3.79018 7.70337 2.71885 7.39806 2.23353 7.70337C1.77339 7.9924 1.89228 9.1336 1.69927 9.52305C1.50626 9.91249 0.790178 10.7511 1.07689 11.4011C1.42934 12.2044 2.48808 12.1922 3.02095 12.3455C3.62654 12.5206 4.35521 12.9521 5.14263 12.564C5.93004 12.1759 5.7636 11.2572 5.8685 10.823C5.972 10.3901 6.5734 9.74966 6.35102 9.1431C6.12864 8.53654 5.09787 8.1376 4.44472 7.92049H4.44332Z" fill="white" stroke="#007AFF" stroke-width="0.7" stroke-miterlimit="10"/>
<g id="Vector_14">
<path d="M4.46991 7.84587C3.32025 7.46457 2.5734 7.39672 2.19018 7.63826C1.86851 7.84044 1.80557 8.37915 1.75102 8.85409C1.72025 9.11327 1.69228 9.35752 1.62655 9.48914C1.58739 9.5692 1.52305 9.67097 1.44893 9.79039C1.1748 10.226 0.762213 10.8841 1.00277 11.4323C1.29648 12.0999 2.04893 12.237 2.59858 12.336C2.74683 12.3632 2.88669 12.389 2.99718 12.4202C3.11886 12.4554 3.24473 12.5002 3.3748 12.5477C3.71186 12.6685 4.0783 12.8001 4.46711 12.8001C4.69648 12.8001 4.93424 12.754 5.179 12.6332C5.82235 12.3157 5.86991 11.6725 5.90487 11.2016C5.91466 11.0659 5.92445 10.937 5.94683 10.8407C5.9776 10.709 6.06291 10.5489 6.15242 10.3793C6.34683 10.0129 6.58739 9.55699 6.42515 9.11598C6.25032 8.63969 5.61116 8.22446 4.46851 7.84587H4.46991ZM6.00837 10.3074C5.91326 10.4851 5.82515 10.6548 5.78879 10.804C5.76361 10.9126 5.75242 11.0469 5.74263 11.1894C5.70907 11.6467 5.66711 12.2153 5.10627 12.4921C4.50907 12.7865 3.93704 12.5803 3.43214 12.3985C3.29788 12.3496 3.16921 12.3035 3.04473 12.2682C2.92585 12.2343 2.78179 12.2071 2.62935 12.18C2.08669 12.0809 1.41256 11.9588 1.15242 11.3685C0.944031 10.8949 1.31606 10.3033 1.58879 9.87045C1.66571 9.74832 1.73144 9.64383 1.7748 9.55563C1.85172 9.39958 1.8797 9.15397 1.91326 8.86901C1.96501 8.428 2.02235 7.92864 2.2797 7.76717C2.40277 7.68982 2.579 7.65047 2.80557 7.65047C3.19438 7.65047 3.73424 7.76445 4.41956 7.99106C5.49648 8.34794 6.12025 8.74417 6.2755 9.16619C6.41396 9.54342 6.19998 9.94779 6.01116 10.3047L6.00837 10.3074Z" fill="black"/>
<path d="M2.23634 7.70339H2.23494M4.46991 7.84587C3.32025 7.46457 2.5734 7.39672 2.19018 7.63826C1.86851 7.84044 1.80557 8.37915 1.75102 8.85409C1.72025 9.11327 1.69228 9.35752 1.62655 9.48914C1.58739 9.5692 1.52305 9.67097 1.44893 9.79039C1.1748 10.226 0.762213 10.8841 1.00277 11.4323C1.29648 12.0999 2.04893 12.237 2.59858 12.336C2.74683 12.3632 2.88669 12.389 2.99718 12.4202C3.11886 12.4554 3.24473 12.5002 3.3748 12.5477C3.71186 12.6685 4.0783 12.8001 4.46711 12.8001C4.69648 12.8001 4.93424 12.754 5.179 12.6332C5.82235 12.3157 5.86991 11.6725 5.90487 11.2016C5.91466 11.0659 5.92445 10.937 5.94683 10.8407C5.9776 10.709 6.06291 10.5489 6.15242 10.3793C6.34683 10.0129 6.58739 9.55699 6.42515 9.11598C6.25032 8.63969 5.61116 8.22446 4.46851 7.84587H4.46991ZM6.00837 10.3074C5.91326 10.4851 5.82515 10.6548 5.78879 10.804C5.76361 10.9126 5.75242 11.0469 5.74263 11.1894C5.70907 11.6467 5.66711 12.2153 5.10627 12.4921C4.50907 12.7865 3.93704 12.5803 3.43214 12.3985C3.29788 12.3496 3.16921 12.3035 3.04473 12.2682C2.92585 12.2343 2.78179 12.2071 2.62935 12.18C2.08669 12.0809 1.41256 11.9588 1.15242 11.3685C0.944031 10.8949 1.31606 10.3033 1.58879 9.87045C1.66571 9.74832 1.73144 9.64383 1.7748 9.55563C1.85172 9.39958 1.8797 9.15397 1.91326 8.86901C1.96501 8.428 2.02235 7.92864 2.2797 7.76717C2.40277 7.68982 2.579 7.65047 2.80557 7.65047C3.19438 7.65047 3.73424 7.76445 4.41956 7.99106C5.49648 8.34794 6.12025 8.74417 6.2755 9.16619C6.41396 9.54342 6.19998 9.94779 6.01116 10.3047L6.00837 10.3074Z" stroke="#007AFF" stroke-width="0.7" stroke-miterlimit="10"/>
</g>
</g>
<g id="Group_8">
<path id="Vector_15" d="M3.22378 12.9359C2.62378 12.8925 1.66434 12.389 0.94686 12.8341C0.230776 13.2806 0.418189 14.377 0.324483 14.9781C0.230776 15.5779 -0.0447481 16.5074 0.292315 17.0502C0.829378 17.9173 1.72169 17.6106 2.84476 17.7938C3.83218 17.9539 4.50071 17.8725 4.9049 17.5333C5.76784 16.8046 5.84057 13.9916 5.28532 13.3498C4.9049 12.9101 3.82239 12.9793 3.22378 12.9359Z" fill="white" stroke="#007AFF" stroke-width="0.7" stroke-miterlimit="10"/>
<path id="Vector_16" d="M3.61956 12.8735C3.47691 12.8694 3.34404 12.8653 3.22935 12.8572C3.06152 12.845 2.85593 12.7934 2.63914 12.7378C2.10488 12.6021 1.44054 12.4338 0.903479 12.7676C0.325857 13.1272 0.299284 13.8695 0.279703 14.4652C0.27271 14.6497 0.267116 14.8248 0.244738 14.9659C0.227955 15.0731 0.205577 15.1925 0.181801 15.3173C0.0713116 15.8981 -0.0671499 16.62 0.223759 17.0895C0.629354 17.7436 1.23355 17.7666 1.93285 17.7951C2.21816 17.806 2.51467 17.8182 2.83215 17.8698C3.16502 17.9241 3.46012 17.9512 3.72166 17.9512C4.26991 17.9512 4.67131 17.8318 4.95802 17.5902C5.87551 16.8168 5.90768 13.9441 5.34684 13.2968C5.01677 12.9155 4.24194 12.8911 3.61956 12.8721V12.8735ZM4.85173 17.4735C4.47271 17.7938 3.81956 17.8725 2.85872 17.7164C2.53005 17.6635 2.21677 17.6499 1.93844 17.6391C1.25872 17.612 0.721661 17.5902 0.362221 17.0095C0.103479 16.5902 0.234948 15.9008 0.341242 15.3472C0.365018 15.2196 0.388794 15.1002 0.405577 14.9903C0.429354 14.8397 0.434948 14.6606 0.441941 14.472C0.46292 13.883 0.485298 13.2168 0.991591 12.902C1.19299 12.7758 1.41816 12.731 1.64893 12.731C1.96362 12.731 2.29229 12.8138 2.59719 12.8911C2.82236 12.9481 3.03355 13.0024 3.21677 13.0146C3.33425 13.0227 3.46991 13.0282 3.61397 13.0322C4.17201 13.0499 4.93844 13.0729 5.22096 13.4013C5.72865 13.9862 5.70628 16.7516 4.85033 17.4749L4.85173 17.4735Z" fill="black" stroke="#007AFF" stroke-width="0.7" stroke-miterlimit="10"/>
</g>
<path id="Vector_17" d="M2.86295 14.7271C2.88393 14.5262 2.89652 14.3363 2.9203 14.1761C2.95806 13.8532 3.00421 13.6388 3.00421 13.6388C3.00421 13.6388 2.90771 13.8383 2.83079 14.1599C2.74967 14.4787 2.67694 14.9143 2.66156 15.354C2.65316 15.5738 2.65736 15.7936 2.67554 15.9999C2.69372 16.2062 2.72729 16.3961 2.76785 16.5576C2.80281 16.7191 2.85876 16.848 2.89652 16.9362C2.93848 17.023 2.96225 17.0719 2.96225 17.0719C2.96225 17.0719 2.94967 17.019 2.92589 16.9253C2.90072 16.8344 2.87834 16.7001 2.85736 16.54C2.8154 16.2197 2.80421 15.7896 2.82239 15.3581C2.82659 15.1423 2.84757 14.9279 2.86155 14.7257L2.86295 14.7271Z" fill="black" stroke="#007AFF" stroke-width="0.7" stroke-miterlimit="10"/>
<path id="Vector_18" d="M3.58881 10.2653C3.52867 10.4675 3.47832 10.6738 3.44476 10.8692C3.41119 11.0646 3.39441 11.2505 3.39161 11.4092C3.38322 11.568 3.4014 11.701 3.41259 11.7919C3.42937 11.8828 3.43776 11.9344 3.43776 11.9344C3.43776 11.9344 3.44056 11.8814 3.44336 11.7905C3.44476 11.6996 3.46014 11.5707 3.48252 11.416C3.52727 11.1093 3.62378 10.7063 3.74546 10.3087C3.8014 10.1093 3.87133 9.91251 3.93287 9.72796C3.9986 9.54477 4.05595 9.37108 4.11609 9.22589C4.22657 8.93279 4.31748 8.74146 4.31748 8.74146C4.31748 8.74146 4.18182 8.907 4.03357 9.18925C3.88252 9.46878 3.71189 9.85823 3.59161 10.264L3.58881 10.2653Z" fill="black" stroke="#007AFF" stroke-width="0.7" stroke-miterlimit="10"/>
<path id="Vector_19" d="M3.95104 15.3498C3.7916 15.3756 3.60418 15.3919 3.40279 15.4C3.20139 15.4095 2.9874 15.4109 2.77202 15.4027C2.34125 15.3878 1.91048 15.3525 1.5874 15.3159C1.26293 15.2779 1.04614 15.2521 1.04614 15.2521C1.04614 15.2521 1.25034 15.3295 1.57202 15.4027C1.8909 15.4774 2.32586 15.5466 2.76782 15.5602C2.9874 15.5642 3.20838 15.5615 3.41537 15.5384C3.62237 15.5208 3.81118 15.4774 3.97202 15.4367C4.13146 15.3946 4.26013 15.3444 4.34684 15.3023C4.43216 15.2603 4.48111 15.2358 4.48111 15.2358C4.48111 15.2358 4.42796 15.2494 4.33565 15.2738C4.24614 15.3037 4.11048 15.3227 3.95244 15.3498H3.95104Z" fill="black" stroke="#007AFF" stroke-width="0.7" stroke-miterlimit="10"/>
<path id="Vector_20" d="M3.65033 10.3088C2.92166 10.0957 2.24194 9.73071 2.24194 9.73071C2.24194 9.73071 2.3818 9.86234 2.62936 10.017C2.87411 10.1717 3.22656 10.3454 3.60138 10.458C3.7888 10.515 3.97901 10.5598 4.15943 10.5897C4.33985 10.6209 4.51047 10.6331 4.65593 10.6439C4.80138 10.6534 4.92446 10.6494 5.00838 10.6467C5.09369 10.6426 5.14124 10.6399 5.14124 10.6399C5.14124 10.6399 4.95103 10.6059 4.66572 10.5557C4.3832 10.5028 4.00978 10.42 3.64754 10.3074L3.65033 10.3088Z" fill="black" stroke="#007AFF" stroke-width="0.7" stroke-miterlimit="10"/>
<path id="Vector_21" d="M18.8811 0.953981C17.979 0.314856 15.1832 -0.0121703 14.3496 0.426126C14.13 0.541467 14.0909 0.686661 14.0951 0.788433C14.1482 1.836 14.8447 3.88636 16.2825 4.11161C16.3706 4.12518 16.4587 4.13197 16.5454 4.13197C17.8517 4.13197 18.9902 2.63389 19.2014 1.53476C19.2419 1.3285 19.1328 1.1331 18.8811 0.953981ZM19.0419 1.50626C18.8279 2.61896 17.6251 4.16182 16.3077 3.95556C14.9622 3.74524 14.3091 1.78308 14.2573 0.780291C14.2559 0.750438 14.2517 0.656808 14.4265 0.564535C15.1454 0.188659 17.8713 0.434268 18.786 1.08154C18.9832 1.2213 19.0699 1.36378 19.0419 1.50626Z" fill="black" stroke="#007AFF" stroke-width="0.7" stroke-miterlimit="10"/>
<path id="Vector_22" d="M19.7063 1.38818C19.5021 1.34883 19.3608 1.37732 19.2881 1.47502C18.9301 1.95267 18.1119 4.21472 18.8335 4.82399C19.0895 5.03974 19.379 5.12795 19.6825 5.12795C20.5944 5.12795 21.6252 4.34091 22.193 3.90669L22.3342 3.79949C22.414 3.73978 22.4979 3.62851 22.4517 3.43718C22.2825 2.73971 20.4671 1.53744 19.7063 1.38954V1.38818ZM22.2349 3.67465L22.0923 3.7832C21.3692 4.33548 19.8615 5.48618 18.9384 4.70593C18.3356 4.19572 19.0433 2.06937 19.4182 1.5673C19.4489 1.52659 19.5426 1.51709 19.6727 1.54287C20.4503 1.69485 22.1468 2.87404 22.2923 3.47246C22.3217 3.59187 22.2727 3.64479 22.2335 3.67465H22.2349Z" fill="black" stroke="#007AFF" stroke-width="0.7" stroke-miterlimit="10"/>
<g id="Group_9">
<path id="Vector_23" d="M16.7846 0.246981C15.7035 0.156065 14.221 0.0692196 14.193 0.753125C14.1622 1.49674 15.9525 1.56865 16.5888 1.64736C17.2252 1.72606 19.0224 2.08701 19.1427 1.42889C19.235 0.922744 18.1832 0.366393 16.786 0.248338L16.7846 0.246981Z" fill="white" stroke="#007AFF" stroke-width="0.7" stroke-miterlimit="10"/>
<path id="Vector_24" d="M16.7916 0.16831C15.7329 0.0787513 14.6951 0.0434705 14.2895 0.389494C14.1776 0.485838 14.1175 0.606607 14.1105 0.749087C14.0811 1.4737 15.4658 1.61211 16.2937 1.69353C16.4028 1.70438 16.4993 1.71388 16.5776 1.72338C16.6574 1.73288 16.7567 1.74781 16.8685 1.76409C17.2532 1.81972 17.7553 1.893 18.1986 1.893C18.7203 1.893 19.1581 1.79123 19.221 1.43978C19.2462 1.30137 19.2028 1.16024 19.0937 1.02183C18.7581 0.598465 17.8336 0.255155 16.7916 0.166953V0.16831ZM19.0616 1.41399C18.972 1.912 17.5678 1.7071 16.8923 1.60804C16.779 1.59176 16.6797 1.57683 16.5986 1.56733C16.5189 1.55783 16.421 1.54698 16.3105 1.53748C15.5902 1.46556 14.2504 1.33258 14.2727 0.755872C14.2769 0.656814 14.3175 0.576754 14.3958 0.508906C14.8056 0.158812 16.1371 0.271439 16.7762 0.325717C17.7748 0.409848 18.6546 0.728732 18.9637 1.11954C19.0448 1.22131 19.0769 1.32172 19.0602 1.41399H19.0616Z" fill="black" stroke="#007AFF" stroke-width="0.7" stroke-miterlimit="10"/>
</g>
<g id="Group_10">
<path id="Vector_25" d="M21.2979 2.13314C20.586 1.6365 19.6405 1.07879 19.3678 1.50216C19.0685 1.96759 19.9958 2.49409 20.5734 2.90253C21.0657 3.25127 21.9244 4.02338 22.2867 3.75335C22.6489 3.48331 22.0084 2.62979 21.2965 2.13314H21.2979Z" fill="white" stroke="#007AFF" stroke-width="0.7" stroke-miterlimit="10"/>
<g id="Vector_26">
<path d="M21.3454 2.06933C20.4937 1.47498 19.9105 1.21716 19.5692 1.28365C19.4517 1.30672 19.3608 1.36642 19.2993 1.46005C19 1.92549 19.7091 2.40856 20.2783 2.7953C20.365 2.85364 20.4489 2.91064 20.5259 2.96627C20.614 3.02869 20.7133 3.10332 20.8196 3.18474C21.2405 3.50498 21.744 3.88764 22.1049 3.88764C22.1916 3.88764 22.2699 3.86593 22.3371 3.81573C22.428 3.74788 22.4755 3.64611 22.4727 3.52127C22.4657 3.09925 21.8937 2.45199 21.344 2.06933H21.3454ZM22.2377 3.69089C21.9902 3.87543 21.3454 3.38557 20.9189 3.0599C20.8112 2.97848 20.7105 2.90114 20.621 2.83872C20.5426 2.78308 20.4573 2.72609 20.3706 2.66638C19.8573 2.31629 19.2182 1.88207 19.4364 1.54283C19.4727 1.48583 19.5259 1.45055 19.6 1.43698C19.6266 1.43156 19.6545 1.4302 19.6853 1.4302C19.9944 1.4302 20.5203 1.68802 21.2503 2.19688C21.8294 2.59989 22.3049 3.1956 22.3105 3.52398C22.3105 3.59861 22.2881 3.65289 22.2377 3.69089Z" fill="black"/>
<path d="M19.3678 1.50212H19.3692M21.3454 2.06933C20.4937 1.47498 19.9105 1.21716 19.5692 1.28365C19.4517 1.30672 19.3608 1.36642 19.2993 1.46005C19 1.92549 19.7091 2.40856 20.2783 2.7953C20.365 2.85364 20.4489 2.91064 20.5259 2.96627C20.614 3.02869 20.7133 3.10332 20.8196 3.18474C21.2405 3.50498 21.744 3.88764 22.1049 3.88764C22.1916 3.88764 22.2699 3.86593 22.3371 3.81573C22.428 3.74788 22.4755 3.64611 22.4727 3.52127C22.4657 3.09925 21.8937 2.45199 21.344 2.06933H21.3454ZM22.2377 3.69089C21.9902 3.87543 21.3454 3.38557 20.9189 3.0599C20.8112 2.97848 20.7105 2.90114 20.621 2.83872C20.5426 2.78308 20.4573 2.72609 20.3706 2.66638C19.8573 2.31629 19.2182 1.88207 19.4364 1.54283C19.4727 1.48583 19.5259 1.45055 19.6 1.43698C19.6266 1.43156 19.6545 1.4302 19.6853 1.4302C19.9944 1.4302 20.5203 1.68802 21.2503 2.19688C21.8294 2.59989 22.3049 3.1956 22.3105 3.52398C22.3105 3.59861 22.2881 3.65289 22.2377 3.69089Z" stroke="#007AFF" stroke-width="0.7" stroke-miterlimit="10"/>
</g>
</g>
<g id="Vector_27">
<path d="M22.6252 4.00711C22.4671 3.95555 22.3762 4.00169 22.3273 4.05054C21.8811 4.48883 20.4769 6.00319 21.1343 7.09012C21.3175 7.39272 21.6182 7.59219 22.0252 7.68446C22.1958 7.72246 22.379 7.7401 22.5664 7.7401C23.3412 7.7401 24.207 7.45514 24.6154 7.19324C24.7343 7.1159 24.7818 6.97749 24.7552 6.77937C24.6489 5.98827 23.2951 4.22694 22.6238 4.00847L22.6252 4.00711ZM24.5259 7.06026C24.0419 7.36965 22.8867 7.71567 22.0615 7.52977C21.6993 7.44835 21.4336 7.2733 21.2741 7.0087C20.6741 6.01948 22.0168 4.57839 22.4419 4.16045C22.4545 4.14824 22.4741 4.14145 22.4979 4.14145C22.5189 4.14145 22.544 4.14688 22.5734 4.15638C23.1287 4.33821 24.4909 6.02762 24.5944 6.79837C24.6126 6.93135 24.5888 7.01955 24.5259 7.06026Z" fill="black"/>
<path d="M22.386 4.10482H22.3846M22.6252 4.00711C22.4671 3.95555 22.3762 4.00169 22.3273 4.05054C21.8811 4.48883 20.4769 6.00319 21.1343 7.09012C21.3175 7.39272 21.6182 7.59219 22.0252 7.68446C22.1958 7.72246 22.379 7.7401 22.5664 7.7401C23.3412 7.7401 24.207 7.45514 24.6154 7.19324C24.7343 7.1159 24.7818 6.97749 24.7552 6.77937C24.6489 5.98827 23.2951 4.22694 22.6238 4.00847L22.6252 4.00711ZM24.5259 7.06026C24.0419 7.36965 22.8867 7.71567 22.0615 7.52977C21.6993 7.44835 21.4336 7.2733 21.2741 7.0087C20.6741 6.01948 22.0168 4.57839 22.4419 4.16045C22.4545 4.14824 22.4741 4.14145 22.4979 4.14145C22.5189 4.14145 22.544 4.14688 22.5734 4.15638C23.1287 4.33821 24.4909 6.02762 24.5944 6.79837C24.6126 6.93135 24.5888 7.01955 24.5259 7.06026Z" stroke="#007AFF" stroke-width="0.7" stroke-miterlimit="10"/>
</g>
<g id="Group_11">
<path id="Vector_28" d="M22.351 4.13333C22.0322 4.44136 22.3594 4.88508 22.3776 5.22703C22.3958 5.56627 22.2629 5.83359 22.435 6.11313C22.607 6.39266 23.042 6.42522 23.5007 6.67898C23.835 6.86352 24.0993 7.30046 24.5231 7.15798C24.9287 7.02364 25.1245 6.10634 24.3273 5.06284C23.5245 4.01392 22.6811 3.81444 22.3524 4.13197L22.351 4.13333Z" fill="white" stroke="#007AFF" stroke-width="0.7" stroke-miterlimit="10"/>
<path id="Vector_29" d="M22.807 3.92029C22.5944 3.90672 22.4168 3.95964 22.2937 4.0777C22.0406 4.32195 22.1357 4.63134 22.221 4.90408C22.2574 5.02214 22.2923 5.13341 22.2979 5.23111C22.3035 5.34102 22.2923 5.44551 22.2825 5.54457C22.2602 5.75082 22.2406 5.94622 22.3665 6.15248C22.4867 6.34924 22.7119 6.43473 22.9721 6.53243C23.1217 6.58942 23.2923 6.6532 23.4602 6.74683C23.5539 6.79975 23.6434 6.87302 23.7385 6.95308C23.9161 7.10099 24.1119 7.26518 24.3595 7.26518C24.4196 7.26518 24.4825 7.25569 24.5497 7.23262C24.7105 7.1797 24.8364 7.03314 24.9049 6.8201C25.028 6.43337 24.9595 5.75625 24.393 5.01671C23.8867 4.35587 23.3091 3.95557 22.8084 3.91893L22.807 3.92029ZM24.7483 6.77532C24.6965 6.9368 24.6056 7.04943 24.4965 7.08607C24.2448 7.16884 24.0602 7.0155 23.8448 6.83503C23.7483 6.75497 23.649 6.6722 23.5413 6.61249C23.3623 6.51343 23.186 6.44694 23.0308 6.38859C22.7888 6.29768 22.5972 6.2244 22.5049 6.07514C22.4056 5.91366 22.4238 5.75082 22.4434 5.56356C22.4546 5.45772 22.4658 5.34781 22.4602 5.22568C22.4532 5.10898 22.4154 4.98279 22.3777 4.86202C22.2993 4.60962 22.2252 4.3708 22.4098 4.19304C22.4979 4.10755 22.6336 4.0682 22.7958 4.08041C23.2434 4.11298 23.7916 4.49971 24.2616 5.11577C24.7916 5.80782 24.8602 6.42794 24.7483 6.77804V6.77532Z" fill="black" stroke="#007AFF" stroke-width="0.7" stroke-miterlimit="10"/>
</g>
<path id="Vector_30" d="M26.3735 9.48914C26.3077 9.35752 26.2797 9.11327 26.249 8.85409C26.1944 8.37915 26.1315 7.84044 25.8098 7.63826C25.4252 7.39672 24.6797 7.46457 23.5301 7.84587C22.3888 8.22446 21.7483 8.64105 21.5735 9.11598C21.4112 9.55835 21.6532 10.0129 21.8462 10.3793C21.9357 10.5489 22.021 10.709 22.0518 10.8407C22.0742 10.937 22.0839 11.0659 22.0937 11.2016C22.1287 11.6725 22.1763 12.3157 22.8196 12.6332C23.0644 12.754 23.3021 12.8001 23.5315 12.8001C23.9203 12.8001 24.2867 12.6685 24.6238 12.5477C24.7539 12.5016 24.8797 12.4554 25.0014 12.4202C25.1133 12.3876 25.2532 12.3632 25.4 12.336C25.9497 12.2356 26.7021 12.0986 26.9958 11.4323C27.2364 10.8854 26.8238 10.2273 26.5497 9.79174C26.4756 9.67369 26.4112 9.57056 26.3721 9.4905L26.3735 9.48914ZM26.849 11.3699C26.5888 11.9602 25.9147 12.0823 25.3721 12.1813C25.2196 12.2085 25.0756 12.2356 24.9567 12.2695C24.8308 12.3062 24.7035 12.351 24.5693 12.3998C24.0644 12.5816 23.4909 12.7865 22.8951 12.4934C22.3343 12.2166 22.2923 11.6481 22.2588 11.1908C22.249 11.0483 22.2378 10.9139 22.2126 10.8054C22.1763 10.6548 22.0867 10.4865 21.993 10.3087C21.8042 9.95186 21.5902 9.54749 21.7287 9.17026C21.8839 8.74824 22.5077 8.35337 23.5846 7.99513C24.27 7.76717 24.8098 7.65454 25.1986 7.65454C25.4252 7.65454 25.6014 7.69389 25.7245 7.77124C25.9818 7.93271 26.0392 8.43207 26.0909 8.87308C26.1245 9.15669 26.1525 9.4023 26.2294 9.5597C26.2728 9.64655 26.3385 9.75239 26.4154 9.87452C26.6867 10.3074 27.0588 10.899 26.8504 11.3726L26.849 11.3699Z" fill="black" stroke="#007AFF" stroke-width="0.7" stroke-miterlimit="10"/>
<path id="Vector_31" d="M27.7553 14.9658C27.7329 14.8247 27.7273 14.6497 27.7217 14.4651C27.7007 13.8694 27.6755 13.1272 27.0965 12.7676C26.5609 12.4324 25.8951 12.602 25.3609 12.7377C25.1427 12.7934 24.9385 12.8449 24.7693 12.8571C24.6546 12.8653 24.5203 12.8694 24.379 12.8734C23.7567 12.8924 22.9832 12.9168 22.6518 13.2982C22.0909 13.9454 22.1231 16.8167 23.0406 17.5916C23.3273 17.8331 23.7301 17.9525 24.2769 17.9525C24.5385 17.9525 24.835 17.9254 25.1665 17.8711C25.4853 17.8195 25.7804 17.8073 26.0658 17.7965C26.7665 17.768 27.3706 17.7449 27.7748 17.0908C28.0658 16.6213 27.9273 15.8981 27.8168 15.3173C27.793 15.1925 27.7706 15.0744 27.7539 14.9658H27.7553ZM27.6378 17.0094C27.2769 17.5902 26.7399 17.6119 26.0602 17.639C25.7832 17.6499 25.4685 17.6621 25.1413 17.7164C24.179 17.8724 23.5273 17.7924 23.1483 17.4735C22.2909 16.7516 22.2699 13.9861 22.7776 13.3999C23.0616 13.0729 23.8266 13.0485 24.3846 13.0308C24.5301 13.0268 24.6658 13.0227 24.7818 13.0132C24.9651 12.9996 25.1776 12.9467 25.4014 12.8897C25.9315 12.7554 26.5315 12.6034 27.0084 12.8992C27.5147 13.214 27.5385 13.8816 27.5581 14.4692C27.5651 14.6592 27.5706 14.8383 27.5944 14.9876C27.6112 15.0975 27.635 15.2169 27.6588 15.3444C27.7651 15.8994 27.8965 16.5888 27.6378 17.0081V17.0094Z" fill="black" stroke="#007AFF" stroke-width="0.7" stroke-miterlimit="10"/>
<path id="Vector_32" d="M25.1259 14.0187C25.0546 13.6835 24.9623 13.4718 24.9623 13.4718C24.9623 13.4718 25.0042 13.6957 25.0364 14.0322C25.0588 14.1991 25.0672 14.3972 25.0839 14.6062C25.0951 14.8165 25.1119 15.0404 25.1133 15.2643C25.1259 15.7121 25.1091 16.1599 25.0658 16.4937C25.0448 16.6606 25.021 16.7991 24.9958 16.8954C24.9721 16.9917 24.9595 17.0474 24.9595 17.0474C24.9595 17.0474 24.9832 16.9958 25.0266 16.9049C25.0644 16.8126 25.1203 16.6783 25.1567 16.51C25.1986 16.3431 25.2336 16.145 25.2546 15.932C25.2756 15.7189 25.2825 15.4896 25.277 15.2616C25.2686 14.8043 25.2028 14.3525 25.1273 14.0187H25.1259Z" fill="black" stroke="#007AFF" stroke-width="0.7" stroke-miterlimit="10"/>
<path id="Vector_33" d="M24.5552 10.8691C24.5217 10.6737 24.4713 10.4675 24.4112 10.2653C24.2909 9.85957 24.1189 9.47148 23.9692 9.19059C23.821 8.90835 23.6853 8.7428 23.6853 8.7428C23.6853 8.7428 23.7762 8.93413 23.8867 9.22723C23.9468 9.37242 24.0028 9.54611 24.0699 9.7293C24.1315 9.91385 24.2014 10.1106 24.2573 10.3101C24.379 10.7063 24.4755 11.1093 24.5203 11.4174C24.5426 11.5707 24.5566 11.6996 24.5594 11.7919C24.5636 11.8841 24.565 11.9357 24.565 11.9357C24.565 11.9357 24.5748 11.8841 24.5902 11.7932C24.6014 11.7023 24.6196 11.5693 24.6112 11.4106C24.6084 11.2518 24.5916 11.0673 24.558 10.8705L24.5552 10.8691Z" fill="black" stroke="#007AFF" stroke-width="0.7" stroke-miterlimit="10"/>
<path id="Vector_34" d="M25.228 15.4027C25.0126 15.4095 24.7972 15.4095 24.5972 15.4C24.3958 15.3919 24.2084 15.3756 24.0489 15.3498C23.8909 15.3227 23.7552 15.3023 23.6657 15.2738C23.5734 15.2494 23.5203 15.2358 23.5203 15.2358C23.5203 15.2358 23.5692 15.2603 23.6545 15.3023C23.7412 15.3444 23.8699 15.3946 24.0294 15.4367C24.1888 15.4774 24.379 15.5208 24.586 15.5384C24.7916 15.5629 25.0126 15.5642 25.2336 15.5602C25.6741 15.5466 26.1091 15.4774 26.4294 15.4027C26.7496 15.3295 26.9552 15.2521 26.9552 15.2521C26.9552 15.2521 26.7384 15.2779 26.414 15.3159C26.0909 15.3525 25.6587 15.3878 25.2294 15.4027H25.228Z" fill="black" stroke="#007AFF" stroke-width="0.7" stroke-miterlimit="10"/>
<path id="Vector_35" d="M23.3329 10.5571C23.0476 10.6073 22.8574 10.6412 22.8574 10.6412C22.8574 10.6412 22.9063 10.6439 22.9902 10.648C23.0755 10.6507 23.1972 10.6548 23.3427 10.6453C23.4881 10.6344 23.6588 10.6222 23.8392 10.591C24.0196 10.5612 24.2098 10.515 24.3972 10.4594C24.772 10.3481 25.1245 10.1731 25.3692 10.0184C25.6154 9.86368 25.7567 9.73206 25.7567 9.73206C25.7567 9.73206 25.0783 10.0971 24.3483 10.3101C23.986 10.4227 23.614 10.5055 23.3315 10.5584L23.3329 10.5571Z" fill="black" stroke="#007AFF" stroke-width="0.7" stroke-miterlimit="10"/>
</g>
<defs>
<clipPath id="clip0_3055_3614">
<rect width="28" height="18" fill="white"/>
</clipPath>
</defs>
</svg>
