<svg width="28" height="18" viewBox="0 0 28 18" fill="none" xmlns="http://www.w3.org/2000/svg">
<g id="Layer_1" clip-path="url(#clip0_3024_382)">
<g id="Group">
<path id="Vector" d="M18.9986 16.5385C18.7847 15.4244 17.5595 13.8097 16.1805 14.0254C14.7609 14.248 14.1147 16.3268 14.0672 17.2753C14.0182 18.2238 19.214 17.6526 19 16.5385L18.9986 16.5385Z" fill="white" stroke="#007AFF" stroke-width="0.7" stroke-miterlimit="10"/>
<g id="Vector_2">
<path d="M14.2392 17.6336C15.07 18.0692 17.8574 17.7435 18.7567 17.1057C19.0098 16.9266 19.1175 16.7312 19.0783 16.5236C18.8672 15.4245 17.7329 13.9277 16.4294 13.9277C16.3427 13.9277 16.2546 13.9345 16.1665 13.9481C14.7329 14.1733 14.0378 16.2237 13.9846 17.2713C13.979 17.373 14.0196 17.5182 14.2378 17.6336L14.2392 17.6336ZM14.1469 17.2794C14.1986 16.2766 14.8518 14.3145 16.193 14.1041C17.5105 13.8965 18.7049 15.4407 18.9189 16.5534C18.9455 16.6959 18.8602 16.8384 18.6616 16.9795C18.042 17.4178 16.5874 17.6729 15.4937 17.6729C14.979 17.6729 14.5441 17.6173 14.3161 17.4965C14.1413 17.4043 14.1455 17.312 14.1469 17.2808L14.1469 17.2794Z" fill="black"/>
<path d="M14.0644 17.2753L14.0658 17.2753M14.2392 17.6336C15.07 18.0692 17.8574 17.7435 18.7567 17.1057C19.0098 16.9266 19.1175 16.7312 19.0783 16.5236C18.8672 15.4245 17.7329 13.9277 16.4294 13.9277C16.3427 13.9277 16.2546 13.9345 16.1665 13.9481C14.7329 14.1733 14.0378 16.2237 13.9846 17.2713C13.979 17.373 14.0196 17.5182 14.2378 17.6336L14.2392 17.6336ZM14.1469 17.2794C14.1986 16.2766 14.8518 14.3145 16.193 14.1041C17.5105 13.8965 18.7049 15.4407 18.9189 16.5534C18.9455 16.6959 18.8602 16.8384 18.6616 16.9795C18.042 17.4178 16.5874 17.6729 15.4937 17.6729C14.979 17.6729 14.5441 17.6173 14.3161 17.4965C14.1413 17.4043 14.1455 17.312 14.1469 17.2808L14.1469 17.2794Z" stroke="#007AFF" stroke-width="0.7" stroke-miterlimit="10"/>
</g>
</g>
<g id="Group_2">
<path id="Vector_3" d="M22.2853 14.2629C21.5804 13.7324 19.9258 12.3564 18.8867 13.2344C18.2321 13.788 18.9874 15.9876 19.3538 16.4775C19.7202 16.9673 22.9888 14.7935 22.2853 14.2616L22.2853 14.2629Z" fill="white" stroke="#007AFF" stroke-width="0.7" stroke-miterlimit="10"/>
<path id="Vector_4" d="M19.7063 16.6118C20.4671 16.4625 22.2825 15.2616 22.4517 14.5641C22.4979 14.3728 22.414 14.2615 22.3343 14.2018L22.193 14.0946C21.6238 13.6604 20.5944 12.8734 19.6825 12.8734C19.379 12.8734 19.0881 12.9602 18.8336 13.1773C18.1119 13.788 18.9315 16.0487 19.2881 16.5263C19.3608 16.624 19.5021 16.6511 19.7063 16.6131L19.7063 16.6118ZM18.9399 13.294C19.8629 12.5138 21.3692 13.6645 22.0937 14.2168L22.2364 14.3253C22.2755 14.3552 22.3245 14.4081 22.2951 14.5275C22.1496 15.1259 20.4531 16.3051 19.6755 16.4571C19.6266 16.4666 19.5818 16.472 19.5455 16.472C19.4839 16.472 19.4406 16.4585 19.421 16.4327C19.0462 15.932 18.3385 13.8043 18.9413 13.294L18.9399 13.294Z" fill="black" stroke="#007AFF" stroke-width="0.7" stroke-miterlimit="10"/>
</g>
<g id="Group_3">
<path id="Vector_5" d="M16.6671 17.8128C18.0615 17.6948 19.1091 17.1384 19.0182 16.6309C18.8993 15.9742 17.1063 16.3338 16.4713 16.4138C15.8364 16.4925 14.0518 16.5644 14.0811 17.3081C14.1091 17.992 15.5874 17.9051 16.6657 17.8128L16.6671 17.8128Z" fill="white" stroke="#007AFF" stroke-width="0.7" stroke-miterlimit="10"/>
<path id="Vector_6" d="M14.179 17.6703C14.5846 18.0163 15.6182 17.9811 16.6741 17.8915C17.7119 17.8033 18.635 17.46 18.9692 17.0366C19.0797 16.8982 19.1231 16.7571 19.0979 16.6173C19.035 16.2659 18.5972 16.1641 18.0783 16.1655C17.6364 16.1655 17.1343 16.2387 16.7511 16.2944C16.6392 16.3107 16.5413 16.3256 16.4602 16.3351C16.3818 16.3446 16.2839 16.3541 16.1762 16.3649C15.3511 16.4477 13.9706 16.5848 14 17.3094C14.0056 17.4519 14.0657 17.5726 14.179 17.669L14.179 17.6703ZM16.193 16.5223C16.3035 16.5115 16.4014 16.502 16.4811 16.4911C16.5622 16.4816 16.6629 16.4667 16.7748 16.4504C17.4476 16.3514 18.8476 16.1465 18.9371 16.6445C18.9539 16.7381 18.9217 16.8372 18.8406 16.9403C18.5315 17.3297 17.6546 17.65 16.6588 17.7341C16.3692 17.7585 15.9371 17.7952 15.5133 17.7952C15.0042 17.7952 14.5077 17.7422 14.2853 17.5523C14.2056 17.4844 14.1664 17.403 14.1622 17.3039C14.1385 16.7272 15.4741 16.5943 16.193 16.5223Z" fill="black" stroke="#007AFF" stroke-width="0.7" stroke-miterlimit="10"/>
</g>
<g id="Group_4">
<path id="Vector_7" d="M21.2979 15.8669C22.0098 15.3702 22.6504 14.5167 22.2881 14.2467C21.9259 13.9766 21.0671 14.7487 20.5748 15.0975C19.9972 15.5059 19.0699 16.0338 19.3692 16.4978C19.642 16.9212 20.586 16.3635 21.2993 15.8669L21.2979 15.8669Z" fill="white" stroke="#007AFF" stroke-width="0.7" stroke-miterlimit="10"/>
<path id="Vector_8" d="M19.5692 16.7164C19.9119 16.7828 20.4923 16.525 21.3455 15.9307C21.8937 15.548 22.4657 14.9007 22.4741 14.4787C22.4769 14.3539 22.4294 14.2521 22.3385 14.1843C22.2713 14.1341 22.193 14.1124 22.1063 14.1124C21.7455 14.1124 21.2406 14.495 20.8196 14.8153C20.7133 14.8953 20.614 14.9713 20.5273 15.0337C20.4503 15.0894 20.3664 15.1464 20.2797 15.2047C19.7105 15.5928 19 16.0745 19.3007 16.5399C19.3622 16.6349 19.4517 16.6946 19.5706 16.7164L19.5692 16.7164ZM20.372 15.3336C20.4587 15.2739 20.5441 15.2169 20.6224 15.1613C20.7105 15.0989 20.8112 15.0215 20.9189 14.9401C21.3455 14.6158 21.9902 14.1232 22.2378 14.3091C22.2881 14.3471 22.3119 14.4014 22.3105 14.476C22.3049 14.8044 21.8294 15.4001 21.2504 15.8031C20.5203 16.312 19.9944 16.5698 19.6853 16.5698C19.6545 16.5698 19.6266 16.5671 19.6 16.563C19.5273 16.5494 19.4741 16.5142 19.4364 16.4572C19.2182 16.1179 19.8573 15.6837 20.3706 15.3336L20.372 15.3336Z" fill="black" stroke="#007AFF" stroke-width="0.7" stroke-miterlimit="10"/>
</g>
<g id="Group_5">
<path id="Vector_9" d="M24.5706 10.8746C23.9217 10.458 21.8546 9.87856 21.2042 10.9519C20.5748 11.99 21.9427 13.4609 22.3846 13.8951C22.8266 14.3294 25.221 11.2912 24.5706 10.8746Z" fill="white" stroke="#007AFF" stroke-width="0.7" stroke-miterlimit="10"/>
<path id="Vector_10" d="M22.6252 13.9929C23.2951 13.7744 24.6503 12.0131 24.7566 11.222C24.7832 11.0239 24.7357 10.8854 24.6168 10.8081C24.2084 10.5476 23.3426 10.2612 22.5678 10.2612C22.379 10.2612 22.1958 10.2775 22.0266 10.3169C21.6196 10.4092 21.3189 10.6086 21.1357 10.9112C20.4769 11.9981 21.8825 13.5125 22.3287 13.9508C22.3776 13.9997 22.4699 14.0458 22.6266 13.9942L22.6252 13.9929ZM21.2741 10.9913C21.4336 10.7267 21.6993 10.5516 22.0615 10.4702C22.8867 10.2843 24.0419 10.6303 24.5259 10.9397C24.5888 10.9804 24.6126 11.0686 24.5944 11.2016C24.4909 11.9737 23.1273 13.6631 22.5734 13.8436C22.544 13.8531 22.5189 13.8585 22.4979 13.8585C22.4741 13.8585 22.4545 13.8517 22.4419 13.8395C22.0168 13.4216 20.6741 11.9805 21.2741 10.9913Z" fill="black" stroke="#007AFF" stroke-width="0.7" stroke-miterlimit="10"/>
</g>
<g id="Group_6">
<path id="Vector_11" d="M22.351 13.8667C22.6797 14.1842 23.5245 13.9834 24.3259 12.9358C25.1231 11.8937 24.9273 10.9764 24.5217 10.8407C24.0979 10.6995 23.8336 11.1351 23.4993 11.3197C23.0406 11.5734 22.6056 11.606 22.4336 11.8855C22.2629 12.1651 22.3958 12.4324 22.3762 12.7716C22.358 13.1136 22.0308 13.5573 22.3496 13.8653L22.351 13.8667Z" fill="white" stroke="#007AFF" stroke-width="0.7" stroke-miterlimit="10"/>
<path id="Vector_12" d="M22.807 14.0797C23.3077 14.0431 23.8853 13.6428 24.3916 12.9819C24.958 12.2424 25.028 11.5653 24.9035 11.1786C24.8364 10.9669 24.7091 10.8203 24.5496 10.766C24.4825 10.7443 24.4196 10.7335 24.3594 10.7335C24.1133 10.7335 23.9161 10.8977 23.7385 11.0456C23.6434 11.1243 23.5552 11.1989 23.4601 11.2518C23.2909 11.3455 23.1217 11.4092 22.972 11.4662C22.7119 11.5653 22.4867 11.6494 22.3664 11.8462C22.2406 12.0524 22.2615 12.2478 22.2825 12.4541C22.2937 12.5545 22.3035 12.6576 22.2979 12.7675C22.2923 12.8652 22.2587 12.9765 22.221 13.0946C22.1371 13.3673 22.0406 13.6767 22.2937 13.921C22.4168 14.039 22.593 14.0919 22.807 14.0784L22.807 14.0797ZM22.3762 13.1407C22.414 13.0186 22.4531 12.8937 22.4587 12.777C22.4657 12.6549 22.4531 12.545 22.442 12.4392C22.4224 12.2519 22.4042 12.0891 22.5035 11.9276C22.5958 11.777 22.7874 11.7051 23.0294 11.6141C23.1846 11.5558 23.3608 11.4893 23.5399 11.3902C23.6475 11.3305 23.7468 11.2478 23.8434 11.1677C24.0587 10.9886 24.2434 10.8339 24.4951 10.9167C24.6042 10.9533 24.6965 11.0659 24.7468 11.2274C24.8587 11.5775 24.7888 12.1976 24.2601 12.8897C23.7888 13.5057 23.2406 13.8925 22.7944 13.925C22.7748 13.9264 22.7566 13.9277 22.7371 13.9277C22.5986 13.9277 22.4853 13.8884 22.407 13.8124C22.2224 13.6346 22.2965 13.3958 22.3748 13.1434L22.3762 13.1407Z" fill="black" stroke="#007AFF" stroke-width="0.7" stroke-miterlimit="10"/>
</g>
<g id="Group_7">
<path id="Vector_13" d="M23.5567 10.0795C24.2098 10.2966 25.2812 10.6019 25.7665 10.2966C26.2266 10.0076 26.1077 8.8664 26.3007 8.47695C26.4937 8.08751 27.2098 7.24891 26.9231 6.59893C26.5707 5.79561 25.5119 5.80782 24.9791 5.65449C24.3735 5.47944 23.6448 5.04793 22.8574 5.43602C22.07 5.82411 22.2364 6.74276 22.1315 7.17699C22.028 7.60986 21.4266 8.25034 21.649 8.8569C21.8714 9.46346 22.9021 9.8624 23.5553 10.0795L23.5567 10.0795Z" fill="white" stroke="#007AFF" stroke-width="0.7" stroke-miterlimit="10"/>
<g id="Vector_14">
<path d="M23.5301 10.1541C24.6797 10.5354 25.4266 10.6033 25.8098 10.3617C26.1315 10.1596 26.1944 9.62085 26.249 9.14591C26.2797 8.88673 26.3077 8.64248 26.3735 8.51086C26.4126 8.4308 26.4769 8.32903 26.5511 8.20961C26.8252 7.77403 27.2378 7.11591 26.9972 6.5677C26.7035 5.90008 25.9511 5.76303 25.4014 5.66397C25.2532 5.63683 25.1133 5.61105 25.0028 5.57984C24.8811 5.54456 24.7553 5.49978 24.6252 5.45228C24.2881 5.33151 23.9217 5.19989 23.5329 5.19989C23.3035 5.19989 23.0658 5.24603 22.821 5.3668C22.1776 5.68432 22.1301 6.32752 22.0951 6.79838C22.0853 6.93408 22.0755 7.06299 22.0532 7.15933C22.0224 7.29096 21.9371 7.45108 21.8476 7.6207C21.6532 7.98707 21.4126 8.44301 21.5748 8.88402C21.7497 9.36031 22.3888 9.77554 23.5315 10.1541L23.5301 10.1541ZM21.9916 7.69262C22.0867 7.51485 22.1748 7.34523 22.2112 7.19597C22.2364 7.08741 22.2476 6.95308 22.2574 6.81059C22.2909 6.3533 22.3329 5.78474 22.8937 5.50792C23.4909 5.21346 24.063 5.41972 24.5679 5.60155C24.7021 5.6504 24.8308 5.69653 24.9553 5.73182C25.0742 5.76574 25.2182 5.79288 25.3707 5.82002C25.9133 5.91908 26.5874 6.0412 26.8476 6.63148C27.056 7.10505 26.6839 7.69669 26.4112 8.12955C26.3343 8.25168 26.2686 8.35617 26.2252 8.44437C26.1483 8.60042 26.1203 8.84603 26.0867 9.13099C26.035 9.572 25.9776 10.0714 25.7203 10.2328C25.5972 10.3102 25.421 10.3495 25.1944 10.3495C24.8056 10.3495 24.2658 10.2355 23.5804 10.0089C22.5035 9.65206 21.8797 9.25583 21.7245 8.83381C21.586 8.45658 21.8 8.05221 21.9888 7.69533L21.9916 7.69262Z" fill="black"/>
<path d="M25.7637 10.2966L25.7651 10.2966M23.5301 10.1541C24.6797 10.5354 25.4266 10.6033 25.8098 10.3617C26.1315 10.1596 26.1944 9.62085 26.249 9.14591C26.2797 8.88673 26.3077 8.64248 26.3735 8.51086C26.4126 8.4308 26.4769 8.32903 26.5511 8.20961C26.8252 7.77403 27.2378 7.11591 26.9972 6.5677C26.7035 5.90008 25.9511 5.76303 25.4014 5.66397C25.2532 5.63683 25.1133 5.61105 25.0028 5.57984C24.8811 5.54456 24.7553 5.49978 24.6252 5.45228C24.2881 5.33151 23.9217 5.19989 23.5329 5.19989C23.3035 5.19989 23.0658 5.24603 22.821 5.3668C22.1776 5.68432 22.1301 6.32752 22.0951 6.79838C22.0853 6.93408 22.0755 7.06299 22.0532 7.15933C22.0224 7.29096 21.9371 7.45108 21.8476 7.6207C21.6532 7.98707 21.4126 8.44301 21.5748 8.88402C21.7497 9.36031 22.3888 9.77554 23.5315 10.1541L23.5301 10.1541ZM21.9916 7.69262C22.0867 7.51485 22.1748 7.34523 22.2112 7.19597C22.2364 7.08741 22.2476 6.95308 22.2574 6.81059C22.2909 6.3533 22.3329 5.78474 22.8937 5.50792C23.4909 5.21346 24.063 5.41972 24.5679 5.60155C24.7021 5.6504 24.8308 5.69653 24.9553 5.73182C25.0742 5.76574 25.2182 5.79288 25.3707 5.82002C25.9133 5.91908 26.5874 6.0412 26.8476 6.63148C27.056 7.10505 26.6839 7.69669 26.4112 8.12955C26.3343 8.25168 26.2686 8.35617 26.2252 8.44437C26.1483 8.60042 26.1203 8.84603 26.0867 9.13099C26.035 9.572 25.9776 10.0714 25.7203 10.2328C25.5972 10.3102 25.421 10.3495 25.1944 10.3495C24.8056 10.3495 24.2658 10.2355 23.5804 10.0089C22.5035 9.65206 21.8797 9.25583 21.7245 8.83381C21.586 8.45658 21.8 8.05221 21.9888 7.69533L21.9916 7.69262Z" stroke="#007AFF" stroke-width="0.7" stroke-miterlimit="10"/>
</g>
</g>
<g id="Group_8">
<path id="Vector_15" d="M24.7762 5.0641C25.3762 5.10752 26.3357 5.61095 27.0531 5.16587C27.7692 4.71943 27.5818 3.62302 27.6755 3.02189C27.7692 2.42211 28.0447 1.4926 27.7077 0.949816C27.1706 0.0827218 26.2783 0.389393 25.1552 0.206204C24.1678 0.0460838 23.4993 0.127501 23.0951 0.46674C22.2322 1.19542 22.1594 4.00839 22.7147 4.65023C23.0951 5.08988 24.1776 5.02068 24.7762 5.0641Z" fill="white" stroke="#007AFF" stroke-width="0.7" stroke-miterlimit="10"/>
<path id="Vector_16" d="M24.3804 5.12653C24.5231 5.1306 24.656 5.13468 24.7706 5.14282C24.9385 5.15503 25.1441 5.20659 25.3609 5.26223C25.8951 5.39792 26.5595 5.56619 27.0965 5.23238C27.6741 4.87278 27.7007 4.13053 27.7203 3.53483C27.7273 3.35028 27.7329 3.17523 27.7553 3.03411C27.772 2.92691 27.7944 2.8075 27.8182 2.68266C27.9287 2.10188 28.0671 1.37998 27.7762 0.910476C27.3706 0.256424 26.7665 0.233356 26.0671 0.20486C25.7818 0.194005 25.4853 0.181792 25.1678 0.130227C24.835 0.0759495 24.5399 0.0488113 24.2783 0.0488113C23.7301 0.0488113 23.3287 0.168222 23.042 0.40976C22.1245 1.18322 22.0923 4.0559 22.6532 4.70316C22.9832 5.08447 23.7581 5.10889 24.3804 5.12789L24.3804 5.12653ZM23.1483 0.526458C23.5273 0.206217 24.1804 0.127514 25.1413 0.283564C25.4699 0.336485 25.7832 0.350053 26.0616 0.360909C26.7413 0.388048 27.2783 0.409761 27.6378 0.990537C27.8965 1.40984 27.7651 2.09917 27.6588 2.65281C27.635 2.78036 27.6112 2.89977 27.5944 3.00968C27.5706 3.16031 27.5651 3.33942 27.5581 3.52804C27.5371 4.11696 27.5147 4.78322 27.0084 5.09804C26.807 5.22423 26.5818 5.26901 26.3511 5.26901C26.0364 5.26901 25.7077 5.18624 25.4028 5.10889C25.1776 5.0519 24.9665 4.99762 24.7832 4.98541C24.6658 4.97727 24.5301 4.97184 24.386 4.96777C23.828 4.95013 23.0616 4.92706 22.779 4.59868C22.2713 4.01383 22.2937 1.24836 23.1497 0.525102L23.1483 0.526458Z" fill="black" stroke="#007AFF" stroke-width="0.7" stroke-miterlimit="10"/>
</g>
<path id="Vector_17" d="M25.137 3.27293C25.1161 3.47376 25.1035 3.66373 25.0797 3.82385C25.0419 4.14681 24.9958 4.36121 24.9958 4.36121C24.9958 4.36121 25.0923 4.16173 25.1692 3.84014C25.2503 3.52125 25.3231 3.08567 25.3384 2.64602C25.3468 2.42619 25.3426 2.20636 25.3245 2.00011C25.3063 1.79385 25.2727 1.60388 25.2322 1.4424C25.1972 1.28092 25.1412 1.15201 25.1035 1.06381C25.0615 0.976962 25.0377 0.928112 25.0377 0.928112C25.0377 0.928112 25.0503 0.981032 25.0741 1.07466C25.0993 1.16558 25.1217 1.29992 25.1426 1.46004C25.1846 1.78028 25.1958 2.21043 25.1776 2.64195C25.1734 2.8577 25.1524 3.0721 25.1384 3.27429L25.137 3.27293Z" fill="black" stroke="#007AFF" stroke-width="0.7" stroke-miterlimit="10"/>
<path id="Vector_18" d="M24.4112 7.73468C24.4713 7.5325 24.5217 7.32624 24.5552 7.13084C24.5888 6.93544 24.6056 6.74954 24.6084 6.59077C24.6168 6.43201 24.5986 6.29903 24.5874 6.20811C24.5706 6.11719 24.5622 6.06563 24.5622 6.06563C24.5622 6.06563 24.5594 6.11855 24.5566 6.20947C24.5552 6.30038 24.5399 6.4293 24.5175 6.58399C24.4727 6.89066 24.3762 7.29367 24.2545 7.69126C24.1986 7.89073 24.1287 8.08749 24.0671 8.27204C24.0014 8.45523 23.9441 8.62892 23.8839 8.77411C23.7734 9.06721 23.6825 9.25855 23.6825 9.25855C23.6825 9.25855 23.8182 9.093 23.9664 8.81075C24.1175 8.53122 24.2881 8.14177 24.4084 7.73604L24.4112 7.73468Z" fill="black" stroke="#007AFF" stroke-width="0.7" stroke-miterlimit="10"/>
<path id="Vector_19" d="M24.049 2.65018C24.2084 2.62439 24.3958 2.60811 24.5972 2.59997C24.7986 2.59047 25.0126 2.58911 25.228 2.59725C25.6588 2.61218 26.0895 2.64746 26.4126 2.6841C26.7371 2.72209 26.9539 2.74788 26.9539 2.74788C26.9539 2.74788 26.7497 2.67053 26.428 2.59725C26.1091 2.52262 25.6741 2.45342 25.2322 2.43985C25.0126 2.43578 24.7916 2.43849 24.5846 2.46156C24.3776 2.4792 24.1888 2.52262 24.028 2.56333C23.8685 2.6054 23.7399 2.6556 23.6532 2.69767C23.5678 2.73974 23.5189 2.76416 23.5189 2.76416C23.5189 2.76416 23.572 2.75059 23.6643 2.72617C23.7539 2.69631 23.8895 2.67731 24.0476 2.65018L24.049 2.65018Z" fill="black" stroke="#007AFF" stroke-width="0.7" stroke-miterlimit="10"/>
<path id="Vector_20" d="M24.3497 7.69122C25.0783 7.90427 25.7581 8.26929 25.7581 8.26929C25.7581 8.26929 25.6182 8.13766 25.3706 7.98297C25.1259 7.82828 24.7734 7.65459 24.3986 7.54196C24.2112 7.48497 24.021 7.44019 23.8406 7.41033C23.6602 7.37912 23.4895 7.36691 23.3441 7.35606C23.1986 7.34656 23.0755 7.35063 22.9916 7.35334C22.9063 7.35741 22.8588 7.36013 22.8588 7.36013C22.8588 7.36013 23.049 7.39405 23.3343 7.44426C23.6168 7.49718 23.9902 7.57995 24.3525 7.69258L24.3497 7.69122Z" fill="black" stroke="#007AFF" stroke-width="0.7" stroke-miterlimit="10"/>
<path id="Vector_21" d="M9.11891 17.046C10.021 17.6851 12.8168 18.0122 13.6504 17.5739C13.87 17.4585 13.9091 17.3133 13.9049 17.2116C13.8518 16.164 13.1553 14.1136 11.7175 13.8884C11.6294 13.8748 11.5413 13.868 11.4546 13.868C10.1483 13.868 9.00982 15.3661 8.79863 16.4652C8.75807 16.6715 8.86716 16.8669 9.11891 17.046ZM8.95807 16.4937C9.17206 15.381 10.3749 13.8382 11.6923 14.0444C13.0378 14.2548 13.6909 16.2169 13.7427 17.2197C13.7441 17.2496 13.7483 17.3432 13.5735 17.4355C12.8546 17.8113 10.1287 17.5657 9.21401 16.9185C9.01681 16.7787 8.9301 16.6362 8.95807 16.4937Z" fill="black" stroke="#007AFF" stroke-width="0.7" stroke-miterlimit="10"/>
<path id="Vector_22" d="M8.29372 16.6118C8.49792 16.6512 8.63918 16.6227 8.7119 16.525C9.06995 16.0473 9.88813 13.7853 9.16645 13.176C8.91051 12.9603 8.621 12.8721 8.3175 12.8721C7.40561 12.8721 6.37484 13.6591 5.80701 14.0933L5.66575 14.2005C5.58603 14.2602 5.50212 14.3715 5.54827 14.5628C5.7175 15.2603 7.53289 16.4626 8.29372 16.6105L8.29372 16.6118ZM5.76505 14.3254L5.90771 14.2168C6.63079 13.6645 8.13848 12.5138 9.06155 13.2941C9.66435 13.8043 8.95666 15.9306 8.58184 16.4327C8.55107 16.4734 8.45736 16.4829 8.32729 16.4571C7.54967 16.3051 5.85316 15.126 5.70771 14.5275C5.67834 14.4081 5.72729 14.3552 5.76645 14.3254L5.76505 14.3254Z" fill="black" stroke="#007AFF" stroke-width="0.7" stroke-miterlimit="10"/>
<g id="Group_9">
<path id="Vector_23" d="M11.2154 17.753C12.2965 17.8439 13.779 17.9308 13.807 17.2469C13.8378 16.5033 12.0475 16.4313 11.4112 16.3526C10.7748 16.2739 8.97761 15.913 8.85733 16.5711C8.76502 17.0773 9.81677 17.6336 11.214 17.7517L11.2154 17.753Z" fill="white" stroke="#007AFF" stroke-width="0.7" stroke-miterlimit="10"/>
<path id="Vector_24" d="M11.2084 17.8317C12.2671 17.9212 13.3049 17.9565 13.7105 17.6105C13.8224 17.5142 13.8825 17.3934 13.8895 17.2509C13.9189 16.5263 12.5342 16.3879 11.7063 16.3065C11.5972 16.2956 11.5007 16.2861 11.4224 16.2766C11.3426 16.2671 11.2433 16.2522 11.1315 16.2359C10.7468 16.1803 10.2447 16.107 9.80138 16.107C9.2797 16.107 8.84194 16.2088 8.779 16.5602C8.75383 16.6986 8.79718 16.8398 8.90628 16.9782C9.24194 17.4015 10.1664 17.7448 11.2084 17.833L11.2084 17.8317ZM8.93844 16.586C9.02796 16.088 10.4322 16.2929 11.1077 16.392C11.221 16.4082 11.3203 16.4232 11.4014 16.4327C11.4811 16.4422 11.579 16.453 11.6895 16.4625C12.4098 16.5344 13.7496 16.6674 13.7273 17.2441C13.7231 17.3432 13.6825 17.4232 13.6042 17.4911C13.1944 17.8412 11.8629 17.7286 11.2238 17.6743C10.2252 17.5902 9.34544 17.2713 9.03635 16.8805C8.95523 16.7787 8.92306 16.6783 8.93984 16.586L8.93844 16.586Z" fill="black" stroke="#007AFF" stroke-width="0.7" stroke-miterlimit="10"/>
</g>
<g id="Group_10">
<path id="Vector_25" d="M6.70214 15.8669C7.41402 16.3635 8.35948 16.9212 8.63221 16.4978C8.93151 16.0324 8.00423 15.5059 7.42661 15.0975C6.9343 14.7487 6.07556 13.9766 5.71332 14.2467C5.35109 14.5167 5.99165 15.3702 6.70353 15.8669L6.70214 15.8669Z" fill="white" stroke="#007AFF" stroke-width="0.7" stroke-miterlimit="10"/>
<g id="Vector_26">
<path d="M6.65456 15.9307C7.50631 16.525 8.08952 16.7828 8.43078 16.7164C8.54826 16.6933 8.63917 16.6336 8.70071 16.5399C9.00001 16.0745 8.29092 15.5914 7.72169 15.2047C7.63498 15.1464 7.55106 15.0894 7.47414 15.0337C7.38603 14.9713 7.28673 14.8967 7.18043 14.8153C6.75945 14.495 6.25596 14.1124 5.89512 14.1124C5.8084 14.1124 5.73008 14.1341 5.66295 14.1843C5.57204 14.2521 5.52449 14.3539 5.52729 14.4787C5.53428 14.9007 6.10631 15.548 6.65596 15.9307L6.65456 15.9307ZM5.76225 14.3091C6.0098 14.1246 6.65456 14.6144 7.08113 14.9401C7.18882 15.0215 7.28952 15.0989 7.37903 15.1613C7.45736 15.2169 7.54267 15.2739 7.62938 15.3336C8.14267 15.6837 8.78183 16.1179 8.56365 16.4572C8.52729 16.5142 8.47414 16.5494 8.40001 16.563C8.37344 16.5684 8.34547 16.5698 8.3147 16.5698C8.00561 16.5698 7.47973 16.312 6.74966 15.8031C6.17064 15.4001 5.69512 14.8044 5.68952 14.476C5.68952 14.4014 5.7119 14.3471 5.76225 14.3091Z" fill="black"/>
<path d="M8.63218 16.4979L8.63078 16.4979M6.65456 15.9307C7.50631 16.525 8.08952 16.7828 8.43078 16.7164C8.54826 16.6933 8.63917 16.6336 8.70071 16.5399C9.00001 16.0745 8.29092 15.5914 7.72169 15.2047C7.63498 15.1464 7.55106 15.0894 7.47414 15.0337C7.38603 14.9713 7.28673 14.8967 7.18043 14.8153C6.75945 14.495 6.25596 14.1124 5.89512 14.1124C5.8084 14.1124 5.73008 14.1341 5.66295 14.1843C5.57204 14.2521 5.52449 14.3539 5.52729 14.4787C5.53428 14.9007 6.10631 15.548 6.65596 15.9307L6.65456 15.9307ZM5.76225 14.3091C6.0098 14.1246 6.65456 14.6144 7.08113 14.9401C7.18882 15.0215 7.28952 15.0989 7.37903 15.1613C7.45735 15.2169 7.54267 15.2739 7.62938 15.3336C8.14267 15.6837 8.78183 16.1179 8.56365 16.4572C8.52729 16.5142 8.47414 16.5494 8.40001 16.563C8.37344 16.5684 8.34547 16.5698 8.3147 16.5698C8.00561 16.5698 7.47973 16.312 6.74966 15.8031C6.17064 15.4001 5.69512 14.8044 5.68952 14.476C5.68952 14.4014 5.7119 14.3471 5.76225 14.3091Z" stroke="#007AFF" stroke-width="0.7" stroke-miterlimit="10"/>
</g>
</g>
<g id="Vector_27">
<path d="M5.37484 13.9929C5.53288 14.0444 5.62379 13.9983 5.67274 13.9495C6.11889 13.5112 7.52309 11.9968 6.86575 10.9099C6.68253 10.6073 6.38183 10.4078 5.97484 10.3155C5.80421 10.2775 5.62099 10.2599 5.43358 10.2599C4.65875 10.2599 3.79302 10.5449 3.38463 10.8068C3.26575 10.8841 3.21819 11.0225 3.24477 11.2206C3.35106 12.0117 4.70491 13.7731 5.37624 13.9915L5.37484 13.9929ZM3.47414 10.9397C3.95805 10.6304 5.1133 10.2843 5.93847 10.4702C6.30071 10.5516 6.56645 10.7267 6.72589 10.9913C7.32589 11.9805 5.98323 13.4216 5.55805 13.8395C5.54547 13.8518 5.52589 13.8585 5.50211 13.8585C5.48113 13.8585 5.45596 13.8531 5.42659 13.8436C4.87134 13.6618 3.5091 11.9724 3.40561 11.2016C3.38742 11.0686 3.4112 10.9804 3.47414 10.9397Z" fill="black"/>
<path d="M5.614 13.8952L5.6154 13.8952M5.37484 13.9929C5.53288 14.0444 5.62379 13.9983 5.67274 13.9495C6.11889 13.5112 7.52309 11.9968 6.86575 10.9099C6.68253 10.6073 6.38183 10.4078 5.97484 10.3155C5.80421 10.2775 5.62099 10.2599 5.43358 10.2599C4.65875 10.2599 3.79302 10.5449 3.38463 10.8068C3.26575 10.8841 3.21819 11.0225 3.24477 11.2206C3.35106 12.0117 4.70491 13.7731 5.37624 13.9915L5.37484 13.9929ZM3.47414 10.9397C3.95805 10.6304 5.1133 10.2843 5.93847 10.4702C6.30071 10.5516 6.56645 10.7267 6.72589 10.9913C7.32589 11.9805 5.98323 13.4216 5.55805 13.8395C5.54547 13.8518 5.52589 13.8585 5.50211 13.8585C5.48113 13.8585 5.45596 13.8531 5.42659 13.8436C4.87134 13.6618 3.5091 11.9724 3.40561 11.2016C3.38742 11.0686 3.4112 10.9804 3.47414 10.9397Z" stroke="#007AFF" stroke-width="0.7" stroke-miterlimit="10"/>
</g>
<g id="Group_11">
<path id="Vector_28" d="M5.64895 13.8667C5.96783 13.5586 5.64056 13.1149 5.62238 12.773C5.6042 12.4337 5.73706 12.1664 5.56503 11.8869C5.39301 11.6073 4.95804 11.5748 4.4993 11.321C4.16504 11.1365 3.9007 10.6995 3.47692 10.842C3.07133 10.9764 2.87552 11.8937 3.67273 12.9372C4.47552 13.9861 5.31888 14.1856 5.64755 13.868L5.64895 13.8667Z" fill="white" stroke="#007AFF" stroke-width="0.7" stroke-miterlimit="10"/>
<path id="Vector_29" d="M5.19298 14.0797C5.40557 14.0933 5.58319 14.0404 5.70627 13.9223C5.95941 13.6781 5.86431 13.3687 5.77899 13.0959C5.74263 12.9779 5.70767 12.8666 5.70207 12.7689C5.69648 12.659 5.70766 12.5545 5.71745 12.4554C5.73983 12.2492 5.75941 12.0538 5.63354 11.8475C5.51326 11.6508 5.28808 11.5653 5.02794 11.4676C4.87829 11.4106 4.70766 11.3468 4.53983 11.2532C4.44613 11.2003 4.35662 11.127 4.26151 11.0469C4.08389 10.899 3.88808 10.7348 3.64053 10.7348C3.58039 10.7348 3.51745 10.7443 3.45032 10.7674C3.28948 10.8203 3.16361 10.9669 3.09508 11.1799C2.972 11.5666 3.04053 12.2437 3.60696 12.9833C4.11326 13.6441 4.69088 14.0444 5.19158 14.0811L5.19298 14.0797ZM3.25172 11.2247C3.30347 11.0632 3.39438 10.9506 3.50347 10.9139C3.75522 10.8312 3.93983 10.9845 4.15522 11.165C4.25172 11.245 4.35102 11.3278 4.45871 11.3875C4.63773 11.4866 4.81396 11.5531 4.9692 11.6114C5.21116 11.7023 5.40277 11.7756 5.49508 11.9249C5.59438 12.0863 5.5762 12.2492 5.55662 12.4364C5.54543 12.5423 5.53424 12.6522 5.53983 12.7743C5.54683 12.891 5.58459 13.0172 5.62235 13.138C5.70067 13.3904 5.7748 13.6292 5.59018 13.807C5.50207 13.8924 5.36641 13.9318 5.20417 13.9196C4.75661 13.887 4.20836 13.5003 3.73843 12.8842C3.20836 12.1922 3.13983 11.5721 3.25172 11.222L3.25172 11.2247Z" fill="black" stroke="#007AFF" stroke-width="0.7" stroke-miterlimit="10"/>
</g>
<path id="Vector_30" d="M1.62655 8.51086C1.69228 8.64248 1.72025 8.88674 1.75102 9.14591C1.80557 9.62085 1.86851 10.1596 2.19018 10.3617C2.5748 10.6033 3.32025 10.5354 4.4699 10.1541C5.61116 9.77554 6.25172 9.35895 6.42655 8.88402C6.58878 8.44165 6.34683 7.98707 6.15382 7.6207C6.06431 7.45108 5.97899 7.29096 5.94822 7.15933C5.92585 7.06299 5.91606 6.93408 5.90627 6.79838C5.8713 6.32752 5.82375 5.68432 5.18039 5.3668C4.93564 5.24603 4.69787 5.19989 4.4685 5.19989C4.07969 5.19989 3.71326 5.33151 3.3762 5.45228C3.24613 5.49842 3.12025 5.54456 2.99857 5.57984C2.88669 5.6124 2.74683 5.63683 2.59997 5.66397C2.05032 5.76438 1.29787 5.90144 1.00417 6.5677C0.763609 7.11455 1.1762 7.77268 1.45032 8.20826C1.52445 8.32631 1.58878 8.42944 1.62795 8.5095L1.62655 8.51086ZM1.15102 6.63012C1.41116 6.03984 2.08529 5.91772 2.62794 5.81866C2.78039 5.79152 2.92445 5.76438 3.04333 5.73046C3.1692 5.69382 3.29648 5.64904 3.43074 5.60019C3.93564 5.41836 4.50906 5.21346 5.10487 5.50656C5.66571 5.78338 5.70767 6.35194 5.74123 6.80924C5.75102 6.95172 5.76221 7.08606 5.78738 7.19461C5.82375 7.34523 5.91326 7.5135 6.00697 7.69126C6.19578 8.04814 6.40976 8.45251 6.2713 8.82974C6.11606 9.25176 5.49228 9.64663 4.41536 10.0049C3.73004 10.2328 3.19018 10.3455 2.80137 10.3455C2.5748 10.3455 2.39858 10.3061 2.2755 10.2288C2.01816 10.0673 1.96081 9.56793 1.90906 9.12692C1.8755 8.84331 1.84753 8.5977 1.7706 8.4403C1.72725 8.35345 1.66151 8.24761 1.58459 8.12548C1.31326 7.69262 0.941232 7.10098 1.14962 6.62741L1.15102 6.63012Z" fill="black" stroke="#007AFF" stroke-width="0.7" stroke-miterlimit="10"/>
<path id="Vector_31" d="M0.244737 3.03415C0.267114 3.17528 0.272707 3.35032 0.278302 3.53487C0.299281 4.13057 0.324456 4.87283 0.903477 5.23242C1.43914 5.56759 2.10488 5.39797 2.63914 5.26227C2.85732 5.20664 3.06152 5.15507 3.23075 5.14286C3.34543 5.13472 3.4797 5.13065 3.62096 5.12658C4.24334 5.10758 5.01676 5.08315 5.34823 4.70185C5.90907 4.05458 5.8769 1.18327 4.95942 0.408445C4.67271 0.166907 4.26991 0.047495 3.72306 0.0474951C3.46152 0.0474951 3.16502 0.0746348 2.83355 0.128913C2.51467 0.180477 2.21956 0.192691 1.93425 0.203546C1.23355 0.232042 0.629352 0.25511 0.225156 0.909162C-0.0657529 1.37867 0.0727083 2.10193 0.183198 2.6827C0.206974 2.80754 0.229351 2.9256 0.246135 3.03415L0.244737 3.03415ZM0.362218 0.990579C0.723058 0.409803 1.26012 0.388091 1.93984 0.360951C2.21676 0.350096 2.53145 0.337884 2.85872 0.283606C3.82096 0.127556 4.47271 0.207615 4.85173 0.5265C5.70907 1.2484 5.73005 4.01387 5.22236 4.60008C4.93844 4.9271 4.17341 4.95153 3.61536 4.96917C3.46991 4.97324 3.33425 4.97731 3.21816 4.98681C3.03495 5.00038 2.82236 5.0533 2.59858 5.11029C2.06851 5.24463 1.46851 5.39661 0.99159 5.10079C0.485296 4.78598 0.461521 4.11836 0.44194 3.5308C0.434947 3.34082 0.429351 3.16171 0.405575 3.01244C0.388792 2.90253 0.365017 2.78312 0.341241 2.65556C0.234947 2.10057 0.103478 1.41124 0.362218 0.991937L0.362218 0.990579Z" fill="black" stroke="#007AFF" stroke-width="0.7" stroke-miterlimit="10"/>
<path id="Vector_32" d="M2.8741 3.98135C2.94542 4.31651 3.03773 4.5282 3.03773 4.5282C3.03773 4.5282 2.99577 4.3043 2.96361 3.96778C2.94123 3.80087 2.93284 3.60276 2.91605 3.39378C2.90486 3.18346 2.88808 2.95956 2.88668 2.73566C2.87409 2.28787 2.89088 1.84007 2.93423 1.50626C2.95521 1.33935 2.97899 1.20095 3.00416 1.1046C3.02794 1.00826 3.04053 0.952624 3.04053 0.952624C3.04053 0.952624 3.01675 1.00419 2.97339 1.0951C2.93563 1.18738 2.87969 1.32172 2.84333 1.48998C2.80137 1.65688 2.7664 1.855 2.74542 2.06804C2.72444 2.28108 2.71745 2.51041 2.72305 2.73838C2.73144 3.19567 2.79717 3.64753 2.8727 3.98135L2.8741 3.98135Z" fill="black" stroke="#007AFF" stroke-width="0.7" stroke-miterlimit="10"/>
<path id="Vector_33" d="M3.44477 7.13085C3.47833 7.32626 3.52868 7.53251 3.58882 7.7347C3.7091 8.14043 3.88113 8.52852 4.03078 8.80941C4.17903 9.09165 4.3147 9.2572 4.3147 9.2572C4.3147 9.2572 4.22379 9.06587 4.1133 8.77277C4.05316 8.62758 3.99721 8.45389 3.93008 8.2707C3.86854 8.08615 3.79861 7.88939 3.74267 7.68992C3.62099 7.29369 3.52449 6.89067 3.47973 6.58265C3.45735 6.42931 3.44337 6.3004 3.44057 6.20813C3.43638 6.11585 3.43498 6.06429 3.43498 6.06429C3.43498 6.06429 3.42519 6.11585 3.4098 6.20677C3.39861 6.29768 3.38043 6.43067 3.38882 6.58943C3.39162 6.74819 3.4084 6.93274 3.44197 7.1295L3.44477 7.13085Z" fill="black" stroke="#007AFF" stroke-width="0.7" stroke-miterlimit="10"/>
<path id="Vector_34" d="M2.77204 2.59725C2.98743 2.59047 3.20281 2.59047 3.40281 2.59997C3.60421 2.60811 3.79162 2.62439 3.95107 2.65018C4.10911 2.67731 4.24477 2.69767 4.33428 2.72617C4.42659 2.75059 4.47974 2.76416 4.47974 2.76416C4.47974 2.76416 4.43078 2.73974 4.34547 2.69767C4.25876 2.6556 4.13009 2.6054 3.97065 2.56333C3.8112 2.52262 3.621 2.4792 3.414 2.46156C3.20841 2.43713 2.98743 2.43578 2.76645 2.43985C2.32589 2.45342 1.89092 2.52262 1.57064 2.59725C1.25037 2.67053 1.04477 2.74788 1.04477 2.74788C1.04477 2.74788 1.26155 2.72209 1.58603 2.6841C1.90911 2.64746 2.34127 2.61218 2.77065 2.59725L2.77204 2.59725Z" fill="black" stroke="#007AFF" stroke-width="0.7" stroke-miterlimit="10"/>
<path id="Vector_35" d="M4.66711 7.44292C4.95243 7.39271 5.14264 7.35879 5.14264 7.35879C5.14264 7.35879 5.09369 7.35607 5.00977 7.352C4.92446 7.34929 4.80278 7.34522 4.65732 7.35471C4.51187 7.36557 4.34124 7.37778 4.16082 7.40899C3.9804 7.43885 3.79019 7.48498 3.60278 7.54062C3.22795 7.65189 2.87551 7.82693 2.63075 7.98163C2.3846 8.13632 2.24334 8.26794 2.24334 8.26794C2.24334 8.26794 2.92166 7.90292 3.65173 7.68988C4.01397 7.57725 4.38599 7.49448 4.66851 7.44156L4.66711 7.44292Z" fill="black" stroke="#007AFF" stroke-width="0.7" stroke-miterlimit="10"/>
</g>
<defs>
<clipPath id="clip0_3024_382">
<rect width="28" height="18" fill="white" transform="translate(28 18) rotate(180)"/>
</clipPath>
</defs>
</svg>
