<?xml version="1.0" encoding="UTF-8" standalone="no"?>
<!DOCTYPE svg PUBLIC "-//W3C//DTD SVG 1.1//EN" "http://www.w3.org/Graphics/SVG/1.1/DTD/svg11.dtd">
<svg width="100%" height="100%" viewBox="0 0 144 99" version="1.1" xmlns="http://www.w3.org/2000/svg" xmlns:xlink="http://www.w3.org/1999/xlink" xml:space="preserve" xmlns:serif="http://www.serif.com/" style="fill-rule:evenodd;clip-rule:evenodd;stroke-linejoin:round;stroke-miterlimit:2;">
    <g transform="matrix(1,0,0,1,-3.04,-25.89)">
        <rect x="3.04" y="123.56" width="143.92" height="0.55" style="fill:rgb(153,102,50);"/>
        <path d="M108.16,114.57C108.34,115.57 109.25,115.74 109.88,115.74C110.51,115.74 111.39,115.56 111.39,114.74C111.39,113.09 106.77,114.15 106.77,111.25C106.77,109.65 108.27,108.9 109.68,108.9C111.29,108.9 112.78,109.61 112.78,111.4L111.13,111.16C110.93,110.26 110.13,110.23 109.6,110.23C109.07,110.23 108.42,110.46 108.42,111.11C108.42,111.76 108.79,111.82 110.74,112.28C111.32,112.42 113.05,112.78 113.05,114.54C113.05,115.97 111.94,117.03 109.82,117.03C108.08,117.03 106.51,116.19 106.51,114.27L108.16,114.57Z" style="fill:rgb(153,102,50);fill-rule:nonzero;"/>
        <path d="M116,109.12L118.22,109.12L120.01,112.54L121.77,109.12L124,109.12L124,116.88L122.4,116.88L122.4,111.39L120.67,114.92L119.36,114.92L117.64,111.44L117.64,116.88L116,116.88L116,109.12Z" style="fill:rgb(153,102,50);fill-rule:nonzero;"/>
        <rect x="127.39" y="109.12" width="1.71" height="7.76" style="fill:rgb(153,102,50);fill-rule:nonzero;"/>
        <path d="M132.17,116.82L132.17,109.08L133.85,109.08L133.85,115.39L137.85,115.39L137.85,116.82L132.17,116.82Z" style="fill:rgb(153,102,50);fill-rule:nonzero;"/>
        <path d="M142,113.78L142,115.43L146.38,115.43L146.38,116.87L140.38,116.87L140.38,109.08L146,109.08L146,110.52L142,110.52L142,112.27L145.54,112.27L145.54,113.78L142,113.78Z" style="fill:rgb(153,102,50);fill-rule:nonzero;"/>
        <rect x="10.08" y="26.16" width="10.66" height="90.71" style="fill:rgb(43,47,46);"/>
        <rect x="3.52" y="25.89" width="68.85" height="0.55" style="fill:rgb(43,47,46);"/>
        <rect x="104.93" y="25.89" width="24.59" height="0.55" style="fill:rgb(43,47,46);"/>
        <path d="M42.31,71.56C40.56,71.99 26.31,72.09 23.84,72.09L20.28,72.09L20.28,72.52L23.84,72.52C26.08,72.52 40.61,72.52 42.58,73C47.58,74.22 50.13,78.64 50.45,86.88L50.88,86.88L50.88,57.73L50.45,57.73C50.24,64.22 47.47,70.34 42.31,71.56Z" style="fill:rgb(43,47,46);fill-rule:nonzero;"/>
        <path d="M50.51,26.16L80.29,72.88L80.29,116.87L90.4,116.87L90.4,70.15L63.08,26.16L50.51,26.16Z" style="fill:rgb(43,47,46);fill-rule:nonzero;"/>
        <path d="M129.52,26.16L104.93,26.16C104.93,26.16 118.78,25.89 112.33,36.34C105.88,46.79 89.79,70.66 89.79,70.66L89.89,71.58L114.58,34.9C114.58,34.9 121,26.16 129.52,26.16Z" style="fill:rgb(43,47,46);fill-rule:nonzero;"/>
        <rect x="3.04" y="116.6" width="24.73" height="0.55" style="fill:rgb(43,47,46);"/>
        <rect x="72.95" y="116.6" width="24.73" height="0.55" style="fill:rgb(43,47,46);"/>
    </g>
</svg>
