<?xml version="1.0" encoding="UTF-8"?>
<!-- Generator: Adobe Illustrator 26.0.1, SVG Export Plug-In . SVG Version: 6.00 Build 0)  -->
<svg xmlns="http://www.w3.org/2000/svg" xmlns:xlink="http://www.w3.org/1999/xlink" version="1.1" id="Layer_1" x="0px" y="0px" viewBox="0 0 1068 399" style="enable-background:new 0 0 1068 399;" xml:space="preserve">
<style type="text/css">
	.st0{fill:#448FFF;}
	.st1{fill:#FFFFFF;}
</style>
<path class="st0" d="M977.25,38.37c0,0,29.39,46.3,23.39,90.37c0,0-0.9,11.9-14.69,22c0,0-10.1,3.69,23.39,55.08  c0,0,16.09,21.59-5.99,26.6c0,0-16.5,1.4-11,5.5c0,0,8.7,15.1,0,19.29c0,0,3.2,5.5,0,7.31c0,0,0,5.5-11.9,11c0,0-9.6,0.9,0.9,13.79  c0,0,7.31,24.79-33.98,33.98c0,0-37.18,4.1-63.29-6.9c0,0-150.95-65.58-185.84,23.89c0,0-1.4-87.17,81.18-122.06  c0,0,99.57-44.49,46.38-121.16c0,0-94.07-143.15,70.18-11.9C896.07,85.15,998.84,163.63,977.25,38.37z"></path>
<g>
	<path class="st1" d="M41.33,179.14h2.3c2.87,0,4.35-0.66,5.34-3.53l35.62-96.37h16.91l35.62,96.37c0.99,2.87,2.54,3.53,5.34,3.53   h2.38v13.87h-9.03c-8.04,0-10.67-1.97-13.22-9.36l-8.54-23.39H72.19l-8.54,23.39c-2.71,7.39-5.34,9.36-13.38,9.36h-8.95V179.14z    M109.95,146.8l-12.39-34.64c-2.13-5.99-4.51-15.92-4.51-15.92h-0.33c0,0-2.22,10.01-4.35,15.92L75.97,146.8H109.95z"></path>
	<path class="st1" d="M163.14,96.65c0-2.38-1.31-3.53-3.53-3.53h-6.9V79.24h16.25c7.22,0,10.34,3.04,10.34,10.34v86.02   c0,2.22,1.31,3.53,3.53,3.53h31.44c2.22,0,3.53-1.31,3.53-3.53v-7.22h14.69v14.36c0,7.22-3.04,10.34-10.34,10.34h-48.68   c-7.22,0-10.34-3.04-10.34-10.34V96.65z"></path>
	<path class="st1" d="M245.63,96.65c0-2.38-1.31-3.53-3.53-3.53h-6.9V79.24h16.25c7.22,0,10.34,3.04,10.34,10.34v86.02   c0,2.22,1.31,3.53,3.53,3.53h31.44c2.22,0,3.53-1.31,3.53-3.53v-7.22h14.69v14.36c0,7.22-3.04,10.34-10.34,10.34h-48.68   c-7.22,0-10.34-3.04-10.34-10.34V96.65z"></path>
</g>
<g>
	<path class="st1" d="M407.58,77.36c32.83,0,58.53,25.28,58.53,58.03c0,33.49-25.61,59.59-58.53,59.59   c-32.83,0-58.36-26.1-58.36-59.59C349.22,102.64,374.75,77.36,407.58,77.36z M407.58,179.8c23.07,0,41.7-19.37,41.7-44.49   c0-24.3-18.72-43.01-41.7-43.01c-23.07,0-41.53,18.72-41.53,43.01C366.05,160.51,384.52,179.8,407.58,179.8z"></path>
	<path class="st1" d="M477.68,179.14h6.9c2.22,0,3.53-1.31,3.53-3.53V79.24h14.69l50.56,71.99c4.19,6.16,9.52,15.43,9.52,15.43h0.33   c0,0-1.15-9.03-1.15-15.43V89.5c0-7.22,3.04-10.34,10.51-10.34h16.09v13.87h-6.89c-2.22,0-3.53,1.15-3.53,3.53v96.37h-14.53   l-50.73-71.99c-4.19-6.16-9.36-15.43-9.36-15.43h-0.33c0,0,0.98,9.19,0.98,15.43v61.73c0,7.22-3.04,10.34-10.34,10.34h-16.25   L477.68,179.14z"></path>
</g>
<path class="st1" d="M931.44,38.37c0,0,29.39,46.38,23.39,90.37c0,0-0.9,11.9-14.69,22c0,0-10.1,3.69,23.39,55.08  c0,0,16.09,21.59-5.99,26.6c0,0-16.5,1.4-11,5.5c0,0,8.7,15.1,0,19.29c0,0,3.2,5.5,0,7.31c0,0,0,5.5-11.9,11c0,0-9.6,0.9,0.9,13.79  c0,0,7.31,24.79-33.98,33.98c0,0-37.18,4.1-63.29-6.9c0,0-150.95-65.58-185.84,23.89c0,0-1.4-87.17,81.18-122.06  c0,0,99.57-44.49,46.38-121.16c0,0-94.07-143.15,70.18-11.9C850.18,85.15,953.03,163.63,931.44,38.37z"></path>
<g>
	<path class="st1" d="M629.05,152.54l51.22-73.3h18.39v69.77h17.73v13.87h-17.73v30.12h-16.09v-30.12h-53.52V152.54z M682.65,109.86   c0-5.17,0.66-11.57,0.66-11.57h-0.33c0,0-2.87,5.5-5.83,9.52l-24.79,34.15c-2.87,4.02-5.99,7.22-5.99,7.22v0.33   c0,0,4.68-0.49,9.69-0.49h26.6V109.86z"></path>
</g>
<g>
	<path class="st0" d="M240.05,262.95c0.33-1.89,0.49-3.04,0.49-4.19c0-1.72-0.66-2.54-2.87-2.54h-6.9l2.71-13.95h15.19   c6.73,0,8.95,2.71,8.95,6.24c0,2.22-0.82,5.75-1.72,8.04h0.33c5.75-8.78,15.84-16.33,30.12-16.33c19.86,0,31.68,13.46,31.68,35.71   c0,31.11-22.9,53.52-46.62,53.52c-10.92,0-20.85-5.09-25.28-14.78h-0.33c0,0-0.33,3.53-1.15,7.88l-7.39,38.58h-16.33L240.05,262.95   z M269.52,315.23c15.02,0,31.85-14.61,31.85-38.25c0-14.61-7.22-22.57-19.21-22.57c-17.48,0-31.27,19.21-31.27,38.58   C250.8,305.3,256.88,315.23,269.52,315.23z"></path>
	<path class="st0" d="M331.08,315.81l16.83-87.01c0.33-1.72,0.49-2.54,0.49-3.69c0-1.89-0.99-2.54-3.04-2.54h-6.9l2.87-13.95h15.51   c6.57,0,9.6,2.22,9.6,7.55c0,1.31-0.33,3.04-0.66,4.84l-16.99,87.17c-0.16,0.82-0.49,2.22-0.49,2.71c0,1.72,0.99,2.54,3.2,2.54h6.9   l-2.71,13.95h-15.68c-6.4,0-9.44-2.71-9.44-7.72C330.59,318.44,330.75,317.12,331.08,315.81z"></path>
	<path class="st0" d="M380.58,295.7l6.73-34.31c0.16-0.82,0.49-2.22,0.49-2.87c0-1.48-0.98-2.38-3.2-2.38h-6.9l2.71-13.95h15.84   c6.4,0,9.44,2.71,9.44,7.72c0,1.15-0.16,2.38-0.49,3.86l-7.55,39.24c-0.66,2.87-0.98,5.75-0.98,8.45c0,7.22,2.87,12.81,12.81,12.81   c16.99,0,31.11-18.72,34.31-34.89l7.22-37.18h16.33l-12.64,65.17c-0.33,0.99-0.49,2.54-0.49,3.37c0,1.72,0.98,2.71,3.2,2.71h6.73   l-2.71,13.95h-15.51c-6.24,0-9.11-2.87-9.11-7.55c0-3.04,1.15-7.22,2.05-10.75h-0.33c-4.68,7.55-16.83,20.36-35.05,20.36   c-15.68,0-23.89-8.45-23.89-23.07C379.59,303.17,379.92,299.64,380.58,295.7z"></path>
	<path class="st0" d="M481.62,304.15c0,0,8.78,11.98,25.45,11.98c9.6,0,16.83-4.51,16.83-11.98c0-7.22-7.39-10.1-14.78-13.13   c-11.25-4.35-24.21-10.1-24.21-25.28c0-16.99,16.01-25.61,33.16-25.61c13.46,0,31.11,5.42,28.48,18.55l-1.31,6.07h-14.28l0.49-3.2   c0.82-4.68-4.19-8.21-13.63-8.21c-9.93,0-16.33,4.51-16.33,11.25c0,7.88,8.62,10.92,16.66,14.12c10.75,4.35,22.74,9.6,22.74,23.89   c0,15.68-13.95,26.76-33.98,26.76c-23.23,0-33.49-14.45-33.49-14.45L481.62,304.15z"></path>
</g>
<g>
	<path class="st1" d="M558.97,234.08c0-11.59,8.26-20.25,19.95-20.25c11.59,0,19.85,8.67,19.85,20.25   c0,11.59-8.26,20.15-19.85,20.15C567.23,254.23,558.97,245.66,558.97,234.08z M562.6,234.08c0,9.77,6.45,16.83,16.32,16.83   c9.77,0,16.22-7.05,16.22-16.83s-6.45-16.83-16.22-16.83C569.05,217.25,562.6,224.3,562.6,234.08z M582.35,235.99l6.05,8.67   l-5.14,0.1l-5.54-8.57h-2.32v8.57h-4.33v-21.67h9.37c4.43,0,7.26,2.52,7.26,6.55C587.69,233.07,585.68,235.39,582.35,235.99z    M575.4,227.02v5.54h4.74c1.81,0,3.22-0.81,3.22-2.82c0-1.91-1.41-2.72-3.22-2.72H575.4z"></path>
</g>
<g>
	<g>
		<path class="st1" d="M1458.04,635.46c-0.63,2.4-1.19,3.59-2.33,4.95c-1.5,1.78-3.62,2.72-6.24,2.72c-2.65,0-4.81-0.98-6.38-2.82    c-1.99-2.37-3.07-5.72-3.07-9.48c0-7.18,3.8-11.85,9.65-11.85c4.36,0,7.14,2.47,8.36,7.46l-2.72,0.52    c-1.15-3.87-2.82-5.51-5.68-5.51c-4.04,0-6.45,3.62-6.45,9.69c0,5.78,2.47,9.51,6.34,9.51c1.67,0,3.35-0.84,4.29-2.13    c0.7-0.98,1.05-1.78,1.57-3.66L1458.04,635.46z"></path>
		<path class="st1" d="M1485.78,642.67h-13.7v-23.24h2.96v20.7h10.73V642.67z"></path>
		<path class="st1" d="M1499.61,642.67v-23.24h2.89v23.24H1499.61z"></path>
		<path class="st1" d="M1533.06,642.67l-12.02-20.25l0.03,1.53c0.04,0.77,0.04,1.29,0.04,1.46v17.25h-2.33v-23.24h3.62l11.26,18.96    l-0.03-1.6c-0.03-0.87-0.03-1.46-0.03-1.71v-15.65h2.3v23.24H1533.06z"></path>
		<path class="st1" d="M1552.13,642.67v-23.24h2.89v23.24H1552.13z"></path>
		<path class="st1" d="M1587.88,635.46c-0.63,2.4-1.19,3.59-2.33,4.95c-1.5,1.78-3.62,2.72-6.24,2.72c-2.65,0-4.81-0.98-6.38-2.82    c-1.99-2.37-3.07-5.72-3.07-9.48c0-7.18,3.8-11.85,9.65-11.85c4.36,0,7.14,2.47,8.36,7.46l-2.72,0.52    c-1.15-3.87-2.82-5.51-5.68-5.51c-4.04,0-6.45,3.62-6.45,9.69c0,5.78,2.47,9.51,6.34,9.51c1.67,0,3.35-0.84,4.29-2.13    c0.7-0.98,1.05-1.78,1.57-3.66L1587.88,635.46z"></path>
	</g>
	<g>
		<path class="st1" d="M1422.81,608.03h-13.7v-23.24h2.96v20.7h10.73V608.03z"></path>
		<path class="st1" d="M1436.64,608.03v-23.24h2.89v23.24H1436.64z"></path>
		<path class="st1" d="M1472.4,600.81c-0.63,2.4-1.19,3.59-2.33,4.95c-1.5,1.78-3.62,2.72-6.24,2.72c-2.65,0-4.81-0.98-6.38-2.82    c-1.99-2.37-3.07-5.72-3.07-9.48c0-7.18,3.8-11.85,9.65-11.85c4.36,0,7.14,2.47,8.36,7.46l-2.72,0.52    c-1.15-3.87-2.82-5.51-5.68-5.51c-4.04,0-6.45,3.62-6.45,9.69c0,5.78,2.47,9.51,6.34,9.51c1.67,0,3.35-0.84,4.29-2.13    c0.7-0.98,1.05-1.78,1.57-3.66L1472.4,600.81z"></path>
		<path class="st1" d="M1501.46,608.03h-15.02v-23.24h14.71v2.54h-11.81v7.42h9.37v2.37h-9.37v8.36h12.13V608.03z"></path>
		<path class="st1" d="M1530.28,608.03l-12.02-20.25l0.03,1.53c0.04,0.77,0.04,1.29,0.04,1.46v17.25h-2.33v-23.24h3.62l11.26,18.96    l-0.03-1.6c-0.03-0.87-0.03-1.46-0.03-1.71v-15.65h2.3v23.24H1530.28z"></path>
		<path class="st1" d="M1549.41,601.27c1.08,3.21,3.31,4.74,6.87,4.74c3.48,0,5.58-1.6,5.58-4.25c0-1.78-1.29-3.1-3.55-3.66    l-4.64-1.18c-1.92-0.45-2.93-0.94-3.83-1.74c-1.22-1.15-1.88-2.68-1.88-4.5c0-3.8,3.14-6.34,7.84-6.34c4.15,0,7,1.95,8.29,5.72    l-2.61,0.73c-0.31-1.22-0.7-1.85-1.46-2.51c-1.15-1.01-2.72-1.57-4.32-1.57c-2.82,0-4.91,1.6-4.91,3.8c0,1.85,1.08,2.86,3.8,3.52    l4.32,1.05c3.97,0.94,5.99,3.1,5.99,6.41c0,4.25-3.38,7-8.61,7c-2.93,0-5.05-0.73-6.8-2.3c-1.22-1.15-1.85-2.16-2.68-4.36    L1549.41,601.27z"></path>
		<path class="st1" d="M1594.65,608.03h-15.02v-23.24h14.71v2.54h-11.81v7.42h9.37v2.37h-9.37v8.36h12.13V608.03z"></path>
		<path class="st1" d="M1609.18,584.78h7.77c2.93,0,5.05,0.8,6.9,2.54c2.27,2.16,3.52,5.33,3.52,8.99c0,6.73-4.01,11.71-9.44,11.71    h-8.75V584.78z M1616.81,605.55c2.09,0,3.94-0.7,5.09-1.92c1.57-1.64,2.51-4.43,2.51-7.32c0-2.82-0.87-5.33-2.44-7.07    c-1.25-1.36-2.89-2.02-5.19-2.02h-4.7v18.33H1616.81z"></path>
	</g>
</g>
<g>
</g>
<g>
</g>
<g>
</g>
<g>
</g>
<g>
</g>
<g>
</g>
<g>
</g>
<g>
</g>
<g>
</g>
<g>
</g>
<g>
</g>
<g>
</g>
<g>
</g>
<g>
</g>
<g>
</g>
</svg>
