<?xml version="1.0" encoding="utf-8"?>
<!-- Generator: Adobe Illustrator 26.5.0, SVG Export Plug-In . SVG Version: 6.00 Build 0)  -->
<svg version="1.1" id="Layer_1" xmlns="http://www.w3.org/2000/svg" xmlns:xlink="http://www.w3.org/1999/xlink" x="0px" y="0px"
	 viewBox="0 0 1133.9 198.4" style="enable-background:new 0 0 1133.9 198.4;" xml:space="preserve">
<style type="text/css">
	.st0{fill:#242861;}
	.st1{fill:#5C86C5;}
</style>
<g>
	<path class="st0" d="M510.5,115V91h9.5c1.8,0,3.4,0.3,4.7,1c1.3,0.7,2.3,1.6,2.9,2.9c0.7,1.2,1,2.6,1,4.2s-0.3,3-1,4.2
		c-0.7,1.2-1.7,2.2-3,2.8c-1.3,0.7-2.9,1-4.7,1h-6v-4.1h5.2c1,0,1.8-0.2,2.4-0.5c0.6-0.3,1.1-0.8,1.4-1.4c0.3-0.6,0.5-1.3,0.5-2.1
		c0-0.8-0.2-1.5-0.5-2.1c-0.3-0.6-0.8-1.1-1.4-1.4c-0.6-0.3-1.5-0.5-2.4-0.5h-3.4V115H510.5z"/>
	<path class="st0" d="M536.5,115h-5.4l8.3-24h6.5l8.3,24h-5.4l-6-18.5h-0.2L536.5,115z M536.2,105.6h12.9v4h-12.9V105.6z"/>
	<path class="st0" d="M556.5,95.2V91h19.7v4.2h-7.4V115h-5V95.2H556.5z"/>
	<path class="st0" d="M587.9,91v24h-5.1V91H587.9z"/>
	<path class="st0" d="M595.4,115V91h16.2v4.2h-11.1v5.7h10.3v4.2h-10.3v5.7h11.2v4.2H595.4z"/>
	<path class="st0" d="M639,91v24h-4.4l-10.5-15.1H624V115h-5.1V91h4.5l10.4,15.1h0.2V91H639z"/>
	<path class="st0" d="M645.6,95.2V91h19.7v4.2H658V115h-5V95.2H645.6z"/>
	<path class="st0" d="M682.9,91h6.3l6.6,16.1h0.3l6.6-16.1h6.3v24H704V99.4h-0.2l-6.2,15.5h-3.4L688,99.3h-0.2V115h-4.9V91z"/>
	<path class="st0" d="M720.5,115h-5.4l8.3-24h6.5l8.3,24h-5.4l-6-18.5h-0.2L720.5,115z M720.2,105.6H733v4h-12.9V105.6z"/>
	<path class="st0" d="M764.5,91v24h-4.4l-10.5-15.1h-0.2V115h-5.1V91h4.5l10.4,15.1h0.2V91H764.5z"/>
	<path class="st0" d="M776.1,115h-5.4l8.3-24h6.5l8.3,24h-5.4l-6-18.5h-0.2L776.1,115z M775.8,105.6h12.9v4h-12.9V105.6z"/>
	<path class="st0" d="M814.8,98.8c-0.2-0.6-0.4-1.1-0.7-1.5c-0.3-0.4-0.7-0.8-1.1-1.1c-0.4-0.3-0.9-0.5-1.5-0.7
		c-0.5-0.2-1.1-0.2-1.8-0.2c-1.2,0-2.3,0.3-3.2,0.9c-0.9,0.6-1.6,1.5-2.2,2.7c-0.5,1.2-0.8,2.6-0.8,4.3c0,1.7,0.3,3.1,0.8,4.3
		c0.5,1.2,1.2,2.1,2.2,2.7c0.9,0.6,2,0.9,3.3,0.9c1.1,0,2.1-0.2,3-0.6c0.8-0.4,1.4-1,1.9-1.7c0.4-0.8,0.7-1.6,0.7-2.7l1,0.2h-6.2
		v-3.8h10.1v3c0,2.1-0.4,3.9-1.3,5.4c-0.9,1.5-2.1,2.7-3.7,3.5c-1.6,0.8-3.4,1.2-5.4,1.2c-2.3,0-4.2-0.5-5.9-1.5s-3-2.4-4-4.3
		c-1-1.8-1.4-4-1.4-6.6c0-1.9,0.3-3.7,0.8-5.2c0.6-1.5,1.4-2.8,2.4-3.9s2.2-1.9,3.6-2.4c1.4-0.6,2.8-0.8,4.4-0.8
		c1.4,0,2.6,0.2,3.8,0.6c1.2,0.4,2.2,1,3.1,1.7s1.7,1.6,2.2,2.6c0.6,1,1,2.1,1.1,3.3H814.8z"/>
	<path class="st0" d="M827.3,115V91h16.2v4.2h-11.1v5.7h10.3v4.2h-10.3v5.7h11.2v4.2H827.3z"/>
	<path class="st0" d="M850.8,91h6.3l6.6,16.1h0.3l6.6-16.1h6.3v24h-4.9V99.4h-0.2l-6.2,15.5h-3.4l-6.2-15.6h-0.2V115h-4.9V91z"/>
	<path class="st0" d="M884.3,115V91h16.2v4.2h-11.1v5.7h10.3v4.2h-10.3v5.7h11.2v4.2H884.3z"/>
	<path class="st0" d="M928,91v24h-4.4l-10.5-15.1H913V115h-5.1V91h4.5l10.4,15.1h0.2V91H928z"/>
	<path class="st0" d="M934.5,95.2V91h19.7v4.2h-7.4V115h-5V95.2H934.5z"/>
	<path class="st0" d="M971.8,115V91h9.5c1.8,0,3.4,0.3,4.7,1c1.3,0.7,2.3,1.6,2.9,2.9c0.7,1.2,1,2.6,1,4.2s-0.3,3-1,4.2
		c-0.7,1.2-1.7,2.2-3,2.8c-1.3,0.7-2.9,1-4.7,1h-6v-4.1h5.2c1,0,1.8-0.2,2.4-0.5c0.6-0.3,1.1-0.8,1.4-1.4c0.3-0.6,0.5-1.3,0.5-2.1
		c0-0.8-0.2-1.5-0.5-2.1s-0.8-1.1-1.4-1.4c-0.6-0.3-1.5-0.5-2.4-0.5h-3.4V115H971.8z"/>
	<path class="st0" d="M1018.6,103c0,2.6-0.5,4.8-1.5,6.7s-2.3,3.2-4,4.2c-1.7,1-3.6,1.4-5.7,1.4c-2.1,0-4.1-0.5-5.7-1.5
		s-3-2.4-4-4.2s-1.5-4.1-1.5-6.7c0-2.6,0.5-4.8,1.5-6.7c1-1.8,2.3-3.2,4-4.2s3.6-1.4,5.7-1.4c2.1,0,4,0.5,5.7,1.4c1.7,1,3,2.4,4,4.2
		C1018.1,98.2,1018.6,100.4,1018.6,103z M1013.4,103c0-1.7-0.3-3.1-0.8-4.3c-0.5-1.2-1.2-2-2.1-2.7s-2-0.9-3.2-0.9
		c-1.2,0-2.3,0.3-3.2,0.9c-0.9,0.6-1.6,1.5-2.1,2.7c-0.5,1.2-0.8,2.6-0.8,4.3c0,1.7,0.3,3.1,0.8,4.3c0.5,1.2,1.2,2,2.1,2.7
		c0.9,0.6,2,0.9,3.2,0.9c1.2,0,2.3-0.3,3.2-0.9c0.9-0.6,1.6-1.5,2.1-2.7C1013.2,106.2,1013.4,104.7,1013.4,103z"/>
	<path class="st0" d="M1025.6,115V91h9.5c1.8,0,3.4,0.3,4.7,1s2.3,1.6,2.9,2.7c0.7,1.2,1,2.6,1,4.1c0,1.6-0.3,3-1,4.1
		c-0.7,1.1-1.7,2-3,2.6c-1.3,0.6-2.9,0.9-4.7,0.9h-6.3v-4.1h5.5c1,0,1.8-0.1,2.4-0.4c0.6-0.3,1.1-0.7,1.4-1.2s0.5-1.2,0.5-2
		c0-0.8-0.2-1.5-0.5-2c-0.3-0.5-0.8-1-1.4-1.2c-0.6-0.3-1.5-0.4-2.4-0.4h-3.4V115H1025.6z M1038.6,104.1l6,10.9h-5.6l-5.8-10.9
		H1038.6z"/>
	<path class="st0" d="M1049.7,95.2V91h19.7v4.2h-7.4V115h-5V95.2H1049.7z"/>
	<path class="st0" d="M1077.2,115h-5.4l8.3-24h6.5l8.3,24h-5.4l-6-18.5h-0.2L1077.2,115z M1076.8,105.6h12.9v4h-12.9V105.6z"/>
	<path class="st0" d="M1101,115V91h5.1v19.8h10.3v4.2H1101z"/>
</g>
<g>
	<g>
		<path class="st1" d="M452.3,22.5c0,0,14.3,22.5,11.4,44c0,0-0.4,5.8-7.2,10.7c0,0-4.9,1.8,11.4,26.8c0,0,7.8,10.5-2.9,13
			c0,0-8,0.7-5.4,2.7c0,0,4.2,7.4,0,9.4c0,0,1.6,2.7,0,3.6c0,0,0,2.7-5.8,5.4c0,0-4.7,0.4,0.4,6.7c0,0,3.6,12.1-16.5,16.5
			c0,0-18.1,2-30.8-3.4c0,0-73.5-31.9-90.5,11.6c0,0-0.7-42.4,39.5-59.4c0,0,48.5-21.7,22.6-59c0,0-45.8-69.7,34.2-5.8
			C412.8,45.3,462.8,83.5,452.3,22.5z"/>
		<g>
			<g>
				<path class="st0" d="M12.5,91h1.1c1.4,0,2.1-0.3,2.6-1.7l17.3-46.9h8.2l17.3,46.9c0.5,1.4,1.2,1.7,2.6,1.7H63v6.8h-4.4
					c-3.9,0-5.2-1-6.4-4.6L48,81.9H27.6l-4.2,11.4c-1.3,3.6-2.6,4.6-6.5,4.6h-4.4V91z M46,75.3l-6-16.9c-1-2.9-2.2-7.8-2.2-7.8h-0.2
					c0,0-1.1,4.9-2.1,7.8l-6,16.9H46z"/>
				<path class="st0" d="M71.9,50.9c0-1.2-0.6-1.7-1.7-1.7h-3.4v-6.8h7.9c3.5,0,5,1.5,5,5v41.9c0,1.1,0.6,1.7,1.7,1.7h15.3
					c1.1,0,1.7-0.6,1.7-1.7v-3.5h7.2v7c0,3.5-1.5,5-5,5H76.9c-3.5,0-5-1.5-5-5V50.9z"/>
				<path class="st0" d="M112,50.9c0-1.2-0.6-1.7-1.7-1.7H107v-6.8h7.9c3.5,0,5,1.5,5,5v41.9c0,1.1,0.6,1.7,1.7,1.7h15.3
					c1.1,0,1.7-0.6,1.7-1.7v-3.5h7.2v7c0,3.5-1.5,5-5,5h-23.7c-3.5,0-5-1.5-5-5V50.9z"/>
			</g>
			<g>
				<path class="st0" d="M190.9,41.5c16,0,28.5,12.3,28.5,28.3c0,16.3-12.5,29-28.5,29c-16,0-28.4-12.7-28.4-29
					C162.5,53.8,174.9,41.5,190.9,41.5z M190.9,91.4c11.2,0,20.3-9.4,20.3-21.7c0-11.8-9.1-20.9-20.3-20.9
					c-11.2,0-20.2,9.1-20.2,20.9C170.7,82,179.7,91.4,190.9,91.4z"/>
				<path class="st0" d="M225,91h3.4c1.1,0,1.7-0.6,1.7-1.7V42.4h7.2l24.6,35.1c2,3,4.6,7.5,4.6,7.5h0.2c0,0-0.6-4.4-0.6-7.5V47.4
					c0-3.5,1.5-5,5.1-5h7.8v6.8h-3.4c-1.1,0-1.7,0.6-1.7,1.7v46.9h-7.1l-24.7-35.1c-2-3-4.6-7.5-4.6-7.5h-0.2c0,0,0.5,4.5,0.5,7.5
					v30.1c0,3.5-1.5,5-5,5H225L225,91z"/>
			</g>
			<path class="st0" d="M430,22.5c0,0,14.3,22.6,11.4,44c0,0-0.4,5.8-7.2,10.7c0,0-4.9,1.8,11.4,26.8c0,0,7.8,10.5-2.9,13
				c0,0-8,0.7-5.4,2.7c0,0,4.2,7.4,0,9.4c0,0,1.6,2.7,0,3.6c0,0,0,2.7-5.8,5.4c0,0-4.7,0.4,0.4,6.7c0,0,3.6,12.1-16.5,16.5
				c0,0-18.1,2-30.8-3.4c0,0-73.5-31.9-90.5,11.6c0,0-0.7-42.4,39.5-59.4c0,0,48.5-21.7,22.6-59c0,0-45.8-69.7,34.2-5.8
				C390.4,45.3,440.5,83.5,430,22.5z"/>
			<g>
				<path class="st0" d="M298.7,78.1l24.9-35.7h9v34h8.6v6.8h-8.6v14.7h-7.8V83.1h-26.1V78.1z M324.8,57.3c0-2.5,0.3-5.6,0.3-5.6
					H325c0,0-1.4,2.7-2.8,4.6l-12.1,16.6c-1.4,2-2.9,3.5-2.9,3.5v0.2c0,0,2.3-0.2,4.7-0.2h13V57.3z"/>
			</g>
		</g>
	</g>
	<g>
		<path class="st1" d="M109.3,131.9c0.2-0.9,0.2-1.5,0.2-2c0-0.8-0.3-1.2-1.4-1.2h-3.4l1.3-6.8h7.4c3.3,0,4.4,1.3,4.4,3
			c0,1.1-0.4,2.8-0.8,3.9h0.2c2.8-4.3,7.7-8,14.7-8c9.7,0,15.4,6.6,15.4,17.4c0,15.1-11.2,26.1-22.7,26.1c-5.3,0-10.2-2.5-12.3-7.2
			h-0.2c0,0-0.2,1.7-0.6,3.8l-3.6,18.8h-8L109.3,131.9z M123.7,157.3c7.3,0,15.5-7.1,15.5-18.6c0-7.1-3.5-11-9.4-11
			c-8.5,0-15.2,9.4-15.2,18.8C114.6,152.5,117.5,157.3,123.7,157.3z"/>
		<path class="st1" d="M153.6,157.6l8.2-42.4c0.2-0.8,0.2-1.2,0.2-1.8c0-0.9-0.5-1.2-1.5-1.2h-3.4l1.4-6.8h7.6
			c3.2,0,4.7,1.1,4.7,3.7c0,0.6-0.2,1.5-0.3,2.4l-8.3,42.4c-0.1,0.4-0.2,1.1-0.2,1.3c0,0.8,0.5,1.2,1.6,1.2h3.4l-1.3,6.8H158
			c-3.1,0-4.6-1.3-4.6-3.8C153.4,158.9,153.5,158.2,153.6,157.6z"/>
		<path class="st1" d="M177.7,147.8l3.3-16.7c0.1-0.4,0.2-1.1,0.2-1.4c0-0.7-0.5-1.2-1.6-1.2h-3.4l1.3-6.8h7.7
			c3.1,0,4.6,1.3,4.6,3.8c0,0.6-0.1,1.2-0.2,1.9l-3.7,19.1c-0.3,1.4-0.5,2.8-0.5,4.1c0,3.5,1.4,6.2,6.2,6.2c8.3,0,15.1-9.1,16.7-17
			l3.5-18.1h8l-6.2,31.7c-0.2,0.5-0.2,1.2-0.2,1.6c0,0.8,0.5,1.3,1.6,1.3h3.3l-1.3,6.8h-7.6c-3,0-4.4-1.4-4.4-3.7
			c0-1.5,0.6-3.5,1-5.2H206c-2.3,3.7-8.2,9.9-17.1,9.9c-7.6,0-11.6-4.1-11.6-11.2C177.3,151.4,177.4,149.7,177.7,147.8z"/>
		<path class="st1" d="M227,151.9c0,0,4.3,5.8,12.4,5.8c4.7,0,8.2-2.2,8.2-5.8c0-3.5-3.6-4.9-7.2-6.4c-5.5-2.1-11.8-4.9-11.8-12.3
			c0-8.3,7.8-12.5,16.1-12.5c6.6,0,15.1,2.6,13.9,9l-0.6,3h-7l0.2-1.6c0.4-2.3-2-4-6.6-4c-4.8,0-8,2.2-8,5.5c0,3.8,4.2,5.3,8.1,6.9
			c5.2,2.1,11.1,4.7,11.1,11.6c0,7.6-6.8,13-16.5,13c-11.3,0-16.3-7-16.3-7L227,151.9z"/>
	</g>
	<g>
		<path class="st1" d="M283.2,123c0,4.9-3.8,8.7-8.8,8.7c-4.9,0-8.8-3.8-8.8-8.7c0-4.8,3.9-8.6,8.8-8.6
			C279.4,114.4,283.2,118.2,283.2,123z M267.8,123c0,3.8,2.8,6.9,6.7,6.9c3.8,0,6.5-3,6.5-6.8c0-3.8-2.8-6.9-6.6-6.9
			C270.6,116.1,267.8,119.2,267.8,123z M273.1,127.5h-2v-8.6c0.8-0.2,1.9-0.3,3.3-0.3c1.6,0,2.4,0.3,3,0.6c0.5,0.4,0.8,1,0.8,1.9
			c0,0.9-0.7,1.7-1.8,2v0.1c0.8,0.3,1.3,0.9,1.6,2.1c0.3,1.3,0.4,1.8,0.6,2.1h-2.1c-0.3-0.3-0.4-1.1-0.7-2.1
			c-0.2-0.9-0.7-1.4-1.8-1.4h-0.9V127.5z M273.1,122.6h0.9c1.1,0,2-0.4,2-1.3c0-0.8-0.6-1.3-1.8-1.3c-0.5,0-0.9,0.1-1.1,0.1V122.6z"
			/>
	</g>
</g>
</svg>
