<?xml version="1.0" encoding="utf-8"?>
<!-- Generator: Adobe Illustrator 28.0.0, SVG Export Plug-In . SVG Version: 6.00 Build 0)  -->
<svg version="1.1" id="Layer_1" xmlns="http://www.w3.org/2000/svg" xmlns:xlink="http://www.w3.org/1999/xlink" x="0px" y="0px"
	 viewBox="0 0 359 238" style="enable-background:new 0 0 359 238;" xml:space="preserve">
<style type="text/css">
	.st0{fill:#283895;}
	.st1{fill:#00AEEF;}
</style>
<g>
	<g>
		<path class="st1" d="M134.7,146.4l77.2-77.2c12.6-12.6,29.4-19.6,47.3-19.6c17.9,0,34.7,7,47.3,19.6c26.1,26.1,26.1,68.5,0,94.6
			c-26.1,26.1-68.5,26.1-94.6,0c-4.6-4.6-7.7,1.5-12.4,6.1c-4.6,4.6-9,6-4.3,10.6c17.6,17.6,40.8,26.5,64,26.5s46.4-8.8,64-26.5
			c35.3-35.3,35.3-92.7,0-128s-92.7-35.3-128,0L118,129.7"/>
		<path class="st1" d="M165.8,52.5C148.7,35.4,126,26,101.8,26s-46.9,9.4-64,26.5c-17.1,17.1-26.5,39.8-26.5,64s9.4,46.9,26.5,64
			c17.6,17.6,40.8,26.5,64,26.5s46.4-8.8,64-26.5l77.2-77.2c4.6-4.6,0.9-8.8-3.7-13.4c-4.6-4.6-8.4-7.9-13-3.3l-77.2,77.2
			c-26.1,26.1-68.5,26.1-94.6,0c-12.6-12.6-19.6-29.4-19.6-47.3s7-34.7,19.6-47.3s29.4-19.6,47.3-19.6s34.7,7,47.3,19.6"/>
	</g>
</g>
</svg>
