<?xml version="1.0" encoding="utf-8"?>
<!-- Generator: Adobe Illustrator 26.5.0, SVG Export Plug-In . SVG Version: 6.00 Build 0)  -->
<svg version="1.1" id="Layer_1" xmlns="http://www.w3.org/2000/svg" xmlns:xlink="http://www.w3.org/1999/xlink" x="0px" y="0px"
	 viewBox="0 0 500 250" style="enable-background:new 0 0 500 250;" xml:space="preserve">
<style type="text/css">
	.st0{fill:none;stroke:#C49A6C;stroke-miterlimit:10;}
	.st1{fill:#C49A6C;}
	.st2{fill:none;}
</style>
<g>
	<g>
		<path class="st0" d="M458.1,13.7c0,0,13.9,21.9,11.1,42.8c0,0-0.4,5.6-7,10.4c0,0-4.8,1.8,11.1,26.1c0,0,7.6,10.2-2.8,12.6
			c0,0-7.8,0.7-5.2,2.6c0,0,4.1,7.2,0,9.1c0,0,1.5,2.6,0,3.5c0,0,0,2.6-5.6,5.2c0,0-4.6,0.4,0.4,6.5c0,0,3.5,11.7-16.1,16.1
			c0,0-17.6,1.9-30-3.3c0,0-71.5-31.1-88.1,11.3c0,0-0.7-41.3,38.5-57.9c0,0,47.2-21.1,22-57.4c0,0-44.6-67.8,33.3-5.6
			C419.7,35.8,468.4,73,458.1,13.7z"/>
		<g>
			<path class="st1" d="M14.5,80.4h1.1c1.4,0,2.1-0.3,2.5-1.7L35,33h8l16.9,45.7c0.5,1.4,1.2,1.7,2.5,1.7h1.1V87h-4.3
				c-3.8,0-5.1-0.9-6.3-4.4l-4-11.1H29.2l-4,11.1C23.8,86,22.6,87,18.8,87h-4.2V80.4z M47.1,65.1l-5.9-16.4c-1-2.8-2.1-7.5-2.1-7.5
				h-0.2c0,0-1.1,4.7-2.1,7.5L31,65.1H47.1z"/>
			<path class="st1" d="M72.3,41.3c0-1.1-0.6-1.7-1.7-1.7h-3.3V33H75c3.4,0,4.9,1.4,4.9,4.9v40.8c0,1.1,0.6,1.7,1.7,1.7h14.9
				c1.1,0,1.7-0.6,1.7-1.7v-3.4h7v6.8c0,3.4-1.4,4.9-4.9,4.9H77.2c-3.4,0-4.9-1.4-4.9-4.9V41.3z"/>
			<path class="st1" d="M111.4,41.3c0-1.1-0.6-1.7-1.7-1.7h-3.3V33h7.7c3.4,0,4.9,1.4,4.9,4.9v40.8c0,1.1,0.6,1.7,1.7,1.7h14.9
				c1.1,0,1.7-0.6,1.7-1.7v-3.4h7v6.8c0,3.4-1.4,4.9-4.9,4.9h-23.1c-3.4,0-4.9-1.4-4.9-4.9V41.3z"/>
		</g>
		<g>
			<path class="st1" d="M188.1,32.1c15.6,0,27.7,12,27.7,27.5c0,15.9-12.1,28.2-27.7,28.2c-15.6,0-27.7-12.4-27.7-28.2
				C160.5,44.1,172.6,32.1,188.1,32.1z M188.1,80.7c10.9,0,19.8-9.2,19.8-21.1c0-11.5-8.9-20.4-19.8-20.4
				c-10.9,0-19.7,8.9-19.7,20.4C168.4,71.5,177.2,80.7,188.1,80.7z"/>
			<path class="st1" d="M221.4,80.4h3.3c1.1,0,1.7-0.6,1.7-1.7V33h7l24,34.1c2,2.9,4.5,7.3,4.5,7.3h0.2c0,0-0.5-4.3-0.5-7.3V37.9
				c0-3.4,1.4-4.9,5-4.9h7.6v6.6h-3.3c-1.1,0-1.7,0.5-1.7,1.7v45.7h-6.9l-24-34.1c-2-2.9-4.4-7.3-4.4-7.3h-0.2c0,0,0.5,4.4,0.5,7.3
				v29.3c0,3.4-1.4,4.9-4.9,4.9h-7.7L221.4,80.4z"/>
		</g>
		<path class="st1" d="M435.2,13.4c0,0,14,21.9,11.3,42.8c0,0-0.4,5.6-6.9,10.5c0,0-4.8,1.8,11.2,26.1c0,0,7.7,10.2-2.8,12.6
			c0,0-7.8,0.7-5.2,2.6c0,0,4.2,7.1,0,9.1c0,0,1.5,2.6,0,3.5c0,0,0,2.6-5.6,5.2c0,0-4.5,0.4,0.5,6.5c0,0,3.5,11.7-16,16.2
			c0,0-17.6,2-30-3.1c0,0-71.7-30.7-88,11.7c0,0-0.9-41.3,38.2-58c0,0,47.1-21.3,21.7-57.5c0,0-44.9-67.6,33.2-5.8
			C396.8,35.7,445.7,72.7,435.2,13.4z"/>
		<g>
			<path class="st1" d="M293.1,67.8L317.4,33h8.7v33.1h8.4v6.6h-8.4V87h-7.6V72.7h-25.4V67.8z M318.5,47.5c0-2.5,0.3-5.5,0.3-5.5
				h-0.2c0,0-1.4,2.6-2.8,4.5l-11.7,16.2c-1.4,1.9-2.8,3.4-2.8,3.4v0.2c0,0,2.2-0.2,4.6-0.2h12.6V47.5z"/>
		</g>
		<g>
			<path class="st1" d="M108.7,120.1c0.2-0.9,0.2-1.4,0.2-2c0-0.8-0.3-1.2-1.4-1.2h-3.3l1.3-6.6h7.2c3.2,0,4.2,1.3,4.2,3
				c0,1.1-0.4,2.7-0.8,3.8h0.2c2.7-4.2,7.5-7.7,14.3-7.7c9.4,0,15,6.4,15,16.9c0,14.7-10.9,25.4-22.1,25.4c-5.2,0-9.9-2.4-12-7h-0.2
				c0,0-0.2,1.7-0.5,3.7l-3.5,18.3h-7.7L108.7,120.1z M122.7,144.9c7.1,0,15.1-6.9,15.1-18.1c0-6.9-3.4-10.7-9.1-10.7
				c-8.3,0-14.8,9.1-14.8,18.3C113.8,140.2,116.7,144.9,122.7,144.9z"/>
			<path class="st1" d="M151.9,145.2l8-41.2c0.2-0.8,0.2-1.2,0.2-1.8c0-0.9-0.5-1.2-1.4-1.2h-3.3l1.4-6.6h7.4c3.1,0,4.6,1.1,4.6,3.6
				c0,0.6-0.2,1.4-0.3,2.3l-8.1,41.3c-0.1,0.4-0.2,1.1-0.2,1.3c0,0.8,0.5,1.2,1.5,1.2h3.3l-1.3,6.6h-7.4c-3,0-4.5-1.3-4.5-3.7
				C151.6,146.4,151.7,145.8,151.9,145.2z"/>
			<path class="st1" d="M175.3,135.6l3.2-16.3c0.1-0.4,0.2-1.1,0.2-1.4c0-0.7-0.5-1.1-1.5-1.1H174l1.3-6.6h7.5c3,0,4.5,1.3,4.5,3.7
				c0,0.5-0.1,1.1-0.2,1.8l-3.6,18.6c-0.3,1.4-0.5,2.7-0.5,4c0,3.4,1.4,6.1,6.1,6.1c8.1,0,14.7-8.9,16.3-16.5l3.4-17.6h7.7l-6,30.9
				c-0.2,0.5-0.2,1.2-0.2,1.6c0,0.8,0.5,1.3,1.5,1.3h3.2l-1.3,6.6h-7.4c-3,0-4.3-1.4-4.3-3.6c0-1.4,0.5-3.4,1-5.1h-0.2
				c-2.2,3.6-8,9.6-16.6,9.6c-7.4,0-11.3-4-11.3-10.9C174.9,139.2,175,137.5,175.3,135.6z"/>
			<path class="st1" d="M223.2,139.6c0,0,4.2,5.7,12.1,5.7c4.6,0,8-2.1,8-5.7c0-3.4-3.5-4.8-7-6.2c-5.3-2.1-11.5-4.8-11.5-12
				c0-8.1,7.6-12.1,15.7-12.1c6.4,0,14.7,2.6,13.5,8.8l-0.6,2.9h-6.8l0.2-1.5c0.4-2.2-2-3.9-6.5-3.9c-4.7,0-7.7,2.1-7.7,5.3
				c0,3.7,4.1,5.2,7.9,6.7c5.1,2.1,10.8,4.6,10.8,11.3c0,7.4-6.6,12.7-16.1,12.7c-11,0-15.9-6.8-15.9-6.8L223.2,139.6z"/>
		</g>
	</g>
</g>
<g>
	<rect x="43.7" y="199.9" class="st2" width="438.8" height="37"/>
	<path class="st1" d="M45.9,225.2v-25.3h10c1.9,0,3.5,0.4,4.9,1.1s2.4,1.7,3.1,3c0.7,1.3,1.1,2.8,1.1,4.4s-0.4,3.2-1.1,4.4
		c-0.7,1.3-1.8,2.3-3.1,3c-1.4,0.7-3,1.1-5,1.1h-6.4v-4.3h5.5c1,0,1.9-0.2,2.5-0.5c0.7-0.4,1.2-0.9,1.5-1.5c0.3-0.6,0.5-1.4,0.5-2.2
		c0-0.8-0.2-1.6-0.5-2.2c-0.3-0.6-0.8-1.1-1.5-1.5s-1.5-0.5-2.6-0.5h-3.6v20.9H45.9z"/>
	<path class="st1" d="M73.6,225.2v-25.3h10c1.9,0,3.5,0.3,4.9,1c1.4,0.7,2.4,1.6,3.1,2.9c0.7,1.2,1.1,2.7,1.1,4.4
		c0,1.7-0.4,3.1-1.1,4.3c-0.7,1.2-1.8,2.1-3.1,2.8c-1.4,0.6-3,1-5,1h-6.7V212h5.8c1,0,1.9-0.1,2.5-0.4c0.7-0.3,1.2-0.7,1.5-1.3
		c0.3-0.6,0.5-1.3,0.5-2.1c0-0.8-0.2-1.5-0.5-2.1c-0.3-0.6-0.8-1-1.5-1.3c-0.7-0.3-1.5-0.5-2.6-0.5H79v20.9H73.6z M87.3,213.7
		l6.3,11.5h-5.9l-6.1-11.5H87.3z"/>
	<path class="st1" d="M101.6,225.2v-25.3h17v4.4H107v6h10.8v4.4H107v6h11.7v4.4H101.6z"/>
	<path class="st1" d="M128.1,199.9h6.6l7,17h0.3l7-17h6.6v25.3h-5.2v-16.4h-0.2l-6.5,16.3H140l-6.5-16.4h-0.2v16.5h-5.2V199.9z"/>
	<path class="st1" d="M170.4,199.9v25.3h-5.3v-25.3H170.4z"/>
	<path class="st1" d="M195.7,199.9h5.3v16.4c0,1.8-0.4,3.5-1.3,4.8c-0.9,1.4-2.1,2.5-3.7,3.2c-1.6,0.8-3.4,1.2-5.5,1.2
		c-2.1,0-3.9-0.4-5.5-1.2c-1.6-0.8-2.8-1.8-3.7-3.2c-0.9-1.4-1.3-3-1.3-4.8v-16.4h5.3v15.9c0,1,0.2,1.8,0.6,2.6
		c0.4,0.7,1,1.3,1.8,1.8s1.7,0.6,2.7,0.6c1,0,1.9-0.2,2.7-0.6s1.4-1,1.8-1.8c0.4-0.7,0.6-1.6,0.6-2.6V199.9z"/>
	<path class="st1" d="M210.6,199.9h6.6l7,17h0.3l7-17h6.6v25.3h-5.2v-16.4h-0.2l-6.5,16.3h-3.5l-6.5-16.4h-0.2v16.5h-5.2V199.9z"/>
	<path class="st1" d="M260.9,225.2v-25.3h10c1.9,0,3.5,0.4,4.9,1.1s2.4,1.7,3.1,3c0.7,1.3,1.1,2.8,1.1,4.4s-0.4,3.2-1.1,4.4
		c-0.7,1.3-1.8,2.3-3.1,3c-1.4,0.7-3,1.1-5,1.1h-6.4v-4.3h5.5c1,0,1.9-0.2,2.5-0.5c0.7-0.4,1.2-0.9,1.5-1.5s0.5-1.4,0.5-2.2
		c0-0.8-0.2-1.6-0.5-2.2c-0.3-0.6-0.8-1.1-1.5-1.5c-0.7-0.3-1.5-0.5-2.6-0.5h-3.6v20.9H260.9z"/>
	<path class="st1" d="M288.6,225.2v-25.3h10c1.9,0,3.5,0.3,4.9,1s2.4,1.6,3.1,2.9c0.7,1.2,1.1,2.7,1.1,4.4c0,1.7-0.4,3.1-1.1,4.3
		c-0.7,1.2-1.8,2.1-3.1,2.8c-1.4,0.6-3,1-5,1h-6.7V212h5.8c1,0,1.9-0.1,2.5-0.4c0.7-0.3,1.2-0.7,1.5-1.3s0.5-1.3,0.5-2.1
		c0-0.8-0.2-1.5-0.5-2.1c-0.3-0.6-0.8-1-1.5-1.3c-0.7-0.3-1.5-0.5-2.6-0.5h-3.6v20.9H288.6z M302.2,213.7l6.3,11.5h-5.9l-6.1-11.5
		H302.2z"/>
	<path class="st1" d="M339.8,212.6c0,2.8-0.5,5.1-1.6,7c-1,1.9-2.5,3.4-4.2,4.4c-1.8,1-3.8,1.5-6,1.5c-2.2,0-4.3-0.5-6-1.5
		c-1.8-1-3.2-2.5-4.2-4.4s-1.6-4.3-1.6-7c0-2.8,0.5-5.1,1.6-7s2.4-3.4,4.2-4.4c1.8-1,3.8-1.5,6-1.5c2.2,0,4.2,0.5,6,1.5
		c1.8,1,3.2,2.5,4.2,4.4C339.3,207.5,339.8,209.8,339.8,212.6z M334.4,212.6c0-1.8-0.3-3.3-0.8-4.5c-0.5-1.2-1.3-2.2-2.2-2.8
		c-1-0.6-2.1-1-3.4-1s-2.4,0.3-3.4,1c-1,0.6-1.7,1.6-2.2,2.8c-0.5,1.2-0.8,2.7-0.8,4.5c0,1.8,0.3,3.3,0.8,4.5
		c0.5,1.2,1.3,2.2,2.2,2.8c1,0.6,2.1,1,3.4,1s2.4-0.3,3.4-1c1-0.6,1.7-1.6,2.2-2.8C334.1,215.9,334.4,214.4,334.4,212.6z"/>
	<path class="st1" d="M352.1,199.9l6.1,19.2h0.2l6.1-19.2h5.9l-8.7,25.3h-6.9l-8.7-25.3H352.1z"/>
	<path class="st1" d="M384.1,199.9v25.3h-5.3v-25.3H384.1z"/>
	<path class="st1" d="M402.6,225.2h-9v-25.3h9c2.5,0,4.7,0.5,6.6,1.5c1.8,1,3.2,2.5,4.2,4.3c1,1.9,1.5,4.1,1.5,6.8
		c0,2.6-0.5,4.9-1.5,6.8c-1,1.9-2.4,3.3-4.3,4.4C407.4,224.7,405.2,225.2,402.6,225.2z M399,220.6h3.4c1.6,0,2.9-0.3,4-0.8
		c1.1-0.6,1.9-1.4,2.4-2.6s0.8-2.7,0.8-4.6c0-1.9-0.3-3.4-0.8-4.6s-1.4-2.1-2.4-2.6c-1.1-0.6-2.4-0.8-4-0.8H399V220.6z"/>
	<path class="st1" d="M424.1,225.2v-25.3h17v4.4h-11.7v6h10.8v4.4h-10.8v6h11.7v4.4H424.1z"/>
	<path class="st1" d="M450.6,225.2v-25.3h10c1.9,0,3.5,0.3,4.9,1s2.4,1.6,3.1,2.9c0.7,1.2,1.1,2.7,1.1,4.4c0,1.7-0.4,3.1-1.1,4.3
		c-0.7,1.2-1.8,2.1-3.1,2.8c-1.4,0.6-3,1-5,1h-6.7V212h5.8c1,0,1.9-0.1,2.5-0.4c0.7-0.3,1.2-0.7,1.5-1.3s0.5-1.3,0.5-2.1
		c0-0.8-0.2-1.5-0.5-2.1c-0.3-0.6-0.8-1-1.5-1.3c-0.7-0.3-1.5-0.5-2.6-0.5H456v20.9H450.6z M464.3,213.7l6.3,11.5h-5.9l-6.1-11.5
		H464.3z"/>
</g>
<g>
	<path class="st1" d="M260.9,105.6c0-4.4,3.1-7.7,7.6-7.7c4.4,0,7.5,3.3,7.5,7.7c0,4.4-3.1,7.7-7.5,7.7
		C264.1,113.3,260.9,110,260.9,105.6z M262.3,105.6c0,3.7,2.4,6.4,6.2,6.4c3.7,0,6.2-2.7,6.2-6.4s-2.4-6.4-6.2-6.4
		C264.8,99.2,262.3,101.9,262.3,105.6z M269.8,106.3l2.3,3.3l-2,0l-2.1-3.3h-0.9v3.3h-1.6v-8.2h3.6c1.7,0,2.8,1,2.8,2.5
		C271.8,105.2,271.1,106.1,269.8,106.3z M267.2,102.9v2.1h1.8c0.7,0,1.2-0.3,1.2-1.1c0-0.7-0.5-1-1.2-1H267.2z"/>
</g>
</svg>
