<?xml version="1.0" encoding="UTF-8"?>
<!-- Generator: Adobe Illustrator 26.0.1, SVG Export Plug-In . SVG Version: 6.00 Build 0)  -->
<svg preserveAspectRatio="xMidYMid slice" width="1920px" height="752px" xmlns="http://www.w3.org/2000/svg" xmlns:xlink="http://www.w3.org/1999/xlink" version="1.1" id="Layer_1" x="0px" y="0px" viewBox="0 0 143.5 56.6" style="enable-background:new 0 0 143.5 56.6;" xml:space="preserve">
<style type="text/css">
	.st0{fill:#448FFF;}
	.st1{fill:#FFFFFF;}
	.st2{fill:#0F1E64;}
</style>
<g>
	<g>
		<path class="st0" d="M33,34.6c1.4,0,3.9,0.6,3.9,2.3v1h-1.4v-0.6c0-0.9-1.5-1.3-2.5-1.3c-2.1,0-3.7,1.6-3.7,3.9    c0,2.3,1.6,4.1,3.8,4.1c2.1,0,3.3-1.4,3.3-1.4l0.8,1.1c0,0-1.5,1.7-4.1,1.7c-3.1,0-5.3-2.4-5.3-5.5C27.8,36.9,30,34.6,33,34.6z"></path>
		<path class="st0" d="M39.9,36.4c0-0.2-0.1-0.3-0.3-0.3h-0.6v-1.3h1.5c0.7,0,0.9,0.3,0.9,0.9v7.9c0,0.2,0.1,0.3,0.3,0.3h2.9    c0.2,0,0.3-0.1,0.3-0.3V43h1.3v1.3c0,0.7-0.3,0.9-0.9,0.9h-4.4c-0.7,0-0.9-0.3-0.9-0.9V36.4z"></path>
		<path class="st0" d="M47.7,44h1v-7.9h-1v-1.3h3.4v1.3h-1V44h1v1.3h-3.4V44z"></path>
		<path class="st0" d="M53.1,44h0.6c0.2,0,0.3-0.1,0.3-0.3v-8.8h1.3l4.6,6.6c0.4,0.6,0.9,1.4,0.9,1.4h0c0,0-0.1-0.8-0.1-1.4v-5.6    c0-0.7,0.3-0.9,1-0.9h1.5v1.3h-0.6c-0.2,0-0.3,0.1-0.3,0.3v8.8h-1.3l-4.6-6.6c-0.4-0.6-0.9-1.4-0.9-1.4h0c0,0,0.1,0.8,0.1,1.4v5.6    c0,0.7-0.3,0.9-0.9,0.9h-1.5V44z"></path>
		<path class="st0" d="M65.1,44h1v-7.9h-1v-1.3h3.4v1.3h-1V44h1v1.3h-3.4V44z"></path>
		<path class="st0" d="M75.6,34.6c1.4,0,3.9,0.6,3.9,2.3v1h-1.4v-0.6c0-0.9-1.5-1.3-2.5-1.3c-2.1,0-3.7,1.6-3.7,3.9    c0,2.3,1.6,4.1,3.8,4.1c2.1,0,3.3-1.4,3.3-1.4l0.8,1.1c0,0-1.5,1.7-4.1,1.7c-3.1,0-5.3-2.4-5.3-5.5C70.4,36.9,72.6,34.6,75.6,34.6    z"></path>
	</g>
	<g>
		<path class="st2" d="M12.1,27.5h0.3c0.4,0,0.6-0.1,0.7-0.5l4.5-12.2h2.1l4.5,12.2c0.1,0.4,0.3,0.5,0.7,0.5h0.3v1.8h-1.1    c-1,0-1.4-0.2-1.7-1.2l-1.1-3H16l-1.1,3c-0.3,0.9-0.7,1.2-1.7,1.2h-1.1V27.5z M20.8,23.4L19.2,19c-0.3-0.8-0.6-2-0.6-2h0    c0,0-0.3,1.3-0.6,2l-1.6,4.4H20.8z"></path>
		<path class="st2" d="M27.5,17.1c0-0.3-0.2-0.5-0.5-0.5h-0.9v-1.8h2.1c0.9,0,1.3,0.4,1.3,1.3v10.9c0,0.3,0.2,0.5,0.5,0.5h4    c0.3,0,0.4-0.2,0.4-0.5v-0.9h1.9V28c0,0.9-0.4,1.3-1.3,1.3h-6.2c-0.9,0-1.3-0.4-1.3-1.3V17.1z"></path>
		<path class="st2" d="M38,17.1c0-0.3-0.2-0.5-0.5-0.5h-0.9v-1.8h2.1c0.9,0,1.3,0.4,1.3,1.3v10.9c0,0.3,0.2,0.5,0.5,0.5h4    c0.3,0,0.5-0.2,0.5-0.5v-0.9h1.9V28c0,0.9-0.4,1.3-1.3,1.3h-6.2c-0.9,0-1.3-0.4-1.3-1.3V17.1z"></path>
	</g>
	<g>
		<path class="st2" d="M58.6,14.6c4.2,0,7.4,3.2,7.4,7.4c0,4.3-3.3,7.6-7.4,7.6c-4.2,0-7.4-3.3-7.4-7.6    C51.2,17.8,54.4,14.6,58.6,14.6z M58.6,27.6c2.9,0,5.3-2.5,5.3-5.6c0-3.1-2.4-5.5-5.3-5.5c-2.9,0-5.3,2.4-5.3,5.5    C53.3,25.2,55.6,27.6,58.6,27.6z"></path>
		<path class="st2" d="M67.5,27.5h0.9c0.3,0,0.5-0.2,0.5-0.5V14.9h1.9l6.4,9.1c0.5,0.8,1.2,2,1.2,2h0c0,0-0.1-1.1-0.1-2v-7.8    c0-0.9,0.4-1.3,1.3-1.3h2v1.8h-0.9c-0.3,0-0.5,0.1-0.5,0.5v12.2h-1.8l-6.4-9.1c-0.5-0.8-1.2-2-1.2-2h0c0,0,0.1,1.2,0.1,2V28    c0,0.9-0.4,1.3-1.3,1.3h-2.1V27.5z"></path>
	</g>
	<path class="st0" d="M126.7,9.7c0,0,3.7,5.9,3,11.5c0,0-0.1,1.5-1.9,2.8c0,0-1.3,0.5,3,7c0,0,2,2.7-0.8,3.4c0,0-2.1,0.2-1.4,0.7   c0,0,1.1,1.9,0,2.4c0,0,0.4,0.7,0,0.9c0,0,0,0.7-1.5,1.4c0,0-1.2,0.1,0.1,1.7c0,0,0.9,3.1-4.3,4.3c0,0-4.7,0.5-8-0.9   c0,0-19.2-8.3-23.6,3c0,0-0.2-11.1,10.3-15.5c0,0,12.6-5.6,5.9-15.4c0,0-11.9-18.2,8.9-1.5C116.4,15.6,129.4,25.6,126.7,9.7z"></path>
	<path class="st2" d="M120.9,9.7c0,0,3.7,5.9,3,11.5c0,0-0.1,1.5-1.9,2.8c0,0-1.3,0.5,3,7c0,0,2,2.7-0.8,3.4c0,0-2.1,0.2-1.4,0.7   c0,0,1.1,1.9,0,2.4c0,0,0.4,0.7,0,0.9c0,0,0,0.7-1.5,1.4c0,0-1.2,0.1,0.1,1.7c0,0,0.9,3.1-4.3,4.3c0,0-4.7,0.5-8-0.9   c0,0-19.2-8.3-23.6,3c0,0-0.2-11.1,10.3-15.5c0,0,12.6-5.6,5.9-15.4c0,0-11.9-18.2,8.9-1.5C110.6,15.6,123.6,25.6,120.9,9.7z"></path>
	<g>
		<path class="st2" d="M86.7,24.2l6.5-9.3h2.3v8.9h2.2v1.8h-2.2v3.8h-2v-3.8h-6.8V24.2z M93.5,18.7c0-0.7,0.1-1.5,0.1-1.5h0    c0,0-0.4,0.7-0.7,1.2l-3.1,4.3c-0.4,0.5-0.8,0.9-0.8,0.9v0c0,0,0.6-0.1,1.2-0.1h3.4V18.7z"></path>
	</g>
</g>
</svg>
