<?xml version="1.0" encoding="utf-8"?>
<!-- Generator: Adobe Illustrator 26.5.0, SVG Export Plug-In . SVG Version: 6.00 Build 0)  -->
<svg version="1.1" id="Layer_1" xmlns="http://www.w3.org/2000/svg" xmlns:xlink="http://www.w3.org/1999/xlink" x="0px" y="0px"
	 viewBox="0 0 980 237" style="enable-background:new 0 0 980 237;" xml:space="preserve">
<style type="text/css">
	.st0{fill-rule:evenodd;clip-rule:evenodd;fill:#FFFFFF;}
	.st1{filter:url(#Adobe_OpacityMaskFilter);}
	.st2{mask:url(#mask-2_00000142134500509245342080000015536003170966036922_);fill-rule:evenodd;clip-rule:evenodd;fill:#FFFFFF;}
	.st3{filter:url(#Adobe_OpacityMaskFilter_00000021801988864549451600000007993847628121576085_);}
	.st4{mask:url(#mask-2_00000135674260161993351640000007923872351837576619_);fill-rule:evenodd;clip-rule:evenodd;fill:#FFFFFF;}
	.st5{filter:url(#Adobe_OpacityMaskFilter_00000085965546580927431730000000799432127733865658_);}
	.st6{mask:url(#mask-4_00000112625847098437725310000015216772749839994270_);fill-rule:evenodd;clip-rule:evenodd;fill:#FFFFFF;}
	.st7{filter:url(#Adobe_OpacityMaskFilter_00000088119049380922792100000009807659279403705001_);}
	.st8{mask:url(#mask-4_00000155831532364733000940000010364513532418681489_);fill-rule:evenodd;clip-rule:evenodd;fill:#FFFFFF;}
	.st9{filter:url(#Adobe_OpacityMaskFilter_00000123402987466415591150000015054136586009008546_);}
	.st10{mask:url(#mask-4_00000120520113706427460490000000897972154485139841_);fill-rule:evenodd;clip-rule:evenodd;fill:#FFFFFF;}
	.st11{filter:url(#Adobe_OpacityMaskFilter_00000158740432390076224900000005848277114489983415_);}
	.st12{mask:url(#mask-4_00000058583818812321114220000006827234501324947087_);fill-rule:evenodd;clip-rule:evenodd;fill:#FFFFFF;}
	.st13{filter:url(#Adobe_OpacityMaskFilter_00000008860785665751203220000000708541254583960206_);}
	.st14{mask:url(#mask-4_00000093160899593794011920000009021113000558366655_);fill-rule:evenodd;clip-rule:evenodd;fill:#FFFFFF;}
	.st15{filter:url(#Adobe_OpacityMaskFilter_00000053509246211410322310000010167279968231424415_);}
	.st16{mask:url(#mask-4_00000103246232041513587100000001716608554157287583_);fill:#FFFFFF;}
	.st17{filter:url(#Adobe_OpacityMaskFilter_00000098922280258519637870000006004272646850555822_);}
	.st18{mask:url(#mask-4_00000160876387490038863260000007952402611779217599_);fill-rule:evenodd;clip-rule:evenodd;fill:#FFFFFF;}
	.st19{filter:url(#Adobe_OpacityMaskFilter_00000077296779548272021800000013537490102368335291_);}
	.st20{mask:url(#mask-4_00000059994668464433090150000003904317794078935727_);fill-rule:evenodd;clip-rule:evenodd;fill:#FFFFFF;}
	.st21{filter:url(#Adobe_OpacityMaskFilter_00000072277295387487842410000002904950525702749841_);}
	.st22{mask:url(#mask-4_00000087414695297650671800000009463117481679179954_);fill-rule:evenodd;clip-rule:evenodd;fill:#FFFFFF;}
	.st23{filter:url(#Adobe_OpacityMaskFilter_00000151533809775912645560000006289018868143001220_);}
	.st24{mask:url(#mask-4_00000041994499801065176040000000445029576048784787_);fill:#FFFFFF;}
</style>
<g id="COMP-Logo-Horizontal-Mono">
	<path id="Fill-1" class="st0" d="M347,127.2c-8.5,8.1-20.1,12.2-34.8,12.2c-7.5,0-14.2-1.1-20.1-3.3c-5.9-2.2-10.9-5.3-15-9.4
		c-4.1-4.1-7.2-9.1-9.4-15c-2.2-5.9-3.3-12.6-3.3-20.1c0-7.4,1.1-14.1,3.3-20.1c2.2-5.9,5.3-11,9.4-15.1c4.1-4.1,9.1-7.2,15-9.4
		c5.9-2.2,12.6-3.3,20.1-3.3c12.5,0,22.9,3.1,31,9.2l-5.3,7c-6.6-4.9-15.2-7.4-25.7-7.4c-12.7,0-22.4,3.3-29,10
		c-6.7,6.7-10,16.4-10,29c0,12.7,3.3,22.4,10,29.1c6.7,6.7,16.3,10,29,10c6,0,11.5-0.8,16.3-2.5c4.9-1.7,9-4.1,12.3-7.4L347,127.2"
		/>
	<path id="Fill-2" class="st0" d="M408,52.6c-12.7,0-22.4,3.3-29,10c-6.6,6.7-10,16.4-10,29c0,12.7,3.3,22.4,10,29.1
		c6.7,6.7,16.3,10,29,10c12.7,0,22.4-3.3,29-10c6.7-6.7,10-16.4,10-29.1c0-12.6-3.3-22.3-10-29C430.4,55.9,420.7,52.6,408,52.6z
		 M408,139.4c-7.5,0-14.2-1.1-20.1-3.3c-5.9-2.2-10.9-5.3-15-9.4c-4.1-4.1-7.2-9.1-9.4-15c-2.2-5.9-3.3-12.6-3.3-20.1
		c0-7.4,1.1-14.1,3.3-20.1c2.2-5.9,5.3-11,9.4-15.1s9.1-7.2,15-9.4c5.9-2.2,12.6-3.3,20.1-3.3c7.5,0,14.2,1.1,20.1,3.3
		c5.9,2.2,10.9,5.3,15,9.4c4.1,4.1,7.2,9.1,9.4,15.1c2.2,5.9,3.3,12.6,3.3,20.1c0,7.5-1.1,14.2-3.3,20.1c-2.2,5.9-5.3,10.9-9.4,15
		c-4.1,4.1-9.1,7.2-15,9.4C422.2,138.3,415.5,139.4,408,139.4L408,139.4z"/>
	<path id="Fill-3" class="st0" d="M570.1,138.6h-8.8V63.9l-34.4,56.7c-0.4,0.7-1,1.2-1.6,1.6c-0.7,0.4-1.4,0.6-2.1,0.6
		c-1.6,0-2.8-0.7-3.8-2.1l-34.3-56.7v74.8h-8.8V48.2c0-2.2,1-3.6,3.1-4.1c0.9-0.3,1.9-0.3,2.8,0.1c1,0.4,1.7,1,2.2,1.8l38.6,64
		l38.8-64c0.5-0.8,1.2-1.4,2.1-1.8c0.9-0.4,1.8-0.4,2.8-0.1c0.9,0.2,1.7,0.8,2.3,1.5c0.6,0.8,0.9,1.6,0.9,2.6V138.6"/>
	<path id="Fill-4" class="st0" d="M637.7,91.8c2.6,0,5.1-0.5,7.4-1.5c2.3-1,4.4-2.4,6.1-4.1c1.8-1.8,3.1-3.8,4.1-6.1
		c1-2.3,1.5-4.9,1.5-7.5c0-2.6-0.5-5.1-1.5-7.4c-1-2.3-2.4-4.4-4.1-6.1c-1.8-1.8-3.8-3.1-6.1-4.1c-2.3-1-4.8-1.5-7.4-1.5h-35.4v38.5
		H637.7z M638.4,44.7c3.8,0.1,7.3,0.9,10.6,2.3c3.3,1.5,6.2,3.5,8.7,6c2.5,2.5,4.5,5.5,5.9,8.8c1.4,3.4,2.1,7,2.1,10.7
		c0,3.8-0.7,7.5-2.2,10.9c-1.5,3.4-3.5,6.4-6,8.9c-2.6,2.6-5.5,4.6-8.9,6c-3.4,1.5-7,2.2-10.9,2.2h-35.4v38.1h-8.8V48.9
		c0-1.2,0.4-2.2,1.3-3c0.9-0.8,1.9-1.3,3.1-1.3H638.4L638.4,44.7z"/>
	<path id="Fill-5" class="st0" d="M748.2,129.9l-2.6,8.8h-54.8c-1.2,0-2.2-0.4-3.1-1.3c-0.9-0.9-1.3-1.9-1.3-3.1V44.7h8.8v85.2
		H748.2"/>
	<path id="Fill-6" class="st0" d="M773.6,53.3v29.4h41.2l-2.6,8.8h-38.5v38.4h50.4v8.8h-54.8c-1.2,0-2.2-0.4-3.1-1.3
		c-0.9-0.9-1.3-1.9-1.3-3.1V48.9c0-1.2,0.4-2.2,1.3-3c0.9-0.8,1.9-1.3,3.1-1.3h54.8v8.7H773.6"/>
	<polyline id="Fill-7" class="st0" points="904.6,44.7 904.6,53.3 875,53.3 875,138.6 866.2,138.6 866.2,53.3 836.6,53.3 
		836.6,44.7 904.6,44.7 	"/>
	<path id="Fill-8" class="st0" d="M929.2,53.3v29.4h41.2l-2.6,8.8h-38.5v38.4h50.4v8.8h-54.8c-1.2,0-2.2-0.4-3.1-1.3
		c-0.9-0.9-1.3-1.9-1.3-3.1V48.9c0-1.2,0.4-2.2,1.3-3c0.9-0.8,1.9-1.3,3.1-1.3h54.8v8.7H929.2"/>
	<polygon id="Fill-9" class="st0" points="269.9,195.8 272.7,195.8 272.7,165.1 269.9,165.1 	"/>
	<path id="Fill-10" class="st0" d="M270.1,195.5h2.3v-30.2h-2.3V195.5z M269.6,196.1h3.4v-31.3h-3.4V196.1z"/>
	<path id="Fill-11" class="st0" d="M303,173.6c2.8,0,4.9,1,6.5,3c1.5,2,2.3,4.7,2.3,8.3v11h-2.8v-11c0-0.8-0.1-1.6-0.2-2.6
		c-0.1-1-0.4-1.9-0.8-2.8c-0.4-0.9-1-1.6-1.8-2.2c-0.8-0.6-1.8-0.9-3.1-0.9c-1.3,0-2.3,0.3-3.1,0.9c-0.8,0.6-1.4,1.3-1.8,2.2
		c-0.4,0.9-0.7,1.8-0.8,2.8c-0.1,1-0.2,1.8-0.2,2.6v11h-2.9v-11c0-0.8-0.1-1.6-0.2-2.6c-0.1-1-0.4-1.9-0.8-2.8
		c-0.4-0.9-1-1.6-1.8-2.2c-0.8-0.6-1.8-0.9-3.1-0.9c-1.3,0-2.3,0.3-3.1,0.9c-0.8,0.6-1.4,1.3-1.8,2.2c-0.4,0.9-0.7,1.8-0.8,2.8
		c-0.1,1-0.2,1.8-0.2,2.6v11h-2.9v-11c0-3.5,0.8-6.3,2.3-8.3c1.5-2,3.7-3,6.5-3c1.7,0,3.2,0.4,4.4,1.1c1.2,0.8,2.2,1.8,3,3.3
		c0.7-1.4,1.7-2.5,3-3.3C299.8,174,301.3,173.6,303,173.6"/>
	<path id="Fill-12" class="st0" d="M309.2,195.5h2.3v-10.7c0-3.5-0.8-6.2-2.3-8.1c-1.5-1.9-3.6-2.9-6.3-2.9c-1.6,0-3.1,0.4-4.3,1.1
		c-1.2,0.7-2.2,1.8-2.9,3.2l-0.2,0.5l-0.2-0.5c-0.7-1.4-1.7-2.4-2.9-3.2c-1.2-0.7-2.6-1.1-4.3-1.1c-2.7,0-4.8,1-6.3,2.9
		c-1.5,1.9-2.3,4.7-2.3,8.1v10.7h2.3v-10.7c0-0.8,0.1-1.7,0.2-2.6c0.1-1,0.4-1.9,0.9-2.8c0.4-0.9,1.1-1.7,1.9-2.3
		c0.8-0.6,1.9-0.9,3.3-0.9c1.3,0,2.4,0.3,3.3,0.9c0.8,0.6,1.4,1.4,1.9,2.3c0.4,0.9,0.7,1.8,0.8,2.8c0.1,1,0.2,1.9,0.2,2.6v10.7h2.3
		v-10.7c0-0.8,0.1-1.7,0.2-2.6c0.1-1,0.4-1.9,0.9-2.8c0.4-0.9,1.1-1.7,1.9-2.2c0.8-0.6,1.9-0.9,3.3-0.9c1.3,0,2.4,0.3,3.3,0.9
		c0.8,0.6,1.4,1.4,1.9,2.2c0.4,0.9,0.7,1.8,0.9,2.8c0.1,1,0.2,1.9,0.2,2.6V195.5z M312,196.1h-3.4v-11.3c0-0.8-0.1-1.6-0.2-2.6
		c-0.1-0.9-0.4-1.8-0.8-2.7c-0.4-0.8-1-1.5-1.7-2.1c-0.7-0.5-1.7-0.8-2.9-0.8c-1.2,0-2.2,0.3-2.9,0.8c-0.7,0.5-1.3,1.2-1.7,2.1
		c-0.4,0.8-0.7,1.7-0.8,2.7c-0.1,0.9-0.2,1.8-0.2,2.6v11.3h-3.4v-11.3c0-0.8-0.1-1.6-0.2-2.6c-0.1-0.9-0.4-1.8-0.8-2.7
		c-0.4-0.8-1-1.5-1.7-2.1c-0.7-0.5-1.7-0.8-2.9-0.8c-1.2,0-2.2,0.3-2.9,0.8c-0.7,0.5-1.3,1.2-1.7,2.1c-0.4,0.8-0.7,1.7-0.8,2.7
		c-0.1,1-0.2,1.8-0.2,2.6v11.3h-3.4v-11.3c0-3.6,0.8-6.4,2.4-8.4c1.6-2,3.9-3.1,6.7-3.1c1.7,0,3.3,0.4,4.5,1.2
		c1.1,0.7,2.1,1.7,2.8,2.9c0.7-1.3,1.7-2.2,2.8-2.9c1.3-0.8,2.8-1.2,4.5-1.2c2.8,0,5.1,1,6.7,3.1c1.6,2,2.4,4.9,2.4,8.4V196.1
		L312,196.1z"/>
	<path id="Fill-13" class="st0" d="M328.5,193.1c2.7,0,4.8-0.7,6.2-2.1c1.4-1.4,2.2-3.5,2.2-6.2c0-2.7-0.7-4.8-2.2-6.2
		c-1.4-1.4-3.5-2.2-6.2-2.2c-2.7,0-4.8,0.7-6.2,2.2c-1.4,1.4-2.1,3.5-2.1,6.2c0,2.7,0.7,4.8,2.1,6.2
		C323.7,192.4,325.8,193.1,328.5,193.1z M328.5,173.6c3.5,0,6.3,1,8.2,3c2,2,3,4.7,3,8.2c0,3.6-1,6.3-3,8.3c-2,2-4.7,3-8.2,3
		c-1.8,0-3.4-0.3-4.8-0.8c-1.4-0.5-2.6-1.3-3.6-2.3v11.9l-2.9-0.9v-19.2c0-3.5,1-6.3,3-8.2C322.2,174.6,325,173.6,328.5,173.6
		L328.5,173.6z"/>
	<path id="Fill-14" class="st0" d="M328.5,176.7c-2.6,0-4.7,0.7-6,2.1c-1.4,1.4-2.1,3.4-2.1,6c0,2.6,0.7,4.7,2.1,6
		c1.4,1.4,3.4,2.1,6,2.1c2.6,0,4.6-0.7,6-2.1c1.4-1.4,2.1-3.4,2.1-6c0-2.6-0.7-4.7-2.1-6C333.2,177.4,331.2,176.7,328.5,176.7z
		 M328.5,193.4c-2.8,0-5-0.7-6.4-2.2c-1.5-1.5-2.2-3.6-2.2-6.4c0-2.8,0.7-4.9,2.2-6.4c1.5-1.5,3.6-2.2,6.4-2.2
		c2.8,0,4.9,0.8,6.4,2.2c1.5,1.5,2.2,3.6,2.2,6.4c0,2.8-0.8,5-2.2,6.4C333.5,192.7,331.3,193.4,328.5,193.4z M317.6,203.8l2.3,0.7
		v-12.3l0.5,0.5c0.9,1,2.1,1.7,3.5,2.3c1.4,0.5,3,0.8,4.7,0.8c3.4,0,6.2-1,8.1-2.9c1.9-1.9,2.9-4.6,2.9-8.1c0-3.4-1-6.2-2.9-8.1
		c-1.9-1.9-4.6-2.9-8.1-2.9c-3.5,0-6.2,1-8.1,2.9c-1.9,1.9-2.9,4.6-2.9,8.1V203.8z M320.4,205.2l-3.4-1v-19.4c0-3.6,1-6.4,3-8.4
		c2-2,4.9-3,8.5-3c3.6,0,6.4,1,8.4,3c2,2,3,4.8,3,8.4c0,3.6-1,6.5-3,8.5c-2,2-4.8,3-8.4,3c-1.8,0-3.5-0.3-4.9-0.8
		c-1.2-0.5-2.3-1.1-3.2-1.9V205.2L320.4,205.2z"/>
	<polygon id="Fill-15" class="st0" points="344.7,195.8 347.5,195.8 347.5,163.8 344.7,163.8 	"/>
	<path id="Fill-16" class="st0" d="M344.9,195.5h2.3v-31.4h-2.3V195.5z M344.4,196.1h3.4v-32.5h-3.4V196.1z"/>
	<path id="Fill-17" class="st0" d="M372,185.4h-8.4c-1.8,0-3.3,0-4.4,0.1c-1.1,0.1-2,0.3-2.5,0.6c-0.6,0.3-1,0.7-1.1,1.3
		s-0.3,1.3-0.3,2.3c0,0.6,0.2,1.2,0.7,1.6c0.5,0.4,1.1,0.8,1.9,1.1c0.8,0.3,1.7,0.5,2.7,0.6c1,0.1,2,0.2,3,0.2s2-0.1,3-0.2
		c1-0.1,1.9-0.3,2.7-0.6c0.8-0.3,1.4-0.6,1.9-1.1c0.5-0.4,0.7-1,0.7-1.6V185.4z M363.6,173.5c3.6,0,6.3,1,8.3,3c2,2,3,4.7,3,8.3v4.9
		c0,0.5-0.1,1.1-0.3,1.8c-0.2,0.7-0.7,1.4-1.5,2.1c-0.8,0.7-1.9,1.2-3.4,1.7c-1.5,0.5-3.5,0.7-6,0.7c-2.5,0-4.6-0.2-6-0.7
		c-1.5-0.5-2.6-1.1-3.4-1.7c-0.8-0.7-1.3-1.4-1.5-2.1c-0.2-0.7-0.3-1.3-0.3-1.8c0-1.7,0.3-3,0.8-3.9c0.5-1,1.2-1.7,2.1-2.2
		c0.9-0.5,1.9-0.8,3.1-0.9c1.2-0.1,2.5-0.2,3.8-0.2h9.6c-0.4-2-1.3-3.5-2.6-4.5c-1.4-1-3.2-1.6-5.5-1.6c-2.4,0-4.3,0.6-5.7,1.7
		l-1.8-2.3C358.1,174.3,360.6,173.5,363.6,173.5L363.6,173.5z"/>
	<path id="Fill-18" class="st0" d="M363.6,185.6c-1.9,0-3.3,0-4.4,0.1c-1.1,0.1-1.9,0.3-2.4,0.6c-0.5,0.3-0.9,0.6-1,1.2
		c-0.2,0.6-0.3,1.3-0.3,2.2c0,0.6,0.2,1,0.7,1.4c0.5,0.4,1.1,0.8,1.8,1c0.8,0.3,1.6,0.5,2.6,0.6c1.9,0.2,4,0.2,6,0
		c1-0.1,1.9-0.3,2.6-0.6c0.8-0.3,1.4-0.6,1.8-1c0.4-0.4,0.6-0.8,0.6-1.4v-4.1H363.6z M363.6,193.4c-1,0-2.1-0.1-3.1-0.2
		c-1-0.1-1.9-0.3-2.7-0.6c-0.8-0.3-1.5-0.7-2-1.1c-0.6-0.5-0.8-1.1-0.8-1.8c0-1,0.1-1.8,0.3-2.4c0.2-0.6,0.6-1.1,1.3-1.5
		c0.6-0.3,1.5-0.5,2.6-0.6c1.1-0.1,2.6-0.1,4.4-0.1h8.6v4.6c0,0.7-0.3,1.3-0.8,1.8c-0.5,0.5-1.2,0.8-2,1.1c-0.8,0.3-1.7,0.5-2.7,0.6
		C365.6,193.4,364.6,193.4,363.6,193.4z M362.2,182.7c-1.4,0-2.6,0.1-3.8,0.2c-1.2,0.1-2.2,0.4-3,0.9c-0.8,0.5-1.5,1.1-2,2
		c-0.5,0.9-0.8,2.2-0.8,3.8c0,0.4,0.1,1,0.3,1.7c0.2,0.7,0.7,1.3,1.4,2c0.7,0.6,1.9,1.2,3.3,1.7c1.4,0.5,3.4,0.7,6,0.7
		c2.5,0,4.5-0.2,5.9-0.7c1.4-0.5,2.5-1,3.3-1.7c0.7-0.6,1.2-1.3,1.4-2c0.2-0.7,0.3-1.3,0.3-1.7v-4.9c0-3.4-1-6.2-2.9-8.1
		c-1.9-1.9-4.6-2.9-8.1-2.9c-2.9,0-5.2,0.7-7.1,2.1l1.4,1.8c1.5-1.1,3.4-1.6,5.7-1.6c2.4,0,4.3,0.5,5.7,1.6c1.4,1.1,2.3,2.6,2.7,4.7
		l0.1,0.3H362.2z M363.6,196.3c-2.6,0-4.6-0.2-6.1-0.7c-1.5-0.5-2.7-1.1-3.5-1.8c-0.8-0.7-1.3-1.4-1.6-2.2c-0.2-0.8-0.3-1.4-0.3-1.9
		c0-1.7,0.3-3.1,0.8-4.1c0.5-1,1.3-1.8,2.2-2.3c0.9-0.5,2-0.8,3.2-1c1.2-0.1,2.5-0.2,3.9-0.2h9.3c-0.4-1.7-1.2-3.1-2.5-4
		c-1.3-1-3.1-1.5-5.4-1.5c-2.3,0-4.1,0.5-5.5,1.6l-0.2,0.2l-2.1-2.7l0.2-0.2c2-1.6,4.5-2.4,7.6-2.4c3.6,0,6.5,1,8.5,3.1
		c2,2,3,4.9,3,8.5v4.9c0,0.5-0.1,1.1-0.3,1.9c-0.2,0.8-0.8,1.5-1.6,2.2c-0.8,0.7-2,1.3-3.5,1.8C368.2,196,366.2,196.3,363.6,196.3
		L363.6,196.3z"/>
	<path id="Fill-19" class="st0" d="M400,195.8h-2.9v-11c0-2.7-0.6-4.8-1.8-6.2c-1.2-1.4-3-2.2-5.3-2.2s-4.1,0.7-5.3,2.2
		c-1.2,1.4-1.8,3.5-1.8,6.2v11h-2.9v-11c0-3.5,0.9-6.3,2.6-8.3c1.7-2,4.2-3,7.3-3c3.1,0,5.6,1,7.3,3c1.8,2,2.6,4.7,2.6,8.3V195.8"/>
	<path id="Fill-20" class="st0" d="M397.4,195.5h2.3v-10.7c0-3.4-0.9-6.2-2.6-8.1c-1.7-1.9-4.1-2.9-7.1-2.9c-3,0-5.4,1-7.1,2.9
		c-1.7,1.9-2.5,4.6-2.5,8.1v10.7h2.3v-10.7c0-2.8,0.6-4.9,1.9-6.4c1.2-1.5,3.1-2.3,5.5-2.3c2.4,0,4.2,0.8,5.5,2.3
		c1.2,1.5,1.9,3.6,1.9,6.4V195.5z M400.3,196.1h-3.4v-11.3c0-2.6-0.6-4.7-1.7-6c-1.1-1.4-2.8-2.1-5-2.1c-2.2,0-3.9,0.7-5,2.1
		c-1.2,1.4-1.7,3.4-1.7,6v11.3h-3.4v-11.3c0-3.6,0.9-6.4,2.7-8.4c1.8-2,4.3-3.1,7.5-3.1c3.2,0,5.7,1,7.5,3.1c1.8,2,2.7,4.9,2.7,8.4
		V196.1L400.3,196.1z"/>
	<polyline id="Fill-21" class="st0" points="418.7,176.7 412.7,176.7 412.7,195.8 409.8,195.8 409.8,176.7 403.9,176.7 403.9,173.8 
		409.8,173.8 409.8,163.8 412.7,163.8 412.7,173.8 418.7,173.8 418.7,176.7 	"/>
	<path id="Fill-22" class="st0" d="M410.1,195.5h2.3v-19.1h6v-2.3h-6v-10h-2.3v10h-6v2.3h6V195.5z M413,196.1h-3.4V177h-6v-3.4h6
		v-10h3.4v10h6v3.4h-6V196.1L413,196.1z"/>
	<path id="Fill-23" class="st0" d="M446.5,174.2c0.4,0.9,1.1,1.9,2,3c1.1-0.6,1.9-1.1,2.6-1.5c0.7-0.4,1.2-0.9,1.6-1.3
		c0.4-0.4,0.7-0.9,0.8-1.4c0.2-0.5,0.2-1.1,0.2-1.9c0-0.2-0.1-0.5-0.2-0.9c-0.1-0.4-0.3-0.7-0.6-1.1c-0.3-0.4-0.7-0.7-1.2-1
		c-0.5-0.3-1.2-0.4-2-0.4c-1,0-1.8,0.2-2.4,0.5c-0.6,0.3-1,0.7-1.2,1.1c-0.3,0.4-0.4,1-0.5,1.7C445.8,172.2,446,173.3,446.5,174.2z
		 M449.9,193.2c1.5,0,2.9-0.3,4.3-0.8c1.3-0.6,2.5-1.3,3.6-2.3l-9.8-9.4c-1.4,0.8-2.5,1.5-3.3,2.1c-0.8,0.6-1.4,1.2-1.9,1.8
		c-0.4,0.5-0.7,1.1-0.8,1.5c-0.1,0.5-0.2,0.9-0.2,1.4c0,1.2,0.3,2.2,0.8,3c0.6,0.7,1.3,1.3,2.1,1.7s1.7,0.7,2.7,0.8
		C448.3,193.2,449.2,193.2,449.9,193.2z M461.8,189.9c0.6,0.5,1.2,1.1,2,1.8c0.8,0.7,1.5,1.3,2.2,1.9c0.7,0.6,1.5,1.3,2.5,2.2h-4.3
		c-0.5-0.4-0.9-0.7-1.3-1.1c-0.4-0.3-0.8-0.7-1.3-1.2c-0.5-0.5-1-0.9-1.6-1.5c-1.3,1.2-2.8,2.2-4.5,2.9c-1.7,0.7-3.5,1.1-5.5,1.1
		c-3.5,0-6.2-0.7-8.2-2.2c-1.9-1.5-2.9-3.6-2.9-6.3c0-0.8,0.1-1.6,0.3-2.4c0.2-0.7,0.5-1.4,1-2.2c0.5-0.7,1.2-1.4,2.1-2.2
		c0.9-0.7,2.1-1.5,3.6-2.3c-1-1.1-1.7-2.3-2.2-3.5c-0.5-1.2-0.7-2.5-0.7-4.1c0-0.6,0.1-1.3,0.4-2c0.2-0.7,0.6-1.4,1.2-2
		c0.6-0.6,1.3-1.2,2.2-1.6c0.9-0.4,1.9-0.6,3.2-0.6c1.2,0,2.2,0.2,3.1,0.6c0.9,0.4,1.6,0.9,2.1,1.5c0.5,0.6,1,1.3,1.2,2
		c0.3,0.7,0.4,1.4,0.4,2.1c0,1.1-0.1,2.1-0.4,2.9c-0.3,0.8-0.7,1.5-1.2,2.1c-0.5,0.6-1.2,1.2-1.9,1.7c-0.8,0.5-1.6,1-2.6,1.6
		l9.1,8.6c0.4-0.7,0.7-1.3,0.9-2.1c0.2-0.7,0.3-1.4,0.3-2.2h2.9c0,1.1-0.2,2.2-0.5,3.2C462.9,188,462.4,189,461.8,189.9L461.8,189.9
		z"/>
	<path id="Fill-24" class="st0" d="M449.9,167.9c-1,0-1.7,0.2-2.2,0.5c-0.5,0.3-0.9,0.7-1.1,1.1c-0.2,0.4-0.4,0.9-0.5,1.6
		c0,1.1,0.2,2.2,0.6,3.1c0.4,0.9,1,1.8,1.8,2.7c1-0.6,1.8-1,2.4-1.4c0.7-0.4,1.2-0.9,1.6-1.3c0.4-0.4,0.6-0.9,0.8-1.3
		c0.2-0.5,0.2-1.1,0.2-1.8c0-0.1,0-0.4-0.2-0.8c-0.1-0.3-0.3-0.7-0.5-1c-0.3-0.3-0.6-0.6-1.1-0.9
		C451.3,168.1,450.7,167.9,449.9,167.9z M448.4,177.5l-0.1-0.2c-0.9-1.1-1.6-2.1-2.1-3c-0.4-1-0.7-2.1-0.7-3.3
		c0.1-0.8,0.3-1.4,0.6-1.8c0.3-0.5,0.7-0.9,1.3-1.2c0.6-0.4,1.5-0.6,2.5-0.6c0.9,0,1.6,0.1,2.1,0.4c0.5,0.3,1,0.6,1.3,1
		c0.3,0.4,0.5,0.8,0.6,1.2c0.1,0.4,0.2,0.7,0.2,1c0,0.8-0.1,1.4-0.3,2c-0.2,0.6-0.5,1.1-0.9,1.5c-0.4,0.5-1,0.9-1.7,1.4
		c-0.7,0.4-1.5,0.9-2.7,1.5L448.4,177.5z M447.9,181.1c-1.3,0.7-2.3,1.4-3.1,2c-0.8,0.6-1.4,1.2-1.8,1.7c-0.4,0.5-0.7,1-0.8,1.4
		c-0.1,0.5-0.2,0.9-0.2,1.3c0,1.2,0.3,2.1,0.8,2.8c0.5,0.7,1.2,1.3,2,1.6c0.8,0.4,1.7,0.7,2.6,0.8c1,0.1,1.8,0.2,2.6,0.2
		c1.5,0,2.9-0.3,4.2-0.8c1.2-0.5,2.3-1.2,3.3-2L447.9,181.1z M449.9,193.5c-0.8,0-1.6-0.1-2.6-0.2c-1-0.1-1.9-0.4-2.8-0.8
		c-0.9-0.4-1.6-1-2.2-1.8c-0.6-0.8-0.9-1.8-0.9-3.1c0-0.5,0.1-0.9,0.2-1.4c0.1-0.5,0.4-1.1,0.9-1.6c0.4-0.6,1.1-1.2,1.9-1.8
		c0.8-0.6,1.9-1.4,3.3-2.1l0.2-0.1l0.1,0.1l10.1,9.6l-0.2,0.2c-1.1,1-2.3,1.8-3.7,2.3C452.9,193.2,451.5,193.5,449.9,193.5z
		 M449.9,165.1c-1.2,0-2.3,0.2-3.1,0.6c-0.8,0.4-1.5,0.9-2.1,1.5c-0.5,0.6-0.9,1.3-1.2,1.9c-0.2,0.7-0.4,1.3-0.4,1.9
		c0,1.5,0.2,2.9,0.7,4c0.5,1.1,1.2,2.3,2.1,3.4l0.2,0.2l-0.3,0.2c-1.5,0.8-2.7,1.6-3.6,2.3c-0.9,0.7-1.6,1.4-2.1,2.1
		c-0.5,0.7-0.8,1.4-1,2.1c-0.2,0.7-0.3,1.5-0.3,2.3c0,2.6,0.9,4.6,2.8,6c1.9,1.4,4.6,2.2,8,2.2c1.9,0,3.7-0.4,5.4-1
		c1.7-0.7,3.2-1.7,4.4-2.9l0.2-0.2l0.2,0.2c0.6,0.5,1.1,1,1.6,1.5c0.5,0.5,0.9,0.9,1.3,1.2c0.3,0.3,0.7,0.6,1.2,1h3.5
		c-0.7-0.6-1.4-1.2-1.9-1.7c-0.7-0.6-1.4-1.2-2.2-1.9l-2.2-2l0.1-0.2c0.6-0.9,1.1-1.9,1.4-2.9c0.3-0.9,0.5-1.9,0.5-2.9h-2.3
		c0,0.7-0.1,1.3-0.3,2c-0.2,0.7-0.5,1.4-0.9,2.1l-0.2,0.3l-0.2-0.2l-9.3-8.9l0.3-0.2c1-0.5,1.9-1,2.6-1.5c0.7-0.5,1.4-1.1,1.9-1.7
		c0.5-0.6,0.9-1.3,1.2-2c0.3-0.8,0.4-1.7,0.4-2.8c0-0.6-0.1-1.3-0.4-2c-0.3-0.7-0.7-1.3-1.2-1.9c-0.5-0.6-1.2-1.1-2-1.5
		C452.1,165.3,451.1,165.1,449.9,165.1z M449.9,196.3c-3.6,0-6.4-0.8-8.3-2.3c-2-1.5-3-3.7-3-6.5c0-0.9,0.1-1.7,0.3-2.4
		c0.2-0.8,0.5-1.5,1.1-2.2c0.5-0.7,1.3-1.5,2.2-2.2c0.9-0.7,2-1.4,3.3-2.2c-0.9-1.1-1.5-2.2-2-3.3c-0.5-1.2-0.7-2.6-0.7-4.2
		c0-0.6,0.1-1.3,0.4-2.1c0.3-0.8,0.7-1.5,1.3-2.1c0.6-0.7,1.3-1.2,2.2-1.6c0.9-0.4,2-0.7,3.3-0.7c1.2,0,2.3,0.2,3.2,0.6
		c0.9,0.4,1.6,1,2.2,1.6c0.6,0.6,1,1.3,1.3,2.1c0.3,0.8,0.4,1.5,0.4,2.2c0,1.1-0.1,2.2-0.4,3c-0.3,0.8-0.7,1.6-1.3,2.2
		c-0.5,0.6-1.2,1.2-2,1.7c-0.7,0.5-1.5,0.9-2.3,1.4l8.5,8.1c0.3-0.5,0.5-1.1,0.7-1.7c0.2-0.7,0.3-1.4,0.3-2.1v-0.3h3.4v0.3
		c0,1.1-0.2,2.3-0.5,3.3c-0.3,1-0.8,1.9-1.4,2.8l1.8,1.6c0.8,0.7,1.5,1.3,2.2,1.9c0.6,0.5,1.3,1.2,2.2,1.9l0.8,0.7H464l-0.1-0.1
		c-0.5-0.4-0.9-0.8-1.3-1.1c-0.4-0.3-0.8-0.7-1.3-1.2c-0.5-0.4-0.9-0.8-1.4-1.3c-1.3,1.2-2.8,2.1-4.4,2.8
		C453.7,196,451.9,196.3,449.9,196.3L449.9,196.3z"/>
	<path id="Fill-25" class="st0" d="M499.7,179.1c1.3,0.3,2.6,0.6,3.9,0.9c1.3,0.3,2.5,0.8,3.5,1.4c1,0.6,1.8,1.4,2.5,2.4
		c0.6,1,0.9,2.2,0.9,3.8c0,2.7-1,4.8-2.9,6.3c-2,1.5-4.7,2.2-8.2,2.2c-3.5,0-6.2-0.7-8.2-2.2c-1.9-1.5-2.9-3.6-2.9-6.3h2.9
		c0,1.2,0.3,2.2,0.8,3c0.6,0.7,1.3,1.3,2.1,1.7s1.7,0.7,2.7,0.8c1,0.1,1.8,0.2,2.6,0.2c0.8,0,1.6-0.1,2.6-0.2c1-0.1,1.9-0.4,2.7-0.8
		s1.5-1,2.1-1.7c0.6-0.7,0.9-1.7,0.9-3c0-0.8-0.1-1.6-0.4-2.1c-0.3-0.6-0.7-1.1-1.4-1.5c-0.7-0.4-1.5-0.8-2.6-1.1
		c-1.1-0.3-2.5-0.7-4.1-1c-1.3-0.3-2.6-0.6-3.9-0.9c-1.3-0.3-2.5-0.8-3.5-1.4s-1.8-1.4-2.5-2.4c-0.6-1-0.9-2.3-0.9-3.8
		c0-2.7,1-4.8,2.9-6.3c1.9-1.5,4.7-2.3,8.2-2.3c3.5,0,6.2,0.8,8.2,2.3c2,1.5,2.9,3.6,2.9,6.3h-2.9c0-1.2-0.3-2.2-0.9-3
		c-0.6-0.7-1.3-1.3-2.1-1.7c-0.8-0.4-1.7-0.7-2.7-0.8c-1-0.1-1.8-0.2-2.6-0.2c-0.8,0-1.6,0.1-2.6,0.2c-1,0.1-1.9,0.4-2.7,0.8
		c-0.8,0.4-1.5,1-2.1,1.7c-0.6,0.7-0.8,1.7-0.8,3c0,0.8,0.1,1.6,0.4,2.1c0.3,0.6,0.8,1.1,1.4,1.5c0.7,0.4,1.5,0.8,2.6,1.1
		C496.8,178.4,498.1,178.7,499.7,179.1"/>
	<path id="Fill-26" class="st0" d="M488.6,187.8c0.1,2.5,1,4.4,2.8,5.8c1.9,1.4,4.6,2.2,8,2.2c3.4,0,6.1-0.7,8-2.2
		c1.9-1.4,2.8-3.5,2.8-6c0-1.5-0.3-2.7-0.9-3.7c-0.6-0.9-1.4-1.7-2.4-2.3c-1-0.6-2.1-1.1-3.4-1.4c-1.4-0.4-2.7-0.7-3.9-0.9
		c-1.6-0.3-3-0.7-4.1-1c-1.1-0.3-2-0.7-2.7-1.2c-0.7-0.5-1.2-1-1.5-1.6c-0.3-0.6-0.5-1.4-0.5-2.3c0-1.3,0.3-2.3,0.9-3.1
		c0.6-0.8,1.3-1.4,2.2-1.8c0.9-0.4,1.8-0.7,2.8-0.8c1-0.1,1.8-0.2,2.6-0.2c0.8,0,1.6,0.1,2.6,0.2c1,0.1,1.9,0.4,2.8,0.8
		c0.9,0.4,1.6,1,2.2,1.8c0.6,0.7,0.9,1.7,0.9,2.9h2.3c-0.1-2.5-1-4.4-2.8-5.8c-1.9-1.5-4.6-2.2-8-2.2c-3.4,0-6.1,0.7-8,2.2
		c-1.9,1.4-2.8,3.5-2.8,6.1c0,1.5,0.3,2.7,0.9,3.7c0.6,0.9,1.4,1.7,2.4,2.3c1,0.6,2.1,1.1,3.4,1.4c1.3,0.3,2.6,0.6,3.9,0.9
		c1.6,0.3,3,0.7,4.1,1c1.1,0.3,2,0.7,2.7,1.1c0.7,0.4,1.2,1,1.5,1.6c0.3,0.6,0.4,1.4,0.4,2.2c0,1.3-0.3,2.3-0.9,3.1
		c-0.6,0.8-1.3,1.4-2.2,1.8c-0.9,0.4-1.8,0.7-2.8,0.8c-1,0.1-1.9,0.2-2.6,0.2c-0.8,0-1.6-0.1-2.6-0.2c-1-0.1-1.9-0.4-2.8-0.8
		c-0.9-0.4-1.6-1-2.2-1.8c-0.6-0.7-0.9-1.7-0.9-2.8H488.6z M499.4,196.3c-3.6,0-6.4-0.8-8.3-2.3c-2-1.5-3-3.7-3-6.5v-0.3h3.4v0.3
		c0,1.2,0.3,2.1,0.8,2.8c0.5,0.7,1.2,1.3,2,1.6c0.8,0.4,1.7,0.7,2.6,0.8c1,0.1,1.8,0.2,2.6,0.2c0.7,0,1.6-0.1,2.6-0.2
		c0.9-0.1,1.8-0.4,2.6-0.8c0.8-0.4,1.5-0.9,2-1.6c0.5-0.7,0.8-1.6,0.8-2.8c0-0.8-0.1-1.5-0.4-2c-0.3-0.5-0.7-1-1.3-1.4
		c-0.6-0.4-1.5-0.8-2.6-1.1c-1.1-0.3-2.5-0.7-4.1-1c-1.3-0.3-2.6-0.6-3.9-0.9c-1.3-0.3-2.5-0.8-3.5-1.4c-1-0.6-1.9-1.4-2.6-2.5
		c-0.7-1-1-2.4-1-4c0-2.8,1-4.9,3-6.5c2-1.5,4.8-2.3,8.3-2.3c3.5,0,6.4,0.8,8.3,2.3c2,1.6,3,3.7,3,6.5v0.3h-3.4v-0.3
		c0-1.2-0.3-2.1-0.8-2.8c-0.5-0.7-1.2-1.3-2-1.6c-0.8-0.4-1.7-0.7-2.6-0.8c-0.9-0.1-1.8-0.2-2.6-0.2c-0.7,0-1.6,0.1-2.6,0.2
		c-0.9,0.1-1.8,0.4-2.6,0.8c-0.8,0.4-1.5,0.9-2,1.6c-0.5,0.7-0.8,1.6-0.8,2.8c0,0.8,0.1,1.5,0.4,2c0.3,0.5,0.7,1,1.3,1.4
		c0.6,0.4,1.5,0.8,2.6,1.1c1.1,0.3,2.4,0.6,4,1c1.3,0.3,2.5,0.6,3.9,0.9c1.3,0.4,2.5,0.8,3.5,1.4c1,0.6,1.9,1.4,2.5,2.4
		c0.7,1,1,2.3,1,3.9c0,2.8-1,4.9-3,6.5C505.8,195.6,502.9,196.3,499.4,196.3L499.4,196.3z"/>
	<path id="Fill-27" class="st0" d="M532.8,183.4c-0.2-2.3-1.1-4-2.5-5.2c-1.4-1.2-3.4-1.8-5.8-1.8c-2.5,0-4.4,0.6-5.8,1.8
		c-1.4,1.2-2.2,2.9-2.4,5.2H532.8z M524.5,173.5c3.6,0,6.3,1,8.3,3c2,2,3,4.7,3,8.3v0c0,0.4-0.1,0.8-0.4,1c-0.3,0.3-0.6,0.4-1,0.4
		h-18.1c0.2,2.2,1.1,4,2.5,5.1s3.3,1.8,5.8,1.8c2.7,0,4.7-0.7,6.1-2.1l2,2.1c-2,1.9-4.7,2.9-8.1,2.9c-3.5,0-6.3-1-8.2-3
		c-2-2-3-4.7-3-8.2v0c0-3.5,1-6.3,3-8.3C518.2,174.5,520.9,173.5,524.5,173.5L524.5,173.5z"/>
	<path id="Fill-28" class="st0" d="M516.5,183.1h16c-0.3-2-1.1-3.6-2.4-4.7c-1.4-1.1-3.3-1.7-5.7-1.7c-2.4,0-4.3,0.6-5.7,1.7
		C517.5,179.5,516.8,181.1,516.5,183.1z M533.1,183.7h-17.2l0-0.3c0.2-2.3,1.1-4.1,2.5-5.4c1.5-1.2,3.5-1.8,6-1.8
		c2.5,0,4.6,0.6,6,1.8c1.5,1.2,2.3,3,2.6,5.4L533.1,183.7z M524.5,173.8c-3.5,0-6.2,1-8.1,2.9c-1.9,1.9-2.9,4.6-2.9,8.1
		c0,3.5,1,6.2,2.9,8.1c1.9,1.9,4.6,2.9,8.1,2.9c3.2,0,5.8-0.9,7.7-2.6l-1.6-1.7c-1.5,1.3-3.5,1.9-6.1,1.9c-2.5,0-4.5-0.6-6-1.8
		c-1.4-1.2-2.3-3-2.6-5.3l0-0.3h18.4c0.3,0,0.6-0.1,0.8-0.3c0.2-0.2,0.3-0.5,0.3-0.8c0-3.5-1-6.2-2.9-8.1
		C530.7,174.8,528,173.8,524.5,173.8z M524.5,196.3c-3.6,0-6.4-1-8.4-3c-2-2-3-4.9-3-8.4c0-3.6,1-6.5,3-8.5c2-2,4.9-3.1,8.5-3.1
		c3.6,0,6.5,1,8.5,3.1c2,2,3,4.9,3,8.5c0,0.5-0.2,0.9-0.5,1.3c-0.3,0.3-0.7,0.5-1.2,0.5h-17.8c0.3,2,1.1,3.6,2.3,4.7
		c1.3,1.1,3.2,1.7,5.6,1.7c2.6,0,4.6-0.7,5.9-2l0.2-0.2l2.4,2.4l-0.2,0.2C530.7,195.3,527.9,196.3,524.5,196.3L524.5,196.3z"/>
	<path id="Fill-29" class="st0" d="M541.4,184.8c0,2.7,0.7,4.8,2.1,6.2c1.4,1.4,3.5,2.2,6.2,2.2c2.7,0,4.8-0.7,6.2-2.2
		c1.4-1.4,2.2-3.5,2.2-6.2c0-2.7-0.7-4.8-2.2-6.2c-1.4-1.4-3.5-2.1-6.2-2.1c-2.7,0-4.8,0.7-6.2,2.1
		C542.1,180,541.4,182.1,541.4,184.8z M538.5,184.8c0-3.6,1-6.3,3-8.3c2-2,4.7-3,8.3-3c1.8,0,3.4,0.3,4.8,0.8
		c1.4,0.5,2.6,1.3,3.6,2.3v-12.8h2.8v20.9c0,3.5-1,6.3-3,8.2c-2,2-4.7,3-8.2,3c-3.6,0-6.3-1-8.3-3
		C539.5,191.1,538.5,188.4,538.5,184.8L538.5,184.8z"/>
	<path id="Fill-30" class="st0" d="M549.7,176.7c-2.6,0-4.7,0.7-6.1,2.1c-1.4,1.4-2.1,3.4-2.1,6c0,2.6,0.7,4.6,2.1,6
		c1.4,1.4,3.4,2.1,6,2.1c2.6,0,4.6-0.7,6-2.1c1.4-1.4,2.1-3.4,2.1-6c0-2.6-0.7-4.7-2.1-6C554.4,177.4,552.4,176.7,549.7,176.7z
		 M549.7,193.5c-2.8,0-5-0.8-6.4-2.2c-1.5-1.5-2.2-3.6-2.2-6.4c0-2.8,0.7-5,2.2-6.4c1.5-1.5,3.6-2.2,6.4-2.2c2.8,0,4.9,0.7,6.4,2.2
		c1.5,1.5,2.2,3.6,2.2,6.4c0,2.8-0.8,4.9-2.2,6.4C554.7,192.7,552.5,193.5,549.7,193.5z M549.7,173.8c-3.5,0-6.2,1-8.1,2.9
		c-1.9,1.9-2.9,4.6-2.9,8.1c0,3.4,1,6.1,2.9,8.1c1.9,1.9,4.6,2.9,8.1,2.9c3.4,0,6.2-1,8.1-2.9c1.9-1.9,2.9-4.6,2.9-8.1v-20.7h-2.3
		v13.2l-0.5-0.5c-0.9-1-2.1-1.7-3.5-2.2C553.1,174.1,551.5,173.8,549.7,173.8z M549.7,196.3c-3.6,0-6.5-1-8.5-3c-2-2-3-4.9-3-8.4
		c0-3.6,1-6.5,3-8.5c2-2,4.9-3,8.5-3c1.8,0,3.5,0.3,4.9,0.8c1.2,0.5,2.3,1.1,3.2,1.9v-12.4h3.4v21.2c0,3.6-1,6.4-3,8.4
		C556.2,195.3,553.3,196.3,549.7,196.3L549.7,196.3z"/>
	<path id="Fill-31" class="st0" d="M584.7,185.4h-8.4c-1.8,0-3.3,0-4.4,0.1c-1.1,0.1-2,0.3-2.5,0.6c-0.6,0.3-1,0.7-1.1,1.3
		s-0.3,1.3-0.3,2.3c0,0.6,0.2,1.2,0.7,1.6c0.5,0.4,1.1,0.8,1.9,1.1c0.8,0.3,1.7,0.5,2.7,0.6c1,0.1,2,0.2,3,0.2c1,0,2-0.1,3-0.2
		c1-0.1,1.9-0.3,2.7-0.6c0.8-0.3,1.4-0.6,1.9-1.1c0.5-0.4,0.7-1,0.7-1.6V185.4z M576.3,173.5c3.6,0,6.3,1,8.3,3c2,2,3,4.7,3,8.3v4.9
		c0,0.5-0.1,1.1-0.3,1.8c-0.2,0.7-0.7,1.4-1.5,2.1c-0.8,0.7-1.9,1.2-3.4,1.7c-1.5,0.5-3.5,0.7-6,0.7c-2.5,0-4.6-0.2-6-0.7
		c-1.5-0.5-2.6-1.1-3.4-1.7c-0.8-0.7-1.3-1.4-1.5-2.1c-0.2-0.7-0.3-1.3-0.3-1.8c0-1.7,0.3-3,0.8-3.9c0.5-1,1.2-1.7,2.1-2.2
		c0.9-0.5,1.9-0.8,3.1-0.9c1.2-0.1,2.5-0.2,3.8-0.2h9.6c-0.4-2-1.3-3.5-2.6-4.5c-1.4-1-3.2-1.6-5.5-1.6c-2.4,0-4.3,0.6-5.7,1.7
		l-1.8-2.3C570.8,174.3,573.3,173.5,576.3,173.5L576.3,173.5z"/>
	<path id="Fill-32" class="st0" d="M576.3,185.6c-1.9,0-3.3,0-4.4,0.1c-1.1,0.1-1.9,0.3-2.4,0.6c-0.5,0.3-0.9,0.6-1,1.2
		c-0.2,0.5-0.3,1.3-0.3,2.2c0,0.6,0.2,1,0.6,1.4c0.5,0.4,1.1,0.8,1.8,1c0.8,0.3,1.6,0.5,2.6,0.6c1.9,0.2,4,0.2,6,0
		c1-0.1,1.9-0.3,2.6-0.6c0.8-0.3,1.4-0.6,1.8-1c0.4-0.4,0.6-0.8,0.6-1.4v-4.1H576.3z M576.3,193.4c-1,0-2.1-0.1-3-0.2
		c-1-0.1-1.9-0.3-2.7-0.6c-0.8-0.3-1.5-0.7-2-1.1c-0.5-0.5-0.8-1.1-0.8-1.8c0-1,0.1-1.8,0.3-2.4c0.2-0.6,0.6-1.1,1.3-1.5
		c0.6-0.3,1.5-0.5,2.6-0.6c1.1-0.1,2.6-0.1,4.4-0.1h8.6v4.6c0,0.7-0.3,1.3-0.8,1.8c-0.5,0.5-1.2,0.8-2,1.1c-0.8,0.3-1.7,0.5-2.7,0.6
		C578.4,193.4,577.3,193.4,576.3,193.4z M574.9,182.7c-1.4,0-2.6,0.1-3.8,0.2c-1.2,0.1-2.2,0.4-3,0.9c-0.8,0.5-1.5,1.1-2,2
		c-0.5,0.9-0.7,2.2-0.7,3.8c0,0.4,0.1,1,0.3,1.7c0.2,0.7,0.7,1.3,1.4,2c0.7,0.6,1.9,1.2,3.3,1.7c1.4,0.5,3.4,0.7,5.9,0.7
		c2.5,0,4.5-0.2,5.9-0.7c1.4-0.5,2.5-1,3.3-1.7c0.7-0.6,1.2-1.3,1.4-2c0.2-0.7,0.3-1.3,0.3-1.7v-4.9c0-3.4-1-6.2-2.9-8.1
		c-1.9-1.9-4.6-2.9-8.1-2.9c-2.9,0-5.2,0.7-7.1,2.1l1.4,1.8c1.5-1.1,3.4-1.6,5.7-1.6c2.4,0,4.3,0.5,5.7,1.6c1.4,1.1,2.3,2.6,2.7,4.7
		l0.1,0.3H574.9z M576.3,196.3c-2.6,0-4.6-0.2-6.1-0.7c-1.5-0.5-2.7-1.1-3.5-1.8c-0.8-0.7-1.3-1.4-1.6-2.2c-0.2-0.7-0.3-1.4-0.3-1.9
		c0-1.7,0.3-3.1,0.8-4.1c0.5-1,1.3-1.8,2.2-2.3c0.9-0.5,2-0.8,3.2-1c1.2-0.1,2.5-0.2,3.9-0.2h9.3c-0.4-1.7-1.2-3.1-2.5-4
		c-1.3-1-3.1-1.5-5.4-1.5c-2.3,0-4.1,0.5-5.5,1.6l-0.2,0.2l-2.1-2.7l0.2-0.2c2-1.6,4.5-2.4,7.6-2.4c3.6,0,6.5,1,8.5,3.1
		c2,2,3,4.9,3,8.5v4.9c0,0.5-0.1,1.1-0.3,1.9c-0.2,0.8-0.8,1.5-1.6,2.2c-0.8,0.7-2,1.3-3.5,1.8C580.9,196,578.9,196.3,576.3,196.3
		L576.3,196.3z"/>
	<polyline id="Fill-33" class="st0" points="606.1,176.7 600.1,176.7 600.1,195.8 597.2,195.8 597.2,176.7 591.2,176.7 591.2,173.8 
		597.2,173.8 597.2,163.8 600.1,163.8 600.1,173.8 606.1,173.8 606.1,176.7 	"/>
	<path id="Fill-34" class="st0" d="M597.5,195.5h2.3v-19.1h6v-2.3h-6v-10h-2.3v10h-6v2.3h6V195.5z M600.4,196.1H597V177h-6v-3.4h6
		v-10h3.4v10h6v3.4h-6V196.1L600.4,196.1z"/>
	<path id="Fill-35" class="st0" d="M611.2,195.8h2.9V174h-2.9V195.8z M611.2,167.7h2.9v-3.9h-2.9V167.7z"/>
	<path id="Fill-36" class="st0" d="M611.5,167.4h2.3v-3.3h-2.3V167.4z M611,168h3.4v-4.4H611V168z M611.5,195.5h2.3v-21.3h-2.3
		V195.5z M611,196.1h3.4v-22.4H611V196.1z"/>
	<path id="Fill-37" class="st0" d="M629.9,176.4c-2.7,0-4.8,0.7-6.2,2.1c-1.4,1.4-2.1,3.5-2.1,6.2c0,2.7,0.7,4.8,2.1,6.2
		c1.4,1.4,3.5,2.1,6.2,2.1c2.7,0,4.8-0.7,6.2-2.1c1.4-1.4,2.1-3.5,2.1-6.2c0-2.7-0.7-4.8-2.1-6.2
		C634.8,177.1,632.7,176.4,629.9,176.4z M629.9,196c-3.6,0-6.3-1-8.3-3c-2-2-3-4.7-3-8.3c0-3.5,1-6.3,3-8.3c2-2,4.7-3,8.3-3
		c3.6,0,6.3,1,8.3,3c2,2,3,4.7,3,8.3c0,3.6-1,6.3-3,8.3C636.3,195,633.5,196,629.9,196L629.9,196z"/>
	<path id="Fill-38" class="st0" d="M629.9,176.7c-2.7,0-4.7,0.7-6,2.1c-1.4,1.4-2.1,3.4-2.1,6c0,2.6,0.7,4.7,2.1,6
		c1.4,1.4,3.4,2.1,6,2.1c2.7,0,4.7-0.7,6-2.1c1.4-1.4,2.1-3.4,2.1-6c0-2.7-0.7-4.7-2.1-6C634.6,177.4,632.6,176.7,629.9,176.7z
		 M629.9,193.4c-2.8,0-5-0.7-6.4-2.2c-1.5-1.5-2.2-3.6-2.2-6.4c0-2.8,0.7-5,2.2-6.4c1.5-1.5,3.6-2.2,6.4-2.2c2.8,0,5,0.7,6.4,2.2
		c1.5,1.5,2.2,3.6,2.2,6.4c0,2.8-0.7,5-2.2,6.4C634.9,192.7,632.7,193.4,629.9,193.4z M629.9,173.8c-3.5,0-6.2,1-8.1,2.9
		c-1.9,1.9-2.9,4.6-2.9,8.1c0,3.5,1,6.2,2.9,8.1c1.9,1.9,4.6,2.9,8.1,2.9c3.5,0,6.2-1,8.1-2.9c1.9-1.9,2.9-4.6,2.9-8.1
		c0-3.4-1-6.2-2.9-8.1C636.1,174.8,633.4,173.8,629.9,173.8z M629.9,196.3c-3.6,0-6.5-1-8.5-3c-2-2-3-4.9-3-8.5c0-3.6,1-6.4,3-8.5
		c2-2,4.9-3.1,8.5-3.1c3.6,0,6.5,1,8.5,3.1c2,2,3,4.9,3,8.5c0,3.6-1,6.5-3,8.5C636.4,195.3,633.6,196.3,629.9,196.3L629.9,196.3z"/>
	<path id="Fill-39" class="st0" d="M665.4,195.8h-2.9v-11c0-2.7-0.6-4.8-1.8-6.2c-1.2-1.4-3-2.2-5.3-2.2s-4.1,0.7-5.3,2.2
		c-1.2,1.4-1.8,3.5-1.8,6.2v11h-2.9v-11c0-3.5,0.9-6.3,2.6-8.3c1.7-2,4.2-3,7.3-3c3.1,0,5.6,1,7.3,3c1.8,2,2.6,4.7,2.6,8.3V195.8"/>
	<path id="Fill-40" class="st0" d="M662.8,195.5h2.3v-10.7c0-3.4-0.9-6.2-2.6-8.1c-1.7-1.9-4.1-2.9-7.1-2.9c-3,0-5.4,1-7.1,2.9
		c-1.7,1.9-2.5,4.6-2.5,8.1v10.7h2.3v-10.7c0-2.8,0.6-4.9,1.9-6.4c1.3-1.5,3.1-2.3,5.5-2.3c2.4,0,4.2,0.8,5.5,2.3
		c1.2,1.5,1.9,3.6,1.9,6.4V195.5z M665.7,196.1h-3.4v-11.3c0-2.6-0.6-4.7-1.7-6c-1.1-1.4-2.8-2.1-5-2.1c-2.2,0-3.9,0.7-5,2.1
		c-1.2,1.4-1.7,3.4-1.7,6v11.3h-3.4v-11.3c0-3.6,0.9-6.4,2.7-8.4c1.8-2,4.3-3.1,7.5-3.1c3.2,0,5.7,1,7.5,3.1c1.8,2,2.7,4.9,2.7,8.4
		V196.1L665.7,196.1z"/>
	<path id="Fill-41" class="st0" d="M692.1,192.9h6c4.1,0,7.2-1.1,9.4-3.3c2.2-2.2,3.3-5.3,3.3-9.3c0-4.1-1.1-7.2-3.2-9.3
		c-2.1-2.1-5.2-3.2-9.3-3.2h-6.2V192.9z M698.1,195.8h-7.4c-0.4,0-0.7-0.1-1-0.4c-0.3-0.3-0.4-0.6-0.4-1v-27.9c0-0.4,0.1-0.7,0.4-1
		c0.3-0.3,0.6-0.4,1-0.4h7.7c2.4,0,4.6,0.4,6.5,1c1.9,0.7,3.5,1.7,4.8,3c1.3,1.3,2.3,2.9,3,4.8c0.7,1.9,1,4.1,1,6.5
		c0,2.4-0.4,4.5-1.1,6.4c-0.7,1.9-1.8,3.5-3.1,4.8c-1.4,1.3-3,2.4-4.9,3.1C702.7,195.5,700.5,195.8,698.1,195.8L698.1,195.8z"/>
	<path id="Fill-42" class="st0" d="M692.4,192.7h5.7c4,0,7.1-1.1,9.2-3.2c2.1-2.1,3.2-5.2,3.2-9.1c0-4-1-7.1-3.1-9.1
		c-2.1-2.1-5.1-3.1-9.1-3.1h-6V192.7z M698.1,193.2h-6.3v-25.6h6.5c4.1,0,7.3,1.1,9.5,3.3c2.2,2.2,3.3,5.4,3.3,9.5
		c0,4.1-1.1,7.2-3.4,9.4C705.5,192.1,702.2,193.2,698.1,193.2z M690.7,165.3c-0.3,0-0.6,0.1-0.8,0.3c-0.2,0.2-0.3,0.5-0.3,0.8v27.9
		c0,0.3,0.1,0.6,0.4,0.8c0.2,0.2,0.5,0.4,0.8,0.4h7.4c2.4,0,4.5-0.4,6.4-1c1.9-0.7,3.5-1.7,4.8-3c1.3-1.3,2.3-2.9,3.1-4.7
		c0.7-1.9,1.1-4,1.1-6.3c0-2.4-0.3-4.5-1-6.4c-0.7-1.9-1.7-3.4-3-4.7c-1.3-1.3-2.9-2.3-4.7-3c-1.9-0.7-4-1-6.4-1H690.7z
		 M698.1,196.1h-7.4c-0.5,0-0.9-0.2-1.2-0.5c-0.3-0.3-0.5-0.7-0.5-1.2v-27.9c0-0.5,0.2-0.9,0.5-1.2c0.3-0.3,0.7-0.5,1.2-0.5h7.7
		c2.4,0,4.6,0.4,6.6,1.1c1.9,0.7,3.6,1.7,4.9,3.1c1.3,1.3,2.4,3,3.1,4.9c0.7,1.9,1.1,4.1,1.1,6.6c0,2.4-0.4,4.6-1.1,6.5
		c-0.7,1.9-1.8,3.6-3.2,4.9c-1.4,1.4-3.1,2.4-5,3.1C702.7,195.7,700.5,196.1,698.1,196.1L698.1,196.1z"/>
	<path id="Fill-43" class="st0" d="M736.1,183.4c-0.2-2.3-1.1-4-2.5-5.2c-1.4-1.2-3.4-1.8-5.8-1.8c-2.5,0-4.4,0.6-5.8,1.8
		c-1.4,1.2-2.2,2.9-2.4,5.2H736.1z M727.8,173.5c3.6,0,6.3,1,8.3,3c2,2,3,4.7,3,8.3v0c0,0.4-0.1,0.8-0.4,1c-0.3,0.3-0.6,0.4-1,0.4
		h-18.1c0.2,2.2,1.1,4,2.5,5.1s3.3,1.8,5.8,1.8c2.7,0,4.7-0.7,6.1-2.1l2,2.1c-2,1.9-4.7,2.9-8.1,2.9c-3.5,0-6.3-1-8.2-3
		c-2-2-3-4.7-3-8.2v0c0-3.5,1-6.3,3-8.3C721.5,174.5,724.2,173.5,727.8,173.5L727.8,173.5z"/>
	<path id="Fill-44" class="st0" d="M719.8,183.1h16c-0.3-2-1.1-3.6-2.4-4.7c-1.4-1.1-3.3-1.7-5.7-1.7c-2.4,0-4.3,0.6-5.7,1.7
		C720.8,179.5,720,181.1,719.8,183.1z M736.4,183.7h-17.2l0-0.3c0.2-2.3,1.1-4.1,2.5-5.4c1.5-1.2,3.5-1.8,6-1.8c2.5,0,4.6,0.6,6,1.8
		c1.5,1.2,2.3,3,2.6,5.4L736.4,183.7z M727.8,173.8c-3.5,0-6.2,1-8.1,2.9c-1.9,1.9-2.9,4.6-2.9,8.1c0,3.5,1,6.2,2.9,8.1
		c1.9,1.9,4.6,2.9,8.1,2.9c3.2,0,5.8-0.9,7.7-2.6l-1.6-1.7c-1.5,1.3-3.5,1.9-6.1,1.9c-2.5,0-4.5-0.6-6-1.8c-1.4-1.2-2.3-3-2.6-5.3
		l0-0.3h18.4c0.3,0,0.6-0.1,0.8-0.3c0.2-0.2,0.3-0.5,0.3-0.8c0-3.5-1-6.2-2.9-8.1C734,174.8,731.2,173.8,727.8,173.8z M727.7,196.3
		c-3.6,0-6.4-1-8.4-3c-2-2-3-4.9-3-8.4c0-3.6,1-6.5,3-8.5c2-2,4.9-3.1,8.5-3.1c3.6,0,6.5,1,8.5,3.1c2,2,3,4.9,3,8.5
		c0,0.5-0.2,0.9-0.5,1.3c-0.3,0.3-0.7,0.5-1.2,0.5h-17.8c0.3,2,1.1,3.6,2.3,4.7c1.3,1.1,3.2,1.7,5.6,1.7c2.6,0,4.6-0.7,5.9-2
		l0.2-0.2l2.4,2.4l-0.2,0.2C734,195.3,731.2,196.3,727.7,196.3L727.7,196.3z"/>
	<path id="Fill-45" class="st0" d="M763.3,195.8h-2.9v-11c0-2.7-0.6-4.8-1.8-6.2c-1.2-1.4-3-2.2-5.3-2.2c-2.3,0-4.1,0.7-5.3,2.2
		c-1.2,1.4-1.8,3.5-1.8,6.2v11h-2.9v-11c0-3.5,0.9-6.3,2.6-8.3c1.7-2,4.2-3,7.3-3c3.1,0,5.6,1,7.3,3c1.8,2,2.6,4.7,2.6,8.3V195.8"/>
	<path id="Fill-46" class="st0" d="M760.7,195.5h2.3v-10.7c0-3.4-0.9-6.2-2.6-8.1c-1.7-1.9-4.1-2.9-7.1-2.9c-3.1,0-5.4,1-7.1,2.9
		c-1.7,1.9-2.5,4.6-2.5,8.1v10.7h2.3v-10.7c0-2.8,0.6-4.9,1.9-6.4c1.2-1.5,3.1-2.3,5.5-2.3c2.4,0,4.2,0.8,5.5,2.3
		c1.2,1.5,1.9,3.6,1.9,6.4V195.5z M763.5,196.1h-3.4v-11.3c0-2.6-0.6-4.7-1.7-6c-1.1-1.4-2.8-2.1-5-2.1c-2.2,0-3.9,0.7-5,2.1
		c-1.2,1.4-1.7,3.4-1.7,6v11.3h-3.4v-11.3c0-3.6,0.9-6.4,2.7-8.4c1.8-2,4.3-3.1,7.5-3.1c3.2,0,5.7,1,7.5,3.1c1.8,2,2.7,4.9,2.7,8.4
		V196.1L763.5,196.1z"/>
	<polyline id="Fill-47" class="st0" points="782,176.7 776,176.7 776,195.8 773.1,195.8 773.1,176.7 767.1,176.7 767.1,173.8 
		773.1,173.8 773.1,163.8 776,163.8 776,173.8 782,173.8 782,176.7 	"/>
	<path id="Fill-48" class="st0" d="M773.4,195.5h2.3v-19.1h6v-2.3h-6v-10h-2.3v10h-6v2.3h6V195.5z M776.3,196.1h-3.4V177h-6v-3.4h6
		v-10h3.4v10h6v3.4h-6V196.1L776.3,196.1z"/>
	<path id="Fill-49" class="st0" d="M787.1,195.8h2.9V174h-2.9V195.8z M787.1,167.7h2.9v-3.9h-2.9V167.7z"/>
	<path id="Fill-50" class="st0" d="M787.4,167.4h2.3v-3.3h-2.3V167.4z M786.9,168h3.4v-4.4h-3.4V168z M787.4,195.5h2.3v-21.3h-2.3
		V195.5z M786.9,196.1h3.4v-22.4h-3.4V196.1z"/>
	<path id="Fill-51" class="st0" d="M803,183.4c0.9,0.2,1.8,0.4,2.7,0.6c0.9,0.2,1.8,0.6,2.5,1c0.8,0.5,1.4,1,1.8,1.8
		c0.5,0.7,0.7,1.7,0.7,2.8c0,2-0.7,3.5-2.2,4.6c-1.5,1.1-3.4,1.7-5.9,1.7c-2.5,0-4.5-0.6-6-1.7c-1.4-1.1-2.2-2.7-2.2-4.6h2.9
		c0,0.7,0.2,1.3,0.5,1.7c0.3,0.5,0.7,0.8,1.2,1.1c0.5,0.3,1.1,0.4,1.7,0.5c0.6,0.1,1.2,0.1,1.8,0.1c0.6,0,1.2,0,1.8-0.1
		c0.6-0.1,1.2-0.3,1.7-0.5c0.5-0.3,0.9-0.6,1.2-1.1c0.3-0.5,0.5-1,0.5-1.7c0-0.5-0.1-0.9-0.2-1.2c-0.2-0.3-0.4-0.6-0.8-0.9
		c-0.4-0.3-1-0.5-1.7-0.7c-0.7-0.2-1.7-0.4-2.8-0.7c-0.9-0.2-1.8-0.4-2.8-0.7c-0.9-0.2-1.8-0.6-2.5-1c-0.8-0.5-1.4-1-1.8-1.8
		c-0.5-0.7-0.7-1.7-0.7-2.9c0-2,0.7-3.5,2.2-4.6c1.5-1.1,3.4-1.7,6-1.7c2.5,0,4.5,0.6,5.9,1.7c1.4,1.1,2.2,2.7,2.2,4.6H808
		c0-0.7-0.2-1.3-0.5-1.7c-0.3-0.5-0.7-0.8-1.2-1c-0.5-0.2-1.1-0.4-1.7-0.5c-0.6-0.1-1.2-0.1-1.8-0.1c-0.6,0-1.2,0-1.8,0.1
		c-0.6,0.1-1.2,0.3-1.7,0.5c-0.5,0.2-0.9,0.6-1.2,1c-0.3,0.5-0.5,1-0.5,1.7c0,0.5,0.1,0.9,0.2,1.2c0.1,0.3,0.4,0.6,0.8,0.9
		c0.4,0.3,1,0.5,1.7,0.8C800.8,182.9,801.8,183.2,803,183.4"/>
	<path id="Fill-52" class="st0" d="M794.9,190c0.1,1.8,0.7,3.1,2.1,4.2c1.4,1.1,3.3,1.6,5.8,1.6c2.4,0,4.3-0.5,5.7-1.6
		c1.4-1.1,2.1-2.5,2.1-4.4c0-1.1-0.2-2-0.7-2.7c-0.4-0.7-1-1.3-1.7-1.7c-0.7-0.4-1.6-0.8-2.5-1c-1-0.2-1.9-0.5-2.7-0.6
		c-1.2-0.3-2.2-0.5-2.9-0.7c-0.7-0.3-1.3-0.5-1.7-0.8c-0.4-0.3-0.7-0.6-0.9-1c-0.1-0.4-0.2-0.8-0.2-1.3c0-0.8,0.2-1.4,0.5-1.9
		c0.3-0.5,0.8-0.9,1.3-1.1c0.5-0.3,1.1-0.4,1.8-0.5c1.2-0.2,2.5-0.2,3.8,0c0.6,0.1,1.2,0.3,1.8,0.5c0.5,0.3,1,0.6,1.3,1.1
		c0.3,0.4,0.5,1,0.5,1.6h2.3c-0.1-1.8-0.7-3.1-2.1-4.2c-1.4-1.1-3.3-1.6-5.7-1.6c-2.4,0-4.4,0.5-5.8,1.6c-1.4,1.1-2.1,2.5-2.1,4.4
		c0,1.1,0.2,2,0.7,2.7c0.4,0.7,1,1.3,1.7,1.7c0.7,0.4,1.5,0.8,2.5,1c0.9,0.2,1.8,0.5,2.7,0.7c1.1,0.2,2.1,0.5,2.8,0.7
		c0.8,0.2,1.4,0.5,1.8,0.7c0.5,0.3,0.8,0.6,0.9,1c0.2,0.4,0.3,0.8,0.3,1.3c0,0.8-0.2,1.4-0.5,1.9c-0.3,0.5-0.8,0.9-1.3,1.1
		c-0.5,0.3-1.1,0.5-1.8,0.6c-1.3,0.2-2.4,0.2-3.8,0c-0.7-0.1-1.3-0.3-1.8-0.6c-0.5-0.3-1-0.7-1.3-1.2c-0.3-0.4-0.5-1-0.5-1.6H794.9z
		 M802.7,196.3c-2.6,0-4.6-0.6-6.1-1.7c-1.5-1.2-2.3-2.8-2.3-4.9v-0.3h3.4v0.3c0,0.7,0.1,1.2,0.4,1.6c0.3,0.4,0.7,0.7,1.1,1
		c0.5,0.2,1,0.4,1.6,0.5c1.3,0.2,2.4,0.2,3.6,0c0.6-0.1,1.1-0.3,1.6-0.5c0.5-0.2,0.9-0.6,1.2-1c0.3-0.4,0.4-0.9,0.4-1.6
		c0-0.4-0.1-0.8-0.2-1.1c-0.1-0.3-0.4-0.5-0.7-0.8c-0.4-0.2-0.9-0.5-1.6-0.7c-0.7-0.2-1.7-0.4-2.8-0.7c-0.9-0.2-1.9-0.4-2.8-0.7
		c-1-0.3-1.8-0.6-2.6-1.1c-0.8-0.5-1.4-1.1-1.9-1.9c-0.5-0.8-0.7-1.8-0.7-3c0-2,0.8-3.7,2.3-4.9c1.5-1.2,3.5-1.7,6.1-1.7
		c2.5,0,4.6,0.6,6.1,1.7c1.5,1.2,2.3,2.8,2.3,4.9v0.3h-3.4v-0.3c0-0.7-0.1-1.2-0.4-1.6c-0.3-0.4-0.7-0.7-1.1-1
		c-0.5-0.2-1-0.4-1.6-0.5c-1.2-0.2-2.4-0.2-3.6,0c-0.6,0.1-1.1,0.3-1.6,0.5c-0.5,0.2-0.8,0.5-1.1,1c-0.3,0.4-0.4,0.9-0.4,1.6
		c0,0.4,0.1,0.8,0.2,1.1c0.1,0.3,0.3,0.5,0.7,0.8c0.4,0.2,0.9,0.5,1.6,0.7c0.7,0.2,1.6,0.5,2.9,0.7c0.9,0.2,1.8,0.4,2.8,0.6
		c1,0.2,1.8,0.6,2.6,1.1c0.8,0.5,1.4,1.1,1.9,1.9c0.5,0.8,0.7,1.8,0.7,3c0,2-0.8,3.7-2.3,4.9C807.3,195.7,805.3,196.3,802.7,196.3
		L802.7,196.3z"/>
	<polyline id="Fill-53" class="st0" points="828.3,176.7 822.3,176.7 822.3,195.8 819.4,195.8 819.4,176.7 813.4,176.7 813.4,173.8 
		819.4,173.8 819.4,163.8 822.3,163.8 822.3,173.8 828.3,173.8 828.3,176.7 	"/>
	<path id="Fill-54" class="st0" d="M819.7,195.5h2.3v-19.1h6v-2.3h-6v-10h-2.3v10h-6v2.3h6V195.5z M822.6,196.1h-3.4V177h-6v-3.4h6
		v-10h3.4v10h6v3.4h-6V196.1L822.6,196.1z"/>
	<path id="Fill-55" class="st0" d="M835.3,176.6c1.8-2,4.4-3,7.7-3v2.9c-2.5,0-4.3,0.7-5.6,2.2s-1.9,3.5-1.9,6.2v11h-2.9v-11
		C832.5,181.3,833.4,178.5,835.3,176.6"/>
	<path id="Fill-56" class="st0" d="M832.8,195.5h2.3v-10.7c0-2.8,0.7-4.9,2-6.4c1.3-1.4,3.2-2.2,5.6-2.2v-2.3
		c-3.1,0.1-5.5,1-7.2,2.9c-1.8,1.9-2.7,4.6-2.7,8.1V195.5z M835.7,196.1h-3.4v-11.3c0-3.6,0.9-6.4,2.8-8.5c1.9-2,4.5-3.1,7.9-3.1
		h0.3v3.4h-0.3c-2.4,0-4.2,0.7-5.4,2.1c-1.2,1.4-1.9,3.4-1.9,6V196.1L835.7,196.1z"/>
	<polyline id="Fill-57" class="st0" points="867,174 853.4,204.8 850.3,204.8 854.7,194.8 845.5,174 848.6,174 856.2,191.3 
		863.9,174 867,174 	"/>
	<g id="Group-61" transform="translate(0.060000, 0.174000)">
		<g id="Clip-59">
		</g>
		<defs>
			<filter id="Adobe_OpacityMaskFilter" filterUnits="userSpaceOnUse" x="845" y="173.5" width="22.4" height="31.4">
				<feColorMatrix  type="matrix" values="1 0 0 0 0  0 1 0 0 0  0 0 1 0 0  0 0 0 1 0"/>
			</filter>
		</defs>
		
			<mask maskUnits="userSpaceOnUse" x="845" y="173.5" width="22.4" height="31.4" id="mask-2_00000142134500509245342080000015536003170966036922_">
			<g class="st1">
				<polygon id="path-1_00000049928745281918683530000000895741448837671839_" class="st0" points="0,0 867.4,0 867.4,236.8 
					0,236.8 				"/>
			</g>
		</mask>
		<path id="Fill-58" class="st2" d="M850.6,204.4h2.5l13.4-30.3H864l-7.8,17.7l-7.8-17.7h-2.5l9.1,20.6L850.6,204.4z M853.5,204.9
			h-3.7l4.5-10.3l-9.4-21.1h3.7l0.1,0.2l7.4,16.7l7.5-16.9h3.7l-0.2,0.4L853.5,204.9L853.5,204.9z"/>
		<defs>
			
				<filter id="Adobe_OpacityMaskFilter_00000033364740121180505850000015799306029868825491_" filterUnits="userSpaceOnUse" x="-0.1" y="0" width="236.7" height="236.8">
				<feColorMatrix  type="matrix" values="1 0 0 0 0  0 1 0 0 0  0 0 1 0 0  0 0 0 1 0"/>
			</filter>
		</defs>
		
			<mask maskUnits="userSpaceOnUse" x="-0.1" y="0" width="236.7" height="236.8" id="mask-2_00000135674260161993351640000007923872351837576619_">
			<g style="filter:url(#Adobe_OpacityMaskFilter_00000033364740121180505850000015799306029868825491_);">
				<polygon id="path-1_00000072244865866899530240000006458414600486570393_" class="st0" points="0,0 867.4,0 867.4,236.8 
					0,236.8 				"/>
			</g>
		</mask>
		<path id="Fill-60" class="st4" d="M172.9,36c19.3,6.8,36.1,19.5,47.8,36.1c-12.1-26.5-34.1-47.5-61.2-58.4c-1.8-0.7-3.7-1.4-6-2.2
			c-0.8-0.3-1.5-0.5-2.3-0.7c-1.3-0.4-2.5-0.8-3.8-1.1L147,9.6c-0.8-0.2-1.7-0.5-2.6-0.7c-1-0.2-2-0.5-3-0.7L139.9,8
			c-0.5-0.1-1.1-0.2-1.7-0.3c-6.8-1.2-13.7-1.9-20.5-1.9c-5.1,0-10.1,0.3-15.1,1c5.8,0.1,11.6,0.6,17.4,1.7
			C140,12.2,158.3,21.7,172.9,36z M101.4,12.5c-15.3,0-30,3.6-43.8,10.8c-1.2,0.8-2.4,1.6-3.6,2.4C29.3,42.8,12.8,68.4,7.5,98
			c-0.5,2.9-0.9,5.9-1.3,9.4c-0.4,43.5,28.3,81.5,70.1,93.3c-25.3-22.6-37.3-57-31.3-90.3C49.7,84.8,64,62.5,85.3,47.7
			c16.3-11.3,35.4-17.3,55.1-17.3c5.9,0,11.9,0.6,17.8,1.6c0.6,0.1,1.3,0.2,1.9,0.4c-12-9.3-26.2-15.6-41.2-18.3
			C113.1,13,107.2,12.5,101.4,12.5z M88.9,203.3c4.6,0.7,9.2,1,13.8,1c19.4,0,38.1-5.9,54.1-17c21-14.5,35-36.4,39.6-61.5
			C201.9,95,192,63.3,169.8,41c-4.1-1.4-8.4-2.5-12.5-3.2c-5.6-1-11.2-1.5-16.8-1.5c-18.5,0-36.5,5.6-51.9,16.3
			C68.5,66.4,55,87.3,50.7,111.4c-0.8,4.7-1.3,9.5-1.4,14.2C48.6,156.5,63.4,185.5,88.9,203.3z M100.1,210c7.8,3.9,16,6.7,24.6,8.2
			c5.5,1,11,1.5,16.6,1.5c16.6,0,33-4.5,47.2-13.1l0.5-0.3l0,0.1c21.1-16.9,35.3-40.8,40.1-67.5c1.9-10.4,2.3-21,1.2-31.5l0-0.1
			c-6.3-26.7-23.9-48.9-48.4-61.2c14.6,18.6,22.2,41.6,21.7,65c-0.1,5.2-0.7,10.5-1.6,15.7c-4.8,26.7-19.7,49.8-41.9,65.2
			c-17,11.8-36.8,18-57.4,18C101.8,210,101,210,100.1,210z M12.6,156.3C23,184.7,44.9,208.5,72.5,221c1.2,0.5,2.4,1.1,3.7,1.6
			l0.6,0.2c7,2.8,14.2,4.9,21.6,6.2c6.7,1.2,13.5,1.9,20.3,1.9c13.2,0,26.2-2.3,38.5-6.8c-5.2,0.9-10.5,1.3-15.8,1.3
			c-5.9,0-11.8-0.5-17.6-1.6c-13.3-2.4-25.7-7.5-36.9-15.1l-0.7-0.1c-0.7-0.1-1.3-0.2-2-0.3C53.3,202.6,27.1,183.5,12.6,156.3z
			 M119.1,236.8c-7.2,0-14.5-0.7-21.7-2c-29.4-5.4-55.5-21.6-73.5-45.5c-7.4-9.9-13.3-20.9-17.4-32.6l-0.1-0.4
			c-0.5-1.4-0.9-2.8-1.4-4.2l-0.3-1c-0.4-1.2-0.7-2.4-1-3.7L3.3,146c-0.2-1-0.5-2-0.7-3c-0.2-0.7-0.3-1.5-0.5-2.2
			c-0.2-0.8-0.3-1.6-0.4-2.4c-0.2-1-0.3-1.9-0.5-2.9L1.1,134c-0.2-1.2-0.3-2.4-0.5-3.6l0-0.5c-0.5-4.9-0.7-9.8-0.6-14.5
			C0.1,109.2,0.7,103,1.8,97c5.6-31.1,23-58.1,48.9-76c1.1-0.8,2.3-1.5,3.4-2.2l0.5-0.3l0.6,0.3l-0.3-0.5c1.2-0.8,2.4-1.5,3.6-2.2
			l1.1-0.6c1.4-0.8,2.8-1.6,4.2-2.3l0.5-0.3c1.6-0.8,3.2-1.6,4.8-2.3C84.6,3.5,100.8,0,117.6,0c7.2,0,14.4,0.7,21.6,2
			c2,0.4,4,0.8,5.9,1.3c1.8,0.4,3.6,0.9,5.3,1.4l1.2,0.4c1.3,0.4,2.5,0.8,3.8,1.2c0.6,0.2,1.3,0.4,1.9,0.7c0.6,0.2,1.2,0.5,1.9,0.7
			l0.5,0.2c53.6,20.3,85.1,75.8,75,132.1c-5.6,31.1-22.9,58.1-48.9,76C166.1,229.6,143,236.8,119.1,236.8
			C119.1,236.8,119.1,236.8,119.1,236.8L119.1,236.8z"/>
	</g>
	<g id="Group-73" transform="translate(0.027000, 0.174000)">
		<g id="Clip-63">
		</g>
		<defs>
			
				<filter id="Adobe_OpacityMaskFilter_00000158713061239620966610000011861537567026092692_" filterUnits="userSpaceOnUse" x="102.6" y="5.8" width="118.1" height="66.4">
				<feColorMatrix  type="matrix" values="1 0 0 0 0  0 1 0 0 0  0 0 1 0 0  0 0 0 1 0"/>
			</filter>
		</defs>
		
			<mask maskUnits="userSpaceOnUse" x="102.6" y="5.8" width="118.1" height="66.4" id="mask-4_00000112625847098437725310000015216772749839994270_">
			<g style="filter:url(#Adobe_OpacityMaskFilter_00000158713061239620966610000011861537567026092692_);">
				<path id="path-3_00000096753156288574179600000003421694760664424607_" class="st0" d="M117.7,0c7.2,0,14.4,0.7,21.6,2
					c2,0.4,4,0.8,5.9,1.3c1.8,0.4,3.6,0.9,5.3,1.4l1.2,0.4c1.3,0.4,2.5,0.8,3.8,1.2c0.6,0.2,1.3,0.4,1.9,0.7
					c0.6,0.2,1.2,0.5,1.9,0.7l0.5,0.2c53.6,20.3,85.1,75.8,75,132.1c-5.6,31.1-22.9,58.1-48.9,76c-19.8,13.7-42.9,21-66.9,21h0
					c-7.2,0-14.5-0.7-21.7-2c-29.4-5.4-55.5-21.6-73.5-45.5c-7.4-9.9-13.3-20.9-17.4-32.6l-0.1-0.4c-0.5-1.4-0.9-2.8-1.4-4.2l-0.3-1
					c-0.4-1.2-0.7-2.4-1-3.7L3.4,146c-0.2-1-0.5-2-0.7-3c-0.2-0.7-0.3-1.5-0.5-2.2c-0.2-0.8-0.3-1.6-0.4-2.4c-0.2-1-0.3-1.9-0.5-2.9
					L1.1,134c-0.2-1.2-0.3-2.4-0.5-3.6l0-0.5c-0.3-2.8-0.5-5.6-0.6-8.3l0-6.1C0.1,109.2,0.8,103,1.9,97c5.6-31.1,23-58.1,48.9-76
					c1.1-0.8,2.3-1.5,3.4-2.2l0.5-0.3l0.6,0.3l-0.3-0.5c1.2-0.8,2.4-1.5,3.6-2.2l1.1-0.6c1.4-0.8,2.8-1.6,4.2-2.3l0.6-0.3
					c1.6-0.8,3.2-1.6,4.8-2.3C84.6,3.5,100.9,0,117.7,0z M12.6,156.3c10.5,28.4,32.3,52.2,59.9,64.7c1.2,0.5,2.4,1.1,3.7,1.6
					l0.6,0.2c7,2.8,14.2,4.9,21.6,6.2c6.7,1.2,13.5,1.9,20.3,1.9c13.2,0,26.2-2.3,38.5-6.8c-5.2,0.9-10.5,1.3-15.8,1.3
					c-5.9,0-11.8-0.5-17.6-1.6c-13.3-2.4-25.7-7.5-36.9-15.1l-0.7-0.1c-0.7-0.1-1.3-0.2-2-0.3C53.3,202.6,27.2,183.5,12.6,156.3z
					 M181.9,46c14.6,18.6,22.2,41.6,21.7,65c-0.1,5.2-0.7,10.5-1.6,15.7c-4.8,26.7-19.7,49.8-41.9,65.2c-17,11.8-36.8,18-57.4,18
					c-0.9,0-1.7,0-2.6,0c7.8,3.9,16,6.7,24.6,8.2c5.5,1,11,1.5,16.6,1.5c16.6,0,33-4.5,47.2-13.1l0.5-0.3l0,0.1
					c21.1-16.9,35.3-40.8,40.1-67.5c1.9-10.4,2.3-21,1.2-31.5l0-0.1C224,80.5,206.4,58.3,181.9,46z M140.5,36.2
					c-18.5,0-36.5,5.6-51.9,16.3c-20.1,13.9-33.6,34.8-37.9,58.9c-0.8,4.7-1.3,9.5-1.4,14.2c-0.7,30.9,14.1,59.9,39.7,77.7
					c4.6,0.7,9.2,1,13.8,1c19.4,0,38.1-5.9,54.1-17c21-14.5,35-36.4,39.6-61.5C201.9,95,192,63.3,169.8,41
					c-4.1-1.4-8.4-2.5-12.5-3.2C151.7,36.7,146.1,36.2,140.5,36.2z M101.4,12.5c-15.3,0-30,3.6-43.8,10.8c-1.2,0.8-2.4,1.6-3.6,2.4
					C29.3,42.8,12.8,68.4,7.5,98c-0.5,2.9-0.9,5.9-1.3,9.4c-0.4,43.5,28.3,81.5,70.1,93.3c-25.3-22.6-37.3-57-31.3-90.3
					C49.7,84.8,64,62.5,85.4,47.7c16.3-11.3,35.4-17.3,55.1-17.3c5.9,0,11.9,0.6,17.8,1.6c0.6,0.1,1.3,0.2,1.9,0.4
					c-12-9.3-26.2-15.6-41.2-18.3C113.2,13,107.3,12.5,101.4,12.5z M117.7,5.8c-5.1,0-10.1,0.3-15.1,1c5.8,0.1,11.6,0.6,17.4,1.7
					c20,3.7,38.3,13.2,52.9,27.5c19.3,6.8,36.1,19.5,47.8,36.1c-12.1-26.5-34.1-47.5-61.2-58.4c-1.8-0.7-3.7-1.4-6-2.2
					c-0.8-0.3-1.5-0.5-2.3-0.7c-1.3-0.4-2.5-0.8-3.8-1.1L147,9.6c-0.8-0.2-1.7-0.5-2.6-0.7c-1-0.2-2-0.5-3-0.7L139.9,8
					c-0.5-0.1-1.1-0.2-1.7-0.3C131.5,6.4,124.6,5.8,117.7,5.8z"/>
			</g>
		</mask>
		<polygon id="Fill-62" class="st6" points="102.6,72.1 220.7,72.1 220.7,5.8 102.6,5.8 		"/>
		<defs>
			
				<filter id="Adobe_OpacityMaskFilter_00000180368745353781844450000012992943455583418281_" filterUnits="userSpaceOnUse" x="5.9" y="12.5" width="154.3" height="188.1">
				<feColorMatrix  type="matrix" values="1 0 0 0 0  0 1 0 0 0  0 0 1 0 0  0 0 0 1 0"/>
			</filter>
		</defs>
		
			<mask maskUnits="userSpaceOnUse" x="5.9" y="12.5" width="154.3" height="188.1" id="mask-4_00000155831532364733000940000010364513532418681489_">
			<g style="filter:url(#Adobe_OpacityMaskFilter_00000180368745353781844450000012992943455583418281_);">
				<path id="path-3_00000178916830659700685730000014467367864282181049_" class="st0" d="M117.7,0c7.2,0,14.4,0.7,21.6,2
					c2,0.4,4,0.8,5.9,1.3c1.8,0.4,3.6,0.9,5.3,1.4l1.2,0.4c1.3,0.4,2.5,0.8,3.8,1.2c0.6,0.2,1.3,0.4,1.9,0.7
					c0.6,0.2,1.2,0.5,1.9,0.7l0.5,0.2c53.6,20.3,85.1,75.8,75,132.1c-5.6,31.1-22.9,58.1-48.9,76c-19.8,13.7-42.9,21-66.9,21h0
					c-7.2,0-14.5-0.7-21.7-2c-29.4-5.4-55.5-21.6-73.5-45.5c-7.4-9.9-13.3-20.9-17.4-32.6l-0.1-0.4c-0.5-1.4-0.9-2.8-1.4-4.2l-0.3-1
					c-0.4-1.2-0.7-2.4-1-3.7L3.4,146c-0.2-1-0.5-2-0.7-3c-0.2-0.7-0.3-1.5-0.5-2.2c-0.2-0.8-0.3-1.6-0.4-2.4c-0.2-1-0.3-1.9-0.5-2.9
					L1.1,134c-0.2-1.2-0.3-2.4-0.5-3.6l0-0.5c-0.3-2.8-0.5-5.6-0.6-8.3l0-6.1C0.1,109.2,0.8,103,1.9,97c5.6-31.1,23-58.1,48.9-76
					c1.1-0.8,2.3-1.5,3.4-2.2l0.5-0.3l0.6,0.3l-0.3-0.5c1.2-0.8,2.4-1.5,3.6-2.2l1.1-0.6c1.4-0.8,2.8-1.6,4.2-2.3l0.6-0.3
					c1.6-0.8,3.2-1.6,4.8-2.3C84.6,3.5,100.9,0,117.7,0z M12.6,156.3c10.5,28.4,32.3,52.2,59.9,64.7c1.2,0.5,2.4,1.1,3.7,1.6
					l0.6,0.2c7,2.8,14.2,4.9,21.6,6.2c6.7,1.2,13.5,1.9,20.3,1.9c13.2,0,26.2-2.3,38.5-6.8c-5.2,0.9-10.5,1.3-15.8,1.3
					c-5.9,0-11.8-0.5-17.6-1.6c-13.3-2.4-25.7-7.5-36.9-15.1l-0.7-0.1c-0.7-0.1-1.3-0.2-2-0.3C53.3,202.6,27.2,183.5,12.6,156.3z
					 M181.9,46c14.6,18.6,22.2,41.6,21.7,65c-0.1,5.2-0.7,10.5-1.6,15.7c-4.8,26.7-19.7,49.8-41.9,65.2c-17,11.8-36.8,18-57.4,18
					c-0.9,0-1.7,0-2.6,0c7.8,3.9,16,6.7,24.6,8.2c5.5,1,11,1.5,16.6,1.5c16.6,0,33-4.5,47.2-13.1l0.5-0.3l0,0.1
					c21.1-16.9,35.3-40.8,40.1-67.5c1.9-10.4,2.3-21,1.2-31.5l0-0.1C224,80.5,206.4,58.3,181.9,46z M140.5,36.2
					c-18.5,0-36.5,5.6-51.9,16.3c-20.1,13.9-33.6,34.8-37.9,58.9c-0.8,4.7-1.3,9.5-1.4,14.2c-0.7,30.9,14.1,59.9,39.7,77.7
					c4.6,0.7,9.2,1,13.8,1c19.4,0,38.1-5.9,54.1-17c21-14.5,35-36.4,39.6-61.5C201.9,95,192,63.3,169.8,41
					c-4.1-1.4-8.4-2.5-12.5-3.2C151.7,36.7,146.1,36.2,140.5,36.2z M101.4,12.5c-15.3,0-30,3.6-43.8,10.8c-1.2,0.8-2.4,1.6-3.6,2.4
					C29.3,42.8,12.8,68.4,7.5,98c-0.5,2.9-0.9,5.9-1.3,9.4c-0.4,43.5,28.3,81.5,70.1,93.3c-25.3-22.6-37.3-57-31.3-90.3
					C49.7,84.8,64,62.5,85.4,47.7c16.3-11.3,35.4-17.3,55.1-17.3c5.9,0,11.9,0.6,17.8,1.6c0.6,0.1,1.3,0.2,1.9,0.4
					c-12-9.3-26.2-15.6-41.2-18.3C113.2,13,107.3,12.5,101.4,12.5z M117.7,5.8c-5.1,0-10.1,0.3-15.1,1c5.8,0.1,11.6,0.6,17.4,1.7
					c20,3.7,38.3,13.2,52.9,27.5c19.3,6.8,36.1,19.5,47.8,36.1c-12.1-26.5-34.1-47.5-61.2-58.4c-1.8-0.7-3.7-1.4-6-2.2
					c-0.8-0.3-1.5-0.5-2.3-0.7c-1.3-0.4-2.5-0.8-3.8-1.1L147,9.6c-0.8-0.2-1.7-0.5-2.6-0.7c-1-0.2-2-0.5-3-0.7L139.9,8
					c-0.5-0.1-1.1-0.2-1.7-0.3C131.5,6.4,124.6,5.8,117.7,5.8z"/>
			</g>
		</mask>
		<polygon id="Fill-64" class="st8" points="5.9,200.6 160.2,200.6 160.2,12.5 5.9,12.5 		"/>
		<defs>
			
				<filter id="Adobe_OpacityMaskFilter_00000166673808489484109380000004084437009876890017_" filterUnits="userSpaceOnUse" x="48.6" y="36.2" width="153.3" height="168.1">
				<feColorMatrix  type="matrix" values="1 0 0 0 0  0 1 0 0 0  0 0 1 0 0  0 0 0 1 0"/>
			</filter>
		</defs>
		
			<mask maskUnits="userSpaceOnUse" x="48.6" y="36.2" width="153.3" height="168.1" id="mask-4_00000120520113706427460490000000897972154485139841_">
			<g style="filter:url(#Adobe_OpacityMaskFilter_00000166673808489484109380000004084437009876890017_);">
				<path id="path-3_00000011730928307374032480000003052119532289123732_" class="st0" d="M117.7,0c7.2,0,14.4,0.7,21.6,2
					c2,0.4,4,0.8,5.9,1.3c1.8,0.4,3.6,0.9,5.3,1.4l1.2,0.4c1.3,0.4,2.5,0.8,3.8,1.2c0.6,0.2,1.3,0.4,1.9,0.7
					c0.6,0.2,1.2,0.5,1.9,0.7l0.5,0.2c53.6,20.3,85.1,75.8,75,132.1c-5.6,31.1-22.9,58.1-48.9,76c-19.8,13.7-42.9,21-66.9,21h0
					c-7.2,0-14.5-0.7-21.7-2c-29.4-5.4-55.5-21.6-73.5-45.5c-7.4-9.9-13.3-20.9-17.4-32.6l-0.1-0.4c-0.5-1.4-0.9-2.8-1.4-4.2l-0.3-1
					c-0.4-1.2-0.7-2.4-1-3.7L3.4,146c-0.2-1-0.5-2-0.7-3c-0.2-0.7-0.3-1.5-0.5-2.2c-0.2-0.8-0.3-1.6-0.4-2.4c-0.2-1-0.3-1.9-0.5-2.9
					L1.1,134c-0.2-1.2-0.3-2.4-0.5-3.6l0-0.5c-0.3-2.8-0.5-5.6-0.6-8.3l0-6.1C0.1,109.2,0.8,103,1.9,97c5.6-31.1,23-58.1,48.9-76
					c1.1-0.8,2.3-1.5,3.4-2.2l0.5-0.3l0.6,0.3l-0.3-0.5c1.2-0.8,2.4-1.5,3.6-2.2l1.1-0.6c1.4-0.8,2.8-1.6,4.2-2.3l0.6-0.3
					c1.6-0.8,3.2-1.6,4.8-2.3C84.6,3.5,100.9,0,117.7,0z M12.6,156.3c10.5,28.4,32.3,52.2,59.9,64.7c1.2,0.5,2.4,1.1,3.7,1.6
					l0.6,0.2c7,2.8,14.2,4.9,21.6,6.2c6.7,1.2,13.5,1.9,20.3,1.9c13.2,0,26.2-2.3,38.5-6.8c-5.2,0.9-10.5,1.3-15.8,1.3
					c-5.9,0-11.8-0.5-17.6-1.6c-13.3-2.4-25.7-7.5-36.9-15.1l-0.7-0.1c-0.7-0.1-1.3-0.2-2-0.3C53.3,202.6,27.2,183.5,12.6,156.3z
					 M181.9,46c14.6,18.6,22.2,41.6,21.7,65c-0.1,5.2-0.7,10.5-1.6,15.7c-4.8,26.7-19.7,49.8-41.9,65.2c-17,11.8-36.8,18-57.4,18
					c-0.9,0-1.7,0-2.6,0c7.8,3.9,16,6.7,24.6,8.2c5.5,1,11,1.5,16.6,1.5c16.6,0,33-4.5,47.2-13.1l0.5-0.3l0,0.1
					c21.1-16.9,35.3-40.8,40.1-67.5c1.9-10.4,2.3-21,1.2-31.5l0-0.1C224,80.5,206.4,58.3,181.9,46z M140.5,36.2
					c-18.5,0-36.5,5.6-51.9,16.3c-20.1,13.9-33.6,34.8-37.9,58.9c-0.8,4.7-1.3,9.5-1.4,14.2c-0.7,30.9,14.1,59.9,39.7,77.7
					c4.6,0.7,9.2,1,13.8,1c19.4,0,38.1-5.9,54.1-17c21-14.5,35-36.4,39.6-61.5C201.9,95,192,63.3,169.8,41
					c-4.1-1.4-8.4-2.5-12.5-3.2C151.7,36.7,146.1,36.2,140.5,36.2z M101.4,12.5c-15.3,0-30,3.6-43.8,10.8c-1.2,0.8-2.4,1.6-3.6,2.4
					C29.3,42.8,12.8,68.4,7.5,98c-0.5,2.9-0.9,5.9-1.3,9.4c-0.4,43.5,28.3,81.5,70.1,93.3c-25.3-22.6-37.3-57-31.3-90.3
					C49.7,84.8,64,62.5,85.4,47.7c16.3-11.3,35.4-17.3,55.1-17.3c5.9,0,11.9,0.6,17.8,1.6c0.6,0.1,1.3,0.2,1.9,0.4
					c-12-9.3-26.2-15.6-41.2-18.3C113.2,13,107.3,12.5,101.4,12.5z M117.7,5.8c-5.1,0-10.1,0.3-15.1,1c5.8,0.1,11.6,0.6,17.4,1.7
					c20,3.7,38.3,13.2,52.9,27.5c19.3,6.8,36.1,19.5,47.8,36.1c-12.1-26.5-34.1-47.5-61.2-58.4c-1.8-0.7-3.7-1.4-6-2.2
					c-0.8-0.3-1.5-0.5-2.3-0.7c-1.3-0.4-2.5-0.8-3.8-1.1L147,9.6c-0.8-0.2-1.7-0.5-2.6-0.7c-1-0.2-2-0.5-3-0.7L139.9,8
					c-0.5-0.1-1.1-0.2-1.7-0.3C131.5,6.4,124.6,5.8,117.7,5.8z"/>
			</g>
		</mask>
		<polygon id="Fill-65" class="st10" points="48.6,204.3 201.9,204.3 201.9,36.2 48.6,36.2 		"/>
		<defs>
			
				<filter id="Adobe_OpacityMaskFilter_00000034770859469882588140000010481150949524284301_" filterUnits="userSpaceOnUse" x="100.1" y="46" width="131.3" height="173.7">
				<feColorMatrix  type="matrix" values="1 0 0 0 0  0 1 0 0 0  0 0 1 0 0  0 0 0 1 0"/>
			</filter>
		</defs>
		
			<mask maskUnits="userSpaceOnUse" x="100.1" y="46" width="131.3" height="173.7" id="mask-4_00000058583818812321114220000006827234501324947087_">
			<g style="filter:url(#Adobe_OpacityMaskFilter_00000034770859469882588140000010481150949524284301_);">
				<path id="path-3_00000108268534814806759320000007516978196297977217_" class="st0" d="M117.7,0c7.2,0,14.4,0.7,21.6,2
					c2,0.4,4,0.8,5.9,1.3c1.8,0.4,3.6,0.9,5.3,1.4l1.2,0.4c1.3,0.4,2.5,0.8,3.8,1.2c0.6,0.2,1.3,0.4,1.9,0.7
					c0.6,0.2,1.2,0.5,1.9,0.7l0.5,0.2c53.6,20.3,85.1,75.8,75,132.1c-5.6,31.1-22.9,58.1-48.9,76c-19.8,13.7-42.9,21-66.9,21h0
					c-7.2,0-14.5-0.7-21.7-2c-29.4-5.4-55.5-21.6-73.5-45.5c-7.4-9.9-13.3-20.9-17.4-32.6l-0.1-0.4c-0.5-1.4-0.9-2.8-1.4-4.2l-0.3-1
					c-0.4-1.2-0.7-2.4-1-3.7L3.4,146c-0.2-1-0.5-2-0.7-3c-0.2-0.7-0.3-1.5-0.5-2.2c-0.2-0.8-0.3-1.6-0.4-2.4c-0.2-1-0.3-1.9-0.5-2.9
					L1.1,134c-0.2-1.2-0.3-2.4-0.5-3.6l0-0.5c-0.3-2.8-0.5-5.6-0.6-8.3l0-6.1C0.1,109.2,0.8,103,1.9,97c5.6-31.1,23-58.1,48.9-76
					c1.1-0.8,2.3-1.5,3.4-2.2l0.5-0.3l0.6,0.3l-0.3-0.5c1.2-0.8,2.4-1.5,3.6-2.2l1.1-0.6c1.4-0.8,2.8-1.6,4.2-2.3l0.6-0.3
					c1.6-0.8,3.2-1.6,4.8-2.3C84.6,3.5,100.9,0,117.7,0z M12.6,156.3c10.5,28.4,32.3,52.2,59.9,64.7c1.2,0.5,2.4,1.1,3.7,1.6
					l0.6,0.2c7,2.8,14.2,4.9,21.6,6.2c6.7,1.2,13.5,1.9,20.3,1.9c13.2,0,26.2-2.3,38.5-6.8c-5.2,0.9-10.5,1.3-15.8,1.3
					c-5.9,0-11.8-0.5-17.6-1.6c-13.3-2.4-25.7-7.5-36.9-15.1l-0.7-0.1c-0.7-0.1-1.3-0.2-2-0.3C53.3,202.6,27.2,183.5,12.6,156.3z
					 M181.9,46c14.6,18.6,22.2,41.6,21.7,65c-0.1,5.2-0.7,10.5-1.6,15.7c-4.8,26.7-19.7,49.8-41.9,65.2c-17,11.8-36.8,18-57.4,18
					c-0.9,0-1.7,0-2.6,0c7.8,3.9,16,6.7,24.6,8.2c5.5,1,11,1.5,16.6,1.5c16.6,0,33-4.5,47.2-13.1l0.5-0.3l0,0.1
					c21.1-16.9,35.3-40.8,40.1-67.5c1.9-10.4,2.3-21,1.2-31.5l0-0.1C224,80.5,206.4,58.3,181.9,46z M140.5,36.2
					c-18.5,0-36.5,5.6-51.9,16.3c-20.1,13.9-33.6,34.8-37.9,58.9c-0.8,4.7-1.3,9.5-1.4,14.2c-0.7,30.9,14.1,59.9,39.7,77.7
					c4.6,0.7,9.2,1,13.8,1c19.4,0,38.1-5.9,54.1-17c21-14.5,35-36.4,39.6-61.5C201.9,95,192,63.3,169.8,41
					c-4.1-1.4-8.4-2.5-12.5-3.2C151.7,36.7,146.1,36.2,140.5,36.2z M101.4,12.5c-15.3,0-30,3.6-43.8,10.8c-1.2,0.8-2.4,1.6-3.6,2.4
					C29.3,42.8,12.8,68.4,7.5,98c-0.5,2.9-0.9,5.9-1.3,9.4c-0.4,43.5,28.3,81.5,70.1,93.3c-25.3-22.6-37.3-57-31.3-90.3
					C49.7,84.8,64,62.5,85.4,47.7c16.3-11.3,35.4-17.3,55.1-17.3c5.9,0,11.9,0.6,17.8,1.6c0.6,0.1,1.3,0.2,1.9,0.4
					c-12-9.3-26.2-15.6-41.2-18.3C113.2,13,107.3,12.5,101.4,12.5z M117.7,5.8c-5.1,0-10.1,0.3-15.1,1c5.8,0.1,11.6,0.6,17.4,1.7
					c20,3.7,38.3,13.2,52.9,27.5c19.3,6.8,36.1,19.5,47.8,36.1c-12.1-26.5-34.1-47.5-61.2-58.4c-1.8-0.7-3.7-1.4-6-2.2
					c-0.8-0.3-1.5-0.5-2.3-0.7c-1.3-0.4-2.5-0.8-3.8-1.1L147,9.6c-0.8-0.2-1.7-0.5-2.6-0.7c-1-0.2-2-0.5-3-0.7L139.9,8
					c-0.5-0.1-1.1-0.2-1.7-0.3C131.5,6.4,124.6,5.8,117.7,5.8z"/>
			</g>
		</mask>
		<polygon id="Fill-66" class="st12" points="100.1,219.7 231.4,219.7 231.4,46 100.1,46 		"/>
		<defs>
			
				<filter id="Adobe_OpacityMaskFilter_00000131362378142879757870000015671294084058401928_" filterUnits="userSpaceOnUse" x="12.6" y="156.3" width="144.6" height="74.7">
				<feColorMatrix  type="matrix" values="1 0 0 0 0  0 1 0 0 0  0 0 1 0 0  0 0 0 1 0"/>
			</filter>
		</defs>
		
			<mask maskUnits="userSpaceOnUse" x="12.6" y="156.3" width="144.6" height="74.7" id="mask-4_00000093160899593794011920000009021113000558366655_">
			<g style="filter:url(#Adobe_OpacityMaskFilter_00000131362378142879757870000015671294084058401928_);">
				<path id="path-3_00000072281839865310738140000005178760030936732603_" class="st0" d="M117.7,0c7.2,0,14.4,0.7,21.6,2
					c2,0.4,4,0.8,5.9,1.3c1.8,0.4,3.6,0.9,5.3,1.4l1.2,0.4c1.3,0.4,2.5,0.8,3.8,1.2c0.6,0.2,1.3,0.4,1.9,0.7
					c0.6,0.2,1.2,0.5,1.9,0.7l0.5,0.2c53.6,20.3,85.1,75.8,75,132.1c-5.6,31.1-22.9,58.1-48.9,76c-19.8,13.7-42.9,21-66.9,21h0
					c-7.2,0-14.5-0.7-21.7-2c-29.4-5.4-55.5-21.6-73.5-45.5c-7.4-9.9-13.3-20.9-17.4-32.6l-0.1-0.4c-0.5-1.4-0.9-2.8-1.4-4.2l-0.3-1
					c-0.4-1.2-0.7-2.4-1-3.7L3.4,146c-0.2-1-0.5-2-0.7-3c-0.2-0.7-0.3-1.5-0.5-2.2c-0.2-0.8-0.3-1.6-0.4-2.4c-0.2-1-0.3-1.9-0.5-2.9
					L1.1,134c-0.2-1.2-0.3-2.4-0.5-3.6l0-0.5c-0.3-2.8-0.5-5.6-0.6-8.3l0-6.1C0.1,109.2,0.8,103,1.9,97c5.6-31.1,23-58.1,48.9-76
					c1.1-0.8,2.3-1.5,3.4-2.2l0.5-0.3l0.6,0.3l-0.3-0.5c1.2-0.8,2.4-1.5,3.6-2.2l1.1-0.6c1.4-0.8,2.8-1.6,4.2-2.3l0.6-0.3
					c1.6-0.8,3.2-1.6,4.8-2.3C84.6,3.5,100.9,0,117.7,0z M12.6,156.3c10.5,28.4,32.3,52.2,59.9,64.7c1.2,0.5,2.4,1.1,3.7,1.6
					l0.6,0.2c7,2.8,14.2,4.9,21.6,6.2c6.7,1.2,13.5,1.9,20.3,1.9c13.2,0,26.2-2.3,38.5-6.8c-5.2,0.9-10.5,1.3-15.8,1.3
					c-5.9,0-11.8-0.5-17.6-1.6c-13.3-2.4-25.7-7.5-36.9-15.1l-0.7-0.1c-0.7-0.1-1.3-0.2-2-0.3C53.3,202.6,27.2,183.5,12.6,156.3z
					 M181.9,46c14.6,18.6,22.2,41.6,21.7,65c-0.1,5.2-0.7,10.5-1.6,15.7c-4.8,26.7-19.7,49.8-41.9,65.2c-17,11.8-36.8,18-57.4,18
					c-0.9,0-1.7,0-2.6,0c7.8,3.9,16,6.7,24.6,8.2c5.5,1,11,1.5,16.6,1.5c16.6,0,33-4.5,47.2-13.1l0.5-0.3l0,0.1
					c21.1-16.9,35.3-40.8,40.1-67.5c1.9-10.4,2.3-21,1.2-31.5l0-0.1C224,80.5,206.4,58.3,181.9,46z M140.5,36.2
					c-18.5,0-36.5,5.6-51.9,16.3c-20.1,13.9-33.6,34.8-37.9,58.9c-0.8,4.7-1.3,9.5-1.4,14.2c-0.7,30.9,14.1,59.9,39.7,77.7
					c4.6,0.7,9.2,1,13.8,1c19.4,0,38.1-5.9,54.1-17c21-14.5,35-36.4,39.6-61.5C201.9,95,192,63.3,169.8,41
					c-4.1-1.4-8.4-2.5-12.5-3.2C151.7,36.7,146.1,36.2,140.5,36.2z M101.4,12.5c-15.3,0-30,3.6-43.8,10.8c-1.2,0.8-2.4,1.6-3.6,2.4
					C29.3,42.8,12.8,68.4,7.5,98c-0.5,2.9-0.9,5.9-1.3,9.4c-0.4,43.5,28.3,81.5,70.1,93.3c-25.3-22.6-37.3-57-31.3-90.3
					C49.7,84.8,64,62.5,85.4,47.7c16.3-11.3,35.4-17.3,55.1-17.3c5.9,0,11.9,0.6,17.8,1.6c0.6,0.1,1.3,0.2,1.9,0.4
					c-12-9.3-26.2-15.6-41.2-18.3C113.2,13,107.3,12.5,101.4,12.5z M117.7,5.8c-5.1,0-10.1,0.3-15.1,1c5.8,0.1,11.6,0.6,17.4,1.7
					c20,3.7,38.3,13.2,52.9,27.5c19.3,6.8,36.1,19.5,47.8,36.1c-12.1-26.5-34.1-47.5-61.2-58.4c-1.8-0.7-3.7-1.4-6-2.2
					c-0.8-0.3-1.5-0.5-2.3-0.7c-1.3-0.4-2.5-0.8-3.8-1.1L147,9.6c-0.8-0.2-1.7-0.5-2.6-0.7c-1-0.2-2-0.5-3-0.7L139.9,8
					c-0.5-0.1-1.1-0.2-1.7-0.3C131.5,6.4,124.6,5.8,117.7,5.8z"/>
			</g>
		</mask>
		<polygon id="Fill-67" class="st14" points="12.6,231 157.2,231 157.2,156.3 12.6,156.3 		"/>
		<defs>
			
				<filter id="Adobe_OpacityMaskFilter_00000072973253627712083520000017858047204749478049_" filterUnits="userSpaceOnUse" x="0" y="0" width="117.6" height="0">
				<feColorMatrix  type="matrix" values="1 0 0 0 0  0 1 0 0 0  0 0 1 0 0  0 0 0 1 0"/>
			</filter>
		</defs>
		
			<mask maskUnits="userSpaceOnUse" x="0" y="0" width="117.6" height="0" id="mask-4_00000103246232041513587100000001716608554157287583_">
			<g style="filter:url(#Adobe_OpacityMaskFilter_00000072973253627712083520000017858047204749478049_);">
				<path id="path-3_00000133512737480190903830000010010375865862737800_" class="st0" d="M117.7,0c7.2,0,14.4,0.7,21.6,2
					c2,0.4,4,0.8,5.9,1.3c1.8,0.4,3.6,0.9,5.3,1.4l1.2,0.4c1.3,0.4,2.5,0.8,3.8,1.2c0.6,0.2,1.3,0.4,1.9,0.7
					c0.6,0.2,1.2,0.5,1.9,0.7l0.5,0.2c53.6,20.3,85.1,75.8,75,132.1c-5.6,31.1-22.9,58.1-48.9,76c-19.8,13.7-42.9,21-66.9,21h0
					c-7.2,0-14.5-0.7-21.7-2c-29.4-5.4-55.5-21.6-73.5-45.5c-7.4-9.9-13.3-20.9-17.4-32.6l-0.1-0.4c-0.5-1.4-0.9-2.8-1.4-4.2l-0.3-1
					c-0.4-1.2-0.7-2.4-1-3.7L3.4,146c-0.2-1-0.5-2-0.7-3c-0.2-0.7-0.3-1.5-0.5-2.2c-0.2-0.8-0.3-1.6-0.4-2.4c-0.2-1-0.3-1.9-0.5-2.9
					L1.1,134c-0.2-1.2-0.3-2.4-0.5-3.6l0-0.5c-0.3-2.8-0.5-5.6-0.6-8.3l0-6.1C0.1,109.2,0.8,103,1.9,97c5.6-31.1,23-58.1,48.9-76
					c1.1-0.8,2.3-1.5,3.4-2.2l0.5-0.3l0.6,0.3l-0.3-0.5c1.2-0.8,2.4-1.5,3.6-2.2l1.1-0.6c1.4-0.8,2.8-1.6,4.2-2.3l0.6-0.3
					c1.6-0.8,3.2-1.6,4.8-2.3C84.6,3.5,100.9,0,117.7,0z M12.6,156.3c10.5,28.4,32.3,52.2,59.9,64.7c1.2,0.5,2.4,1.1,3.7,1.6
					l0.6,0.2c7,2.8,14.2,4.9,21.6,6.2c6.7,1.2,13.5,1.9,20.3,1.9c13.2,0,26.2-2.3,38.5-6.8c-5.2,0.9-10.5,1.3-15.8,1.3
					c-5.9,0-11.8-0.5-17.6-1.6c-13.3-2.4-25.7-7.5-36.9-15.1l-0.7-0.1c-0.7-0.1-1.3-0.2-2-0.3C53.3,202.6,27.2,183.5,12.6,156.3z
					 M181.9,46c14.6,18.6,22.2,41.6,21.7,65c-0.1,5.2-0.7,10.5-1.6,15.7c-4.8,26.7-19.7,49.8-41.9,65.2c-17,11.8-36.8,18-57.4,18
					c-0.9,0-1.7,0-2.6,0c7.8,3.9,16,6.7,24.6,8.2c5.5,1,11,1.5,16.6,1.5c16.6,0,33-4.5,47.2-13.1l0.5-0.3l0,0.1
					c21.1-16.9,35.3-40.8,40.1-67.5c1.9-10.4,2.3-21,1.2-31.5l0-0.1C224,80.5,206.4,58.3,181.9,46z M140.5,36.2
					c-18.5,0-36.5,5.6-51.9,16.3c-20.1,13.9-33.6,34.8-37.9,58.9c-0.8,4.7-1.3,9.5-1.4,14.2c-0.7,30.9,14.1,59.9,39.7,77.7
					c4.6,0.7,9.2,1,13.8,1c19.4,0,38.1-5.9,54.1-17c21-14.5,35-36.4,39.6-61.5C201.9,95,192,63.3,169.8,41
					c-4.1-1.4-8.4-2.5-12.5-3.2C151.7,36.7,146.1,36.2,140.5,36.2z M101.4,12.5c-15.3,0-30,3.6-43.8,10.8c-1.2,0.8-2.4,1.6-3.6,2.4
					C29.3,42.8,12.8,68.4,7.5,98c-0.5,2.9-0.9,5.9-1.3,9.4c-0.4,43.5,28.3,81.5,70.1,93.3c-25.3-22.6-37.3-57-31.3-90.3
					C49.7,84.8,64,62.5,85.4,47.7c16.3-11.3,35.4-17.3,55.1-17.3c5.9,0,11.9,0.6,17.8,1.6c0.6,0.1,1.3,0.2,1.9,0.4
					c-12-9.3-26.2-15.6-41.2-18.3C113.2,13,107.3,12.5,101.4,12.5z M117.7,5.8c-5.1,0-10.1,0.3-15.1,1c5.8,0.1,11.6,0.6,17.4,1.7
					c20,3.7,38.3,13.2,52.9,27.5c19.3,6.8,36.1,19.5,47.8,36.1c-12.1-26.5-34.1-47.5-61.2-58.4c-1.8-0.7-3.7-1.4-6-2.2
					c-0.8-0.3-1.5-0.5-2.3-0.7c-1.3-0.4-2.5-0.8-3.8-1.1L147,9.6c-0.8-0.2-1.7-0.5-2.6-0.7c-1-0.2-2-0.5-3-0.7L139.9,8
					c-0.5-0.1-1.1-0.2-1.7-0.3C131.5,6.4,124.6,5.8,117.7,5.8z"/>
			</g>
		</mask>
		<line id="Fill-68" class="st16" x1="0" y1="0" x2="117.6" y2="0"/>
		<defs>
			
				<filter id="Adobe_OpacityMaskFilter_00000049195208958053464000000012076512020790454971_" filterUnits="userSpaceOnUse" x="-0.1" y="0" width="245" height="2.5">
				<feColorMatrix  type="matrix" values="1 0 0 0 0  0 1 0 0 0  0 0 1 0 0  0 0 0 1 0"/>
			</filter>
		</defs>
		
			<mask maskUnits="userSpaceOnUse" x="-0.1" y="0" width="245" height="2.5" id="mask-4_00000160876387490038863260000007952402611779217599_">
			<g style="filter:url(#Adobe_OpacityMaskFilter_00000049195208958053464000000012076512020790454971_);">
				<path id="path-3_00000072253497748791211970000012329069602162397582_" class="st0" d="M117.7,0c7.2,0,14.4,0.7,21.6,2
					c2,0.4,4,0.8,5.9,1.3c1.8,0.4,3.6,0.9,5.3,1.4l1.2,0.4c1.3,0.4,2.5,0.8,3.8,1.2c0.6,0.2,1.3,0.4,1.9,0.7
					c0.6,0.2,1.2,0.5,1.9,0.7l0.5,0.2c53.6,20.3,85.1,75.8,75,132.1c-5.6,31.1-22.9,58.1-48.9,76c-19.8,13.7-42.9,21-66.9,21h0
					c-7.2,0-14.5-0.7-21.7-2c-29.4-5.4-55.5-21.6-73.5-45.5c-7.4-9.9-13.3-20.9-17.4-32.6l-0.1-0.4c-0.5-1.4-0.9-2.8-1.4-4.2l-0.3-1
					c-0.4-1.2-0.7-2.4-1-3.7L3.4,146c-0.2-1-0.5-2-0.7-3c-0.2-0.7-0.3-1.5-0.5-2.2c-0.2-0.8-0.3-1.6-0.4-2.4c-0.2-1-0.3-1.9-0.5-2.9
					L1.1,134c-0.2-1.2-0.3-2.4-0.5-3.6l0-0.5c-0.3-2.8-0.5-5.6-0.6-8.3l0-6.1C0.1,109.2,0.8,103,1.9,97c5.6-31.1,23-58.1,48.9-76
					c1.1-0.8,2.3-1.5,3.4-2.2l0.5-0.3l0.6,0.3l-0.3-0.5c1.2-0.8,2.4-1.5,3.6-2.2l1.1-0.6c1.4-0.8,2.8-1.6,4.2-2.3l0.6-0.3
					c1.6-0.8,3.2-1.6,4.8-2.3C84.6,3.5,100.9,0,117.7,0z M12.6,156.3c10.5,28.4,32.3,52.2,59.9,64.7c1.2,0.5,2.4,1.1,3.7,1.6
					l0.6,0.2c7,2.8,14.2,4.9,21.6,6.2c6.7,1.2,13.5,1.9,20.3,1.9c13.2,0,26.2-2.3,38.5-6.8c-5.2,0.9-10.5,1.3-15.8,1.3
					c-5.9,0-11.8-0.5-17.6-1.6c-13.3-2.4-25.7-7.5-36.9-15.1l-0.7-0.1c-0.7-0.1-1.3-0.2-2-0.3C53.3,202.6,27.2,183.5,12.6,156.3z
					 M181.9,46c14.6,18.6,22.2,41.6,21.7,65c-0.1,5.2-0.7,10.5-1.6,15.7c-4.8,26.7-19.7,49.8-41.9,65.2c-17,11.8-36.8,18-57.4,18
					c-0.9,0-1.7,0-2.6,0c7.8,3.9,16,6.7,24.6,8.2c5.5,1,11,1.5,16.6,1.5c16.6,0,33-4.5,47.2-13.1l0.5-0.3l0,0.1
					c21.1-16.9,35.3-40.8,40.1-67.5c1.9-10.4,2.3-21,1.2-31.5l0-0.1C224,80.5,206.4,58.3,181.9,46z M140.5,36.2
					c-18.5,0-36.5,5.6-51.9,16.3c-20.1,13.9-33.6,34.8-37.9,58.9c-0.8,4.7-1.3,9.5-1.4,14.2c-0.7,30.9,14.1,59.9,39.7,77.7
					c4.6,0.7,9.2,1,13.8,1c19.4,0,38.1-5.9,54.1-17c21-14.5,35-36.4,39.6-61.5C201.9,95,192,63.3,169.8,41
					c-4.1-1.4-8.4-2.5-12.5-3.2C151.7,36.7,146.1,36.2,140.5,36.2z M101.4,12.5c-15.3,0-30,3.6-43.8,10.8c-1.2,0.8-2.4,1.6-3.6,2.4
					C29.3,42.8,12.8,68.4,7.5,98c-0.5,2.9-0.9,5.9-1.3,9.4c-0.4,43.5,28.3,81.5,70.1,93.3c-25.3-22.6-37.3-57-31.3-90.3
					C49.7,84.8,64,62.5,85.4,47.7c16.3-11.3,35.4-17.3,55.1-17.3c5.9,0,11.9,0.6,17.8,1.6c0.6,0.1,1.3,0.2,1.9,0.4
					c-12-9.3-26.2-15.6-41.2-18.3C113.2,13,107.3,12.5,101.4,12.5z M117.7,5.8c-5.1,0-10.1,0.3-15.1,1c5.8,0.1,11.6,0.6,17.4,1.7
					c20,3.7,38.3,13.2,52.9,27.5c19.3,6.8,36.1,19.5,47.8,36.1c-12.1-26.5-34.1-47.5-61.2-58.4c-1.8-0.7-3.7-1.4-6-2.2
					c-0.8-0.3-1.5-0.5-2.3-0.7c-1.3-0.4-2.5-0.8-3.8-1.1L147,9.6c-0.8-0.2-1.7-0.5-2.6-0.7c-1-0.2-2-0.5-3-0.7L139.9,8
					c-0.5-0.1-1.1-0.2-1.7-0.3C131.5,6.4,124.6,5.8,117.7,5.8z"/>
			</g>
		</mask>
		<polygon id="Fill-69" class="st18" points="-0.1,2.5 244.9,2.5 244.9,0 -0.1,0 		"/>
		<defs>
			
				<filter id="Adobe_OpacityMaskFilter_00000018954455955839310540000005748074184224427683_" filterUnits="userSpaceOnUse" x="0" y="2.5" width="236.8" height="231.8">
				<feColorMatrix  type="matrix" values="1 0 0 0 0  0 1 0 0 0  0 0 1 0 0  0 0 0 1 0"/>
			</filter>
		</defs>
		
			<mask maskUnits="userSpaceOnUse" x="0" y="2.5" width="236.8" height="231.8" id="mask-4_00000059994668464433090150000003904317794078935727_">
			<g style="filter:url(#Adobe_OpacityMaskFilter_00000018954455955839310540000005748074184224427683_);">
				<path id="path-3_00000118365505153523018510000001873648289392429217_" class="st0" d="M117.7,0c7.2,0,14.4,0.7,21.6,2
					c2,0.4,4,0.8,5.9,1.3c1.8,0.4,3.6,0.9,5.3,1.4l1.2,0.4c1.3,0.4,2.5,0.8,3.8,1.2c0.6,0.2,1.3,0.4,1.9,0.7
					c0.6,0.2,1.2,0.5,1.9,0.7l0.5,0.2c53.6,20.3,85.1,75.8,75,132.1c-5.6,31.1-22.9,58.1-48.9,76c-19.8,13.7-42.9,21-66.9,21h0
					c-7.2,0-14.5-0.7-21.7-2c-29.4-5.4-55.5-21.6-73.5-45.5c-7.4-9.9-13.3-20.9-17.4-32.6l-0.1-0.4c-0.5-1.4-0.9-2.8-1.4-4.2l-0.3-1
					c-0.4-1.2-0.7-2.4-1-3.7L3.4,146c-0.2-1-0.5-2-0.7-3c-0.2-0.7-0.3-1.5-0.5-2.2c-0.2-0.8-0.3-1.6-0.4-2.4c-0.2-1-0.3-1.9-0.5-2.9
					L1.1,134c-0.2-1.2-0.3-2.4-0.5-3.6l0-0.5c-0.3-2.8-0.5-5.6-0.6-8.3l0-6.1C0.1,109.2,0.8,103,1.9,97c5.6-31.1,23-58.1,48.9-76
					c1.1-0.8,2.3-1.5,3.4-2.2l0.5-0.3l0.6,0.3l-0.3-0.5c1.2-0.8,2.4-1.5,3.6-2.2l1.1-0.6c1.4-0.8,2.8-1.6,4.2-2.3l0.6-0.3
					c1.6-0.8,3.2-1.6,4.8-2.3C84.6,3.5,100.9,0,117.7,0z M12.6,156.3c10.5,28.4,32.3,52.2,59.9,64.7c1.2,0.5,2.4,1.1,3.7,1.6
					l0.6,0.2c7,2.8,14.2,4.9,21.6,6.2c6.7,1.2,13.5,1.9,20.3,1.9c13.2,0,26.2-2.3,38.5-6.8c-5.2,0.9-10.5,1.3-15.8,1.3
					c-5.9,0-11.8-0.5-17.6-1.6c-13.3-2.4-25.7-7.5-36.9-15.1l-0.7-0.1c-0.7-0.1-1.3-0.2-2-0.3C53.3,202.6,27.2,183.5,12.6,156.3z
					 M181.9,46c14.6,18.6,22.2,41.6,21.7,65c-0.1,5.2-0.7,10.5-1.6,15.7c-4.8,26.7-19.7,49.8-41.9,65.2c-17,11.8-36.8,18-57.4,18
					c-0.9,0-1.7,0-2.6,0c7.8,3.9,16,6.7,24.6,8.2c5.5,1,11,1.5,16.6,1.5c16.6,0,33-4.5,47.2-13.1l0.5-0.3l0,0.1
					c21.1-16.9,35.3-40.8,40.1-67.5c1.9-10.4,2.3-21,1.2-31.5l0-0.1C224,80.5,206.4,58.3,181.9,46z M140.5,36.2
					c-18.5,0-36.5,5.6-51.9,16.3c-20.1,13.9-33.6,34.8-37.9,58.9c-0.8,4.7-1.3,9.5-1.4,14.2c-0.7,30.9,14.1,59.9,39.7,77.7
					c4.6,0.7,9.2,1,13.8,1c19.4,0,38.1-5.9,54.1-17c21-14.5,35-36.4,39.6-61.5C201.9,95,192,63.3,169.8,41
					c-4.1-1.4-8.4-2.5-12.5-3.2C151.7,36.7,146.1,36.2,140.5,36.2z M101.4,12.5c-15.3,0-30,3.6-43.8,10.8c-1.2,0.8-2.4,1.6-3.6,2.4
					C29.3,42.8,12.8,68.4,7.5,98c-0.5,2.9-0.9,5.9-1.3,9.4c-0.4,43.5,28.3,81.5,70.1,93.3c-25.3-22.6-37.3-57-31.3-90.3
					C49.7,84.8,64,62.5,85.4,47.7c16.3-11.3,35.4-17.3,55.1-17.3c5.9,0,11.9,0.6,17.8,1.6c0.6,0.1,1.3,0.2,1.9,0.4
					c-12-9.3-26.2-15.6-41.2-18.3C113.2,13,107.3,12.5,101.4,12.5z M117.7,5.8c-5.1,0-10.1,0.3-15.1,1c5.8,0.1,11.6,0.6,17.4,1.7
					c20,3.7,38.3,13.2,52.9,27.5c19.3,6.8,36.1,19.5,47.8,36.1c-12.1-26.5-34.1-47.5-61.2-58.4c-1.8-0.7-3.7-1.4-6-2.2
					c-0.8-0.3-1.5-0.5-2.3-0.7c-1.3-0.4-2.5-0.8-3.8-1.1L147,9.6c-0.8-0.2-1.7-0.5-2.6-0.7c-1-0.2-2-0.5-3-0.7L139.9,8
					c-0.5-0.1-1.1-0.2-1.7-0.3C131.5,6.4,124.6,5.8,117.7,5.8z"/>
			</g>
		</mask>
		<polygon id="Fill-70" class="st20" points="0,234.3 236.8,234.3 236.8,2.5 0,2.5 		"/>
		<defs>
			
				<filter id="Adobe_OpacityMaskFilter_00000179608300472185251490000011861948481755604356_" filterUnits="userSpaceOnUse" x="-0.1" y="234.3" width="245" height="2.5">
				<feColorMatrix  type="matrix" values="1 0 0 0 0  0 1 0 0 0  0 0 1 0 0  0 0 0 1 0"/>
			</filter>
		</defs>
		
			<mask maskUnits="userSpaceOnUse" x="-0.1" y="234.3" width="245" height="2.5" id="mask-4_00000087414695297650671800000009463117481679179954_">
			<g style="filter:url(#Adobe_OpacityMaskFilter_00000179608300472185251490000011861948481755604356_);">
				<path id="path-3_00000049917788396124694060000007101474753655003803_" class="st0" d="M117.7,0c7.2,0,14.4,0.7,21.6,2
					c2,0.4,4,0.8,5.9,1.3c1.8,0.4,3.6,0.9,5.3,1.4l1.2,0.4c1.3,0.4,2.5,0.8,3.8,1.2c0.6,0.2,1.3,0.4,1.9,0.7
					c0.6,0.2,1.2,0.5,1.9,0.7l0.5,0.2c53.6,20.3,85.1,75.8,75,132.1c-5.6,31.1-22.9,58.1-48.9,76c-19.8,13.7-42.9,21-66.9,21h0
					c-7.2,0-14.5-0.7-21.7-2c-29.4-5.4-55.5-21.6-73.5-45.5c-7.4-9.9-13.3-20.9-17.4-32.6l-0.1-0.4c-0.5-1.4-0.9-2.8-1.4-4.2l-0.3-1
					c-0.4-1.2-0.7-2.4-1-3.7L3.4,146c-0.2-1-0.5-2-0.7-3c-0.2-0.7-0.3-1.5-0.5-2.2c-0.2-0.8-0.3-1.6-0.4-2.4c-0.2-1-0.3-1.9-0.5-2.9
					L1.1,134c-0.2-1.2-0.3-2.4-0.5-3.6l0-0.5c-0.3-2.8-0.5-5.6-0.6-8.3l0-6.1C0.1,109.2,0.8,103,1.9,97c5.6-31.1,23-58.1,48.9-76
					c1.1-0.8,2.3-1.5,3.4-2.2l0.5-0.3l0.6,0.3l-0.3-0.5c1.2-0.8,2.4-1.5,3.6-2.2l1.1-0.6c1.4-0.8,2.8-1.6,4.2-2.3l0.6-0.3
					c1.6-0.8,3.2-1.6,4.8-2.3C84.6,3.5,100.9,0,117.7,0z M12.6,156.3c10.5,28.4,32.3,52.2,59.9,64.7c1.2,0.5,2.4,1.1,3.7,1.6
					l0.6,0.2c7,2.8,14.2,4.9,21.6,6.2c6.7,1.2,13.5,1.9,20.3,1.9c13.2,0,26.2-2.3,38.5-6.8c-5.2,0.9-10.5,1.3-15.8,1.3
					c-5.9,0-11.8-0.5-17.6-1.6c-13.3-2.4-25.7-7.5-36.9-15.1l-0.7-0.1c-0.7-0.1-1.3-0.2-2-0.3C53.3,202.6,27.2,183.5,12.6,156.3z
					 M181.9,46c14.6,18.6,22.2,41.6,21.7,65c-0.1,5.2-0.7,10.5-1.6,15.7c-4.8,26.7-19.7,49.8-41.9,65.2c-17,11.8-36.8,18-57.4,18
					c-0.9,0-1.7,0-2.6,0c7.8,3.9,16,6.7,24.6,8.2c5.5,1,11,1.5,16.6,1.5c16.6,0,33-4.5,47.2-13.1l0.5-0.3l0,0.1
					c21.1-16.9,35.3-40.8,40.1-67.5c1.9-10.4,2.3-21,1.2-31.5l0-0.1C224,80.5,206.4,58.3,181.9,46z M140.5,36.2
					c-18.5,0-36.5,5.6-51.9,16.3c-20.1,13.9-33.6,34.8-37.9,58.9c-0.8,4.7-1.3,9.5-1.4,14.2c-0.7,30.9,14.1,59.9,39.7,77.7
					c4.6,0.7,9.2,1,13.8,1c19.4,0,38.1-5.9,54.1-17c21-14.5,35-36.4,39.6-61.5C201.9,95,192,63.3,169.8,41
					c-4.1-1.4-8.4-2.5-12.5-3.2C151.7,36.7,146.1,36.2,140.5,36.2z M101.4,12.5c-15.3,0-30,3.6-43.8,10.8c-1.2,0.8-2.4,1.6-3.6,2.4
					C29.3,42.8,12.8,68.4,7.5,98c-0.5,2.9-0.9,5.9-1.3,9.4c-0.4,43.5,28.3,81.5,70.1,93.3c-25.3-22.6-37.3-57-31.3-90.3
					C49.7,84.8,64,62.5,85.4,47.7c16.3-11.3,35.4-17.3,55.1-17.3c5.9,0,11.9,0.6,17.8,1.6c0.6,0.1,1.3,0.2,1.9,0.4
					c-12-9.3-26.2-15.6-41.2-18.3C113.2,13,107.3,12.5,101.4,12.5z M117.7,5.8c-5.1,0-10.1,0.3-15.1,1c5.8,0.1,11.6,0.6,17.4,1.7
					c20,3.7,38.3,13.2,52.9,27.5c19.3,6.8,36.1,19.5,47.8,36.1c-12.1-26.5-34.1-47.5-61.2-58.4c-1.8-0.7-3.7-1.4-6-2.2
					c-0.8-0.3-1.5-0.5-2.3-0.7c-1.3-0.4-2.5-0.8-3.8-1.1L147,9.6c-0.8-0.2-1.7-0.5-2.6-0.7c-1-0.2-2-0.5-3-0.7L139.9,8
					c-0.5-0.1-1.1-0.2-1.7-0.3C131.5,6.4,124.6,5.8,117.7,5.8z"/>
			</g>
		</mask>
		<polygon id="Fill-71" class="st22" points="-0.1,236.8 244.9,236.8 244.9,234.3 -0.1,234.3 		"/>
		<defs>
			
				<filter id="Adobe_OpacityMaskFilter_00000078025585885556413580000017144483326124836764_" filterUnits="userSpaceOnUse" x="119.1" y="236.8" width="117.7" height="0">
				<feColorMatrix  type="matrix" values="1 0 0 0 0  0 1 0 0 0  0 0 1 0 0  0 0 0 1 0"/>
			</filter>
		</defs>
		
			<mask maskUnits="userSpaceOnUse" x="119.1" y="236.8" width="117.7" height="0" id="mask-4_00000041994499801065176040000000445029576048784787_">
			<g style="filter:url(#Adobe_OpacityMaskFilter_00000078025585885556413580000017144483326124836764_);">
				<path id="path-3_00000006695264823237694450000004080833539214333594_" class="st0" d="M117.7,0c7.2,0,14.4,0.7,21.6,2
					c2,0.4,4,0.8,5.9,1.3c1.8,0.4,3.6,0.9,5.3,1.4l1.2,0.4c1.3,0.4,2.5,0.8,3.8,1.2c0.6,0.2,1.3,0.4,1.9,0.7
					c0.6,0.2,1.2,0.5,1.9,0.7l0.5,0.2c53.6,20.3,85.1,75.8,75,132.1c-5.6,31.1-22.9,58.1-48.9,76c-19.8,13.7-42.9,21-66.9,21h0
					c-7.2,0-14.5-0.7-21.7-2c-29.4-5.4-55.5-21.6-73.5-45.5c-7.4-9.9-13.3-20.9-17.4-32.6l-0.1-0.4c-0.5-1.4-0.9-2.8-1.4-4.2l-0.3-1
					c-0.4-1.2-0.7-2.4-1-3.7L3.4,146c-0.2-1-0.5-2-0.7-3c-0.2-0.7-0.3-1.5-0.5-2.2c-0.2-0.8-0.3-1.6-0.4-2.4c-0.2-1-0.3-1.9-0.5-2.9
					L1.1,134c-0.2-1.2-0.3-2.4-0.5-3.6l0-0.5c-0.3-2.8-0.5-5.6-0.6-8.3l0-6.1C0.1,109.2,0.8,103,1.9,97c5.6-31.1,23-58.1,48.9-76
					c1.1-0.8,2.3-1.5,3.4-2.2l0.5-0.3l0.6,0.3l-0.3-0.5c1.2-0.8,2.4-1.5,3.6-2.2l1.1-0.6c1.4-0.8,2.8-1.6,4.2-2.3l0.6-0.3
					c1.6-0.8,3.2-1.6,4.8-2.3C84.6,3.5,100.9,0,117.7,0z M12.6,156.3c10.5,28.4,32.3,52.2,59.9,64.7c1.2,0.5,2.4,1.1,3.7,1.6
					l0.6,0.2c7,2.8,14.2,4.9,21.6,6.2c6.7,1.2,13.5,1.9,20.3,1.9c13.2,0,26.2-2.3,38.5-6.8c-5.2,0.9-10.5,1.3-15.8,1.3
					c-5.9,0-11.8-0.5-17.6-1.6c-13.3-2.4-25.7-7.5-36.9-15.1l-0.7-0.1c-0.7-0.1-1.3-0.2-2-0.3C53.3,202.6,27.2,183.5,12.6,156.3z
					 M181.9,46c14.6,18.6,22.2,41.6,21.7,65c-0.1,5.2-0.7,10.5-1.6,15.7c-4.8,26.7-19.7,49.8-41.9,65.2c-17,11.8-36.8,18-57.4,18
					c-0.9,0-1.7,0-2.6,0c7.8,3.9,16,6.7,24.6,8.2c5.5,1,11,1.5,16.6,1.5c16.6,0,33-4.5,47.2-13.1l0.5-0.3l0,0.1
					c21.1-16.9,35.3-40.8,40.1-67.5c1.9-10.4,2.3-21,1.2-31.5l0-0.1C224,80.5,206.4,58.3,181.9,46z M140.5,36.2
					c-18.5,0-36.5,5.6-51.9,16.3c-20.1,13.9-33.6,34.8-37.9,58.9c-0.8,4.7-1.3,9.5-1.4,14.2c-0.7,30.9,14.1,59.9,39.7,77.7
					c4.6,0.7,9.2,1,13.8,1c19.4,0,38.1-5.9,54.1-17c21-14.5,35-36.4,39.6-61.5C201.9,95,192,63.3,169.8,41
					c-4.1-1.4-8.4-2.5-12.5-3.2C151.7,36.7,146.1,36.2,140.5,36.2z M101.4,12.5c-15.3,0-30,3.6-43.8,10.8c-1.2,0.8-2.4,1.6-3.6,2.4
					C29.3,42.8,12.8,68.4,7.5,98c-0.5,2.9-0.9,5.9-1.3,9.4c-0.4,43.5,28.3,81.5,70.1,93.3c-25.3-22.6-37.3-57-31.3-90.3
					C49.7,84.8,64,62.5,85.4,47.7c16.3-11.3,35.4-17.3,55.1-17.3c5.9,0,11.9,0.6,17.8,1.6c0.6,0.1,1.3,0.2,1.9,0.4
					c-12-9.3-26.2-15.6-41.2-18.3C113.2,13,107.3,12.5,101.4,12.5z M117.7,5.8c-5.1,0-10.1,0.3-15.1,1c5.8,0.1,11.6,0.6,17.4,1.7
					c20,3.7,38.3,13.2,52.9,27.5c19.3,6.8,36.1,19.5,47.8,36.1c-12.1-26.5-34.1-47.5-61.2-58.4c-1.8-0.7-3.7-1.4-6-2.2
					c-0.8-0.3-1.5-0.5-2.3-0.7c-1.3-0.4-2.5-0.8-3.8-1.1L147,9.6c-0.8-0.2-1.7-0.5-2.6-0.7c-1-0.2-2-0.5-3-0.7L139.9,8
					c-0.5-0.1-1.1-0.2-1.7-0.3C131.5,6.4,124.6,5.8,117.7,5.8z"/>
			</g>
		</mask>
		<line id="Fill-72" class="st24" x1="119.1" y1="236.8" x2="236.8" y2="236.8"/>
	</g>
</g>
</svg>
