<svg width="28" height="16" viewBox="0 0 28 16" fill="none" xmlns="http://www.w3.org/2000/svg">
<path d="M10.2108 10.0076L16.5907 3.59029C17.638 2.53691 19.0159 1.95477 20.5041 1.95477C21.9923 1.95477 23.3703 2.53691 24.4176 3.59029C26.5672 5.75249 26.5672 9.28685 24.4176 11.4491C22.2679 13.6113 18.7541 13.6113 16.6045 11.4491C14.4549 9.28685 14.8236 10.3847 14.4378 10.7728C14.052 11.1609 13.7659 11.3798 15.2265 12.8489C16.6872 14.3181 18.6026 15.0527 20.5179 15.0527C22.4333 15.0527 24.3487 14.3181 25.8093 12.8489C28.7306 9.91056 28.7306 5.14263 25.8093 2.21812C22.888 -0.706397 18.1478 -0.720257 15.2403 2.21812L8.86035 8.63542" fill="url(#paint0_linear_161_37)"/>
<path d="M12.7737 2.20378C11.3544 0.776175 9.4804 0 7.48235 0C5.4843 0 3.61027 0.776175 2.19097 2.20378C0.771663 3.63139 0 5.51639 0 7.52612C0 9.53586 0.771663 11.4209 2.19097 12.8485C3.65161 14.3177 5.56698 15.0522 7.48235 15.0522C9.39772 15.0522 11.3131 14.3177 12.7737 12.8485L19.1537 6.43116C19.5395 6.04308 19.2226 5.69657 18.8506 5.32234C18.4647 4.93425 18.1616 4.67091 17.7757 5.04514L11.3958 11.4624C9.24614 13.6246 5.73233 13.6246 3.58271 11.4624C2.53545 10.4091 1.95671 9.02303 1.95671 7.52612C1.95671 6.02922 2.53545 4.64319 3.58271 3.58981C4.62996 2.53643 6.00793 1.9543 7.49613 1.9543C8.98433 1.9543 10.3623 2.53643 11.4095 3.58981" fill="url(#paint1_linear_161_37)"/>
<defs>
<linearGradient id="paint0_linear_161_37" x1="18.4303" y1="0.0195312" x2="18.4303" y2="15.0527" gradientUnits="userSpaceOnUse">
<stop stop-color="#00FFE6"/>
<stop offset="1" stop-color="#08BDFF"/>
</linearGradient>
<linearGradient id="paint1_linear_161_37" x1="9.66472" y1="0" x2="9.66472" y2="15.0522" gradientUnits="userSpaceOnUse">
<stop stop-color="#00FFE6"/>
<stop offset="1" stop-color="#08BDFF"/>
</linearGradient>
</defs>
</svg>
