<?xml version="1.0" encoding="utf-8"?>
<!-- Generator: Adobe Illustrator 26.5.0, SVG Export Plug-In . SVG Version: 6.00 Build 0)  -->
<svg version="1.1" id="Layer_1" xmlns="http://www.w3.org/2000/svg" xmlns:xlink="http://www.w3.org/1999/xlink" x="0px" y="0px"
	 viewBox="0 0 1350.1 515.2" style="enable-background:new 0 0 1350.1 515.2;" xml:space="preserve">
<style type="text/css">
	.st0{fill:none;stroke:#C49A6C;stroke-width:6;stroke-miterlimit:10;}
	.st1{fill:#C49A6C;}
	.st2{fill:none;stroke:#C49A6C;stroke-width:8;stroke-miterlimit:10;}
	.st3{fill:#D0D3E5;}
	.st4{fill:none;stroke:#D0D3E5;stroke-width:5;stroke-miterlimit:10;}
</style>
<g>
	<g>
		<path class="st0" d="M-447.1,60.9c0,0,26.5,41.7,21.1,81.4c0,0-0.8,10.7-13.2,19.8c0,0-9.1,3.3,21.1,49.6c0,0,14.5,19.4-5.4,23.9
			c0,0-14.9,1.3-9.9,5c0,0,7.8,13.6,0,17.4c0,0,2.9,5,0,6.6c0,0,0,5-10.7,9.9c0,0-8.6,0.8,0.8,12.4c0,0,6.6,22.3-30.6,30.6
			c0,0-33.5,3.7-57-6.2c0,0-135.9-59-167.3,21.5c0,0-1.3-78.5,73.1-109.9c0,0,89.6-40,41.7-109.1c0,0-84.7-128.9,63.2-10.7
			C-520.2,103-427.6,173.6-447.1,60.9z"/>
		<g>
			<path class="st1" d="M-1289.6,187.6h2.1c2.6,0,3.9-0.6,4.8-3.2l32.1-86.7h15.2l32.1,86.7c0.9,2.6,2.3,3.2,4.8,3.2h2.1v12.5h-8.1
				c-7.2,0-9.6-1.8-11.9-8.4l-7.7-21.1h-37.7l-7.7,21.1c-2.4,6.7-4.8,8.4-12,8.4h-8.1V187.6z M-1227.8,158.5l-11.2-31.2
				c-1.9-5.4-4.1-14.3-4.1-14.3h-0.3c0,0-2,9-3.9,14.3l-11.2,31.2H-1227.8z"/>
			<path class="st1" d="M-1179.9,113.3c0-2.1-1.2-3.2-3.2-3.2h-6.2V97.7h14.6c6.5,0,9.3,2.7,9.3,9.3v77.4c0,2,1.2,3.2,3.2,3.2h28.3
				c2,0,3.2-1.2,3.2-3.2v-6.5h13.2v12.9c0,6.5-2.7,9.3-9.3,9.3h-43.8c-6.5,0-9.3-2.7-9.3-9.3V113.3z"/>
			<path class="st1" d="M-1105.7,113.3c0-2.1-1.2-3.2-3.2-3.2h-6.2V97.7h14.6c6.5,0,9.3,2.7,9.3,9.3v77.4c0,2,1.2,3.2,3.2,3.2h28.3
				c2,0,3.2-1.2,3.2-3.2v-6.5h13.2v12.9c0,6.5-2.7,9.3-9.3,9.3h-43.8c-6.5,0-9.3-2.7-9.3-9.3V113.3z"/>
		</g>
		<g>
			<path class="st1" d="M-959.9,96c29.6,0,52.7,22.8,52.7,52.2c0,30.1-23.1,53.6-52.7,53.6c-29.6,0-52.5-23.5-52.5-53.6
				C-1012.4,118.7-989.4,96-959.9,96z M-959.9,188.2c20.8,0,37.5-17.4,37.5-40c0-21.9-16.8-38.7-37.5-38.7
				c-20.8,0-37.4,16.8-37.4,38.7C-997.3,170.8-980.7,188.2-959.9,188.2z"/>
			<path class="st1" d="M-896.8,187.6h6.2c2,0,3.2-1.2,3.2-3.2V97.7h13.2l45.5,64.8c3.8,5.5,8.6,13.9,8.6,13.9h0.3c0,0-1-8.1-1-13.9
				v-55.6c0-6.5,2.7-9.3,9.5-9.3h14.5v12.5h-6.2c-2,0-3.2,1-3.2,3.2V200h-13.1l-45.7-64.8c-3.8-5.5-8.4-13.9-8.4-13.9h-0.3
				c0,0,0.9,8.3,0.9,13.9v55.6c0,6.5-2.7,9.3-9.3,9.3h-14.6L-896.8,187.6z"/>
		</g>
		<path class="st1" d="M-490.6,60.4c0,0,26.7,41.6,21.4,81.3c0,0-0.8,10.7-13.1,19.9c0,0-9.1,3.4,21.3,49.5c0,0,14.6,19.4-5.3,24
			c0,0-14.8,1.3-9.9,5c0,0,7.9,13.6,0.1,17.4c0,0,2.9,4.9,0,6.6c0,0,0,5-10.7,10c0,0-8.6,0.9,0.9,12.4c0,0,6.7,22.3-30.4,30.7
			c0,0-33.5,3.9-57-5.9c0,0-136.2-58.4-167.2,22.3c0,0-1.6-78.5,72.6-110.2c0,0,89.4-40.5,41.2-109.3c0,0-85.3-128.5,63.1-11
			C-563.6,102.8-470.6,173-490.6,60.4z"/>
		<g>
			<path class="st1" d="M-760.5,163.7l46.1-66h16.6v62.8h16V173h-16v27.1h-14.5V173h-48.2V163.7z M-712.3,125.2
				c0-4.7,0.6-10.4,0.6-10.4h-0.3c0,0-2.6,5-5.2,8.6l-22.3,30.7c-2.6,3.6-5.4,6.5-5.4,6.5v0.3c0,0,4.2-0.4,8.7-0.4h23.9V125.2z"/>
		</g>
		<g>
			<path class="st1" d="M-1110.7,263.1c0.3-1.7,0.4-2.7,0.4-3.8c0-1.6-0.6-2.3-2.6-2.3h-6.2l2.4-12.6h13.7c6.1,0,8.1,2.4,8.1,5.6
				c0,2-0.7,5.2-1.6,7.2h0.3c5.2-7.9,14.3-14.7,27.1-14.7c17.9,0,28.5,12.1,28.5,32.1c0,28-20.6,48.2-42,48.2
				c-9.8,0-18.8-4.6-22.8-13.3h-0.3c0,0-0.3,3.2-1,7.1l-6.7,34.7h-14.7L-1110.7,263.1z M-1084.2,310.1c13.5,0,28.7-13.2,28.7-34.4
				c0-13.2-6.5-20.3-17.3-20.3c-15.7,0-28.2,17.3-28.2,34.7C-1101,301.2-1095.6,310.1-1084.2,310.1z"/>
			<path class="st1" d="M-1028.8,310.6l15.1-78.3c0.3-1.6,0.4-2.3,0.4-3.3c0-1.7-0.9-2.3-2.7-2.3h-6.2l2.6-12.6h14
				c5.9,0,8.6,2,8.6,6.8c0,1.2-0.3,2.7-0.6,4.4l-15.3,78.5c-0.1,0.7-0.4,2-0.4,2.4c0,1.6,0.9,2.3,2.9,2.3h6.2l-2.4,12.6h-14.1
				c-5.8,0-8.5-2.4-8.5-6.9C-1029.2,313-1029,311.8-1028.8,310.6z"/>
			<path class="st1" d="M-984.2,292.5l6.1-30.9c0.1-0.7,0.4-2,0.4-2.6c0-1.3-0.9-2.1-2.9-2.1h-6.2l2.4-12.6h14.3
				c5.8,0,8.5,2.4,8.5,6.9c0,1-0.1,2.1-0.4,3.5l-6.8,35.3c-0.6,2.6-0.9,5.2-0.9,7.6c0,6.5,2.6,11.5,11.5,11.5
				c15.3,0,28-16.8,30.9-31.4l6.5-33.5h14.7l-11.4,58.7c-0.3,0.9-0.4,2.3-0.4,3c0,1.6,0.9,2.4,2.9,2.4h6.1l-2.4,12.6h-14
				c-5.6,0-8.2-2.6-8.2-6.8c0-2.7,1-6.5,1.8-9.7h-0.3c-4.2,6.8-15.1,18.3-31.6,18.3c-14.1,0-21.5-7.6-21.5-20.8
				C-985.1,299.3-984.8,296.1-984.2,292.5z"/>
			<path class="st1" d="M-893.2,300.1c0,0,7.9,10.8,22.9,10.8c8.6,0,15.1-4.1,15.1-10.8c0-6.5-6.7-9.1-13.3-11.8
				c-10.1-3.9-21.8-9.1-21.8-22.8c0-15.3,14.4-23.1,29.9-23.1c12.1,0,28,4.9,25.6,16.7l-1.2,5.5h-12.9l0.4-2.9
				c0.7-4.2-3.8-7.4-12.3-7.4c-8.9,0-14.7,4.1-14.7,10.1c0,7.1,7.8,9.8,15,12.7c9.7,3.9,20.5,8.6,20.5,21.5
				c0,14.1-12.6,24.1-30.6,24.1c-20.9,0-30.1-13-30.1-13L-893.2,300.1z"/>
		</g>
	</g>
</g>
<g>
	<path class="st1" d="M-824.1,239.6c0-10.7,7.7-18.8,18.5-18.8c10.7,0,18.4,8,18.4,18.8s-7.7,18.7-18.4,18.7
		C-816.4,258.3-824.1,250.4-824.1,239.6z M-820.7,239.6c0,9.1,6,15.6,15.1,15.6c9.1,0,15-6.5,15-15.6s-6-15.6-15-15.6
		C-814.7,224-820.7,230.5-820.7,239.6z M-802.4,241.4l5.6,8l-4.8,0.1l-5.1-7.9h-2.1v7.9h-4v-20.1h8.7c4.1,0,6.7,2.3,6.7,6.1
		C-797.4,238.7-799.3,240.8-802.4,241.4z M-808.8,233.1v5.1h4.4c1.7,0,3-0.7,3-2.6c0-1.8-1.3-2.5-3-2.5H-808.8z"/>
</g>
<g>
	<path class="st1" d="M-1255.1,454.2v-48h18.9c3.6,0,6.7,0.7,9.3,2.1c2.6,1.4,4.5,3.3,5.9,5.7s2,5.3,2,8.4c0,3.2-0.7,6-2.1,8.4
		s-3.4,4.3-6,5.7s-5.7,2-9.4,2h-12.1v-8.1h10.4c2,0,3.6-0.3,4.8-1s2.2-1.6,2.9-2.8c0.6-1.2,0.9-2.6,0.9-4.2c0-1.6-0.3-3-0.9-4.2
		c-0.6-1.2-1.6-2.1-2.9-2.8c-1.3-0.7-2.9-1-4.9-1h-6.8v39.7H-1255.1z"/>
	<path class="st1" d="M-1202.5,454.2v-48h18.9c3.6,0,6.7,0.6,9.3,1.9c2.6,1.3,4.5,3.1,5.9,5.5c1.4,2.4,2,5.1,2,8.3
		c0,3.2-0.7,5.9-2.1,8.2s-3.4,4-6,5.3c-2.6,1.2-5.7,1.8-9.4,1.8h-12.7V429h11c1.9,0,3.5-0.3,4.8-0.8c1.3-0.5,2.2-1.3,2.9-2.4
		c0.6-1.1,0.9-2.4,0.9-4c0-1.6-0.3-2.9-0.9-4c-0.6-1.1-1.6-1.9-2.9-2.5s-2.9-0.9-4.9-0.9h-6.8v39.7H-1202.5z M-1176.6,432.4
		l11.9,21.8h-11.2l-11.7-21.8H-1176.6z"/>
	<path class="st1" d="M-1149.3,454.2v-48h32.3v8.4h-22.2V426h20.5v8.4h-20.5v11.5h22.3v8.4H-1149.3z"/>
	<path class="st1" d="M-1099,406.2h12.5l13.2,32.2h0.6l13.2-32.2h12.5v48h-9.8V423h-0.4l-12.4,31h-6.7l-12.4-31.1h-0.4v31.3h-9.8
		V406.2z"/>
	<path class="st1" d="M-1018.6,406.2v48h-10.1v-48H-1018.6z"/>
	<path class="st1" d="M-970.7,406.2h10.1v31.2c0,3.5-0.8,6.6-2.5,9.2s-4,4.7-7,6.1c-3,1.5-6.5,2.2-10.4,2.2c-4,0-7.5-0.7-10.4-2.2
		c-3-1.5-5.3-3.5-7-6.1c-1.7-2.6-2.5-5.7-2.5-9.2v-31.2h10.1v30.3c0,1.8,0.4,3.5,1.2,4.9c0.8,1.4,1.9,2.5,3.4,3.4
		c1.5,0.8,3.2,1.2,5.1,1.2c2,0,3.7-0.4,5.1-1.2c1.5-0.8,2.6-1.9,3.4-3.4c0.8-1.4,1.2-3,1.2-4.9V406.2z"/>
	<path class="st1" d="M-942.3,406.2h12.5l13.2,32.2h0.6l13.2-32.2h12.5v48h-9.8V423h-0.4l-12.4,31h-6.7l-12.4-31.1h-0.4v31.3h-9.8
		V406.2z"/>
	<path class="st1" d="M-846.9,454.2v-48h18.9c3.6,0,6.7,0.7,9.3,2.1c2.6,1.4,4.5,3.3,5.9,5.7c1.4,2.4,2,5.3,2,8.4
		c0,3.2-0.7,6-2.1,8.4c-1.4,2.4-3.4,4.3-6,5.7s-5.7,2-9.4,2h-12.1v-8.1h10.4c2,0,3.6-0.3,4.8-1c1.3-0.7,2.2-1.6,2.9-2.8
		c0.6-1.2,0.9-2.6,0.9-4.2c0-1.6-0.3-3-0.9-4.2c-0.6-1.2-1.6-2.1-2.9-2.8c-1.3-0.7-2.9-1-4.9-1h-6.8v39.7H-846.9z"/>
	<path class="st1" d="M-794.3,454.2v-48h18.9c3.6,0,6.7,0.6,9.3,1.9c2.6,1.3,4.5,3.1,5.9,5.5c1.4,2.4,2,5.1,2,8.3
		c0,3.2-0.7,5.9-2.1,8.2c-1.4,2.3-3.4,4-6,5.3c-2.6,1.2-5.7,1.8-9.4,1.8h-12.7V429h11c1.9,0,3.5-0.3,4.8-0.8
		c1.3-0.5,2.2-1.3,2.9-2.4c0.6-1.1,0.9-2.4,0.9-4c0-1.6-0.3-2.9-0.9-4c-0.6-1.1-1.6-1.9-2.9-2.5c-1.3-0.6-2.9-0.9-4.9-0.9h-6.8v39.7
		H-794.3z M-768.4,432.4l11.9,21.8h-11.2l-11.7-21.8H-768.4z"/>
	<path class="st1" d="M-697,430.2c0,5.2-1,9.7-3,13.4c-2,3.7-4.7,6.5-8.1,8.4s-7.2,2.9-11.4,2.9c-4.3,0-8.1-1-11.5-2.9
		c-3.4-1.9-6.1-4.7-8-8.4c-2-3.7-3-8.1-3-13.3c0-5.2,1-9.7,3-13.4c2-3.7,4.6-6.5,8-8.4c3.4-1.9,7.2-2.9,11.5-2.9c4.2,0,8,1,11.4,2.9
		c3.4,1.9,6.1,4.7,8.1,8.4C-698,420.5-697,425-697,430.2z M-707.3,430.2c0-3.4-0.5-6.2-1.5-8.6c-1-2.3-2.4-4.1-4.3-5.3
		c-1.8-1.2-4-1.8-6.4-1.8c-2.5,0-4.6,0.6-6.4,1.8c-1.8,1.2-3.2,3-4.3,5.3s-1.5,5.2-1.5,8.6c0,3.4,0.5,6.2,1.5,8.6s2.4,4.1,4.3,5.3
		c1.8,1.2,4,1.8,6.4,1.8c2.5,0,4.6-0.6,6.4-1.8c1.8-1.2,3.2-3,4.3-5.3C-707.8,436.5-707.3,433.6-707.3,430.2z"/>
	<path class="st1" d="M-673.6,406.2l11.6,36.5h0.4l11.6-36.5h11.2l-16.5,48h-13.1l-16.6-48H-673.6z"/>
	<path class="st1" d="M-612.9,406.2v48h-10.1v-48H-612.9z"/>
	<path class="st1" d="M-577.6,454.2h-17v-48h17.1c4.8,0,9,1,12.5,2.9c3.5,1.9,6.2,4.7,8,8.2c1.9,3.6,2.8,7.9,2.8,12.8
		c0,5-0.9,9.3-2.8,12.9c-1.9,3.6-4.6,6.3-8.1,8.3C-568.6,453.2-572.8,454.2-577.6,454.2z M-584.5,445.5h6.4c3,0,5.5-0.5,7.6-1.6
		c2.1-1.1,3.6-2.7,4.6-5c1-2.3,1.6-5.2,1.6-8.8c0-3.5-0.5-6.4-1.6-8.7c-1-2.2-2.6-3.9-4.6-5c-2-1.1-4.6-1.6-7.6-1.6h-6.5V445.5z"/>
	<path class="st1" d="M-536.8,454.2v-48h32.3v8.4h-22.2V426h20.5v8.4h-20.5v11.5h22.3v8.4H-536.8z"/>
	<path class="st1" d="M-486.5,454.2v-48h18.9c3.6,0,6.7,0.6,9.3,1.9c2.6,1.3,4.5,3.1,5.9,5.5c1.4,2.4,2,5.1,2,8.3
		c0,3.2-0.7,5.9-2.1,8.2c-1.4,2.3-3.4,4-6,5.3c-2.6,1.2-5.7,1.8-9.4,1.8h-12.7V429h11c1.9,0,3.5-0.3,4.8-0.8
		c1.3-0.5,2.2-1.3,2.9-2.4c0.6-1.1,0.9-2.4,0.9-4c0-1.6-0.3-2.9-0.9-4c-0.6-1.1-1.6-1.9-2.9-2.5c-1.3-0.6-2.9-0.9-4.9-0.9h-6.8v39.7
		H-486.5z M-460.6,432.4l11.9,21.8h-11.2l-11.7-21.8H-460.6z"/>
</g>
<g>
	<path class="st1" d="M-1345.6,492.6c-2-1.6-4.1-3.4-6.5-5.5c-2.4-2-5.1-4.3-7.9-7c-2.8-2.7-6-5.4-9.1-8.7
		c-3.2-3.2-6.6-6.5-9.9-10.3c-1.7-1.9-3.5-3.8-5.3-5.7c-1.7-2-3.5-4.1-5.3-6.2c-7.2-8.4-14.5-18.1-21.7-28.7
		c-7.2-10.6-14-22.3-20.5-34.7c-6.4-12.5-12.1-25.9-17.2-39.8c-5-13.9-8.9-28.5-11.9-43.3c-3.1-14.8-4.6-29.9-5.5-44.8
		c-0.9-14.9,0-29.6,1.2-43.8c0.9-7,1.6-14,2.9-20.7c0.6-3.4,1.2-6.7,1.8-10c0.8-3.3,1.5-6.5,2.3-9.6c3-12.7,6.8-24.4,10.7-35.1
		c4-10.6,8-20.3,12.1-28.5c1-2.1,1.9-4.1,2.9-6.1c1-1.9,2-3.7,2.9-5.5c1.9-3.5,3.6-6.7,5.2-9.7c3.2-5.8,6-10.1,7.8-13.2
		c0.5-0.8,0.9-1.5,1.2-2.1c0.1,0.3,0.1,0.5,0.1,0.5s15.3-0.1,31-18c11.1-12.6,21-42.2,21-42.2s-28.9,9-38.8,21.3
		c-15.6,19.2-13.9,35.1-13.4,38.2c-0.4,0.6-0.8,1.3-1.3,2.1c-1.9,3-4.8,7.3-8.2,13c-1.6,2.9-3.4,6.1-5.4,9.5c-1,1.7-2,3.5-3,5.4
		c-1,1.9-2,3.9-3,6c-4.3,8.2-8.5,17.8-12.9,28.3c-4.1,10.7-8.3,22.4-11.6,35.1c-0.8,3.2-1.7,6.4-2.5,9.7c-0.7,3.3-1.4,6.7-2.1,10
		c-1.6,6.8-2.3,13.8-3.5,20.9c-1.6,14.3-2.8,29.2-2.3,44.4c0.5,15.1,1.7,30.6,4.4,45.8c2.7,15.2,6.4,30.2,11.1,44.6
		c4.8,14.4,10.4,28.2,16.6,41.2c6.4,12.9,13.1,25.1,20.2,36.2c7.1,11.1,14.3,21.2,21.6,30.1c1.8,2.2,3.6,4.4,5.3,6.5
		c1.8,2.1,3.6,4.1,5.3,6c3.4,4,6.8,7.5,10,10.9c3.1,3.4,6.3,6.4,9.2,9.2c2.8,2.8,5.6,5.3,8.1,7.6c2.5,2.2,4.7,4.3,6.7,5.9
		c2,1.6,3.6,3,5,4.1c2.7,2.2,4.1,3.4,4.1,3.4l7.3-9.8c0,0-1.5-1.2-4.2-3.3C-1341.9,495.5-1343.6,494.2-1345.6,492.6z"/>
	<path class="st1" d="M-1463.2,151.5c0,0,10.1-12,7.6-36.1c-1.7-17-16.4-44.3-16.4-44.3s-12.7,28.5-10.4,44.3
		C-1478.5,143.3-1463.2,151.5-1463.2,151.5z"/>
	<path class="st1" d="M-1437.6,99c0,0,12-10,13.7-34.1c1.2-17-8.5-46.7-8.5-46.7s-17.4,25.6-17.9,41.7
		C-1451.2,88.2-1437.6,99-1437.6,99z"/>
	<path class="st1" d="M-1398.1,78c-24.9,11.2-28.5,28.6-28.5,28.6s13.8,7,35.5-1.7c15.3-6.1,36.9-28,36.9-28S-1383.9,71.6-1398.1,78
		z"/>
	<path class="st1" d="M-1421.1,126.1c-23.7,13.7-25.6,31.5-25.6,31.5s14.4,5.5,35.1-5.4c14.6-7.7,34-31.7,34-31.7
		S-1407.6,118.3-1421.1,126.1z"/>
	<path class="st1" d="M-1394.9,165.8c0,0-30.2,0.5-43,9.4c-22.5,15.8-22.9,33.6-22.9,33.6s14.8,4.2,34.6-8.5
		C-1412.2,191.4-1394.9,165.8-1394.9,165.8z"/>
	<path class="st1" d="M-1428.2,249.1c11.6-12,22.9-41.1,22.9-41.1s-29.3,7.6-39.7,19.4c-18.4,20.7-14.9,38.2-14.9,38.2
		S-1444.7,266.1-1428.2,249.1z"/>
	<path class="st1" d="M-1424.3,298.3c9.5-13.9,15.8-44.5,15.8-44.5s-27.6,12.7-36,26.1c-14.8,23.7-8.5,40.3-8.5,40.3
		S-1437.7,318.1-1424.3,298.3z"/>
	<path class="st1" d="M-1408.8,347.1c6.8-15.5,7.6-46.8,7.6-46.8s-24.8,17.8-30.7,32.6c-10.3,26.1-1.1,41.2-1.1,41.2
		S-1418.4,369.1-1408.8,347.1z"/>
	<path class="st1" d="M-1387.2,392.8c4.6-16.4,1.1-47.5,1.1-47.5s-22.1,21.3-25.9,36.9c-6.6,27.4,4.6,40.9,4.6,40.9
		S-1393.7,416-1387.2,392.8z"/>
	<path class="st1" d="M-1368.3,463.4c0,0,12.2-9.7,14.4-33.8c1.6-17-7.6-46.8-7.6-46.8s-17.9,25.3-18.7,41.3
		C-1381.8,452.2-1368.3,463.4-1368.3,463.4z"/>
	<path class="st1" d="M-1477.4,209.9c0,0,8.2-14.6,1-39.1c-5.1-17.3-25.7-42.7-25.7-42.7s-7.7,32.3-2.3,48.3
		C-1494.9,204.6-1477.4,209.9-1477.4,209.9z"/>
	<path class="st1" d="M-1481.1,266.2c0,0,5.1-16-6.7-38.5c-8.3-15.9-33.5-36.4-33.5-36.4s-1.2,33.2,7.2,47.8
		C-1499.3,264.7-1481.1,266.2-1481.1,266.2z"/>
	<path class="st1" d="M-1471.7,327.4c0,0,1.9-17.5-14.8-37.9c-11.8-14.4-41.8-29.7-41.8-29.7s5.7,34.2,17.3,47.3
		C-1490.5,330-1471.7,327.4-1471.7,327.4z"/>
	<path class="st1" d="M-1495,375.9c26.1,17.9,44.5,10.5,44.5,10.5s-2.2-18.2-23.9-34.5c-15.3-11.5-49.2-19.3-49.2-19.3
		S-1509.8,365.7-1495,375.9z"/>
	<path class="st1" d="M-1419.4,436.6c0,0-5.8-17.3-30.3-28.5c-17.3-7.9-52-8.2-52-8.2s20.2,29.4,36.7,36.1
		C-1436,447.8-1419.4,436.6-1419.4,436.6z"/>
	<path class="st1" d="M-1418.9,460c-19.8-3.1-55.3,6.4-55.3,6.4s28.3,24.3,47,26.5c32.8,3.8,46.8-12.4,46.8-12.4
		S-1390.9,464.4-1418.9,460z"/>
</g>
<g>
	<path class="st1" d="M-326.9,452.7c1.8-2.1,3.6-4.3,5.5-6.5c7.5-8.9,15-19,22.4-30.1c7.4-11.1,14.4-23.3,21-36.2
		c6.5-13,12.3-26.8,17.2-41.2c4.9-14.4,8.7-29.4,11.5-44.6c2.9-15.2,4.1-30.6,4.6-45.8c0.5-15.2-0.7-30.1-2.4-44.4
		c-1.2-7.1-2-14.2-3.6-20.9c-0.7-3.4-1.4-6.7-2.2-10c-0.9-3.3-1.8-6.5-2.6-9.7c-3.5-12.7-7.8-24.5-12.1-35.1
		c-4.5-10.6-8.9-20.1-13.4-28.3c-1.1-2.1-2.1-4.1-3.1-6c-1.1-1.9-2.2-3.7-3.2-5.4c-2-3.5-3.9-6.7-5.6-9.5c-3.5-5.7-6.5-10-8.5-13
		c-0.5-0.8-1-1.5-1.4-2.1c0.6-3.2,2.4-19-13.9-38.2c-10.4-12.3-40.4-21.3-40.4-21.3s10.4,29.6,21.9,42.2c16.3,17.8,32.3,18,32.3,18
		s0-0.2,0.1-0.5c0.4,0.6,0.8,1.3,1.3,2.1c1.9,3.1,4.8,7.4,8.1,13.2c1.6,2.9,3.4,6.2,5.4,9.7c1,1.8,2,3.6,3,5.5c1,2,1.9,4,3,6.1
		c4.2,8.3,8.4,17.9,12.6,28.5c4,10.7,8,22.4,11.1,35.1c0.8,3.2,1.6,6.4,2.4,9.6c0.6,3.3,1.2,6.6,1.9,10c1.4,6.7,2.1,13.7,3,20.7
		c1.3,14.2,2.1,28.9,1.2,43.8c-0.8,14.9-2.5,30-5.7,44.8c-3.2,14.8-7.2,29.4-12.4,43.3c-5.2,13.9-11.2,27.3-17.8,39.8
		c-6.8,12.4-13.8,24.1-21.3,34.7c-7.5,10.6-15,20.2-22.5,28.7c-1.9,2.1-3.7,4.2-5.5,6.2c-1.9,2-3.7,3.9-5.5,5.7
		c-3.5,3.8-7.1,7.1-10.3,10.3c-3.2,3.2-6.5,6-9.4,8.7c-2.9,2.7-5.7,5-8.2,7c-2.5,2.1-4.7,3.9-6.8,5.5c-2.1,1.6-3.8,2.9-5.3,4
		c-2.9,2.2-4.4,3.3-4.4,3.3l7.6,9.8c0,0,1.5-1.2,4.3-3.4c1.4-1.1,3.1-2.5,5.2-4.1c2-1.6,4.4-3.7,6.9-5.9c2.6-2.2,5.5-4.7,8.4-7.6
		c3-2.8,6.3-5.8,9.5-9.2c3.3-3.4,6.9-6.9,10.4-10.9C-330.6,456.8-328.7,454.8-326.9,452.7z"/>
	<path class="st1" d="M-232.9,105.6c2.3-15.9-10.9-44.3-10.9-44.3s-15.3,27.4-17.1,44.3c-2.5,24,7.9,36.1,7.9,36.1
		S-236.9,133.5-232.9,105.6z"/>
	<path class="st1" d="M-279.4,89.2c0,0,14.2-10.9,13.2-39c-0.6-16-18.6-41.7-18.6-41.7s-10.2,29.6-8.9,46.7
		C-291.9,79.3-279.4,89.2-279.4,89.2z"/>
	<path class="st1" d="M-320.5,68.1c-14.7-6.4-45.6-1-45.6-1s22.5,21.9,38.4,28c22.6,8.7,36.9,1.7,36.9,1.7S-294.6,79.3-320.5,68.1z"
		/>
	<path class="st1" d="M-296.6,116.3c-14-7.8-45.3-5.6-45.3-5.6s20.1,24,35.3,31.7c21.6,10.9,36.5,5.4,36.5,5.4
		S-271.9,130-296.6,116.3z"/>
	<path class="st1" d="M-279.2,165.4c-13.3-9-44.6-9.4-44.6-9.4s18,25.6,32.5,34.6c20.6,12.7,35.9,8.5,35.9,8.5
		S-255.8,181.1-279.2,165.4z"/>
	<path class="st1" d="M-256.1,255.7c0,0,3.6-17.5-15.5-38.2c-10.9-11.8-41.3-19.4-41.3-19.4s11.7,29.1,23.8,41.1
		C-272.1,256.3-256.1,255.7-256.1,255.7z"/>
	<path class="st1" d="M-272.3,270.1c-8.7-13.4-37.4-26.1-37.4-26.1s6.6,30.6,16.5,44.5c14,19.7,29.8,21.8,29.8,21.8
		S-256.9,293.7-272.3,270.1z"/>
	<path class="st1" d="M-284.2,364.3c0,0,9.5-15.1-1.2-41.2c-6.1-14.8-31.9-32.6-31.9-32.6s0.8,31.3,7.9,46.8
		C-299.4,359.3-284.2,364.3-284.2,364.3z"/>
	<path class="st1" d="M-333,335.5c0,0-3.7,31.1,1.1,47.5c6.8,23.2,21.1,30.3,21.1,30.3s11.6-13.6,4.7-40.9
		C-310,356.8-333,335.5-333,335.5z"/>
	<path class="st1" d="M-366.4,419.8c2.3,24.1,15,33.8,15,33.8s14-11.1,12.4-39.3c-0.9-16-19.5-41.3-19.5-41.3
		S-368,402.8-366.4,419.8z"/>
	<path class="st1" d="M-238.1,200.1c0,0,18.2-5.3,28-33.5c5.6-16.1-2.4-48.3-2.4-48.3s-21.4,25.4-26.7,42.7
		C-246.6,185.4-238.1,200.1-238.1,200.1z"/>
	<path class="st1" d="M-227.3,217.9c-12.3,22.5-6.9,38.5-6.9,38.5s18.9-1.5,34.3-27.1c8.7-14.6,7.5-47.8,7.5-47.8
		S-218.6,202-227.3,217.9z"/>
	<path class="st1" d="M-228.6,279.7C-246,300-244,317.6-244,317.6s19.6,2.6,40.9-20.3c12.1-13,18-47.3,18-47.3
		S-216.3,265.3-228.6,279.7z"/>
	<path class="st1" d="M-266.1,376.5c0,0,19.2,7.4,46.3-10.5c15.4-10.2,29.7-43.3,29.7-43.3s-35.2,7.8-51.1,19.3
		C-263.8,358.4-266.1,376.5-266.1,376.5z"/>
	<path class="st1" d="M-298.3,426.7c0,0,17.2,11.3,47.4-0.6c17.2-6.7,38.2-36.1,38.2-36.1s-36.1,0.3-54,8.2
		C-292.3,409.4-298.3,426.7-298.3,426.7z"/>
	<path class="st1" d="M-298.9,450.1c-29.1,4.5-40,20.5-40,20.5s14.5,16.2,48.7,12.4c19.4-2.2,48.9-26.5,48.9-26.5
		S-278.4,447-298.9,450.1z"/>
</g>
<g>
	<g>
		<path class="st2" d="M-267.5,1647.8c0,0,38.7,60.9,30.8,118.9c0,0-1.2,15.7-19.3,29c0,0-13.3,4.9,30.8,72.5c0,0,21.2,28.4-7.9,35
			c0,0-21.7,1.8-14.5,7.2c0,0,11.5,19.9,0,25.4c0,0,4.2,7.2,0,9.6c0,0,0,7.2-15.7,14.5c0,0-12.6,1.2,1.2,18.1
			c0,0,9.6,32.6-44.7,44.7c0,0-48.9,5.4-83.3-9.1c0,0-198.7-86.3-244.6,31.4c0,0-1.8-114.7,106.8-160.6c0,0,131-58.5,61-159.4
			c0,0-123.8-188.4,92.4-15.7C-374.3,1709.4-239.1,1812.6-267.5,1647.8z"/>
		<g>
			<path class="st1" d="M-1499.2,1833.1h3c3.8,0,5.7-0.9,7-4.6l46.9-126.8h22.3l46.9,126.8c1.3,3.8,3.3,4.6,7,4.6h3.1v18.3h-11.9
				c-10.6,0-14-2.6-17.4-12.3l-11.2-30.8h-55.1l-11.2,30.8c-3.6,9.7-7,12.3-17.6,12.3h-11.8V1833.1z M-1408.8,1790.5l-16.3-45.6
				c-2.8-7.9-5.9-21-5.9-21h-0.4c0,0-2.9,13.2-5.7,21l-16.3,45.6H-1408.8z"/>
			<path class="st1" d="M-1338.8,1724.5c0-3.1-1.7-4.6-4.6-4.6h-9.1v-18.3h21.4c9.5,0,13.6,4,13.6,13.6v113.2c0,2.9,1.7,4.6,4.6,4.6
				h41.4c2.9,0,4.6-1.7,4.6-4.6v-9.5h19.3v18.9c0,9.5-4,13.6-13.6,13.6h-64.1c-9.5,0-13.6-4-13.6-13.6V1724.5z"/>
			<path class="st1" d="M-1230.3,1724.5c0-3.1-1.7-4.6-4.6-4.6h-9.1v-18.3h21.4c9.5,0,13.6,4,13.6,13.6v113.2c0,2.9,1.7,4.6,4.6,4.6
				h41.4c2.9,0,4.6-1.7,4.6-4.6v-9.5h19.3v18.9c0,9.5-4,13.6-13.6,13.6h-64.1c-9.5,0-13.6-4-13.6-13.6V1724.5z"/>
		</g>
		<g>
			<path class="st1" d="M-1017.2,1699.1c43.2,0,77,33.3,77,76.4c0,44.1-33.7,78.4-77,78.4c-43.2,0-76.8-34.4-76.8-78.4
				C-1094,1732.4-1060.4,1699.1-1017.2,1699.1z M-1017.2,1833.9c30.4,0,54.9-25.5,54.9-58.5c0-32-24.6-56.6-54.9-56.6
				c-30.4,0-54.7,24.6-54.7,56.6C-1071.8,1808.5-1047.5,1833.9-1017.2,1833.9z"/>
			<path class="st1" d="M-924.9,1833.1h9.1c2.9,0,4.6-1.7,4.6-4.6v-126.8h19.3l66.5,94.7c5.5,8.1,12.5,20.3,12.5,20.3h0.4
				c0,0-1.5-11.9-1.5-20.3v-81.2c0-9.5,4-13.6,13.8-13.6h21.2v18.3h-9.1c-2.9,0-4.6,1.5-4.6,4.6v126.8h-19.1l-66.8-94.7
				c-5.5-8.1-12.3-20.3-12.3-20.3h-0.4c0,0,1.3,12.1,1.3,20.3v81.2c0,9.5-4,13.6-13.6,13.6h-21.4L-924.9,1833.1z"/>
		</g>
		<path class="st1" d="M-331.1,1647c0,0,39,60.8,31.4,118.8c0,0-1.1,15.7-19.2,29c0,0-13.3,4.9,31.1,72.3c0,0,21.3,28.3-7.7,35
			c0,0-21.7,1.9-14.4,7.3c0,0,11.5,19.8,0.1,25.4c0,0,4.2,7.2,0,9.6c0,0,0,7.2-15.6,14.6c0,0-12.6,1.2,1.3,18.1
			c0,0,9.8,32.6-44.5,44.9c0,0-48.9,5.6-83.3-8.7c0,0-199.1-85.4-244.4,32.6c0,0-2.4-114.7,106.1-161.1c0,0,130.8-59.2,60.3-159.7
			c0,0-124.7-187.8,92.3-16.1C-437.7,1709.1-301.9,1811.7-331.1,1647z"/>
		<g>
			<path class="st1" d="M-725.7,1798.1l67.4-96.5h24.2v91.8h23.3v18.3h-23.3v39.6h-21.2v-39.6h-70.4V1798.1z M-655.2,1741.9
				c0-6.8,0.9-15.2,0.9-15.2h-0.4c0,0-3.8,7.2-7.7,12.5l-32.6,44.9c-3.8,5.3-7.9,9.5-7.9,9.5v0.4c0,0,6.2-0.6,12.7-0.6h35V1741.9z"
				/>
		</g>
		<g>
			<path class="st1" d="M-1237.6,1943.4c0.4-2.5,0.6-4,0.6-5.5c0-2.3-0.9-3.3-3.8-3.3h-9.1l3.6-18.4h20c8.9,0,11.8,3.6,11.8,8.2
				c0,2.9-1.1,7.6-2.3,10.6h0.4c7.6-11.6,20.8-21.5,39.6-21.5c26.1,0,41.7,17.7,41.7,47c0,40.9-30.1,70.4-61.4,70.4
				c-14.4,0-27.4-6.7-33.3-19.4h-0.4c0,0-0.4,4.6-1.5,10.4l-9.7,50.8h-21.5L-1237.6,1943.4z M-1198.8,2012.2
				c19.8,0,41.9-19.2,41.9-50.3c0-19.2-9.5-29.7-25.3-29.7c-23,0-41.2,25.3-41.2,50.8C-1223.5,1999.1-1215.5,2012.2-1198.8,2012.2z"
				/>
			<path class="st1" d="M-1117.8,2012.9l22.1-114.5c0.4-2.3,0.6-3.3,0.6-4.9c0-2.5-1.3-3.3-4-3.3h-9.1l3.8-18.4h20.4
				c8.6,0,12.6,2.9,12.6,9.9c0,1.7-0.4,4-0.9,6.4l-22.4,114.7c-0.2,1.1-0.6,2.9-0.6,3.6c0,2.3,1.3,3.3,4.2,3.3h9.1l-3.6,18.4h-20.6
				c-8.4,0-12.4-3.6-12.4-10.2C-1118.5,2016.4-1118.3,2014.6-1117.8,2012.9z"/>
			<path class="st1" d="M-1052.7,1986.5l8.9-45.2c0.2-1.1,0.6-2.9,0.6-3.8c0-1.9-1.3-3.1-4.2-3.1h-9.1l3.6-18.4h20.8
				c8.4,0,12.4,3.6,12.4,10.2c0,1.5-0.2,3.1-0.6,5.1l-9.9,51.6c-0.9,3.8-1.3,7.6-1.3,11.1c0,9.5,3.8,16.9,16.9,16.9
				c22.4,0,40.9-24.6,45.2-45.9l9.5-48.9h21.5l-16.6,85.8c-0.4,1.3-0.6,3.3-0.6,4.4c0,2.3,1.3,3.6,4.2,3.6h8.9l-3.6,18.4h-20.4
				c-8.2,0-12-3.8-12-9.9c0-4,1.5-9.5,2.7-14.2h-0.4c-6.2,9.9-22.1,26.8-46.1,26.8c-20.6,0-31.4-11.1-31.4-30.4
				C-1054,1996.3-1053.6,1991.6-1052.7,1986.5z"/>
			<path class="st1" d="M-919.7,1997.6c0,0,11.6,15.8,33.5,15.8c12.6,0,22.1-5.9,22.1-15.8c0-9.5-9.7-13.3-19.4-17.3
				c-14.8-5.7-31.9-13.3-31.9-33.3c0-22.4,21.1-33.7,43.6-33.7c17.7,0,40.9,7.1,37.5,24.4l-1.7,8h-18.8l0.6-4.2
				c1.1-6.2-5.5-10.8-17.9-10.8c-13.1,0-21.5,5.9-21.5,14.8c0,10.4,11.3,14.4,21.9,18.6c14.2,5.7,29.9,12.6,29.9,31.4
				c0,20.6-18.4,35.2-44.7,35.2c-30.6,0-44.1-19-44.1-19L-919.7,1997.6z"/>
		</g>
	</g>
</g>
<text transform="matrix(1 0 0 1 -825.9824 1978.3383)" class="st1" style="font-family:'Poppins-Light'; font-size:136.6363px;">®</text>
<g>
	<g>
		<path class="st3" d="M505.2,437.1h-10.2l15.5-44.8h12.2l15.5,44.8H528l-11.2-34.6h-0.4L505.2,437.1z M504.6,419.5h24v7.4h-24
			V419.5z"/>
		<path class="st3" d="M552.8,437.1v-44.8h29.7v7.8h-20.2v10.7h18.2v7.8h-18.2v18.5H552.8z"/>
		<path class="st3" d="M598.1,437.1v-44.8h29.7v7.8h-20.2v10.7h18.2v7.8h-18.2v18.5H598.1z"/>
		<path class="st3" d="M652.9,392.3v44.8h-9.5v-44.8H652.9z"/>
		<path class="st3" d="M670,437.1v-44.8h9.5v37h19.2v7.8H670z"/>
		<path class="st3" d="M723.7,392.3v44.8h-9.5v-44.8H723.7z"/>
		<path class="st3" d="M748.5,437.1h-10.2l15.5-44.8H766l15.5,44.8h-10.2l-11.2-34.6h-0.3L748.5,437.1z M747.8,419.5h24v7.4h-24
			V419.5z"/>
		<path class="st3" d="M788.9,400.1v-7.8h36.8v7.8h-13.7v37h-9.4v-37H788.9z"/>
		<path class="st3" d="M841,437.1v-44.8h30.2v7.8h-20.7v10.7h19.2v7.8h-19.2v10.7h20.8v7.8H841z"/>
	</g>
	<g>
		<g>
			<path class="st4" d="M1055.2,72.1c0,0,24.5,38.7,19.5,75.5c0,0-0.8,9.9-12.3,18.4c0,0-8.4,3.1,19.5,46c0,0,13.4,18-5,22.2
				c0,0-13.8,1.2-9.2,4.6c0,0,7.3,12.6,0,16.1c0,0,2.7,4.6,0,6.1c0,0,0,4.6-9.9,9.2c0,0-8,0.8,0.8,11.5c0,0,6.1,20.7-28.4,28.4
				c0,0-31.1,3.4-52.9-5.8c0,0-126.1-54.8-155.2,20c0,0-1.2-72.8,67.8-102c0,0,83.2-37.2,38.7-101.2c0,0-78.6-119.6,58.6-9.9
				C987.4,111.2,1073.2,176.7,1055.2,72.1z"/>
			<g>
				<path class="st3" d="M273.4,189.7h1.9c2.4,0,3.6-0.5,4.5-2.9l29.8-80.5h14.1l29.8,80.5c0.8,2.4,2.1,2.9,4.5,2.9h2v11.6h-7.5
					c-6.7,0-8.9-1.6-11-7.8l-7.1-19.5h-35l-7.1,19.5c-2.3,6.2-4.5,7.8-11.2,7.8h-7.5V189.7z M330.7,162.7l-10.4-28.9
					c-1.8-5-3.8-13.3-3.8-13.3h-0.3c0,0-1.9,8.4-3.6,13.3l-10.4,28.9H330.7z"/>
				<path class="st3" d="M375.1,120.8c0-2-1.1-2.9-2.9-2.9h-5.8v-11.6H380c6,0,8.6,2.5,8.6,8.6v71.9c0,1.9,1.1,2.9,2.9,2.9h26.3
					c1.9,0,2.9-1.1,2.9-2.9v-6h12.3v12c0,6-2.5,8.6-8.6,8.6h-40.7c-6,0-8.6-2.5-8.6-8.6V120.8z"/>
				<path class="st3" d="M444,120.8c0-2-1.1-2.9-2.9-2.9h-5.8v-11.6h13.6c6,0,8.6,2.5,8.6,8.6v71.9c0,1.9,1.1,2.9,2.9,2.9h26.3
					c1.9,0,2.9-1.1,2.9-2.9v-6H502v12c0,6-2.5,8.6-8.6,8.6h-40.7c-6,0-8.6-2.5-8.6-8.6V120.8z"/>
			</g>
			<g>
				<path class="st3" d="M579.3,104.7c27.4,0,48.9,21.1,48.9,48.5c0,28-21.4,49.8-48.9,49.8c-27.4,0-48.8-21.8-48.8-49.8
					C530.6,125.8,551.9,104.7,579.3,104.7z M579.3,190.2c19.3,0,34.8-16.2,34.8-37.2c0-20.3-15.6-35.9-34.8-35.9
					c-19.3,0-34.7,15.6-34.7,35.9C544.6,174.1,560,190.2,579.3,190.2z"/>
				<path class="st3" d="M637.9,189.7h5.8c1.9,0,2.9-1.1,2.9-2.9v-80.5h12.3l42.2,60.1c3.5,5.1,8,12.9,8,12.9h0.3c0,0-1-7.5-1-12.9
					v-51.6c0-6,2.5-8.6,8.8-8.6h13.4v11.6h-5.8c-1.9,0-2.9,1-2.9,2.9v80.5h-12.1l-42.4-60.1c-3.5-5.1-7.8-12.9-7.8-12.9h-0.3
					c0,0,0.8,7.7,0.8,12.9v51.6c0,6-2.5,8.6-8.6,8.6h-13.6V189.7z"/>
			</g>
			<path class="st3" d="M1014.8,71.6c0,0,24.7,38.6,19.9,75.4c0,0-0.7,9.9-12.2,18.4c0,0-8.4,3.1,19.8,45.9c0,0,13.5,18-4.9,22.2
				c0,0-13.8,1.2-9.2,4.6c0,0,7.3,12.6,0.1,16.1c0,0,2.7,4.6,0,6.1c0,0,0,4.6-9.9,9.2c0,0-8,0.8,0.8,11.5c0,0,6.2,20.7-28.3,28.5
				c0,0-31,3.6-52.9-5.5c0,0-126.4-54.2-155.1,20.7c0,0-1.5-72.8,67.3-102.3c0,0,83-37.6,38.3-101.4c0,0-79.2-119.2,58.6-10.2
				C947.1,111,1033.3,176.1,1014.8,71.6z"/>
			<g>
				<path class="st3" d="M764.3,167.5l42.8-61.2h15.4v58.3h14.8v11.6h-14.8v25.2H809v-25.2h-44.7V167.5z M809.1,131.8
					c0-4.3,0.5-9.7,0.5-9.7h-0.3c0,0-2.4,4.6-4.9,8l-20.7,28.5c-2.4,3.4-5,6-5,6v0.3c0,0,3.9-0.4,8.1-0.4h22.2V131.8z"/>
			</g>
			<g>
				<path class="st3" d="M439.4,259.7c0.3-1.6,0.4-2.5,0.4-3.5c0-1.4-0.5-2.1-2.4-2.1h-5.8l2.3-11.7h12.7c5.6,0,7.5,2.3,7.5,5.2
					c0,1.9-0.7,4.8-1.4,6.7h0.3c4.8-7.3,13.2-13.6,25.2-13.6c16.6,0,26.5,11.2,26.5,29.8c0,26-19.1,44.7-38.9,44.7
					c-9.1,0-17.4-4.3-21.1-12.3h-0.3c0,0-0.3,2.9-1,6.6l-6.2,32.2h-13.6L439.4,259.7z M464,303.4c12.5,0,26.6-12.2,26.6-32
					c0-12.2-6-18.9-16-18.9c-14.6,0-26.1,16-26.1,32.2C448.4,295.1,453.4,303.4,464,303.4z"/>
				<path class="st3" d="M515.4,303.8l14.1-72.7c0.3-1.4,0.4-2.1,0.4-3.1c0-1.6-0.8-2.1-2.5-2.1h-5.8l2.4-11.7h13c5.5,0,8,1.9,8,6.3
					c0,1.1-0.3,2.5-0.5,4l-14.2,72.8c-0.1,0.7-0.4,1.9-0.4,2.3c0,1.4,0.8,2.1,2.7,2.1h5.8l-2.3,11.7h-13.1c-5.3,0-7.9-2.3-7.9-6.4
					C515,306,515.1,304.9,515.4,303.8z"/>
				<path class="st3" d="M556.8,287l5.6-28.7c0.1-0.7,0.4-1.9,0.4-2.4c0-1.2-0.8-2-2.7-2h-5.8l2.3-11.7h13.2c5.3,0,7.9,2.3,7.9,6.4
					c0,1-0.1,2-0.4,3.2l-6.3,32.8c-0.5,2.4-0.8,4.8-0.8,7.1c0,6,2.4,10.7,10.7,10.7c14.2,0,26-15.6,28.7-29.1l6-31.1h13.6
					l-10.6,54.4c-0.3,0.8-0.4,2.1-0.4,2.8c0,1.4,0.8,2.3,2.7,2.3h5.6l-2.3,11.7h-13c-5.2,0-7.6-2.4-7.6-6.3c0-2.5,1-6,1.7-9h-0.3
					c-3.9,6.3-14.1,17-29.3,17c-13.1,0-20-7.1-20-19.3C555.9,293.3,556.2,290.3,556.8,287z"/>
				<path class="st3" d="M641.2,294.1c0,0,7.3,10,21.3,10c8,0,14.1-3.8,14.1-10c0-6-6.2-8.4-12.3-11c-9.4-3.6-20.2-8.4-20.2-21.1
					c0-14.2,13.4-21.4,27.7-21.4c11.2,0,26,4.5,23.8,15.5l-1.1,5.1h-11.9l0.4-2.7c0.7-3.9-3.5-6.9-11.4-6.9
					c-8.3,0-13.6,3.8-13.6,9.4c0,6.6,7.2,9.1,13.9,11.8c9,3.6,19,8,19,20c0,13.1-11.7,22.4-28.4,22.4c-19.4,0-28-12.1-28-12.1
					L641.2,294.1z"/>
			</g>
		</g>
	</g>
	<g>
		<path class="st3" d="M705.3,237.9c0-10,7.1-17.4,17.2-17.4c10,0,17.1,7.5,17.1,17.4s-7.1,17.3-17.1,17.3
			C712.5,255.3,705.3,247.9,705.3,237.9z M708.5,237.9c0,8.4,5.6,14.5,14,14.5c8.4,0,14-6.1,14-14.5c0-8.4-5.6-14.5-14-14.5
			C714,223.4,708.5,229.5,708.5,237.9z M725.5,239.6l5.2,7.5l-4.4,0.1l-4.8-7.4h-2v7.4h-3.7v-18.6h8.1c3.8,0,6.2,2.2,6.2,5.6
			C730.1,237.1,728.3,239.1,725.5,239.6z M719.5,231.9v4.8h4.1c1.6,0,2.8-0.7,2.8-2.4c0-1.6-1.2-2.3-2.8-2.3H719.5z"/>
	</g>
	<g>
		<path class="st3" d="M221.4,472.7c-1.9-1.4-3.8-3.2-6-5.1c-2.3-1.9-4.7-4-7.3-6.5c-2.6-2.5-5.5-5-8.4-8c-2.9-3-6.1-6.1-9.2-9.6
			c-1.6-1.7-3.2-3.5-4.9-5.3c-1.6-1.9-3.2-3.8-4.9-5.8c-6.7-7.8-13.4-16.8-20.1-26.6c-6.7-9.8-13-20.7-19.1-32.2
			c-5.9-11.6-11.3-24-15.9-36.9c-4.6-12.9-8.2-26.5-11.1-40.2c-2.9-13.7-4.3-27.7-5.1-41.5c-0.8-13.8,0-27.5,1.1-40.6
			c0.9-6.5,1.4-13,2.7-19.2c0.6-3.1,1.1-6.2,1.7-9.3c0.7-3,1.4-6,2.1-9c2.8-11.8,6.3-22.7,9.9-32.6c3.7-9.9,7.5-18.8,11.2-26.5
			c0.9-1.9,1.8-3.8,2.6-5.6c0.9-1.8,1.8-3.5,2.7-5.1c1.7-3.3,3.3-6.3,4.8-9c3-5.3,5.6-9.4,7.3-12.3c0.4-0.7,0.8-1.4,1.2-1.9
			c0.1,0.3,0.1,0.5,0.1,0.5s14.2-0.1,28.8-16.7c10.3-11.7,19.5-39.1,19.5-39.1s-26.8,8.3-36,19.7c-14.5,17.9-12.9,32.5-12.4,35.5
			c-0.4,0.6-0.8,1.2-1.2,2c-1.7,2.8-4.4,6.8-7.6,12.1c-1.5,2.7-3.2,5.6-5,8.9c-0.9,1.6-1.9,3.3-2.8,5c-0.9,1.8-1.8,3.6-2.8,5.6
			c-4,7.6-7.9,16.5-11.9,26.3c-3.8,9.9-7.7,20.8-10.8,32.6c-0.8,3-1.5,6-2.3,9c-0.6,3.1-1.3,6.2-1.9,9.3c-1.4,6.3-2.2,12.8-3.2,19.4
			c-1.5,13.3-2.6,27.1-2.1,41.2c0.4,14.1,1.5,28.4,4.1,42.5c2.5,14.1,5.9,28,10.3,41.4c4.4,13.3,9.6,26.2,15.4,38.2
			c5.9,12,12.1,23.3,18.8,33.6c6.6,10.3,13.3,19.7,20,27.9c1.7,2.1,3.3,4.1,4.9,6.1c1.7,1.9,3.3,3.8,4.9,5.6c3.1,3.7,6.3,7,9.3,10.1
			c2.9,3.2,5.9,5.9,8.5,8.5c2.6,2.6,5.2,4.9,7.5,7c2.3,2.1,4.4,4,6.2,5.5c1.8,1.5,3.4,2.8,4.6,3.8c2.5,2.1,3.8,3.2,3.8,3.2l6.8-9.1
			c0,0-1.4-1.1-3.9-3.1C224.8,475.4,223.2,474.2,221.4,472.7z"/>
		<path class="st3" d="M112.3,156.2c0,0,9.3-11.2,7.1-33.5c-1.6-15.7-15.2-41.1-15.2-41.1s-11.8,26.4-9.7,41.1
			C98.1,148.6,112.3,156.2,112.3,156.2z"/>
		<path class="st3" d="M136,107.5c0,0,11.1-9.2,12.7-31.6c1.1-15.8-7.9-43.3-7.9-43.3s-16.1,23.8-16.6,38.7
			C123.4,97.4,136,107.5,136,107.5z"/>
		<path class="st3" d="M172.7,87.9c-23.1,10.4-26.5,26.6-26.5,26.6s12.8,6.5,32.9-1.6c14.2-5.7,34.3-26,34.3-26S185.8,82,172.7,87.9
			z"/>
		<path class="st3" d="M151.3,132.6c-22,12.8-23.7,29.2-23.7,29.2s13.4,5.1,32.6-5c13.6-7.1,31.6-29.4,31.6-29.4
			S163.8,125.3,151.3,132.6z"/>
		<path class="st3" d="M175.7,169.4c0,0-28,0.4-39.9,8.7c-20.9,14.6-21.3,31.2-21.3,31.2s13.7,3.9,32.1-7.9
			C159.6,193.2,175.7,169.4,175.7,169.4z"/>
		<path class="st3" d="M144.7,246.7c10.8-11.2,21.2-38.1,21.2-38.1s-27.2,7.1-36.9,18C112,245.8,115.2,262,115.2,262
			S129.4,262.5,144.7,246.7z"/>
		<path class="st3" d="M148.4,292.4c8.8-12.9,14.7-41.3,14.7-41.3s-25.6,11.8-33.4,24.2c-13.7,22-7.9,37.4-7.9,37.4
			S135.9,310.7,148.4,292.4z"/>
		<path class="st3" d="M162.8,337.7c6.3-14.4,7-43.5,7-43.5s-23,16.5-28.5,30.3c-9.6,24.2-1,38.2-1,38.2S153.8,358.1,162.8,337.7z"
			/>
		<path class="st3" d="M182.8,380c4.3-15.2,1-44.1,1-44.1s-20.5,19.8-24,34.2c-6.1,25.4,4.2,38,4.2,38S176.7,401.6,182.8,380z"/>
		<path class="st3" d="M200.3,445.6c0,0,11.3-9,13.4-31.3c1.5-15.7-7-43.5-7-43.5s-16.6,23.4-17.4,38.3
			C187.8,435.2,200.3,445.6,200.3,445.6z"/>
		<path class="st3" d="M99.1,210.3c0,0,7.6-13.6,0.9-36.3c-4.7-16.1-23.8-39.6-23.8-39.6s-7.1,29.9-2.1,44.8
			C82.9,205.4,99.1,210.3,99.1,210.3z"/>
		<path class="st3" d="M95.6,262.6c0,0,4.8-14.9-6.2-35.8c-7.7-14.7-31-33.8-31-33.8s-1.1,30.8,6.7,44.4
			C78.8,261.2,95.6,262.6,95.6,262.6z"/>
		<path class="st3" d="M104.4,319.4c0,0,1.8-16.3-13.8-35.2c-11-13.3-38.8-27.6-38.8-27.6s5.3,31.8,16,43.9
			C86.9,321.8,104.4,319.4,104.4,319.4z"/>
		<path class="st3" d="M82.8,364.4c24.2,16.6,41.3,9.7,41.3,9.7s-2.1-16.9-22.2-32c-14.2-10.6-45.6-17.9-45.6-17.9
			S69,354.9,82.8,364.4z"/>
		<path class="st3" d="M152.9,420.7c0,0-5.4-16.1-28.1-26.4c-16.1-7.3-48.2-7.6-48.2-7.6s18.7,27.3,34.1,33.5
			C137.5,431.1,152.9,420.7,152.9,420.7z"/>
		<path class="st3" d="M153.4,442.4c-18.3-2.9-51.3,5.9-51.3,5.9s26.3,22.6,43.6,24.6c30.5,3.6,43.4-11.5,43.4-11.5
			S179.4,446.5,153.4,442.4z"/>
	</g>
	<g>
		<path class="st3" d="M1166.7,435.7c1.7-2,3.4-4,5.1-6.1c7-8.3,13.9-17.7,20.8-27.9c6.9-10.3,13.4-21.6,19.5-33.6
			c6-12.1,11.4-24.9,16-38.2c4.6-13.4,8.1-27.3,10.7-41.4c2.7-14.1,3.8-28.4,4.3-42.5c0.5-14.1-0.7-27.9-2.2-41.2
			c-1.1-6.6-1.9-13.1-3.4-19.4c-0.7-3.1-1.3-6.3-2-9.3c-0.8-3-1.6-6-2.4-9c-3.2-11.8-7.2-22.7-11.2-32.6
			c-4.2-9.8-8.3-18.7-12.4-26.3c-1-1.9-2-3.8-2.9-5.6c-1-1.8-2-3.4-2.9-5c-1.9-3.2-3.6-6.2-5.2-8.9c-3.3-5.3-6.1-9.3-7.9-12.1
			c-0.5-0.8-0.9-1.4-1.3-2c0.5-3,2.2-17.6-12.9-35.5c-9.6-11.4-37.5-19.7-37.5-19.7s9.6,27.4,20.3,39.1
			c15.2,16.5,29.9,16.7,29.9,16.7s0-0.2,0.1-0.5c0.3,0.6,0.7,1.2,1.2,1.9c1.7,2.8,4.4,6.9,7.6,12.3c1.5,2.7,3.2,5.7,5,9
			c0.9,1.6,1.9,3.3,2.8,5.1c0.9,1.8,1.8,3.7,2.8,5.6c3.9,7.7,7.8,16.6,11.7,26.5c3.7,9.9,7.4,20.8,10.3,32.6c0.7,2.9,1.4,5.9,2.2,9
			c0.6,3.1,1.2,6.1,1.7,9.3c1.3,6.2,1.9,12.7,2.8,19.2c1.2,13.1,2,26.8,1.1,40.6c-0.8,13.8-2.3,27.8-5.3,41.5
			c-2.9,13.7-6.7,27.3-11.5,40.2c-4.9,12.9-10.4,25.3-16.5,36.9c-6.3,11.5-12.9,22.4-19.8,32.2c-6.9,9.8-13.9,18.8-20.9,26.6
			c-1.7,2-3.4,3.9-5.1,5.8c-1.7,1.8-3.4,3.6-5.1,5.3c-3.2,3.5-6.5,6.6-9.6,9.6c-3,3-6,5.6-8.8,8c-2.7,2.5-5.3,4.6-7.6,6.5
			c-2.4,1.9-4.4,3.6-6.3,5.1c-1.9,1.5-3.6,2.7-4.9,3.7c-2.7,2-4.1,3.1-4.1,3.1l7.1,9.1c0,0,1.4-1.1,4-3.2c1.3-1,2.9-2.3,4.8-3.8
			c1.9-1.5,4-3.4,6.4-5.5c2.4-2.1,5.1-4.4,7.8-7c2.8-2.6,5.8-5.4,8.9-8.5c3.1-3.1,6.4-6.4,9.7-10.1
			C1163.3,439.5,1165,437.6,1166.7,435.7z"/>
		<path class="st3" d="M1254,113.6c2.1-14.7-10.1-41.1-10.1-41.1s-14.2,25.4-15.8,41.1c-2.3,22.3,7.4,33.5,7.4,33.5
			S1250.2,139.5,1254,113.6z"/>
		<path class="st3" d="M1210.7,98.4c0,0,13.2-10.1,12.3-36.2c-0.5-14.9-17.3-38.7-17.3-38.7s-9.4,27.5-8.2,43.3
			C1199.2,89.1,1210.7,98.4,1210.7,98.4z"/>
		<path class="st3" d="M1172.6,78.8c-13.7-5.9-42.3-0.9-42.3-0.9s20.8,20.3,35.6,26c20.9,8,34.2,1.6,34.2,1.6
			S1196.7,89.2,1172.6,78.8z"/>
		<path class="st3" d="M1194.8,123.5c-13-7.2-42-5.2-42-5.2s18.7,22.3,32.8,29.4c20,10.1,33.9,5,33.9,5S1217.7,136.2,1194.8,123.5z"
			/>
		<path class="st3" d="M1210.9,169c-12.3-8.3-41.4-8.7-41.4-8.7s16.7,23.8,30.2,32.1c19.1,11.8,33.4,7.9,33.4,7.9
			S1232.7,183.7,1210.9,169z"/>
		<path class="st3" d="M1232.4,252.9c0,0,3.4-16.2-14.4-35.4c-10.1-10.9-38.3-18-38.3-18s10.9,27,22.1,38.1
			C1217.6,253.4,1232.4,252.9,1232.4,252.9z"/>
		<path class="st3" d="M1217.4,266.2c-8.1-12.5-34.7-24.2-34.7-24.2s6.1,28.4,15.3,41.3c13,18.3,27.6,20.3,27.6,20.3
			S1231.6,288.2,1217.4,266.2z"/>
		<path class="st3" d="M1206.3,353.6c0,0,8.8-14-1.1-38.2c-5.7-13.8-29.6-30.3-29.6-30.3s0.7,29.1,7.3,43.5
			C1192.3,349,1206.3,353.6,1206.3,353.6z"/>
		<path class="st3" d="M1161.1,326.9c0,0-3.5,28.9,1,44.1c6.3,21.5,19.6,28.1,19.6,28.1s10.8-12.6,4.4-38
			C1182.4,346.6,1161.1,326.9,1161.1,326.9z"/>
		<path class="st3" d="M1130,405.1c2.1,22.3,13.9,31.3,13.9,31.3s12.9-10.3,11.5-36.5c-0.8-14.9-18.1-38.3-18.1-38.3
			S1128.5,389.4,1130,405.1z"/>
		<path class="st3" d="M1249.1,201.2c0,0,16.9-4.9,26-31.1c5.2-14.9-2.2-44.8-2.2-44.8s-19.9,23.6-24.7,39.6
			C1241.2,187.7,1249.1,201.2,1249.1,201.2z"/>
		<path class="st3" d="M1259.1,217.8c-11.4,20.9-6.4,35.8-6.4,35.8s17.5-1.4,31.8-25.2c8.1-13.5,6.9-44.4,6.9-44.4
			S1267.2,203,1259.1,217.8z"/>
		<path class="st3" d="M1257.9,275.1c-16.2,18.9-14.3,35.2-14.3,35.2s18.2,2.4,37.9-18.9c11.2-12.1,16.7-43.9,16.7-43.9
			S1269.3,261.8,1257.9,275.1z"/>
		<path class="st3" d="M1223.1,365c0,0,17.8,6.9,42.9-9.7c14.3-9.4,27.6-40.2,27.6-40.2s-32.7,7.3-47.5,17.9
			C1225.3,348.1,1223.1,365,1223.1,365z"/>
		<path class="st3" d="M1193.2,411.6c0,0,16,10.5,44-0.5c16-6.2,35.4-33.5,35.4-33.5s-33.5,0.3-50.2,7.6
			C1198.8,395.5,1193.2,411.6,1193.2,411.6z"/>
		<path class="st3" d="M1192.7,433.3c-27,4.1-37.1,19-37.1,19s13.5,15,45.2,11.5c18-2,45.3-24.6,45.3-24.6
			S1211.7,430.4,1192.7,433.3z"/>
	</g>
</g>
</svg>
