<?xml version="1.0" encoding="UTF-8"?>
<svg id="Layer_1" data-name="Layer 1" xmlns="http://www.w3.org/2000/svg" viewBox="0 0 1384.86 130.49">
  <defs>
    <style>
      .cls-1 {
        fill: #00aeef;
      }

      .cls-2 {
        fill: #fff;
      }

      .cls-3 {
        fill: #283895;
      }
    </style>
  </defs>
  <g>
    <g>
      <path class="cls-3" d="M745.22,78.75c0-18.16-9.89-27.4-24.81-27.4s-25.46,9.41-25.46,28.54v49.13h-14.76V40.16h14.76v12.65c5.84-9.24,16.54-14.27,28.54-14.27,20.59,0,36.32,12.65,36.32,38.11v52.38h-14.59v-50.27h0Z"/>
      <path class="cls-3" d="M861,78.75c0-18.16-9.89-27.4-24.81-27.4s-25.46,9.41-25.46,28.54v49.13h-14.76V40.16h14.76v12.65c5.84-9.24,16.54-14.27,28.54-14.27,20.59,0,36.32,12.65,36.32,38.11v52.38h-14.59v-50.27h0Z"/>
      <path class="cls-3" d="M950.19,130.48c-25.3,0-43.94-17.84-43.94-46.05s18-45.73,43.94-45.73,42.65,18.16,42.65,42.48c0,3.24-.16,5.84-.49,8.92h-71.02c1.14,18,13.78,27.89,28.86,27.89,13.3,0,21.73-6.81,24.97-16.38h15.89c-4.54,16.22-18.81,28.86-40.86,28.86h0Zm-28.7-52.37h56.11c.16-17.35-12.81-26.92-28.05-26.92-14.43,0-26.43,9.57-28.05,26.92h-.01Z"/>
      <path class="cls-3" d="M1062.07,38.7c22.05,0,36.48,11.35,41.03,30h-15.89c-3.08-10.7-12-17.51-25.13-17.51-16.22,0-28.22,11.51-28.22,33.24s12,33.57,28.22,33.57c13.13,0,21.89-6.32,25.13-17.51h15.89c-4.54,17.68-18.97,30-41.03,30-25.3,0-43.3-17.84-43.3-46.05s18-45.73,43.3-45.73h0Z"/>
      <path class="cls-3" d="M1137.96,52.32h-11.51v-12.16h11.51V17.78h14.76v22.38h23.19v12.16h-23.19v52.38c0,8.76,3.24,11.84,12.32,11.84h10.86v12.49h-13.3c-15.73,0-24.65-6.49-24.65-24.32V52.33h.01Z"/>
    </g>
    <g>
      <path class="cls-1" d="M547.03,97.78l39.91-39.91c6.53-6.53,15.21-10.13,24.45-10.13s17.92,3.6,24.45,10.13c13.48,13.48,13.48,35.42,0,48.9s-35.42,13.48-48.9,0c-2.38-2.38-4,.75-6.39,3.13-2.38,2.38-4.63,3.11-2.24,5.5,9.12,9.12,21.1,13.68,33.08,13.68s23.96-4.56,33.08-13.68c18.24-18.24,18.24-47.92,0-66.16-18.24-18.24-47.92-18.24-66.16,0l-39.91,39.91"/>
      <path class="cls-1" d="M563.11,49.25c-8.84-8.84-20.58-13.7-33.08-13.7s-24.24,4.87-33.08,13.7c-8.84,8.84-13.7,20.58-13.7,33.08s4.87,24.24,13.7,33.08c9.12,9.12,21.1,13.68,33.08,13.68s23.96-4.56,33.08-13.68l39.91-39.91c2.38-2.38,.47-4.54-1.91-6.92-2.38-2.38-4.34-4.09-6.72-1.71l-39.91,39.91c-13.48,13.48-35.42,13.48-48.9,0-6.53-6.53-10.13-15.21-10.13-24.45s3.6-17.92,10.13-24.45,15.21-10.13,24.45-10.13,17.92,3.6,24.45,10.13"/>
    </g>
    <g>
      <path class="cls-3" d="M36.32,124.85C15.56,124.85,.97,113.5,0,97.28H15.24c.81,8.59,8.43,15.08,20.92,15.08,11.68,0,18.16-5.84,18.16-13.13,0-19.78-52.54-8.27-52.54-41.35,0-13.62,12.81-24.81,32.59-24.81s32.59,10.54,33.57,27.89h-14.76c-.65-8.92-7.46-15.4-19.3-15.4-10.86,0-17.35,5.19-17.35,12.32,0,21.08,51.57,9.57,52.21,41.35,0,14.59-12.81,25.62-32.43,25.62h.01Z"/>
      <path class="cls-3" d="M229.77,73.12c0-18.16-9.73-27.4-24.32-27.4s-25.13,9.57-25.13,28.7v48.97h-14.59v-50.27c0-18.16-9.73-27.4-24.32-27.4s-25.13,9.57-25.13,28.7v48.97h-14.76V34.53h14.76v12.81c5.84-9.4,16.38-14.43,28.05-14.43,14.59,0,26.76,6.49,32.59,19.78,5.19-12.81,17.84-19.78,31.46-19.78,20.27,0,36,12.65,36,38.11v52.38h-14.59v-50.27h-.02Z"/>
      <path class="cls-3" d="M278.09,10.05c0-5.68,4.38-10.05,10.05-10.05,5.35,0,9.73,4.38,9.73,10.05s-4.38,10.05-9.73,10.05c-5.68,0-10.05-4.38-10.05-10.05Zm2.43,24.49h14.76V123.4h-14.76V34.53h0Z"/>
      <path class="cls-3" d="M332.41,3.4h14.76V123.39h-14.76V3.4Z"/>
      <path class="cls-3" d="M422.73,124.85c-25.3,0-43.94-17.84-43.94-46.05s18-45.73,43.94-45.73,42.65,18.16,42.65,42.48c0,3.24-.16,5.84-.49,8.92h-71.02c1.14,18,13.78,27.89,28.86,27.89,13.3,0,21.73-6.81,24.97-16.38h15.89c-4.54,16.22-18.81,28.86-40.86,28.86h0Zm-28.7-52.37h56.11c.16-17.35-12.81-26.92-28.05-26.92-14.43,0-26.43,9.57-28.05,26.92h-.01Z"/>
    </g>
  </g>
  <path class="cls-3" d="M1196.85,35.44c-1.62,0-3.14-.3-4.55-.91s-2.66-1.44-3.73-2.52c-1.07-1.07-1.91-2.32-2.52-3.73-.6-1.41-.91-2.93-.91-4.55s.3-3.14,.91-4.55c.6-1.41,1.44-2.66,2.52-3.73,1.07-1.07,2.32-1.91,3.73-2.52,1.41-.6,2.93-.91,4.55-.91s3.14,.3,4.55,.91c1.41,.6,2.66,1.44,3.73,2.52s1.91,2.32,2.52,3.73c.6,1.41,.91,2.93,.91,4.55s-.3,3.14-.91,4.55-1.44,2.66-2.52,3.73-2.32,1.91-3.73,2.52c-1.41,.6-2.93,.91-4.55,.91Zm0-2.81c1.64,0,3.13-.4,4.48-1.2s2.42-1.87,3.22-3.22,1.2-2.84,1.2-4.48-.4-3.13-1.2-4.48-1.87-2.42-3.22-3.22c-1.35-.8-2.84-1.2-4.48-1.2s-3.13,.4-4.48,1.2-2.42,1.87-3.22,3.22c-.8,1.35-1.2,2.84-1.2,4.48s.4,3.13,1.2,4.48c.8,1.35,1.87,2.42,3.22,3.22s2.84,1.2,4.48,1.2Zm-4.1-3.63v-10.8h5.47c.44,0,.92,.12,1.43,.37,.52,.25,.96,.63,1.32,1.14,.37,.51,.55,1.16,.55,1.94s-.19,1.46-.57,2.01-.84,.97-1.38,1.25-1.05,.42-1.53,.42h-3.95v-1.76h3.22c.32,0,.67-.16,1.05-.48s.56-.8,.56-1.45-.19-1.11-.56-1.35c-.38-.23-.7-.35-.99-.35h-2.25v9.04h-2.37v.02Zm6.52-5.09l2.69,5.09h-2.6l-2.63-5.09h2.54Z"/>
  <rect class="cls-1" x="1228.86" y="14.83" width="156" height="57.64" rx="12" ry="12"/>
  <g>
    <path class="cls-2" d="M1266.89,58.27h-14.39V30.81h14c5.47,0,9,2.37,9,7.14,0,3.3-1.9,5.55-4.62,6.25,3.37,.81,5.24,3.49,5.24,6.56,0,4.81-3.26,7.52-9.23,7.52Zm-2.44-20.63h-3.33v3.88h3.33c1.55,0,2.29-.58,2.29-1.9s-.74-1.98-2.29-1.98Zm.58,9.85h-3.92v3.88h3.92c1.55,0,2.29-.54,2.29-1.9s-.74-1.98-2.29-1.98Z"/>
    <path class="cls-2" d="M1301.22,37.67h-9.7v3.38h8.53v6.48h-8.53v3.88h9.7v6.87h-18.31V30.81h18.31v6.87Z"/>
    <path class="cls-2" d="M1306.8,30.81h23.12v6.83h-7.29v20.63h-8.61v-20.63h-7.21v-6.83Z"/>
    <path class="cls-2" d="M1353.73,54.12h-9.15l-1.36,4.15h-9.04l10.05-27.46h9.93l10.01,27.46h-9.08l-1.36-4.15Zm-4.58-14.12l-2.48,7.64h4.96l-2.48-7.64Z"/>
  </g>
</svg>