<svg width="240" height="33" viewBox="0 0 240 33" fill="none" xmlns="http://www.w3.org/2000/svg">
<path d="M106.566 22.2967L115.043 13.7703C116.435 12.3707 118.265 11.5973 120.243 11.5973C122.22 11.5973 124.051 12.3707 125.442 13.7703C128.299 16.6431 128.299 21.3391 125.442 24.2119C122.586 27.0848 117.918 27.0848 115.061 24.2119C112.205 21.3391 112.695 22.7978 112.183 23.3135C111.67 23.8291 111.29 24.1199 113.231 26.0719C115.171 28.024 117.716 29 120.261 29C122.806 29 125.351 28.024 127.292 26.0719C131.173 22.1678 131.173 15.8328 127.292 11.9471C123.41 8.06146 117.112 8.04304 113.249 11.9471L104.772 20.4736" fill="url(#paint0_linear_141_41)"/>
<path d="M109.972 11.9281C108.086 10.0313 105.596 9 102.941 9C100.287 9 97.7968 10.0313 95.911 11.9281C94.0252 13.8249 93 16.3294 93 18.9997C93 21.6699 94.0252 24.1745 95.911 26.0713C97.8517 28.0233 100.397 28.9993 102.941 28.9993C105.486 28.9993 108.031 28.0233 109.972 26.0713L118.449 17.5448C118.961 17.0292 118.54 16.5688 118.046 16.0716C117.533 15.556 117.131 15.2061 116.618 15.7033L108.141 24.2297C105.285 27.1025 100.616 27.1025 97.7602 24.2297C96.3687 22.8301 95.5998 20.9886 95.5998 18.9997C95.5998 17.0108 96.3687 15.1692 97.7602 13.7696C99.1516 12.3701 100.982 11.5966 102.96 11.5966C104.937 11.5966 106.768 12.3701 108.159 13.7696" fill="url(#paint1_linear_141_41)"/>
<path d="M14.5046 14.9801C13.7837 15.1044 13.3736 14.8185 12.9634 14.1971C12.3668 13.3146 11.3352 12.6062 9.62003 12.6062C7.5071 12.6062 5.91619 13.6502 5.92862 15.1168C5.91619 16.4094 6.82351 17.1179 8.92401 17.6151L11.9567 18.3111C15.4616 19.119 17.1768 20.7844 17.1768 23.4815C17.1768 26.9368 13.9826 29.3853 9.37145 29.3853C5.65518 29.3853 3.0451 27.956 2.01349 25.3707C1.70277 24.5877 2.13778 24.0284 2.97053 23.9041L4.13885 23.7301C4.87216 23.6183 5.26989 23.929 5.64276 24.6001C6.31392 25.7809 7.58168 26.3899 9.34659 26.3899C11.7827 26.3899 13.3612 25.234 13.3612 23.755C13.3612 22.5618 12.5036 21.7415 10.6641 21.3313L7.43253 20.6229C3.85298 19.8274 2.21236 18.0252 2.21236 15.3157C2.21236 11.935 5.26989 9.66051 9.58274 9.66051C13.0877 9.66051 15.2876 11.0526 16.3441 13.3022C16.717 14.0852 16.3068 14.657 15.4616 14.8061L14.5046 14.9801ZM22.3129 11.152C22.3129 10.3441 22.7479 9.90909 23.5558 9.90909H24.6371C25.445 9.90909 25.88 10.3441 25.88 11.152V13.0163H26.1161C26.9116 10.9158 28.7884 9.66051 31.3115 9.66051C33.8594 9.66051 35.6119 10.9283 36.4446 13.0163H36.6435C37.5632 10.978 39.6264 9.66051 42.3732 9.66051C45.8285 9.66051 48.2646 11.8356 48.2646 16.1982V27.7571C48.2646 28.565 47.8296 29 47.0217 29H45.7912C44.9833 29 44.5483 28.565 44.5483 27.7571V16.5462C44.5483 13.9609 42.9325 12.8672 40.9688 12.8672C38.5451 12.8672 37.1406 14.5327 37.1406 16.832V27.7571C37.1406 28.565 36.7056 29 35.8977 29H34.6797C33.8718 29 33.4368 28.565 33.4368 27.7571V16.31C33.4368 14.2344 32.0075 12.8672 29.9443 12.8672C27.8313 12.8672 26.0291 14.657 26.0291 17.2298V27.7571C26.0291 28.565 25.5941 29 24.7862 29H23.5558C22.7479 29 22.3129 28.565 22.3129 27.7571V11.152ZM56.1723 6.96342C54.8797 6.96342 53.8232 5.96911 53.8232 4.75106C53.8232 3.53302 54.8797 2.52628 56.1723 2.52628C57.4524 2.52628 58.5213 3.53302 58.5213 4.75106C58.5213 5.96911 57.4524 6.96342 56.1723 6.96342ZM54.2955 27.7571V11.152C54.2955 10.3441 54.7305 9.90909 55.5384 9.90909H56.7689C57.5767 9.90909 58.0118 10.3441 58.0118 11.152V27.7571C58.0118 28.565 57.5767 29 56.7689 29H55.5384C54.7305 29 54.2955 28.565 54.2955 27.7571ZM67.7776 27.7571C67.7776 28.565 67.3426 29 66.5347 29H65.3042C64.4963 29 64.0613 28.565 64.0613 27.7571V4.78835C64.0613 3.98047 64.4963 3.54545 65.3042 3.54545H66.5347C67.3426 3.54545 67.7776 3.98047 67.7776 4.78835V27.7571ZM82.0551 29.3853C76.4248 29.3853 72.9695 25.5075 72.9695 19.5788C72.9695 13.7124 76.4745 9.66051 81.7941 9.66051C86.1194 9.66051 90.2458 12.3576 90.2458 19.2557V19.3303C90.2458 20.1381 89.8108 20.5732 89.0029 20.5732H76.6734C76.7728 24.2521 78.9106 26.3153 82.0924 26.3153C83.7952 26.3153 85.1748 25.7188 85.9951 24.5504C86.4177 23.929 86.8403 23.6431 87.5611 23.7798L88.6549 23.9787C89.5001 24.1403 89.9227 24.625 89.6368 25.2589C88.4685 27.782 85.7341 29.3853 82.0551 29.3853ZM76.6858 17.7891H86.6041C86.5917 14.8683 84.7025 12.7305 81.819 12.7305C78.7987 12.7305 76.8349 15.0795 76.6858 17.7891Z" fill="white"/>
<path d="M137.214 27.7571C137.214 28.565 136.779 29 135.972 29H134.741C133.933 29 133.498 28.565 133.498 27.7571V11.152C133.498 10.3441 133.933 9.90909 134.741 9.90909H135.822C136.63 9.90909 137.065 10.3441 137.065 11.152V13.0163H137.301C138.184 10.9904 140.061 9.66051 142.932 9.66051C146.835 9.66051 149.432 12.1339 149.432 16.8569V27.7571C149.432 28.565 148.997 29 148.189 29H146.959C146.151 29 145.716 28.565 145.716 27.7571V17.3043C145.716 14.5327 144.187 12.8796 141.664 12.8796C139.079 12.8796 137.214 14.6197 137.214 17.6648V27.7571ZM159.182 27.7571C159.182 28.565 158.747 29 157.94 29H156.709C155.901 29 155.466 28.565 155.466 27.7571V11.152C155.466 10.3441 155.901 9.90909 156.709 9.90909H157.79C158.598 9.90909 159.033 10.3441 159.033 11.152V13.0163H159.269C160.152 10.9904 162.029 9.66051 164.9 9.66051C168.802 9.66051 171.4 12.1339 171.4 16.8569V27.7571C171.4 28.565 170.965 29 170.157 29H168.927C168.119 29 167.684 28.565 167.684 27.7571V17.3043C167.684 14.5327 166.155 12.8796 163.632 12.8796C161.047 12.8796 159.182 14.6197 159.182 17.6648V27.7571ZM185.662 29.3853C180.032 29.3853 176.577 25.5075 176.577 19.5788C176.577 13.7124 180.082 9.66051 185.401 9.66051C189.726 9.66051 193.853 12.3576 193.853 19.2557V19.3303C193.853 20.1381 193.418 20.5732 192.61 20.5732H180.28C180.38 24.2521 182.518 26.3153 185.699 26.3153C187.402 26.3153 188.782 25.7188 189.602 24.5504C190.025 23.929 190.447 23.6431 191.168 23.7798L192.262 23.9787C193.107 24.1403 193.53 24.625 193.244 25.2589C192.075 27.782 189.341 29.3853 185.662 29.3853ZM180.293 17.7891H190.211C190.199 14.8683 188.31 12.7305 185.426 12.7305C182.406 12.7305 180.442 15.0795 180.293 17.7891ZM207.068 29.3853C201.524 29.3853 198.169 25.2962 198.169 19.5415C198.169 13.7124 201.649 9.66051 207.03 9.66051C210.834 9.66051 213.73 11.6367 214.649 14.7191C214.886 15.5518 214.388 16.0739 213.531 16.0739H212.362C211.642 16.0739 211.256 15.7383 210.946 15.0671C210.299 13.7621 208.994 12.7926 207.093 12.7926C203.985 12.7926 201.922 15.3654 201.922 19.4545C201.922 23.6183 203.948 26.2408 207.093 26.2408C208.845 26.2408 210.237 25.4205 210.946 23.9663C211.256 23.3075 211.642 22.9595 212.362 22.9595H213.531C214.388 22.9595 214.886 23.3945 214.687 24.1154C213.854 27.2227 211.095 29.3853 207.068 29.3853ZM228.846 11.6491C228.846 12.457 228.411 12.892 227.603 12.892H224.931V23.3945C224.931 25.5447 226.012 25.9425 227.218 25.9425H227.342C228.125 25.9176 228.61 26.1786 228.772 26.9492L228.933 27.6577C229.107 28.4283 228.809 29.0249 228.013 29.1491C227.665 29.1989 227.255 29.2486 226.783 29.2486C223.85 29.3107 221.202 27.6328 221.215 24.1651V12.892H219.661C218.853 12.892 218.418 12.457 218.418 11.6491V11.152C218.418 10.3441 218.853 9.90909 219.661 9.90909H221.215V6.57812C221.215 5.77024 221.65 5.33523 222.458 5.33523H223.688C224.496 5.33523 224.931 5.77024 224.931 6.57812V9.90909H227.603C228.411 9.90909 228.846 10.3441 228.846 11.152V11.6491Z" fill="white"/>
<path d="M232 9C231.72 9 231.465 8.94839 231.223 8.84516C230.981 8.74194 230.764 8.6 230.586 8.41935C230.408 8.23871 230.255 8.01935 230.153 7.77419C230.051 7.52903 230 7.27097 230 7C230 6.72903 230.051 6.45806 230.153 6.22581C230.255 5.99355 230.395 5.77419 230.586 5.58065C230.764 5.4 230.981 5.25806 231.223 5.15484C231.465 5.05161 231.72 5 232 5C232.28 5 232.535 5.05161 232.777 5.15484C233.019 5.25806 233.236 5.4 233.414 5.58065C233.592 5.76129 233.745 5.98065 233.847 6.22581C233.949 6.47097 234 6.72903 234 7C234 7.27097 233.949 7.54194 233.847 7.77419C233.745 8.01935 233.605 8.22581 233.414 8.41935C233.236 8.6 233.019 8.74194 232.777 8.84516C232.535 8.94839 232.28 9 232 9ZM232 8.48387C232.268 8.48387 232.522 8.41935 232.752 8.27742C232.981 8.14839 233.159 7.96774 233.287 7.73548C233.427 7.51613 233.49 7.25806 233.49 6.9871C233.49 6.71613 233.427 6.45806 233.287 6.23871C233.159 6.00645 232.968 5.83871 232.752 5.69677C232.522 5.56774 232.28 5.49032 232 5.49032C231.72 5.49032 231.478 5.55484 231.248 5.69677C231.019 5.82581 230.841 6.00645 230.713 6.23871C230.573 6.45806 230.51 6.71613 230.51 6.9871C230.51 7.25806 230.573 7.51613 230.713 7.73548C230.854 7.96774 231.032 8.13548 231.248 8.27742C231.478 8.40645 231.72 8.48387 232 8.48387ZM231.287 7.90323V6.05806H232.204C232.306 6.05806 232.408 6.08387 232.497 6.12258C232.586 6.16129 232.662 6.23871 232.726 6.32903C232.79 6.41935 232.815 6.53548 232.815 6.66452C232.815 6.79355 232.79 6.90968 232.726 7C232.662 7.09032 232.586 7.16774 232.484 7.20645C232.382 7.24516 232.28 7.28387 232.178 7.28387H231.541V6.94839H232.064C232.127 6.94839 232.191 6.92258 232.242 6.87097C232.293 6.81936 232.318 6.75484 232.318 6.65161C232.318 6.54839 232.293 6.48387 232.242 6.44516C232.191 6.40645 232.127 6.38065 232.064 6.38065H231.732V7.89032H231.274L231.287 7.90323ZM232.446 7.03871L232.879 7.90323H232.382L231.975 7.03871H232.459H232.446Z" fill="white"/>
<defs>
<linearGradient id="paint0_linear_141_41" x1="117.487" y1="9.02597" x2="117.487" y2="29" gradientUnits="userSpaceOnUse">
<stop stop-color="#00FFE6"/>
<stop offset="1" stop-color="#08BDFF"/>
</linearGradient>
<linearGradient id="paint1_linear_141_41" x1="105.841" y1="9" x2="105.841" y2="28.9993" gradientUnits="userSpaceOnUse">
<stop stop-color="#00FFE6"/>
<stop offset="1" stop-color="#08BDFF"/>
</linearGradient>
</defs>
</svg>
